<svg width="15" height="16" viewBox="0 0 15 16" fill="none" xmlns="http://www.w3.org/2000/svg">
<path fill-rule="evenodd" clip-rule="evenodd" d="M3.73077 6.94694e-08H11.27C12.0523 6.94694e-08 12.5908 6.65339e-08 13.0438 0.15181C13.4672 0.296683 13.8503 0.533967 14.1636 0.84525C14.4768 1.15653 14.7117 1.53345 14.85 1.94675C15.0008 2.39101 15 2.91937 15 3.70298V14.2315C15 15.3224 13.6715 15.9713 12.7969 15.1967C12.7689 15.1707 12.7315 15.1562 12.6927 15.1562C12.6539 15.1562 12.6165 15.1707 12.5885 15.1967L12.2162 15.5256C11.5023 16.1581 10.4208 16.1581 9.70692 15.5256C9.57772 15.4089 9.40754 15.344 9.23077 15.344C9.054 15.344 8.88382 15.4089 8.75462 15.5256C8.04077 16.1581 6.95923 16.1581 6.24538 15.5256C6.11618 15.4089 5.946 15.344 5.76923 15.344C5.59246 15.344 5.42228 15.4089 5.29308 15.5256C4.57923 16.1581 3.49769 16.1581 2.78385 15.5256L2.41231 15.1967C2.38421 15.1705 2.34671 15.1558 2.30769 15.1558C2.26867 15.1558 2.23117 15.1705 2.20308 15.1967C1.32846 15.9706 0 15.3224 0 14.2315V3.70373C0 2.91937 -4.58497e-08 2.39101 0.15 1.94675C0.288316 1.53345 0.5232 1.15653 0.836429 0.84525C1.14966 0.533967 1.53281 0.296683 1.95615 0.15181C2.41 -0.000744104 2.94846 6.94694e-08 3.73077 6.94694e-08ZM3.84231 1.11625C2.90308 1.11625 2.57923 1.12369 2.33462 1.2063C2.07914 1.29491 1.84817 1.43919 1.65956 1.62797C1.47095 1.81676 1.32976 2.04499 1.24692 2.29502C1.16154 2.54655 1.15462 2.87844 1.15462 3.81014V14.2315C1.15462 14.3208 1.2 14.3744 1.25769 14.4004C1.28402 14.4125 1.31336 14.4172 1.34231 14.4138C1.37344 14.4087 1.40217 14.3944 1.42462 14.3729C1.66532 14.1585 1.98053 14.0395 2.30769 14.0395C2.63486 14.0395 2.95007 14.1585 3.19077 14.3729L3.56231 14.7018C3.69151 14.8185 3.86169 14.8834 4.03846 14.8834C4.21523 14.8834 4.38541 14.8185 4.51462 14.7018C4.85649 14.3971 5.30436 14.2279 5.76923 14.2279C6.2341 14.2279 6.68197 14.3971 7.02385 14.7018C7.15305 14.8185 7.32323 14.8834 7.5 14.8834C7.67677 14.8834 7.84695 14.8185 7.97615 14.7018C8.31803 14.3971 8.7659 14.2279 9.23077 14.2279C9.69564 14.2279 10.1435 14.3971 10.4854 14.7018C10.6146 14.8185 10.7848 14.8834 10.9615 14.8834C11.1383 14.8834 11.3085 14.8185 11.4377 14.7018L11.8092 14.3729C12.0499 14.1585 12.3651 14.0395 12.6923 14.0395C13.0195 14.0395 13.3347 14.1585 13.5754 14.3729C13.6085 14.4026 13.6369 14.4116 13.6585 14.4138C13.6872 14.417 13.7162 14.4124 13.7423 14.4004C13.8 14.3744 13.8462 14.32 13.8462 14.2315V3.81014C13.8462 2.87844 13.8385 2.54655 13.7538 2.29427C13.6707 2.04423 13.5293 1.81605 13.3404 1.62738C13.1515 1.43872 12.9203 1.29464 12.6646 1.2063C12.4208 1.12444 12.0969 1.117 11.1577 1.117L3.84231 1.11625ZM3.07769 4.65105C3.07769 4.50303 3.13847 4.36107 3.24667 4.2564C3.35486 4.15173 3.50161 4.09293 3.65462 4.09293H4.03923C4.19224 4.09293 4.33898 4.15173 4.44718 4.2564C4.55537 4.36107 4.61615 4.50303 4.61615 4.65105C4.61615 4.79908 4.55537 4.94104 4.44718 5.04571C4.33898 5.15038 4.19224 5.20918 4.03923 5.20918H3.65462C3.50161 5.20918 3.35486 5.15038 3.24667 5.04571C3.13847 4.94104 3.07769 4.79908 3.07769 4.65105ZM5.77 4.65105C5.77 4.50303 5.83078 4.36107 5.93898 4.2564C6.04717 4.15173 6.19391 4.09293 6.34692 4.09293H11.3469C11.4999 4.09293 11.6467 4.15173 11.7549 4.2564C11.8631 4.36107 11.9238 4.50303 11.9238 4.65105C11.9238 4.79908 11.8631 4.94104 11.7549 5.04571C11.6467 5.15038 11.4999 5.20918 11.3469 5.20918H6.34692C6.19391 5.20918 6.04717 5.15038 5.93898 5.04571C5.83078 4.94104 5.77 4.79908 5.77 4.65105ZM3.07769 7.25564C3.07769 7.10762 3.13847 6.96566 3.24667 6.86099C3.35486 6.75632 3.50161 6.69752 3.65462 6.69752H4.03923C4.19224 6.69752 4.33898 6.75632 4.44718 6.86099C4.55537 6.96566 4.61615 7.10762 4.61615 7.25564C4.61615 7.40367 4.55537 7.54563 4.44718 7.6503C4.33898 7.75497 4.19224 7.81377 4.03923 7.81377H3.65462C3.50161 7.81377 3.35486 7.75497 3.24667 7.6503C3.13847 7.54563 3.07769 7.40367 3.07769 7.25564ZM5.77 7.25564C5.77 7.10762 5.83078 6.96566 5.93898 6.86099C6.04717 6.75632 6.19391 6.69752 6.34692 6.69752H11.3469C11.4999 6.69752 11.6467 6.75632 11.7549 6.86099C11.8631 6.96566 11.9238 7.10762 11.9238 7.25564C11.9238 7.40367 11.8631 7.54563 11.7549 7.6503C11.6467 7.75497 11.4999 7.81377 11.3469 7.81377H6.34692C6.19391 7.81377 6.04717 7.75497 5.93898 7.6503C5.83078 7.54563 5.77 7.40367 5.77 7.25564ZM3.07769 9.86024C3.07769 9.71221 3.13847 9.57025 3.24667 9.46558C3.35486 9.36091 3.50161 9.30211 3.65462 9.30211H4.03923C4.19224 9.30211 4.33898 9.36091 4.44718 9.46558C4.55537 9.57025 4.61615 9.71221 4.61615 9.86024C4.61615 10.0083 4.55537 10.1502 4.44718 10.2549C4.33898 10.3596 4.19224 10.4184 4.03923 10.4184H3.65462C3.50161 10.4184 3.35486 10.3596 3.24667 10.2549C3.13847 10.1502 3.07769 10.0083 3.07769 9.86024ZM5.77 9.86024C5.77 9.71221 5.83078 9.57025 5.93898 9.46558C6.04717 9.36091 6.19391 9.30211 6.34692 9.30211H11.3469C11.4999 9.30211 11.6467 9.36091 11.7549 9.46558C11.8631 9.57025 11.9238 9.71221 11.9238 9.86024C11.9238 10.0083 11.8631 10.1502 11.7549 10.2549C11.6467 10.3596 11.4999 10.4184 11.3469 10.4184H6.34692C6.19391 10.4184 6.04717 10.3596 5.93898 10.2549C5.83078 10.1502 5.77 10.0083 5.77 9.86024Z" fill="#145173"/>
</svg>
