<svg width="15" height="15" viewBox="0 0 15 15" fill="none" xmlns="http://www.w3.org/2000/svg">
<path d="M11 14.5V1.55C11 1.27152 10.8894 1.00445 10.6925 0.807538C10.4955 0.610625 10.2285 0.5 9.95 0.5H1.55C1.27152 0.5 1.00445 0.610625 0.807538 0.807538C0.610625 1.00445 0.5 1.27152 0.5 1.55V13.45C0.5 13.7285 0.610625 13.9955 0.807538 14.1925C1.00445 14.3894 1.27152 14.5 1.55 14.5H11ZM11 14.5H12.75C13.0285 14.5 13.2955 14.3894 13.4925 14.1925C13.6894 13.9955 13.8 13.7285 13.8 13.45V7.5C13.8 7.31435 13.7263 7.1363 13.595 7.00503C13.4637 6.87375 13.2857 6.8 13.1 6.8H11.7C11.5143 6.8 11.3363 6.87375 11.205 7.00503C11.0737 7.1363 11 7.31435 11 7.5V14.5Z" stroke="#145173" stroke-linejoin="round"/>
<path d="M2.59961 3.30078H5.39961M2.59961 5.75078H6.79961" stroke="#145173" stroke-linecap="round" stroke-linejoin="round"/>
</svg>
