<svg width="17" height="13" viewBox="0 0 17 13" fill="none" xmlns="http://www.w3.org/2000/svg">
<path d="M16.1338 4.37667C16.3781 4.32307 16.5978 4.18008 16.7557 3.97189C16.9135 3.7637 16.9998 3.50309 17 3.23417V1.16667C17 0.857248 16.886 0.560501 16.6831 0.341709C16.4803 0.122916 16.2051 0 15.9182 0H1.08182C0.794902 0 0.519738 0.122916 0.316857 0.341709C0.113977 0.560501 0 0.857248 0 1.16667V3.23417C0.000163525 3.50309 0.0864714 3.7637 0.244319 3.97189C0.402167 4.18008 0.621861 4.32307 0.866227 4.37667C1.32207 4.47449 1.73237 4.73974 2.02721 5.12722C2.32205 5.51469 2.4832 6.00043 2.4832 6.50167C2.4832 7.00291 2.32205 7.48864 2.02721 7.87612C1.73237 8.26359 1.32207 8.52884 0.866227 8.62667C0.62238 8.68015 0.403083 8.82265 0.245294 9.03015C0.087506 9.23766 0.000874446 9.49748 0 9.76583V11.8333C0 12.1428 0.113977 12.4395 0.316857 12.6583C0.519738 12.8771 0.794902 13 1.08182 13H15.9182C16.2051 13 16.4803 12.8771 16.6831 12.6583C16.886 12.4395 17 12.1428 17 11.8333V9.76583C16.9998 9.49691 16.9135 9.2363 16.7557 9.02811C16.5978 8.81992 16.3781 8.67693 16.1338 8.62333C15.6779 8.52551 15.2676 8.26026 14.9728 7.87278C14.6779 7.48531 14.5168 6.99957 14.5168 6.49833C14.5168 5.9971 14.6779 5.51136 14.9728 5.12388C15.2676 4.73641 15.6779 4.47116 16.1338 4.37333V4.37667ZM0.927273 11.8333V9.76583C0.927406 9.72767 0.939679 9.69071 0.962042 9.66114C0.984404 9.63156 1.0155 9.61116 1.05014 9.60333C1.71392 9.45798 2.3107 9.06961 2.73935 8.50403C3.16801 7.93846 3.40217 7.23046 3.40217 6.5C3.40217 5.76954 3.16801 5.06154 2.73935 4.49597C2.3107 3.9304 1.71392 3.54203 1.05014 3.39667C1.01485 3.3887 0.983247 3.36769 0.960809 3.33725C0.938372 3.30681 0.926509 3.26887 0.927273 3.23V1.16667C0.927273 1.12246 0.943555 1.08007 0.972538 1.04882C1.00152 1.01756 1.04083 1 1.08182 1H5.56364V12H1.08182C1.04083 12 1.00152 11.9824 0.972538 11.9512C0.943555 11.9199 0.927273 11.8775 0.927273 11.8333ZM15.9499 9.60333C15.9845 9.61116 16.0156 9.63156 16.038 9.66114C16.0603 9.69071 16.0726 9.72767 16.0727 9.76583V11.8333C16.0727 11.8775 16.0564 11.9199 16.0275 11.9512C15.9985 11.9824 15.9592 12 15.9182 12H6.49091V1H15.9182C15.9592 1 15.9985 1.01756 16.0275 1.04882C16.0564 1.08007 16.0727 1.12246 16.0727 1.16667V3.23417C16.0735 3.27304 16.0616 3.31098 16.0392 3.34142C16.0168 3.37185 15.9852 3.39287 15.9499 3.40083C15.2861 3.54619 14.6893 3.93456 14.2606 4.50014C13.832 5.06571 13.5978 5.77371 13.5978 6.50417C13.5978 7.23463 13.832 7.94262 14.2606 8.5082C14.6893 9.07377 15.2861 9.46214 15.9499 9.6075V9.60333Z" fill="#0A496D"/>
</svg>
