<svg width="15" height="15" viewBox="0 0 15 15" fill="none" xmlns="http://www.w3.org/2000/svg">
<path opacity="0.996" fill-rule="evenodd" clip-rule="evenodd" d="M1.43555 0C5.47852 0 9.52148 0 13.5645 0C14.3262 0.195313 14.8047 0.673828 15 1.43555C15 5.47852 15 9.52148 15 13.5645C14.8047 14.3262 14.3262 14.8047 13.5645 15C9.52148 15 5.47852 15 1.43555 15C0.673828 14.8047 0.195313 14.3262 0 13.5645C0 12.6758 0 11.7871 0 10.8984C0.390624 10.8984 0.781251 10.8984 1.17188 10.8984C1.16699 11.6798 1.17188 12.461 1.18652 13.2422C1.21493 13.4995 1.34676 13.6801 1.58203 13.7842C3.5538 13.8181 5.52647 13.8327 7.5 13.8281C9.47353 13.8327 11.4462 13.8181 13.418 13.7842C13.6533 13.6801 13.7851 13.4995 13.8135 13.2422C13.833 9.41405 13.833 5.58595 13.8135 1.75781C13.7851 1.50052 13.6533 1.31985 13.418 1.21582C11.4462 1.18194 9.47353 1.16729 7.5 1.17188C5.52647 1.16729 3.5538 1.18194 1.58203 1.21582C1.34676 1.31985 1.21493 1.50052 1.18652 1.75781C1.17188 2.539 1.16699 3.32024 1.17188 4.10156C0.781251 4.10156 0.390624 4.10156 0 4.10156C0 3.2129 0 2.32422 0 1.43555C0.195313 0.673828 0.673828 0.195313 1.43555 0Z" fill="#09486C"/>
<path opacity="0.978" fill-rule="evenodd" clip-rule="evenodd" d="M0 8.08398C0 7.69337 0 7.30272 0 6.91211C2.79299 6.917 5.58595 6.91211 8.37891 6.89746C7.64118 6.16463 6.90876 5.42734 6.18164 4.68555C6.45507 4.39258 6.73828 4.10937 7.03125 3.83594C8.26172 5.04687 9.48243 6.26758 10.6934 7.49805C9.48243 8.72852 8.26172 9.94923 7.03125 11.1602C6.73828 10.8867 6.45507 10.6035 6.18164 10.3105C6.90876 9.56875 7.64118 8.83146 8.37891 8.09863C5.58595 8.08398 2.79299 8.07909 0 8.08398Z" fill="#09486C"/>
</svg>
