<svg width="16" height="16" viewBox="0 0 16 16" fill="none" xmlns="http://www.w3.org/2000/svg">
<path d="M7.0665 7.06846L2.90039 2.90234" stroke="#145173" stroke-width="0.8"/>
<path d="M2.0678 4.14974L4.15086 2.06668L1.65119 0.816848L0.817968 1.65007L2.0678 4.14974ZM14.5453 5.37874C14.9454 4.97906 15.2206 4.47169 15.3374 3.91841C15.4543 3.36513 15.4078 2.78981 15.2036 2.26249L14.0187 3.44733H12.3523V1.78089L13.5371 0.596044C13.0098 0.391356 12.4343 0.344462 11.8807 0.461076C11.3272 0.57769 10.8195 0.852778 10.4195 1.25282C10.0196 1.65287 9.74461 2.16061 9.62812 2.71417C9.51162 3.26774 9.55864 3.84323 9.76345 4.37054L4.3725 9.76233C3.84518 9.55752 3.26969 9.5105 2.71612 9.627C2.16256 9.74349 1.65482 10.0185 1.25478 10.4184C0.854731 10.8184 0.579643 11.3261 0.463029 11.8796C0.346415 12.4331 0.393309 13.0086 0.597998 13.536L1.78201 12.3512H3.44845V14.0176L2.26361 15.2024C2.79084 15.4071 3.3662 15.4541 3.91964 15.3376C4.47309 15.2211 4.98072 14.9463 5.38072 14.5464C5.78072 14.1466 6.05584 13.6391 6.17256 13.0857C6.28927 12.5323 6.24256 11.9569 6.03811 11.4296L11.4307 6.03699C11.9578 6.24086 12.5328 6.28719 13.0858 6.17033C13.6387 6.05347 14.1458 5.77846 14.5453 5.37874Z" stroke="#145173" stroke-width="0.8" stroke-linejoin="round"/>
<path d="M7.73047 9.97876L12.3998 14.6481C12.5043 14.7528 12.6284 14.8359 12.765 14.8925C12.9017 14.9492 13.0481 14.9784 13.196 14.9784C13.3439 14.9784 13.4903 14.9492 13.6269 14.8925C13.7636 14.8359 13.8877 14.7528 13.9921 14.6481L14.6521 13.9882C14.7567 13.8838 14.8398 13.7597 14.8964 13.623C14.9531 13.4864 14.9823 13.34 14.9823 13.1921C14.9823 13.0442 14.9531 12.8977 14.8964 12.7611C14.8398 12.6245 14.7567 12.5004 14.6521 12.3959L9.98267 7.72656" stroke="#145173" stroke-width="0.8" stroke-linejoin="round"/>
</svg>
