<svg width="15" height="17" viewBox="0 0 15 17" fill="none" xmlns="http://www.w3.org/2000/svg">
<path d="M2.52551 2.47661C3.82698 1.20118 5.5792 0.490885 7.40141 0.500088C9.22363 0.509292 10.9686 1.23725 12.2571 2.52576C13.5456 3.81428 14.2736 5.55924 14.2828 7.38145C14.292 9.20366 13.5817 10.9559 12.3063 12.2573L8.6507 15.9129C8.32317 16.2403 7.87901 16.4243 7.41588 16.4243C6.95276 16.4243 6.50859 16.2403 6.18106 15.9129L2.52551 12.2573C1.22859 10.9603 0.5 9.2012 0.5 7.36698C0.5 5.53276 1.22859 3.77366 2.52551 2.47661Z" stroke="black" stroke-linejoin="round"/>
<path d="M7.41672 9.98577C8.86361 9.98577 10.0366 8.81283 10.0366 7.36593C10.0366 5.91904 8.86361 4.74609 7.41672 4.74609C5.96982 4.74609 4.79688 5.91904 4.79688 7.36593C4.79688 8.81283 5.96982 9.98577 7.41672 9.98577Z" stroke="black" stroke-linecap="round" stroke-linejoin="round"/>
</svg>
