<svg width="17" height="17" viewBox="0 0 17 17" fill="none" xmlns="http://www.w3.org/2000/svg">
<path fill-rule="evenodd" clip-rule="evenodd" d="M8.47926 0C8.68344 0 8.88765 0 9.09183 0C10.3277 0.302322 10.9403 1.09759 10.9295 2.3858C10.923 2.8228 10.8639 3.25268 10.7522 3.67542C10.5606 4.28254 10.3886 4.89511 10.2364 5.51313C10.1818 5.73801 10.1657 5.96369 10.188 6.19018C11.4638 5.85269 12.7534 5.78285 14.0569 5.98062C15.4582 6.34926 15.9848 7.23587 15.6367 8.64046C16.2047 9.51905 16.194 10.3895 15.6044 11.2519C15.889 12.1984 15.6795 13.0152 14.9757 13.7022C15.0139 14.8889 14.482 15.7003 13.3798 16.1364C12.8537 16.3285 12.3164 16.4521 11.7678 16.5071C11.1982 16.5071 10.6286 16.5071 10.059 16.5071C8.17439 16.4993 6.2937 16.3703 4.41695 16.1203C4.22741 16.2365 4.0232 16.3171 3.80438 16.3621C2.92314 16.3836 2.0419 16.3836 1.16066 16.3621C0.542715 16.217 0.161203 15.8355 0.0161203 15.2175C-0.00537345 13.1649 -0.00537345 11.1122 0.0161203 9.05959C0.154445 8.46988 0.514462 8.08834 1.09618 7.91505C1.95501 7.86372 2.81476 7.85295 3.67542 7.88281C3.85751 7.89516 4.02949 7.94352 4.19127 8.02789C4.34938 7.76565 4.51596 7.50772 4.691 7.25412C5.05802 6.91936 5.39116 6.55395 5.69045 6.15794C6.51981 4.8216 7.21298 3.41376 7.76997 1.93443C7.69314 1.43772 7.7415 0.954116 7.91505 0.483608C8.04043 0.245124 8.22849 0.0839214 8.47926 0ZM8.76942 0.934975C9.47268 0.988082 9.86496 1.36422 9.9462 2.06339C9.98141 2.46637 9.94917 2.864 9.84948 3.25629C9.69901 3.77214 9.54858 4.28799 9.39811 4.80384C9.2528 5.29931 9.18832 5.80442 9.20467 6.31914C9.22782 6.83112 9.49113 7.12129 9.99456 7.18964C10.6564 7.04975 11.3227 6.9369 11.9935 6.85111C12.6897 6.7688 13.3775 6.81181 14.0569 6.98007C14.8345 7.3059 15.0118 7.83786 14.5888 8.57598C14.5673 8.68344 14.5673 8.79093 14.5888 8.89839C14.7365 9.09699 14.8762 9.30117 15.008 9.51095C15.1154 9.77962 15.1154 10.0483 15.008 10.317C14.8565 10.5541 14.7061 10.7905 14.5566 11.0263C14.5351 11.1015 14.5351 11.1767 14.5566 11.2519C14.866 11.8027 14.8337 12.3293 14.4599 12.8317C14.2834 12.9788 14.1222 13.14 13.9763 13.3153C13.9576 13.3846 13.9415 13.4545 13.9279 13.5249C14.1279 14.1934 13.9345 14.7093 13.3476 15.0724C12.8318 15.3384 12.2837 15.4889 11.7033 15.5238C9.47165 15.5828 7.24706 15.4861 5.02952 15.2336C5.00347 15.2237 4.98197 15.2076 4.96504 15.1853C5.00254 13.1555 5.00789 11.1243 4.98116 9.09183C4.96756 9.03202 4.95144 8.97289 4.9328 8.91451C5.09158 8.2832 5.43011 7.77274 5.94838 7.38308C6.66067 6.50762 7.25173 5.55117 7.72161 4.51367C8.07067 3.76179 8.39308 2.99878 8.68882 2.2246C8.71262 2.14552 8.72873 2.06492 8.73718 1.98279C8.68495 1.62992 8.69572 1.28065 8.76942 0.934975ZM1.32186 8.8339C2.09571 8.82852 2.86948 8.8339 3.64318 8.85002C3.8176 8.90622 3.94121 9.01906 4.01395 9.18855C4.03545 11.1445 4.03545 13.1004 4.01395 15.0563C3.97568 15.192 3.89507 15.2941 3.77214 15.3626C2.94665 15.4155 2.11914 15.4262 1.28962 15.3949C1.14454 15.3358 1.04244 15.2336 0.983336 15.0886C0.961841 13.1112 0.961841 11.1337 0.983336 9.15631C1.05042 8.99781 1.16326 8.89032 1.32186 8.8339Z" fill="black"/>
</svg>
