<svg width="17" height="17" viewBox="0 0 17 17" fill="none" xmlns="http://www.w3.org/2000/svg">
<path d="M8.5 17C6.81886 17 5.17547 16.5015 3.77766 15.5675C2.37984 14.6335 1.29037 13.306 0.647028 11.7528C0.00368291 10.1996 -0.164645 8.49057 0.163329 6.84174C0.491303 5.1929 1.30085 3.67834 2.4896 2.4896C3.67834 1.30085 5.1929 0.491303 6.84174 0.163329C8.49057 -0.164645 10.1996 0.00368291 11.7528 0.647028C13.306 1.29037 14.6335 2.37984 15.5675 3.77766C16.5015 5.17547 17 6.81886 17 8.5C17 10.7543 16.1045 12.9164 14.5104 14.5104C12.9164 16.1045 10.7543 17 8.5 17ZM8.5 1.21429C7.05903 1.21429 5.65041 1.64159 4.45228 2.44215C3.25415 3.24272 2.32032 4.38059 1.76888 5.71188C1.21744 7.04317 1.07316 8.50809 1.35428 9.92138C1.6354 11.3347 2.3293 12.6329 3.34823 13.6518C4.36715 14.6707 5.66534 15.3646 7.07863 15.6457C8.49192 15.9268 9.95684 15.7826 11.2881 15.2311C12.6194 14.6797 13.7573 13.7459 14.5579 12.5477C15.3584 11.3496 15.7857 9.94098 15.7857 8.5C15.7857 6.56771 15.0181 4.71456 13.6518 3.34823C12.2854 1.98189 10.4323 1.21429 8.5 1.21429Z" fill="black"/>
<path d="M11.2865 12.1423L7.89258 8.74837V3.03516H9.10686V8.24444L12.1426 11.2862L11.2865 12.1423Z" fill="black"/>
</svg>
