<svg width="15" height="16" viewBox="0 0 15 16" fill="none" xmlns="http://www.w3.org/2000/svg">
<path d="M4.8493 11.2625C4.90841 11.3069 4.97571 11.3393 5.04734 11.3577C5.11897 11.3761 5.19352 11.3801 5.26673 11.3697C5.33994 11.3592 5.41037 11.3345 5.47399 11.2968C5.53761 11.2591 5.59317 11.2092 5.6375 11.15C5.97807 10.6959 6.41969 10.3273 6.92738 10.0735C7.43507 9.81966 7.99488 9.6875 8.5625 9.6875C9.13011 9.6875 9.68993 9.81966 10.1976 10.0735C10.7053 10.3273 11.1469 10.6959 11.4875 11.15C11.5318 11.2091 11.5873 11.2589 11.6509 11.2965C11.7145 11.3342 11.7848 11.3589 11.858 11.3693C11.9311 11.3798 12.0055 11.3757 12.0771 11.3574C12.1487 11.3391 12.2159 11.3068 12.275 11.2625C12.3341 11.2182 12.3839 11.1627 12.4215 11.0991C12.4592 11.0355 12.4839 10.9652 12.4943 10.892C12.5048 10.8189 12.5007 10.7445 12.4824 10.6729C12.4641 10.6013 12.4318 10.5341 12.3875 10.475C11.8894 9.80721 11.2252 9.28143 10.4609 8.94992C10.8798 8.56752 11.1732 8.06742 11.3028 7.51526C11.4323 6.9631 11.3919 6.38468 11.1868 5.85591C10.9817 5.32713 10.6216 4.87271 10.1536 4.55228C9.68566 4.23185 9.13176 4.06038 8.56461 4.06038C7.99746 4.06038 7.44356 4.23185 6.9756 4.55228C6.50764 4.87271 6.14749 5.32713 5.94241 5.85591C5.73734 6.38468 5.69691 6.9631 5.82645 7.51526C5.95599 8.06742 6.24944 8.56752 6.66828 8.94992C5.90246 9.2808 5.23675 9.80663 4.7375 10.475C4.64791 10.5943 4.60937 10.7442 4.63033 10.8919C4.6513 11.0396 4.73006 11.1729 4.8493 11.2625ZM6.875 6.875C6.875 6.54124 6.97397 6.21498 7.1594 5.93748C7.34482 5.65997 7.60837 5.44368 7.91672 5.31595C8.22507 5.18823 8.56437 5.15481 8.89172 5.21992C9.21906 5.28504 9.51974 5.44576 9.75574 5.68176C9.99174 5.91776 10.1525 6.21844 10.2176 6.54578C10.2827 6.87313 10.2493 7.21243 10.1215 7.52078C9.99382 7.82913 9.77753 8.09268 9.50002 8.27811C9.22252 8.46353 8.89626 8.5625 8.5625 8.5625C8.11495 8.5625 7.68572 8.38471 7.36926 8.06824C7.05279 7.75178 6.875 7.32255 6.875 6.875ZM13.625 0.6875H3.5C3.20163 0.6875 2.91548 0.806026 2.7045 1.017C2.49353 1.22798 2.375 1.51413 2.375 1.8125V3.5H1.25C1.10082 3.5 0.957742 3.55926 0.852252 3.66475C0.746763 3.77024 0.6875 3.91332 0.6875 4.0625C0.6875 4.21168 0.746763 4.35476 0.852252 4.46025C0.957742 4.56574 1.10082 4.625 1.25 4.625H2.375V7.4375H1.25C1.10082 7.4375 0.957742 7.49676 0.852252 7.60225C0.746763 7.70774 0.6875 7.85082 0.6875 8C0.6875 8.14918 0.746763 8.29226 0.852252 8.39775C0.957742 8.50324 1.10082 8.5625 1.25 8.5625H2.375V11.375H1.25C1.10082 11.375 0.957742 11.4343 0.852252 11.5398C0.746763 11.6452 0.6875 11.7883 0.6875 11.9375C0.6875 12.0867 0.746763 12.2298 0.852252 12.3352C0.957742 12.4407 1.10082 12.5 1.25 12.5H2.375V14.1875C2.375 14.4859 2.49353 14.772 2.7045 14.983C2.91548 15.194 3.20163 15.3125 3.5 15.3125H13.625C13.9234 15.3125 14.2095 15.194 14.4205 14.983C14.6315 14.772 14.75 14.4859 14.75 14.1875V1.8125C14.75 1.51413 14.6315 1.22798 14.4205 1.017C14.2095 0.806026 13.9234 0.6875 13.625 0.6875ZM13.625 14.1875H3.5V1.8125H13.625V14.1875Z" fill="#03314B"/>
</svg>
