<svg width="16" height="14" viewBox="0 0 16 14" fill="none" xmlns="http://www.w3.org/2000/svg">
<path d="M3.8 1.41833C3.47565 1.63308 3.21073 1.91944 3.02787 2.25293C2.84502 2.58642 2.74968 2.95712 2.75 3.33333C2.74991 3.73592 2.85919 4.13168 3.06723 4.48214C3.27526 4.8326 3.57496 5.12583 3.9372 5.33333M12.2 1.41833C12.5243 1.63308 12.7893 1.91944 12.9721 2.25293C13.155 2.58642 13.2503 2.95712 13.25 3.33333C13.2504 3.70961 13.1551 4.08037 12.9722 4.41392C12.7894 4.74747 12.5244 5.03388 12.2 5.24867M15 13V12.6C15 11.1067 15 10.36 14.6948 9.78933C14.4264 9.28759 13.998 8.87966 13.4712 8.624M1 13V12.6C1 11.1067 1 10.36 1.3052 9.78933C1.57364 9.28759 2.00197 8.87966 2.5288 8.624M8 5.66667C8.32174 5.66667 8.64033 5.60631 8.93757 5.48905C9.23482 5.37179 9.50491 5.19992 9.73241 4.98325C9.95991 4.76658 10.1404 4.50935 10.2635 4.22626C10.3866 3.94317 10.45 3.63975 10.45 3.33333C10.45 3.02692 10.3866 2.7235 10.2635 2.44041C10.1404 2.15731 9.95991 1.90009 9.73241 1.68342C9.50491 1.46675 9.23482 1.29488 8.93757 1.17761C8.64033 1.06035 8.32174 1 8 1C7.35022 1 6.72705 1.24583 6.26759 1.68342C5.80812 2.121 5.55 2.71449 5.55 3.33333C5.55 3.95217 5.80812 4.54566 6.26759 4.98325C6.72705 5.42083 7.35022 5.66667 8 5.66667ZM3.8 12.3333V13H12.2V12.3333C12.2 11.091 12.2 10.4697 11.9868 9.97933C11.7026 9.32597 11.1574 8.80691 10.4714 8.53633C9.9572 8.33333 9.3048 8.33333 8 8.33333C6.6952 8.33333 6.04315 8.33333 5.52865 8.53633C5.1889 8.67035 4.88019 8.86679 4.62016 9.11444C4.36013 9.36209 4.15386 9.65609 4.01315 9.97967C3.8 10.4697 3.8 11.091 3.8 12.3333Z" stroke="#03314B" stroke-width="1.1" stroke-linecap="round" stroke-linejoin="round"/>
</svg>
