<svg width="102" height="102" viewBox="0 0 102 102" fill="none" xmlns="http://www.w3.org/2000/svg">
<path d="M101.08 50.5399C101.08 78.4522 78.4522 101.08 50.5399 101.08C22.6276 101.08 0 78.4522 0 50.5399C0 22.6276 22.6276 0 50.5399 0C78.4522 0 101.08 22.6276 101.08 50.5399Z" fill="#EFF8F8"/>
<path d="M57.3271 76.3115C57.3271 81.7605 52.9096 86.1777 47.4606 86.1777C42.0117 86.1777 37.5947 81.7605 37.5947 76.3115C37.5947 70.8622 42.0117 66.4453 47.4606 66.4453C52.9096 66.4453 57.3271 70.8622 57.3271 76.3115Z" fill="white"/>
<path d="M57.3271 76.3115C57.3271 81.7605 52.9096 86.1777 47.4606 86.1777C42.0117 86.1777 37.5947 81.7605 37.5947 76.3115C37.5947 70.8622 42.0117 66.4453 47.4606 66.4453C52.9096 66.4453 57.3271 70.8622 57.3271 76.3115Z" stroke="#663399" stroke-width="2.64" stroke-miterlimit="10" stroke-linecap="round"/>
<path d="M59.1641 17.2667C59.0763 21.8252 55.3099 25.4496 50.7514 25.3619C46.1928 25.2741 42.5687 21.5074 42.6565 16.9488C42.7443 12.3903 46.5107 8.76647 51.0692 8.85425C55.6278 8.94204 59.2519 12.7082 59.1641 17.2667Z" stroke="#663399" stroke-width="2.64" stroke-miterlimit="10"/>
<path d="M75.219 62.0856C73.6772 53.792 73.6063 41.2267 73.6202 40.5059C73.6292 40.0356 73.5517 38.251 73.5517 38.251C72.6401 26.6153 63.0076 17.2607 51.1364 16.9185L51.1364 16.9173C51.1297 16.9172 51.123 16.9176 51.1163 16.9175C51.1093 16.9174 51.1023 16.9166 51.0956 16.9165L51.0956 16.9177C39.2201 16.8026 29.2345 25.7794 27.8759 37.3714C27.8759 37.3714 27.7294 39.1517 27.7204 39.622C27.7065 40.3429 27.1522 52.8961 25.2922 61.1241C22.2103 74.7594 16.1475 75.8509 16.1475 75.8509L49.9689 76.5022L83.7897 77.1535C83.7897 77.1535 83.6912 77.0918 83.5142 76.9634C82.252 76.045 77.0097 71.7189 75.219 62.0856Z" fill="white"/>
<path d="M75.219 62.0856C73.6772 53.792 73.6063 41.2267 73.6202 40.5059C73.6292 40.0356 73.5517 38.251 73.5517 38.251C72.6401 26.6153 63.0076 17.2607 51.1364 16.9185L51.1364 16.9173C51.1297 16.9172 51.123 16.9176 51.1163 16.9175C51.1093 16.9174 51.1023 16.9166 51.0956 16.9165L51.0956 16.9177C39.2201 16.8026 29.2345 25.7794 27.8759 37.3714C27.8759 37.3714 27.7294 39.1517 27.7204 39.622C27.7065 40.3429 27.1522 52.8961 25.2922 61.1241C22.2103 74.7594 16.1475 75.8509 16.1475 75.8509L49.9689 76.5022L83.7897 77.1535C83.7897 77.1535 83.6912 77.0918 83.5142 76.9634C82.252 76.045 77.0097 71.7189 75.219 62.0856Z" stroke="#663399" stroke-width="2.64" stroke-miterlimit="10" stroke-linecap="round"/>
<path d="M75.5502 63.7093L24.8973 62.7339C21.7217 74.8454 16.1465 75.8574 16.1465 75.8574L49.9679 76.5087L83.789 77.1599C83.789 77.1599 83.7206 77.1085 83.5958 77.0065C82.5222 76.1281 77.2755 71.5015 75.5502 63.7093Z" stroke="#663399" stroke-width="2.64" stroke-miterlimit="10" stroke-linecap="round"/>
<path d="M43.0898 52.1406C43.0898 52.1406 46.7142 53.5237 50.7413 53.5237C54.7682 53.5237 58.7954 52.1406 58.7954 52.1406" stroke="#FF6699" stroke-width="2.64" stroke-miterlimit="10" stroke-linecap="round"/>
<path d="M35.5166 42.1641C35.5166 42.1641 37.2035 43.0152 39.0777 43.0152C40.9522 43.0152 42.8264 42.1641 42.8264 42.1641" stroke="#FF6699" stroke-width="2.64" stroke-miterlimit="10" stroke-linecap="round"/>
<path d="M56.7822 42.1641C56.7822 42.1641 58.4688 43.0152 60.3433 43.0152C62.2175 43.0152 64.092 42.1641 64.092 42.1641" stroke="#FF6699" stroke-width="2.64" stroke-miterlimit="10" stroke-linecap="round"/>
<path d="M78.1939 6.91406C70.4093 6.91406 64.0986 13.2244 64.0986 21.0087C64.0986 25.6298 66.3227 29.7319 69.7588 32.3023L68.1258 34.2982C68.1258 34.2982 66.9178 35.5062 68.5284 36.3117C69.4232 36.7591 71.9325 35.5913 73.9873 34.4649C75.3156 34.8797 76.7287 35.1034 78.1939 35.1034C85.9782 35.1034 92.2885 28.793 92.2885 21.0087C92.2885 13.2244 85.9782 6.91406 78.1939 6.91406Z" fill="white"/>
<path d="M78.1939 6.91406C70.4093 6.91406 64.0986 13.2244 64.0986 21.0087C64.0986 25.6298 66.3227 29.7319 69.7588 32.3023L68.1258 34.2982C68.1258 34.2982 66.9178 35.5062 68.5284 36.3117C69.4232 36.7591 71.9325 35.5913 73.9873 34.4649C75.3156 34.8797 76.7287 35.1034 78.1939 35.1034C85.9782 35.1034 92.2885 28.793 92.2885 21.0087C92.2885 13.2244 85.9782 6.91406 78.1939 6.91406Z" stroke="#663399" stroke-width="2.64" stroke-miterlimit="10" stroke-linecap="round"/>
<g opacity="0.01">
<path d="M73.6084 24.8997L74.8665 23.1007H73.6288V22.5391H75.7922V22.9813L74.5388 24.7753H75.8391V25.3419H73.6084V24.8997Z" fill="#FF6699"/>
</g>
<g opacity="0.01">
<path d="M77.0881 22.8944L78.6008 20.1434L76.8411 20.3334L76.7549 19.5346L79.8307 19.2031L79.8986 19.8312L78.392 22.5743L80.24 22.3748L80.3273 23.1808L77.1554 23.523L77.0881 22.8944Z" fill="#FF6699"/>
</g>
<g opacity="0.767751">
<path d="M81.1113 20.1857L83.6782 17.2177L81.4777 16.9905L81.5805 15.9922L85.4265 16.3889L85.3455 17.1746L82.7888 20.1341L85.1 20.3727L84.9963 21.3806L81.0303 20.9713L81.1113 20.1857Z" fill="#FF6699"/>
</g>
<g opacity="0.191017">
<path d="M25.7799 3.20927C25.7799 3.93314 25.1929 4.5201 24.469 4.5201C23.7452 4.5201 23.1582 3.93314 23.1582 3.20927C23.1582 2.4854 23.7452 1.89844 24.469 1.89844C25.1929 1.89844 25.7799 2.4854 25.7799 3.20927Z" stroke="#663399" stroke-width="1.32" stroke-miterlimit="10"/>
<path d="M19.0798 36.4091C19.0798 37.4548 18.2321 38.3025 17.1864 38.3025C16.1406 38.3025 15.293 37.4548 15.293 36.4091C15.293 35.3633 16.1406 34.5156 17.1864 34.5156C18.2321 34.5156 19.0798 35.3633 19.0798 36.4091Z" stroke="#663399" stroke-width="1.32" stroke-miterlimit="10"/>
</g>
</svg>
