<svg width="23" height="19" viewBox="0 0 23 19" fill="none" xmlns="http://www.w3.org/2000/svg">
<path d="M1 1H8.65793C9.10458 0.999947 9.54687 1.0879 9.95951 1.25883C10.3722 1.42976 10.7471 1.68032 11.0629 1.9962L14.6 5.53333M4.4 11.2H1M8.36667 4.4L10.6333 6.66667C10.7822 6.8155 10.9002 6.99219 10.9808 7.18664C11.0613 7.3811 11.1028 7.58952 11.1028 7.8C11.1028 8.01048 11.0613 8.2189 10.9808 8.41336C10.9002 8.60781 10.7822 8.7845 10.6333 8.93333C10.4845 9.08216 10.3078 9.20022 10.1134 9.28077C9.9189 9.36132 9.71048 9.40277 9.5 9.40277C9.28952 9.40277 9.0811 9.36132 8.88664 9.28077C8.69219 9.20022 8.5155 9.08216 8.36667 8.93333L6.66667 7.23333C5.692 8.208 4.14727 8.31793 3.0434 7.4906L2.7 7.23333" stroke="#EBEBEB" stroke-width="1.5" stroke-linecap="round" stroke-linejoin="round"/>
<path d="M4 8.72727V13.6364C4 15.6938 4 16.7215 4.62047 17.3607C5.24094 18 6.23835 18 8.23529 18H17.7647C19.7616 18 20.7591 18 21.3795 17.3607C22 16.7215 22 15.6938 22 13.6364V10.3636C22 8.30618 22 7.27855 21.3795 6.63927C20.7591 6 19.7616 6 17.7647 6H10" stroke="#EBEBEB" stroke-width="1.5" stroke-linecap="round" stroke-linejoin="round"/>
<path d="M15.017 11.7665C15.017 12.2925 14.808 12.797 14.4361 13.169C14.0641 13.5409 13.5596 13.7499 13.0336 13.7499C12.5076 13.7499 12.0031 13.5409 11.6312 13.169C11.2593 12.797 11.0503 12.2925 11.0503 11.7665C11.0503 11.2405 11.2593 10.7361 11.6312 10.3641C12.0031 9.99216 12.5076 9.7832 13.0336 9.7832C13.5596 9.7832 14.0641 9.99216 14.4361 10.3641C14.808 10.7361 15.017 11.2405 15.017 11.7665Z" stroke="#EBEBEB" stroke-width="1.5" stroke-linecap="round" stroke-linejoin="round"/>
</svg>
