<svg width="15" height="16" viewBox="0 0 15 16" fill="none" xmlns="http://www.w3.org/2000/svg">
<path d="M10.25 0.5V3.5M4.25 0.5V3.5M14 8C14 5.17175 14 3.75725 13.121 2.879C12.242 2.00075 10.8282 2 8 2H6.5C3.67175 2 2.25725 2 1.379 2.879C0.50075 3.758 0.5 5.17175 0.5 8V9.5C0.5 12.3282 0.5 13.7427 1.379 14.621C2.258 15.4992 3.67175 15.5 6.5 15.5M0.5 6.5H14" stroke="black" stroke-linecap="round" stroke-linejoin="round"/>
<path d="M11.9503 13.0258L11 12.5V11.2003M14 12.5C14 13.2956 13.6839 14.0587 13.1213 14.6213C12.5587 15.1839 11.7956 15.5 11 15.5C10.2044 15.5 9.44129 15.1839 8.87868 14.6213C8.31607 14.0587 8 13.2956 8 12.5C8 11.7044 8.31607 10.9413 8.87868 10.3787C9.44129 9.81607 10.2044 9.5 11 9.5C11.7956 9.5 12.5587 9.81607 13.1213 10.3787C13.6839 10.9413 14 11.7044 14 12.5Z" stroke="black" stroke-linecap="round" stroke-linejoin="round"/>
</svg>
