<svg width="17" height="17" viewBox="0 0 17 17" fill="none" xmlns="http://www.w3.org/2000/svg">
<path d="M4.3584 2.15385V1M12.0507 2.15385V1" stroke="black" stroke-linecap="round"/>
<path d="M5.89648 10.2308L7.05033 9.0769V12.1538" stroke="black" stroke-linecap="round" stroke-linejoin="round"/>
<path d="M15.5127 6H7.24346M0.512695 6H3.49346M8.97423 11.3846V9.84615C8.97423 9.64214 9.05527 9.44648 9.19953 9.30222C9.34379 9.15797 9.53945 9.07692 9.74346 9.07692C9.94747 9.07692 10.1431 9.15797 10.2874 9.30222C10.4316 9.44648 10.5127 9.64214 10.5127 9.84615V11.3846C10.5127 11.5886 10.4316 11.7843 10.2874 11.9285C10.1431 12.0728 9.94747 12.1538 9.74346 12.1538C9.53945 12.1538 9.34379 12.0728 9.19953 11.9285C9.05527 11.7843 8.97423 11.5886 8.97423 11.3846Z" stroke="black" stroke-linecap="round"/>
<path d="M9.74346 16H6.66654C3.76577 16 2.315 16 1.41423 15.0984C0.513464 14.1969 0.512695 12.7469 0.512695 9.84611V8.30765C0.512695 5.40688 0.512695 3.95612 1.41423 3.05535C2.31577 2.15458 3.76577 2.15381 6.66654 2.15381H9.74346C12.6442 2.15381 14.095 2.15381 14.9958 3.05535C15.8965 3.95688 15.8973 5.40688 15.8973 8.30765V9.84611C15.8973 12.7469 15.8973 14.1977 14.9958 15.0984C14.4935 15.6015 13.8204 15.8238 12.8204 15.9215" stroke="black" stroke-linecap="round"/>
</svg>
