<svg width="16" height="16" viewBox="0 0 16 16" fill="none" xmlns="http://www.w3.org/2000/svg">
<path d="M11.5 15V2.05C11.5 1.77152 11.3894 1.50445 11.1925 1.30754C10.9955 1.11062 10.7285 1 10.45 1H2.05C1.77152 1 1.50445 1.11062 1.30754 1.30754C1.11062 1.50445 1 1.77152 1 2.05V13.95C1 14.2285 1.11062 14.4955 1.30754 14.6925C1.50445 14.8894 1.77152 15 2.05 15H11.5ZM11.5 15H13.25C13.5285 15 13.7955 14.8894 13.9925 14.6925C14.1894 14.4955 14.3 14.2285 14.3 13.95V8C14.3 7.81435 14.2263 7.6363 14.095 7.50503C13.9637 7.37375 13.7857 7.3 13.6 7.3H12.2C12.0143 7.3 11.8363 7.37375 11.705 7.50503C11.5737 7.6363 11.5 7.81435 11.5 8V15Z" stroke="white" stroke-width="1.5" stroke-linejoin="round"/>
<path d="M3.1001 3.80017H5.9001M3.1001 6.25017H7.3001" stroke="white" stroke-width="1.5" stroke-linecap="round" stroke-linejoin="round"/>
</svg>
