<svg width="18" height="19" viewBox="0 0 18 19" fill="none" xmlns="http://www.w3.org/2000/svg">
<path d="M13.6316 18.0003V2.42136C13.6316 2.08635 13.4985 1.76506 13.2616 1.52817C13.0247 1.29129 12.7034 1.1582 12.3684 1.1582H2.26316C1.92815 1.1582 1.60686 1.29129 1.36997 1.52817C1.13308 1.76506 1 2.08635 1 2.42136V16.7372C1 17.0722 1.13308 17.3934 1.36997 17.6303C1.60686 17.8672 1.92815 18.0003 2.26316 18.0003H13.6316ZM13.6316 18.0003H15.7368C16.0719 18.0003 16.3931 17.8672 16.63 17.6303C16.8669 17.3934 17 17.0722 17 16.7372V9.57926C17 9.35592 16.9113 9.14172 16.7534 8.9838C16.5954 8.82587 16.3812 8.73715 16.1579 8.73715H14.4737C14.2503 8.73715 14.0362 8.82587 13.8782 8.9838C13.7203 9.14172 13.6316 9.35592 13.6316 9.57926V18.0003Z" stroke="#EBEBEB" stroke-width="1.5" stroke-linejoin="round"/>
</svg>
