<svg width="15" height="15" viewBox="0 0 15 15" fill="none" xmlns="http://www.w3.org/2000/svg">
<path fill-rule="evenodd" clip-rule="evenodd" d="M6.21522 2.03125H8.78522C9.93397 2.03125 10.844 2.03125 11.5558 2.12688C12.2883 2.22563 12.8815 2.43312 13.3496 2.90062C13.8171 3.36875 14.0246 3.96188 14.1233 4.69438C14.1796 5.115 14.2027 5.60437 14.2121 6.17125C14.2203 6.21876 14.2211 6.26724 14.2146 6.315C14.219 6.66875 14.219 7.05125 14.219 7.465V7.535C14.219 8.68375 14.219 9.59375 14.1233 10.3056C14.0246 11.0381 13.8171 11.6312 13.3496 12.0994C12.8815 12.5669 12.2883 12.7744 11.5558 12.8731C10.8433 12.9688 9.93397 12.9688 8.78522 12.9688H6.21522C5.06647 12.9688 4.15647 12.9688 3.44459 12.8731C2.71209 12.7744 2.11897 12.5669 1.65084 12.0994C1.18334 11.6312 0.975845 11.0381 0.877095 10.3056C0.78147 9.59313 0.78147 8.68375 0.78147 7.535V7.465C0.78147 7.05125 0.78147 6.66875 0.785845 6.315C0.779143 6.26727 0.779776 6.21879 0.78772 6.17125C0.79772 5.60437 0.820845 5.115 0.877095 4.69438C0.975845 3.96188 1.18334 3.36875 1.65084 2.90062C2.11897 2.43312 2.71209 2.22563 3.44459 2.12688C4.15709 2.03125 5.06647 2.03125 6.21522 2.03125ZM1.72022 6.71875C1.71897 6.96125 1.71897 7.22125 1.71897 7.5C1.71897 8.69187 1.72022 9.53813 1.80647 10.1813C1.89084 10.8094 2.04959 11.1719 2.31397 11.4363C2.57834 11.7006 2.94084 11.8594 3.56959 11.9438C4.21209 12.03 5.05834 12.0312 6.25022 12.0312H8.75022C9.94209 12.0312 10.789 12.03 11.4315 11.9438C12.0596 11.8594 12.4221 11.7006 12.6865 11.4363C12.9508 11.1719 13.1096 10.8094 13.194 10.1806C13.2802 9.53812 13.2815 8.69187 13.2815 7.5C13.2815 7.22125 13.2815 6.96125 13.2802 6.71875H1.72022ZM13.2652 5.78125H1.73522C1.74772 5.41438 1.76897 5.0975 1.80647 4.81875C1.89084 4.19062 2.04959 3.82813 2.31397 3.56375C2.57834 3.29938 2.94084 3.14062 3.56959 3.05625C4.21209 2.97 5.05834 2.96875 6.25022 2.96875H8.75022C9.94209 2.96875 10.789 2.97 11.4315 3.05625C12.0596 3.14062 12.4221 3.29938 12.6865 3.56375C12.9508 3.82813 13.1096 4.19062 13.194 4.81938C13.2315 5.0975 13.2527 5.41438 13.2652 5.78125ZM3.28147 10C3.28147 9.87568 3.33086 9.75645 3.41876 9.66854C3.50667 9.58064 3.6259 9.53125 3.75022 9.53125H6.25022C6.37454 9.53125 6.49377 9.58064 6.58168 9.66854C6.66958 9.75645 6.71897 9.87568 6.71897 10C6.71897 10.1243 6.66958 10.2435 6.58168 10.3315C6.49377 10.4194 6.37454 10.4688 6.25022 10.4688H3.75022C3.6259 10.4688 3.50667 10.4194 3.41876 10.3315C3.33086 10.2435 3.28147 10.1243 3.28147 10ZM7.34397 10C7.34397 9.87568 7.39336 9.75645 7.48126 9.66854C7.56917 9.58064 7.6884 9.53125 7.81272 9.53125H8.75022C8.87454 9.53125 8.99377 9.58064 9.08168 9.66854C9.16958 9.75645 9.21897 9.87568 9.21897 10C9.21897 10.1243 9.16958 10.2435 9.08168 10.3315C8.99377 10.4194 8.87454 10.4688 8.75022 10.4688H7.81272C7.6884 10.4688 7.56917 10.4194 7.48126 10.3315C7.39336 10.2435 7.34397 10.1243 7.34397 10Z" fill="white"/>
</svg>
