<svg width="13" height="16" viewBox="0 0 13 16" fill="none" xmlns="http://www.w3.org/2000/svg">
<path opacity="0.956" fill-rule="evenodd" clip-rule="evenodd" d="M5.84738 0C6.0236 0 6.19978 0 6.376 0C8.0769 0.876432 9.77678 1.76264 11.4756 2.65863C11.9466 3.00406 12.0865 3.45495 11.8954 4.01127C11.4795 4.80665 11.0598 5.59958 10.636 6.39005C10.9429 6.38905 11.2435 6.4305 11.5378 6.51443C11.9523 6.70097 12.2062 7.01711 12.2996 7.46283C12.3152 8.16757 12.3204 8.8724 12.3152 9.5773C12.509 9.55985 12.6955 9.58576 12.8749 9.65504C12.9122 9.68312 12.9382 9.71937 12.9526 9.76387C12.9882 10.2335 13.0037 10.7051 12.9993 11.1787C13.0037 11.6523 12.9882 12.1239 12.9526 12.5935C12.9267 12.6609 12.8801 12.7076 12.8127 12.7335C12.6472 12.749 12.4813 12.7542 12.3152 12.749C12.3295 13.5073 12.314 14.2639 12.2685 15.0189C12.1064 15.487 11.7902 15.7876 11.3201 15.9207C7.8893 15.9207 4.45845 15.9207 1.02764 15.9207C0.441309 15.7436 0.104443 15.3497 0.0170435 14.7391C-0.0134141 12.2921 -0.00305013 9.84596 0.0481387 7.40064C0.188067 6.90831 0.504202 6.59217 0.99654 6.45224C1.35872 6.42114 1.72149 6.39524 2.08487 6.3745C3.13449 4.41007 4.17617 2.44071 5.20993 0.466427C5.3719 0.238128 5.58441 0.0826527 5.84738 0ZM5.97176 0.652998C6.06561 0.647879 6.15889 0.65306 6.25162 0.668545C7.83255 1.50568 9.41841 2.33488 11.0092 3.15616C11.2504 3.26032 11.3489 3.44173 11.3046 3.70032C10.8369 4.59934 10.3653 5.49594 9.88974 6.39005C9.63001 6.41592 9.37086 6.41073 9.11237 6.3745C9.36632 5.88733 9.62024 5.4002 9.8742 4.91303C9.90763 4.77752 9.88688 4.65314 9.81201 4.53989C9.48486 4.37813 9.30348 4.11382 9.26784 3.74696C9.29766 3.55909 9.34947 3.37771 9.42332 3.2028C9.40665 3.12686 9.38075 3.05432 9.34558 2.98513C8.9851 2.77117 8.61715 2.56905 8.2417 2.37878C7.9857 2.23775 7.72139 2.11855 7.44878 2.02118C7.38761 2.02249 7.33059 2.03803 7.27776 2.06783C7.17412 2.19221 7.07044 2.31659 6.9668 2.44097C6.80256 2.56972 6.61599 2.63709 6.40709 2.64309C6.22755 2.61429 6.05133 2.57284 5.87847 2.51871C5.78727 2.51765 5.70434 2.54356 5.62971 2.59644C4.96512 3.85825 4.29657 5.1176 3.62408 6.3745C3.3616 6.41539 3.0973 6.41539 2.83115 6.3745C3.80029 4.53989 4.7694 2.70528 5.73855 0.870664C5.79271 0.769738 5.87045 0.697184 5.97176 0.652998ZM7.55761 2.76747C7.92721 2.96005 8.29516 3.15699 8.66149 3.35827C8.54037 3.95891 8.70104 4.47198 9.14346 4.89748C8.88037 5.38735 8.62125 5.87971 8.36608 6.3745C7.02912 6.41079 5.69203 6.41595 4.35481 6.39005C4.90812 5.3612 5.45748 4.32987 6.00286 3.29608C6.20821 3.29204 6.41552 3.28688 6.62476 3.28054C7.00558 3.23019 7.31653 3.05916 7.55761 2.76747ZM1.2453 7.05859C4.53103 7.0534 7.81676 7.05859 11.1025 7.07414C11.3817 7.12535 11.5631 7.28602 11.6466 7.55612C11.6622 8.22976 11.6674 8.9035 11.6622 9.5773C11.2267 9.57211 10.7914 9.5773 10.3562 9.59285C9.44344 9.72295 8.95627 10.2464 8.8947 11.1631C8.90279 11.7859 9.17229 12.2575 9.70317 12.578C9.84155 12.6483 9.98667 12.7001 10.1385 12.7335C10.6463 12.749 11.1542 12.7542 11.6622 12.749C11.6674 13.4332 11.6622 14.1173 11.6466 14.8013C11.5822 15.0212 11.4423 15.1715 11.2268 15.2522C7.9213 15.3036 4.61486 15.3139 1.30749 15.2833C0.956816 15.2435 0.744334 15.0517 0.670041 14.708C0.64931 12.3551 0.64931 10.0023 0.670041 7.6494C0.743056 7.33285 0.93481 7.13593 1.2453 7.05859ZM10.3873 10.2303C11.0403 10.2303 11.6933 10.2303 12.3463 10.2303C12.3463 10.8626 12.3463 11.4948 12.3463 12.1271C11.7139 12.1323 11.0817 12.1271 10.4495 12.1116C9.73352 11.9862 9.44847 11.5664 9.59434 10.8522C9.75212 10.5067 10.0164 10.2994 10.3873 10.2303Z" fill="white"/>
</svg>
