<svg width="17" height="19" viewBox="0 0 17 19" fill="none" xmlns="http://www.w3.org/2000/svg">
<path opacity="0.961" fill-rule="evenodd" clip-rule="evenodd" d="M5.53966 0C5.67205 0 5.80439 0 5.93678 0C6.39992 0.287728 6.86923 0.570521 7.34472 0.848377C7.73007 1.0893 7.80826 1.4082 7.57938 1.80506C7.31754 2.24444 7.06483 2.68969 6.82126 3.1408C6.61696 3.39367 6.35826 3.45986 6.04508 3.33936C5.73566 3.0338 5.71158 2.70287 5.97288 2.34658C5.66515 2.41509 5.36432 2.52941 5.07035 2.68954C2.54675 4.13048 1.22304 6.3146 1.09922 9.2419C1.24306 12.3006 2.66303 14.5329 5.35916 15.9387C6.04642 16.2398 6.75642 16.4684 7.48913 16.6246C7.78866 16.9492 7.77664 17.2621 7.45303 17.5632C7.35516 17.6073 7.25288 17.6373 7.14617 17.6535C4.20064 17.0897 2.07065 15.4652 0.756261 12.7798C-0.0165742 11.0227 -0.19708 9.20565 0.214744 7.32853C0.980821 4.33997 2.80393 2.29425 5.68407 1.19134C5.46847 1.09005 5.30602 0.933612 5.1967 0.722023C5.12793 0.390365 5.24226 0.149689 5.53966 0Z" fill="#1B8ED4"/>
<path opacity="0.961" fill-rule="evenodd" clip-rule="evenodd" d="M11.4601 18.4838C11.3278 18.4838 11.1954 18.4838 11.063 18.4838C10.5999 18.1961 10.1306 17.9133 9.65508 17.6354C9.26974 17.3945 9.19154 17.0756 9.42043 16.6787C9.68227 16.2393 9.93498 15.7941 10.1785 15.343C10.3844 15.0901 10.6431 15.024 10.9547 15.1444C11.2641 15.45 11.2882 15.7809 11.0269 16.1372C11.3347 16.0687 11.6355 15.9544 11.9295 15.7943C14.4531 14.3533 15.7768 12.1692 15.9006 9.24189C15.8003 6.55528 14.6451 4.46744 12.4349 2.97834C11.5267 2.4349 10.552 2.06186 9.51068 1.85921C9.21115 1.53453 9.22317 1.22166 9.54678 0.920575C9.64465 0.876543 9.74692 0.846456 9.85364 0.830322C12.7986 1.39334 14.9286 3.01789 16.2435 5.70398C17.0164 7.46106 17.1969 9.27814 16.7851 11.1553C16.1935 13.5376 14.8518 15.3607 12.7598 16.6246C12.2922 16.8764 11.8109 17.099 11.3157 17.2924C11.5313 17.3937 11.6938 17.5502 11.8031 17.7618C11.8719 18.0934 11.7575 18.3341 11.4601 18.4838Z" fill="#1B8ED4"/>
<path opacity="0.971" fill-rule="evenodd" clip-rule="evenodd" d="M7.99385 3.97108C9.70183 3.84599 10.9112 4.556 11.622 6.10105C11.7948 6.62817 11.867 7.16968 11.8386 7.7256C12.3281 7.98716 12.6048 8.39629 12.669 8.95304C12.7034 10.2658 12.6914 11.5775 12.6328 12.8881C12.4545 13.4635 12.0754 13.8306 11.4957 13.9892C9.49808 14.0132 7.50046 14.0132 5.50287 13.9892C4.81525 13.7949 4.42413 13.3436 4.32958 12.6354C4.3055 11.4079 4.3055 10.1805 4.32958 8.95304C4.3937 8.39629 4.67045 7.98716 5.15991 7.7256C5.0637 6.13026 5.71955 4.96899 7.12742 4.24184C7.41259 4.12462 7.70139 4.03437 7.99385 3.97108ZM8.46317 5.05412C9.32707 5.09174 9.98288 5.47679 10.4307 6.20936C10.662 6.63806 10.7523 7.09531 10.7014 7.5812C9.23331 7.5812 7.76522 7.5812 6.2971 7.5812C6.2841 6.10239 7.00612 5.26 8.46317 5.05412ZM5.75558 8.70034C7.62295 8.68275 9.48819 8.7008 11.3513 8.75449C11.4464 8.82528 11.5126 8.91553 11.5498 9.02525C11.5739 10.2046 11.5739 11.3838 11.5498 12.5632C11.5034 12.766 11.3771 12.8803 11.1708 12.9061C9.38977 12.9302 7.60876 12.9302 5.82778 12.9061C5.62146 12.8803 5.49511 12.766 5.44872 12.5632C5.42464 11.3838 5.42464 10.2046 5.44872 9.02525C5.50966 8.87416 5.61193 8.76586 5.75558 8.70034Z" fill="#1B8ED4"/>
<path opacity="0.964" fill-rule="evenodd" clip-rule="evenodd" d="M8.28293 9.89181C8.61946 9.81062 8.86614 9.91893 9.023 10.2167C9.04708 10.6018 9.04708 10.9869 9.023 11.372C8.83185 11.741 8.54906 11.8313 8.17462 11.6427C8.08054 11.5728 8.01437 11.4825 7.97607 11.372C7.95199 10.9869 7.95199 10.6018 7.97607 10.2167C8.03701 10.0656 8.13928 9.95734 8.28293 9.89181Z" fill="#1B8ED4"/>
</svg>
