<svg width="5" height="5" viewBox="0 0 5 5" fill="none" xmlns="http://www.w3.org/2000/svg">
<path d="M4.88925 0.11454C4.85417 0.0793827 4.81249 0.0514901 4.76661 0.0324589C4.72073 0.0134278 4.67155 0.00363179 4.62188 0.00363179C4.57221 0.00363179 4.52303 0.0134278 4.47715 0.0324589C4.43127 0.0514901 4.3896 0.0793827 4.35451 0.11454L2.5 1.96526L0.645485 0.110748C0.610374 0.0756363 0.568691 0.0477844 0.522815 0.0287823C0.47694 0.00978017 0.427772 3.69958e-10 0.378117 0C0.328462 -3.69958e-10 0.279293 0.00978017 0.233417 0.0287823C0.187542 0.0477844 0.145859 0.0756363 0.110748 0.110748C0.0756363 0.145859 0.0477844 0.187542 0.0287823 0.233417C0.00978017 0.279293 -3.69958e-10 0.328462 0 0.378117C3.69958e-10 0.427772 0.00978017 0.47694 0.0287823 0.522815C0.0477844 0.568691 0.0756363 0.610374 0.110748 0.645485L1.96526 2.5L0.110748 4.35451C0.0756363 4.38963 0.0477844 4.43131 0.0287823 4.47718C0.00978017 4.52306 0 4.57223 0 4.62188C0 4.67154 0.00978017 4.72071 0.0287823 4.76658C0.0477844 4.81246 0.0756363 4.85414 0.110748 4.88925C0.145859 4.92436 0.187542 4.95222 0.233417 4.97122C0.279293 4.99022 0.328462 5 0.378117 5C0.427772 5 0.47694 4.99022 0.522815 4.97122C0.568691 4.95222 0.610374 4.92436 0.645485 4.88925L2.5 3.03474L4.35451 4.88925C4.38963 4.92436 4.43131 4.95222 4.47718 4.97122C4.52306 4.99022 4.57223 5 4.62188 5C4.67154 5 4.72071 4.99022 4.76658 4.97122C4.81246 4.95222 4.85414 4.92436 4.88925 4.88925C4.92436 4.85414 4.95222 4.81246 4.97122 4.76658C4.99022 4.72071 5 4.67154 5 4.62188C5 4.57223 4.99022 4.52306 4.97122 4.47718C4.95222 4.43131 4.92436 4.38963 4.88925 4.35451L3.03474 2.5L4.88925 0.645485C5.03337 0.501372 5.03337 0.258654 4.88925 0.11454Z" fill="#3AB0B3"/>
</svg>
