<svg width="19" height="19" viewBox="0 0 19 19" fill="none" xmlns="http://www.w3.org/2000/svg">
<path d="M17.8385 10.3132C18 9.92311 18 9.42728 18 8.4375C18 7.44772 18 6.95189 17.8385 6.56183C17.7317 6.30394 17.5752 6.0696 17.3778 5.87223C17.1804 5.67485 16.9461 5.51829 16.6882 5.4115C16.2981 5.25 15.8023 5.25 14.8125 5.25H8.65C7.46 5.25 6.865 5.25 6.41072 5.48139C6.01052 5.68518 5.68518 6.01052 5.48139 6.41072C5.25 6.86406 5.25 7.45906 5.25 8.65V14.8125C5.25 15.8023 5.25 16.2981 5.4115 16.6882C5.62778 17.2086 6.04144 17.6232 6.56183 17.8385C6.95189 18 7.44772 18 8.4375 18C9.42728 18 9.92311 18 10.3132 17.8385M17.8385 10.3132C17.7317 10.5711 17.5752 10.8054 17.3778 11.0028C17.1804 11.2002 16.9461 11.3567 16.6882 11.4635C16.2981 11.625 15.8023 11.625 14.8125 11.625C13.8227 11.625 13.3269 11.625 12.9368 11.7865C12.6789 11.8933 12.4446 12.0498 12.2472 12.2472C12.0498 12.4446 11.8933 12.6789 11.7865 12.9368C11.625 13.3269 11.625 13.8227 11.625 14.8125C11.625 15.8023 11.625 16.2981 11.4635 16.6882C11.3567 16.9461 11.2002 17.1804 11.0028 17.3778C10.8054 17.5752 10.5711 17.7317 10.3132 17.8385M17.8385 10.3132C17.3304 12.065 16.3959 13.6635 15.1185 14.9656C13.8412 16.2677 12.2608 17.2327 10.5191 17.7743L10.3132 17.8385M13.75 5.25V4.4C13.75 3.21 13.75 2.615 13.5186 2.16072C13.3151 1.76067 12.9901 1.43534 12.5902 1.23139C12.135 1 11.54 1 10.35 1H4.4C3.21 1 2.615 1 2.16072 1.23139C1.76052 1.43518 1.43518 1.76052 1.23139 2.16072C1 2.61406 1 3.20906 1 4.4V10.35C1 11.54 1 12.135 1.23139 12.5893C1.43539 12.9897 1.76028 13.3146 2.16072 13.5186C2.61406 13.75 3.21 13.75 4.40094 13.75H5.25" stroke="white" stroke-width="1.5" stroke-linecap="round" stroke-linejoin="round"/>
</svg>
