<svg width="17" height="14" viewBox="0 0 17 14" fill="none" xmlns="http://www.w3.org/2000/svg">
<path d="M10.9317 4.18169V2.49995" stroke="#EBEBEB" stroke-width="1.5" stroke-linecap="round"/>
<path d="M10.9317 7.1817V6.24994" stroke="#EBEBEB" stroke-width="1.5" stroke-linecap="round"/>
<path d="M10.9317 10.9317V9.24995" stroke="#EBEBEB" stroke-width="1.5" stroke-linecap="round"/>
<path d="M11.4998 1L6.99702 1C4.16357 1 2.74759 1 1.8671 1.87899C1.20711 2.53673 1.04212 3.49446 1.00012 5.12044C0.994868 5.32893 1.16587 5.49543 1.36761 5.54868C1.68885 5.63233 1.97326 5.82018 2.1763 6.08279C2.37933 6.34541 2.48952 6.66796 2.48959 6.99991C2.48959 7.69665 2.0141 8.28239 1.36911 8.45113C1.16662 8.50363 0.995618 8.67013 1.00162 8.87863C1.04287 10.5061 1.20861 11.4631 1.8671 12.1208M12.9999 1.075C13.9817 1.171 14.6417 1.38774 15.1336 1.87899C15.7921 2.53673 15.9586 3.49446 15.9999 5.12044C16.0051 5.32893 15.8341 5.49543 15.6324 5.54868C15.3112 5.63233 15.0267 5.82018 14.8237 6.08279C14.6207 6.34541 14.5105 6.66796 14.5104 6.99991C14.5104 7.69665 14.9859 8.28239 15.6309 8.45113C15.8334 8.50363 16.0044 8.67013 15.9984 8.87863C15.9571 10.5061 15.7914 11.4631 15.1329 12.1208C14.2524 12.9998 12.8364 12.9998 10.003 12.9998H6.99702C6.12254 12.9998 4.2557 12.9998 3.62496 12.9736" stroke="#EBEBEB" stroke-width="1.5" stroke-linecap="round"/>
</svg>
