<svg width="78" height="72" viewBox="0 0 78 72" fill="none" xmlns="http://www.w3.org/2000/svg">
<path fill-rule="evenodd" clip-rule="evenodd" d="M49.6771 0.00248003C49.6028 -0.00711588 49.537 0.0111339 49.4799 0.0572512C49.4531 0.0887556 49.4384 0.125277 49.436 0.166794C49.5267 0.692838 49.5888 1.22228 49.6223 1.75516C49.6979 1.88757 49.8112 1.93503 49.9619 1.89756C50.0165 1.80763 50.0494 1.70904 50.0605 1.6018C50.05 1.23928 49.999 0.881448 49.9072 0.528283C49.8999 0.404128 49.8925 0.279995 49.8852 0.155839C49.8394 0.0694104 49.7702 0.018276 49.6771 0.00248003Z" fill="#221F20"/>
<path fill-rule="evenodd" clip-rule="evenodd" d="M3.52907 1.49283C3.22624 1.47031 3.11295 1.60176 3.18942 1.88718C3.235 1.97654 3.29702 2.05322 3.37568 2.11722C4.16652 2.47244 4.94815 2.84489 5.72036 3.23455C6.79825 3.79891 7.87198 4.36853 8.94155 4.94341C9.13767 5.03242 9.34211 5.06163 9.55511 5.03104C9.62369 5.00039 9.68943 4.9639 9.75232 4.9215C9.8288 4.8342 9.89454 4.73927 9.94954 4.63669C10.035 4.62052 10.1154 4.63511 10.1906 4.68051C10.3291 4.74242 10.4605 4.81544 10.585 4.89959C11.1486 5.31695 11.6708 5.78075 12.1518 6.29078C12.173 6.39594 12.235 6.46167 12.338 6.48796C12.4294 6.46649 12.4658 6.40799 12.4476 6.31269C12.4467 6.25222 12.4358 6.19373 12.4147 6.13742C12.3142 5.95799 12.1971 5.78995 12.0641 5.63353C11.5713 5.11123 11.027 4.65474 10.4316 4.26425C10.2121 4.13006 9.97824 4.09354 9.73041 4.15471C9.63706 4.22827 9.5676 4.31957 9.52224 4.42856C9.42407 4.584 9.28887 4.62418 9.11685 4.54906C7.27398 3.49631 5.41139 2.47757 3.52907 1.49283Z" fill="#221F1F"/>
<path fill-rule="evenodd" clip-rule="evenodd" d="M64.6214 4.9397C64.5096 4.94064 64.4075 4.9735 64.3146 5.03829C64.0475 5.26153 63.8102 5.51348 63.6024 5.79413C63.5648 5.95362 63.6268 6.02307 63.7887 6.00226C63.9311 5.80136 64.0736 5.60068 64.216 5.39978C64.3153 5.29308 64.4213 5.19449 64.5337 5.10401C64.5552 5.09108 64.5699 5.09831 64.5776 5.12592C64.5909 5.18091 64.6128 5.23218 64.6433 5.27928C64.6683 5.29571 64.6902 5.29199 64.709 5.26832C64.7586 5.13446 64.7294 5.02499 64.6214 4.9397Z" fill="#231F20"/>
<path fill-rule="evenodd" clip-rule="evenodd" d="M39.9915 5.38855C39.7275 5.35459 39.6508 5.4569 39.7615 5.69527C39.8704 5.80985 39.9981 5.89376 40.1449 5.94722C40.2398 6.05676 40.3349 6.1663 40.4298 6.27584C40.5139 6.34945 40.6088 6.36764 40.7147 6.33061C40.803 6.21253 40.7995 6.09575 40.7037 5.98008C40.6198 5.89617 40.5356 5.81204 40.4517 5.72813C40.2891 5.62516 40.1357 5.51189 39.9915 5.38855Z" fill="#221F20"/>
<path fill-rule="evenodd" clip-rule="evenodd" d="M29.9777 22.9394C30.2595 22.9397 30.5369 22.9543 30.8104 22.9833C31.2784 22.9931 31.7458 23.015 32.2128 23.049C31.8552 23.7126 31.4899 24.3698 31.1171 25.0207C31.2076 25.1213 31.2552 25.2381 31.2596 25.3713C31.1432 25.4311 31.0302 25.4236 30.9199 25.3494C30.5038 26.0645 30.0765 26.7728 29.638 27.4745C29.4643 27.7378 29.406 28.0226 29.4627 28.3289C29.6694 28.8276 30.0018 29.2184 30.4598 29.501C30.6804 29.6145 30.914 29.6511 31.161 29.6106C31.3036 29.5466 31.4206 29.4517 31.5116 29.3258C31.7947 29.1733 32.0502 28.9833 32.2785 28.7561C32.5689 28.4514 32.8428 28.1337 33.1003 27.8031C33.1677 27.7319 33.2372 27.6662 33.3084 27.6059C33.3003 27.1415 33.2236 26.6886 33.0783 26.2476C33.0268 26.0971 32.9502 25.9622 32.8483 25.8423C32.7179 25.8191 32.6412 25.8739 32.6182 26.0066C32.6035 26.211 32.6035 26.4157 32.6182 26.6201C32.6451 26.8935 32.6633 27.1673 32.673 27.4416C32.6854 27.6623 32.6598 27.8776 32.5963 28.0879C32.5047 28.2034 32.417 28.2034 32.3333 28.0879C32.3324 27.88 32.3359 27.6719 32.3443 27.4635C32.3055 26.9494 32.2871 26.4345 32.2895 25.919C32.4462 25.2819 32.7529 25.2017 33.2098 25.678C33.5162 26.0789 33.6952 26.5318 33.7467 27.0363C34.7643 25.8165 35.6991 24.5348 36.5515 23.1914C37.0906 23.1802 37.6237 23.1219 38.1512 23.0161C38.2108 22.9986 38.2656 22.9732 38.3155 22.9394C39.1188 21.5564 39.5023 20.0629 39.4659 18.4592C39.4627 18.3715 39.4773 18.2876 39.5098 18.2072C39.4931 18.1647 39.4712 18.1246 39.444 18.0867C39.3671 18.0374 39.2869 17.9936 39.203 17.9553C38.9403 17.8823 38.6773 17.8091 38.4141 17.7362C37.013 17.1013 35.6253 16.4366 34.2507 15.7425C32.5529 14.9702 30.8656 14.1815 29.1888 13.3764C25.9705 11.8077 22.7493 10.245 19.5252 8.68798C19.4575 8.67374 19.3918 8.68097 19.328 8.70989C19.1056 8.83214 18.8939 8.97082 18.6926 9.12615C18.4728 9.3459 18.2865 9.59061 18.1338 9.86009C17.9477 10.2249 17.7797 10.5973 17.6298 10.9774C17.4545 11.5037 17.2792 12.0295 17.1039 12.5548C17.0929 12.598 17.0894 12.6418 17.0929 12.6863C16.778 12.6569 16.464 12.6203 16.1507 12.5767C15.8244 12.5684 15.7148 12.718 15.822 13.0259C15.687 13.321 15.5739 13.624 15.4823 13.9351C15.3351 14.5763 15.1964 15.2189 15.066 15.863C14.997 16.2755 15.0336 16.6773 15.1755 17.068C15.4273 17.5099 15.8108 17.729 16.326 17.7252C16.3157 17.8221 16.3376 17.9097 16.3917 17.9881C16.1897 18.6574 16.0253 19.3366 15.8987 20.0256C15.7293 21.0032 15.8242 21.9527 16.1835 22.8737C16.2425 22.9546 16.3192 23.0093 16.4136 23.038C16.5604 23.0797 16.7101 23.0978 16.8628 23.0928C20.0845 22.8952 23.3092 22.8111 26.5374 22.8409C27.6863 22.8512 28.833 22.884 29.9777 22.9394Z" fill="#F6941D"/>
<path fill-rule="evenodd" clip-rule="evenodd" d="M19.3056 9.17358C19.1454 9.28641 19.0102 9.42509 18.9002 9.58984C18.6007 10.1086 18.3671 10.6563 18.199 11.233C18.0456 11.7441 17.8997 12.2552 17.7607 12.7666C18.3767 12.8384 18.994 12.9079 19.6124 12.9747C19.8874 13.0109 20.1576 13.0656 20.4232 13.139C20.4475 12.8982 20.4731 12.6572 20.4999 12.416C20.543 11.9413 20.543 11.4665 20.4999 10.992C20.4188 10.1715 20.0206 9.56531 19.3056 9.17358Z" fill="#FEFEFD"/>
<path fill-rule="evenodd" clip-rule="evenodd" d="M17.9688 22.3503C18.0299 22.3718 18.0957 22.379 18.166 22.3722C18.2464 22.3722 18.3266 22.3722 18.407 22.3722C18.5992 22.3348 18.7964 22.3201 18.9987 22.3284C19.0572 22.3284 19.1155 22.3284 19.174 22.3284C19.4619 22.2945 19.754 22.2798 20.0505 22.2846C22.5624 22.1889 25.0751 22.1707 27.5885 22.2298C28.8159 22.2776 30.043 22.3214 31.2699 22.3613C31.9707 20.7705 32.6024 19.153 33.1654 17.5086C33.3019 17.0829 33.4296 16.6557 33.5488 16.2269C33.539 16.1667 33.5026 16.1301 33.4393 16.1174C31.7599 15.3217 30.08 14.5257 28.3993 13.7293C25.8728 12.4698 23.3453 11.2175 20.8175 9.97205C20.8102 9.983 20.8028 9.99395 20.7955 10.0049C20.9737 10.4665 21.0795 10.9448 21.1133 11.4399C21.128 11.8051 21.128 12.1701 21.1133 12.5353C21.0465 13.3773 20.9588 14.217 20.8503 15.0548C20.6842 16.0258 20.436 16.9753 20.1053 17.9029C19.8437 18.6147 19.5735 19.323 19.2945 20.028C18.9479 20.8606 18.5059 21.6348 17.9688 22.3503Z" fill="#FEFEFE"/>
<path fill-rule="evenodd" clip-rule="evenodd" d="M69.3551 9.79114C69.2284 9.79092 69.1042 9.8091 68.9825 9.84591C68.6045 9.99379 68.2176 10.1106 67.8212 10.1964C67.6662 10.2558 67.6259 10.3616 67.7006 10.5141C67.7677 10.5934 67.8516 10.6263 67.9526 10.6127C68.0578 10.5533 68.1674 10.5021 68.2813 10.4593C68.6368 10.3511 68.9801 10.2122 69.3112 10.0431C69.4076 9.97188 69.4223 9.88776 69.3551 9.79114Z" fill="#221E1F"/>
<path fill-rule="evenodd" clip-rule="evenodd" d="M45.6664 12.2836C45.7688 12.2982 45.8709 12.3127 45.9732 12.3274C45.985 12.3261 45.9925 12.3188 45.9951 12.3055C45.8864 12.2838 45.7769 12.2763 45.6664 12.2836Z" fill="#B0B0B0"/>
<path fill-rule="evenodd" clip-rule="evenodd" d="M7.69169 12.4064C7.28083 12.3396 7.00692 12.5002 6.86996 12.8884C6.8143 13.037 6.78866 13.1903 6.79327 13.3485C6.16875 13.3601 5.54796 13.3198 4.93067 13.228C4.07454 13.0775 3.21994 12.9169 2.36687 12.746C2.05439 12.6897 1.74038 12.6459 1.42462 12.6146C1.16122 12.5486 0.898271 12.4829 0.635755 12.4174C0.489595 12.4027 0.343656 12.4027 0.197497 12.4174C0.0603228 12.4724 -0.00541592 12.5747 0.000281334 12.7241C0.0276728 12.9559 0.15915 13.0874 0.394712 13.1185C0.562784 13.1318 0.730856 13.1465 0.898708 13.1623C1.79998 13.322 2.70586 13.4535 3.6159 13.5566C4.12801 13.6469 4.63945 13.742 5.1498 13.8415C5.53174 13.8969 5.91522 13.9372 6.30023 13.9619C6.48758 13.9543 6.67384 13.9359 6.859 13.9072C6.98106 13.8688 7.09785 13.8178 7.20961 13.7538C7.24357 13.6958 7.26921 13.6335 7.2863 13.5676C7.28543 13.3939 7.31479 13.2258 7.37396 13.0637C7.4077 13.0225 7.44802 12.9897 7.49448 12.9651C7.58936 12.9504 7.68446 12.9504 7.77934 12.9651C8.02126 13.0203 8.25507 13.1005 8.48055 13.2061C8.88813 13.428 9.30448 13.6327 9.72959 13.8195C9.95704 13.9094 10.1906 13.9497 10.4308 13.94C10.4626 13.8791 10.4553 13.8244 10.4089 13.7757C10.1965 13.7464 9.99933 13.6732 9.81724 13.5566C9.40813 13.301 8.99923 13.0455 8.59012 12.7898C8.30284 12.6251 8.00329 12.4971 7.69169 12.4064Z" fill="#221E1F"/>
<path fill-rule="evenodd" clip-rule="evenodd" d="M17.2458 13.3175C17.1641 13.3105 17.0839 13.3177 17.0048 13.3394C17.1393 13.8836 17.1503 14.4314 17.0376 14.9826C16.9022 15.6913 16.6794 16.3705 16.3693 17.0201C16.542 17.1027 16.7173 17.1793 16.8952 17.2501C17.7014 17.4999 18.483 17.8101 19.2399 18.1812C19.833 16.7024 20.2056 15.1688 20.3574 13.5804C20.3009 13.5789 20.2571 13.5533 20.2259 13.5037C19.3494 13.4661 18.4729 13.4222 17.5964 13.3723C17.4761 13.3554 17.3593 13.337 17.2458 13.3175Z" fill="#FEFEFD"/>
<path fill-rule="evenodd" clip-rule="evenodd" d="M16.4567 13.2968C16.4061 13.3537 16.366 13.4194 16.3362 13.4939C15.9761 14.3275 15.7498 15.1967 15.6569 16.101C15.638 16.314 15.6453 16.5258 15.6788 16.7364C15.8322 16.4954 15.9564 16.2397 16.0513 15.9696C16.1098 15.7941 16.1683 15.6188 16.2266 15.4438C16.3079 15.0604 16.4028 14.6807 16.5115 14.3045C16.5917 14.0451 16.6061 13.7822 16.5553 13.5158C16.5281 13.4396 16.4953 13.3666 16.4567 13.2968Z" fill="#FEFBF8"/>
<path fill-rule="evenodd" clip-rule="evenodd" d="M17.0705 17.9611C17.0486 17.9611 17.0267 17.9611 17.0048 17.9611C17.0083 18.02 17.0048 18.0783 16.9938 18.1363C16.7648 18.9349 16.6298 19.7492 16.5884 20.5791C16.5737 21.1809 16.7052 21.7468 16.9829 22.277C17.4695 21.9022 17.853 21.4421 18.1333 20.8968C18.2891 20.6048 18.4278 20.3055 18.5496 19.9985C18.7339 19.5155 18.9202 19.0335 19.1084 18.5526C19.0023 18.5061 18.8928 18.466 18.7797 18.4321C18.2685 18.3006 17.7573 18.1692 17.2458 18.0377C17.1842 18.0139 17.1257 17.9882 17.0705 17.9611Z" fill="#FEFDFD"/>
<path fill-rule="evenodd" clip-rule="evenodd" d="M35.6972 18.3247C35.4621 18.3083 35.3929 18.4106 35.4891 18.6314C35.6278 18.8358 35.7667 19.0405 35.9054 19.2449C35.9889 19.3752 36.0546 19.5139 36.1026 19.6611C36.1607 19.7201 36.2301 19.7385 36.3108 19.7159C36.3577 19.6837 36.387 19.6399 36.3984 19.5844C36.2606 19.1082 36.0268 18.6882 35.6972 18.3247Z" fill="#FDFAF7"/>
<path fill-rule="evenodd" clip-rule="evenodd" d="M37.691 18.691C37.5359 18.6967 37.4739 18.7769 37.5048 18.932C37.6253 19.1619 37.7712 19.3737 37.943 19.5674C38.0118 19.6686 38.0631 19.7781 38.0964 19.896C38.1604 19.9374 38.2297 19.9484 38.3046 19.9289C38.3359 19.887 38.3506 19.8397 38.3484 19.7865C38.3399 19.6868 38.3145 19.5919 38.2717 19.5017C38.1122 19.2473 37.9443 18.9991 37.7677 18.7568C37.7425 18.7318 37.7171 18.7099 37.691 18.691Z" fill="#FDFAF7"/>
<path fill-rule="evenodd" clip-rule="evenodd" d="M36.8801 18.7416C36.6735 18.7109 36.6115 18.7911 36.6939 18.9826C36.8181 19.1579 36.9422 19.3331 37.0664 19.5084C37.1606 19.6245 37.2739 19.7159 37.406 19.7822C37.4799 19.7901 37.5165 19.7535 37.5156 19.6727C37.4518 19.5209 37.3532 19.3929 37.2198 19.2893C37.1102 19.1035 36.9972 18.9208 36.8801 18.7416Z" fill="#FCFAF6"/>
<path fill-rule="evenodd" clip-rule="evenodd" d="M20.0508 22.2781C19.7543 22.2733 19.4622 22.288 19.1743 22.3219C19.4705 22.3204 19.7626 22.3057 20.0508 22.2781Z" fill="#FCDBBE"/>
<path fill-rule="evenodd" clip-rule="evenodd" d="M18.999 22.3298C18.7968 22.3215 18.5996 22.3361 18.4074 22.3736C18.6088 22.3723 18.806 22.3576 18.999 22.3298Z" fill="#FDDBBD"/>
<path fill-rule="evenodd" clip-rule="evenodd" d="M17.9698 22.3457C17.9579 22.347 17.9505 22.3542 17.9479 22.3676C18.0241 22.3963 18.0971 22.3963 18.167 22.3676C18.0967 22.3744 18.0309 22.3672 17.9698 22.3457Z" fill="#FCB98A"/>
<path fill-rule="evenodd" clip-rule="evenodd" d="M9.15967 22.8658C8.84544 22.8621 8.53143 22.8658 8.21742 22.8767C7.13405 22.9839 6.8345 23.5241 7.31899 24.498C7.07072 24.666 6.80777 24.8121 6.53013 24.9361C4.94452 25.6519 3.28637 26.1047 1.55591 26.2945C1.35826 26.3359 1.16105 26.3797 0.964268 26.4259C0.72235 26.5179 0.645655 26.6895 0.734183 26.9408C0.798388 27.1151 0.922415 27.2028 1.1067 27.2037C2.67369 26.9313 4.20408 26.526 5.69744 25.9877C6.38573 25.7095 7.04311 25.3734 7.6696 24.9799C7.88084 24.7904 7.92094 24.5676 7.79012 24.3117C7.71233 24.1709 7.64659 24.0247 7.59291 23.8736C7.56004 23.7539 7.58545 23.6519 7.6696 23.5669C7.97441 23.419 8.29587 23.3276 8.63377 23.293C9.25434 23.2669 9.87513 23.2522 10.4964 23.2492C10.6302 23.2056 10.6375 23.1473 10.5183 23.0739C10.4297 23.0549 10.3421 23.0329 10.2553 23.0082C9.88214 22.981 9.51685 22.9337 9.15967 22.8658Z" fill="#221E1F"/>
<path fill-rule="evenodd" clip-rule="evenodd" d="M29.9779 22.951C30.2511 22.9828 30.5287 22.9975 30.8105 22.9949C30.5371 22.9659 30.2597 22.9513 29.9779 22.951Z" fill="#FDDEC5"/>
<path fill-rule="evenodd" clip-rule="evenodd" d="M35.6523 23.2004C35.6144 23.2079 35.6034 23.2298 35.6194 23.2662C35.6422 23.25 35.6532 23.228 35.6523 23.2004Z" fill="#F8DFC0"/>
<path fill-rule="evenodd" clip-rule="evenodd" d="M46.3025 6.22006C46.3097 6.33048 46.3023 6.44003 46.2806 6.54869C46.2672 6.54606 46.26 6.53861 46.2587 6.52678C46.1397 6.47815 46.0227 6.42338 45.9081 6.36247C45.2489 6.11622 44.6062 6.15259 43.9797 6.47201C43.4453 6.81422 43.2371 7.29993 43.3552 7.92893C43.4183 8.16554 43.5097 8.39185 43.6291 8.60809C43.1751 8.75926 42.9159 9.0732 42.8512 9.55015C42.8168 10.0823 42.9555 10.5643 43.2676 10.9961C43.8706 11.7778 44.6704 12.2015 45.667 12.2668C45.7775 12.2596 45.887 12.267 45.9957 12.2887C45.9931 12.3021 45.9856 12.3093 45.9738 12.3106C45.7878 12.8143 45.6015 13.3182 45.415 13.8223C45.1383 14.7744 44.8753 15.7312 44.6262 16.6923C44.3413 17.4957 44.0564 18.2991 43.7716 19.1022C43.7291 19.3702 43.8277 19.5636 44.0674 19.6828C45.3769 20.2312 46.7283 20.6474 48.1213 20.9316C49.0197 21.1119 49.9181 21.2909 50.8165 21.4684C50.5424 22.1405 50.0603 22.5896 49.3703 22.8157C49.2204 22.8659 49.067 22.8988 48.9101 22.9143C48.7979 22.943 48.6811 22.9575 48.5595 22.9581C48.1114 22.9748 47.6657 22.9492 47.2228 22.8815C46.3991 22.7242 45.5956 22.4976 44.8124 22.2023C44.5725 22.1333 44.3314 22.0676 44.0893 22.0051C43.9515 21.9773 43.8125 21.9698 43.673 21.9832C43.6175 21.9946 43.57 22.02 43.5305 22.0599C43.3037 22.401 43.1758 22.7734 43.1471 23.1772C43.1549 23.5188 43.261 23.8255 43.4648 24.0974C43.7632 24.4273 44.1174 24.6793 44.5276 24.8532C45.0898 25.0925 45.6743 25.2493 46.2806 25.3242C46.2878 25.3643 46.2953 25.4047 46.3025 25.4447C46.1978 26.4411 46.0479 27.4305 45.8533 28.4133C45.834 28.6635 45.8011 28.9118 45.7547 29.1582C45.3123 29.3346 44.8595 29.477 44.3961 29.5854C43.2636 29.8168 42.1314 30.0503 40.9996 30.2865C40.0058 30.5496 39.0564 30.9221 38.1509 31.4038C37.384 31.8779 36.6937 32.4513 36.0802 33.1237C35.1951 34.1196 34.4062 35.1859 33.7136 36.3223C33.0288 37.4653 32.3495 38.6117 31.6757 39.7619C30.6107 41.7247 29.537 43.6818 28.4545 45.6334C27.4029 47.459 26.3292 49.27 25.2333 51.0667C25.1016 51.2277 24.9447 51.3554 24.7622 51.4501C24.7256 51.4648 24.6892 51.4648 24.6526 51.4501C24.6145 51.4021 24.5891 51.3473 24.5759 51.2858C24.5424 51.0678 24.5352 50.8487 24.554 50.6285C24.7354 49.9616 24.8961 49.2899 25.0361 48.6129C25.7333 46.1853 26.5441 43.7972 27.4684 41.4489C28.3765 39.1128 29.3406 36.7977 30.3609 34.5039C30.5084 34.1871 30.6618 33.8731 30.8211 33.5618C31.2429 32.9449 31.6592 32.3242 32.0701 31.6996C32.7049 30.9173 33.1942 30.0482 33.5383 29.0925C33.6557 28.7282 33.7324 28.3557 33.7684 27.9752C33.783 27.7784 33.7903 27.5813 33.7903 27.3836C33.7841 27.2656 33.7697 27.1488 33.7464 27.0331C33.6949 26.5286 33.5159 26.0757 33.2096 25.6748C32.7527 25.1985 32.4459 25.2787 32.2892 25.9158C32.2868 26.4313 32.3052 26.9461 32.344 27.4603C32.3357 27.6687 32.3322 27.8768 32.3331 28.0847C32.4168 28.2002 32.5044 28.2002 32.596 28.0847C32.6596 27.8744 32.6852 27.659 32.6727 27.4384C32.6631 27.1641 32.6449 26.8903 32.6179 26.6168C32.6032 26.4124 32.6032 26.2078 32.6179 26.0034C32.6409 25.8706 32.7176 25.8159 32.848 25.8391C32.9499 25.9589 33.0266 26.0939 33.0781 26.2444C33.2234 26.6854 33.3001 27.1383 33.3082 27.6027C33.3119 27.7125 33.3082 27.822 33.2972 27.9314C33.1914 28.2258 33.0965 28.5253 33.0124 28.8296C32.8901 29.222 32.7367 29.6017 32.5522 29.9688C31.8657 30.9328 31.1789 31.8968 30.4924 32.8608C30.4801 32.8722 30.4654 32.8796 30.4486 32.8827C30.1632 32.756 29.8747 32.6428 29.583 32.5431C29.3897 32.4574 29.2072 32.3553 29.0352 32.2364C28.5658 32.009 28.0982 31.7826 27.6328 31.5572C27.9218 31.0119 28.2251 30.4751 28.5421 29.9469C28.7319 29.6115 28.8853 29.261 29.0023 28.8953C29.0461 28.7566 29.0461 28.6177 29.0023 28.4791C28.7887 28.1485 28.6462 27.7907 28.575 27.4056C28.634 27.402 28.6922 27.4056 28.7503 27.4165C28.8875 27.4925 29.0334 27.5401 29.1886 27.5589C29.2252 27.5552 29.2615 27.5517 29.2981 27.548C29.3759 27.4546 29.4016 27.3488 29.3748 27.2303C29.2666 26.9775 29.1645 26.7218 29.068 26.4635C29.0536 26.3531 29.0571 26.2435 29.079 26.1349C29.1379 26.1314 29.1962 26.1349 29.2543 26.1458C29.4349 26.2177 29.6174 26.2834 29.8021 26.343C30.0261 26.3956 30.1356 26.3079 30.1308 26.0801C30.1291 26.0091 30.1181 25.9399 30.0979 25.872C30.0088 25.7011 29.9139 25.5333 29.8131 25.3681C29.7614 25.1814 29.7467 24.9915 29.7693 24.7984C29.8258 24.6519 29.9316 24.6046 30.087 24.656C30.1455 24.6852 30.2038 24.7145 30.2623 24.7437C30.5066 24.9185 30.7257 25.1194 30.9197 25.3462C31.0299 25.4204 31.143 25.4279 31.2593 25.3681C31.2549 25.2349 31.2074 25.1181 31.1169 25.0175C31.0409 24.9538 30.9861 24.8736 30.9526 24.7765C30.658 24.454 30.2928 24.2641 29.8569 24.2069C29.4754 24.2858 29.2891 24.5231 29.2981 24.9189C29.3148 25.0469 29.333 25.1748 29.3529 25.3023C29.4007 25.4415 29.4482 25.5804 29.4953 25.7186C29.3336 25.661 29.1656 25.6426 28.9914 25.6638C28.8437 25.7019 28.745 25.7931 28.6955 25.9377C28.6296 26.29 28.6697 26.6296 28.816 26.9564C28.6692 26.9345 28.5231 26.9417 28.3778 26.9783C28.208 27.0881 28.1348 27.2452 28.1587 27.4494C28.1928 27.8553 28.3171 28.2313 28.5312 28.5777C28.426 28.9004 28.2908 29.2108 28.1258 29.5088C27.7184 30.1408 27.3385 30.7906 26.9863 31.4586C26.3436 32.262 25.7007 33.0652 25.058 33.8685C24.2775 34.9129 23.5835 36.0156 22.9763 37.1767C22.1385 38.8153 21.3788 40.4875 20.6973 42.1938C20.1307 43.6553 19.5463 45.1087 18.9443 46.5536C18.4613 47.7682 18.0525 49.0097 17.7172 50.278C17.5671 50.974 17.4466 51.6751 17.3556 52.3812C17.3495 52.5021 17.3348 52.6189 17.3118 52.7317C17.1847 53.8217 17.1957 54.9099 17.3447 55.9961C17.4198 56.4527 17.5368 56.8981 17.6953 57.3325C18.0362 58.1245 18.4817 58.8475 19.032 59.5015C19.4185 59.9192 19.8749 60.2369 20.4015 60.4545C22.2258 61.0968 24.0956 61.2793 26.0112 61.0022C26.5928 60.8466 27.1261 60.591 27.6108 60.2354C28.2581 59.7124 28.8388 59.1246 29.3529 58.4718C30.2204 57.453 31.0019 56.372 31.6976 55.2293C32.0684 54.6121 32.4336 53.9915 32.7932 53.3671C33.4979 52.0747 34.2138 50.7893 34.9407 49.5112C35.1616 49.135 35.3881 48.7626 35.62 48.3939C35.4942 49.5143 35.4103 50.6388 35.368 51.7678C35.364 52.0127 35.3494 52.2537 35.3242 52.4907C35.3005 55.5636 35.1581 58.6308 34.8969 61.6923C34.8362 62.5165 34.7522 63.3381 34.6449 64.157C34.6322 64.3327 34.6869 64.4826 34.8092 64.6061C34.8243 64.6243 34.8206 64.639 34.7983 64.6499C34.1959 64.8999 33.6189 65.1957 33.0671 65.5372C32.6188 65.8319 32.2171 66.1824 31.8619 66.5888C31.2271 66.5194 30.5916 66.4464 29.9555 66.3698C29.6126 66.3406 29.2694 66.3187 28.9256 66.304C27.3409 66.2589 25.7559 66.2298 24.1705 66.2164C21.9965 66.1399 19.8237 66.0414 17.6514 65.9206C17.4994 65.9149 17.3569 65.9478 17.2241 66.0192C17.1225 66.1695 17.1444 66.301 17.2899 66.4136C17.4216 66.4793 17.5603 66.5231 17.7062 66.545C17.9911 66.5523 18.276 66.5597 18.5608 66.5669C19.1358 66.6482 19.713 66.7102 20.2919 66.7532C20.4786 66.7582 20.6612 66.7729 20.8398 66.797C20.9861 66.7994 21.1323 66.8068 21.278 66.8189C21.5449 66.8244 21.8079 66.839 22.0669 66.8627C23.4478 66.9006 24.8283 66.9516 26.2084 67.0161C26.4168 67.0213 26.6215 67.036 26.822 67.0599C27.0343 67.0704 27.2462 67.0851 27.4575 67.1037C27.7971 67.1149 28.133 67.1293 28.4654 67.1475C29.4005 67.1541 30.3353 67.165 31.2703 67.1804C31.285 67.2023 31.2994 67.2242 31.3141 67.2461C31.3667 67.2503 31.4178 67.2612 31.4675 67.279C31.3102 67.8021 31.5002 68.0469 32.0372 68.0129C32.1266 67.9978 32.2143 67.9759 32.3002 67.9472C32.3745 67.8917 32.4549 67.8552 32.5412 67.8376C32.2967 68.0596 32.1836 68.3334 32.2016 68.6592C32.2334 68.7339 32.2737 68.8034 32.3221 68.8673C32.5158 68.972 32.7203 68.994 32.9357 68.9331C33.0597 68.9039 33.1767 68.8564 33.2863 68.7906C33.2935 68.7979 33.3009 68.8053 33.3082 68.8126C33.212 68.9756 33.1791 69.1508 33.2096 69.3384C33.2308 69.3778 33.2565 69.4144 33.2863 69.4479C33.4835 69.5408 33.6882 69.559 33.8998 69.5027C34.2005 69.4313 34.4926 69.3401 34.7763 69.2288C34.745 69.3101 34.7231 69.394 34.7106 69.4808C34.704 69.6641 34.7917 69.7662 34.9736 69.7875C35.1423 69.8015 35.3104 69.7943 35.4776 69.7656C35.7324 69.7044 35.9881 69.646 36.2445 69.5903C37.1484 69.474 38.0543 69.3717 38.9617 69.2836C39.4078 69.265 39.8533 69.2722 40.2984 69.3055C40.493 69.4613 40.7121 69.5708 40.9558 69.6341C41.5251 69.7702 42.1022 69.8578 42.6869 69.897C43.7602 69.9389 44.8339 69.968 45.9081 69.9847C46.0994 69.9919 46.2891 70.0101 46.4778 70.0394C46.7309 70.0449 46.9792 70.0668 47.2228 70.1051C47.9694 70.1413 48.7145 70.1998 49.458 70.2804C50.4664 70.3943 51.4744 70.5113 52.4819 70.631C52.8143 70.645 53.143 70.6669 53.468 70.6967C53.7903 70.6969 54.1118 70.7153 54.4322 70.7514C54.9101 70.8216 55.3849 70.9092 55.8565 71.0144C56.0765 71.0343 56.2956 71.0599 56.5139 71.091C56.9048 71.1066 57.2918 71.1285 57.6753 71.1568C58.6298 71.15 59.583 71.1793 60.5349 71.2444C60.9694 71.2301 61.404 71.2229 61.8387 71.2225C62.2075 71.1931 62.58 71.1712 62.9563 71.1568C63.2992 71.132 63.6426 71.1101 63.9862 71.091C64.0986 71.0656 64.2156 71.0509 64.3368 71.0472C64.7014 71.0047 65.0667 70.9644 65.4324 70.9267C65.7894 70.863 66.1472 70.8082 66.5062 70.7624C66.6039 70.7374 66.7062 70.7228 66.8129 70.7186C66.9887 70.7059 67.164 70.6877 67.3388 70.6638C67.7951 70.5705 68.248 70.4645 68.6974 70.3461C69.2862 70.4761 69.8779 70.5709 70.4724 70.631C70.6663 70.6351 70.8563 70.6498 71.0421 70.6748C71.5825 70.6925 72.123 70.7072 72.6637 70.7186C73.106 70.716 73.5442 70.7306 73.9784 70.7624C74.088 70.7624 74.1976 70.7624 74.3071 70.7624C74.5084 70.7672 74.7056 70.7817 74.8988 70.8062C75.1584 70.8774 75.3192 70.7863 75.3809 70.5324C75.3559 70.4051 75.2828 70.3174 75.1617 70.2695C75.0814 70.2476 75.001 70.2257 74.9207 70.2037C74.4673 70.1805 74.0144 70.1549 73.5621 70.1271C72.9997 70.1463 72.4373 70.1501 71.8748 70.138C71.1087 70.0719 70.3418 70.0206 69.574 69.9847C70.2368 69.709 70.759 69.2672 71.1407 68.6592C71.5367 67.961 71.8069 67.2161 71.9515 66.4245C72.088 65.7213 72.1866 65.0127 72.2473 64.2994C72.2479 64.1778 72.2625 64.061 72.2911 63.9489C72.3552 63.1082 72.4282 62.2685 72.5103 61.4294C72.5122 61.2861 72.5268 61.1474 72.5541 61.0131C72.7075 58.9099 72.8609 56.8067 73.0143 54.7035C73.0213 54.5317 73.0359 54.3637 73.0581 54.1996C73.0588 54.0749 73.0661 53.9507 73.08 53.8272C73.0886 53.6263 73.1032 53.4291 73.1238 53.2356C73.1251 53.0965 73.1324 52.9578 73.1457 52.8194C73.1528 52.6038 73.1674 52.3919 73.1896 52.184C73.2456 51.206 73.293 50.2274 73.332 49.2483C73.343 48.3281 73.3466 47.408 73.343 46.4878C73.3192 46.324 73.3046 46.1559 73.2991 45.9839C73.2341 44.0932 72.9017 42.2529 72.3021 40.463C71.8338 39.1761 71.1839 37.993 70.3519 36.9138C69.735 36.2318 69.0373 35.6512 68.2592 35.1721C67.655 34.8152 67.034 34.4866 66.3966 34.1862C65.5814 33.8269 64.7632 33.4764 63.9424 33.1346C62.3144 32.4995 60.6857 31.8641 59.0558 31.2286C58.5014 30.9999 57.9498 30.7626 57.4014 30.5166C57.5578 29.3278 57.7112 28.1375 57.8615 26.9455C57.8959 26.71 57.9398 26.4762 57.993 26.2444C58.0053 26.233 58.02 26.2256 58.0368 26.2225C58.5095 26.3851 58.9442 26.3156 59.3407 26.0144C59.6049 25.7742 59.8131 25.4929 59.9652 25.1709C60.1543 24.7656 60.282 24.3419 60.3486 23.9002C61.5234 23.9705 62.2575 23.4373 62.5509 22.3009C62.6907 21.5643 62.5336 20.8998 62.0798 20.3072C62.5185 19.8066 62.953 19.3027 63.3836 18.7955C63.8218 18.2038 64.0265 17.5391 63.9971 16.8019C63.8247 15.8852 63.2734 15.4398 62.3427 15.4654C62.516 14.2278 62.1216 13.2163 61.1594 12.4311C60.8355 12.2087 60.4812 12.0591 60.0966 11.982C59.9845 10.6511 59.4329 9.54467 58.4422 8.66286C57.4645 7.89059 56.3726 7.67523 55.1663 8.01656C54.8356 7.45198 54.4227 6.95159 53.9282 6.51583C53.5208 6.17712 53.0606 5.93613 52.5477 5.79285C51.8223 5.66819 51.2125 5.87632 50.7179 6.41724C50.5312 5.87282 50.1916 5.45305 49.699 5.1575C48.9421 4.71914 48.1458 4.6315 47.3105 4.8946C46.7127 5.13691 46.3766 5.5788 46.3025 6.22006Z" fill="#221F20"/>
<path fill-rule="evenodd" clip-rule="evenodd" d="M33.3082 27.6013C33.237 27.6616 33.1675 27.7273 33.1 27.7985C32.8425 28.1291 32.5686 28.4468 32.2783 28.7515C32.0499 28.9787 31.7944 29.1687 31.5113 29.3211C31.4204 29.4471 31.3034 29.542 31.1607 29.6059C30.9138 29.6465 30.6802 29.6099 30.4595 29.4964C30.0015 29.2138 29.6691 28.8229 29.4625 28.3243C29.4057 28.018 29.464 27.7332 29.6378 27.4699C30.0762 26.7681 30.5035 26.0598 30.9197 25.3448C30.7257 25.118 30.5066 24.9171 30.2623 24.7423C30.2038 24.7131 30.1455 24.6838 30.087 24.6546C29.9316 24.6031 29.8258 24.6505 29.7692 24.797C29.7467 24.9901 29.7614 25.18 29.8131 25.3667C29.9139 25.5318 30.0088 25.6997 30.0979 25.8706C30.1181 25.9385 30.1291 26.0077 30.1308 26.0787C30.1356 26.3065 30.0261 26.3942 29.8021 26.3416C29.6174 26.282 29.4349 26.2163 29.2543 26.1444C29.1962 26.1335 29.1379 26.13 29.079 26.1335C29.0571 26.2421 29.0536 26.3517 29.068 26.4621C29.1644 26.7204 29.2666 26.9761 29.3748 27.2289C29.4015 27.3474 29.3759 27.4532 29.2981 27.5466C29.2615 27.5503 29.2251 27.5538 29.1886 27.5575C29.0334 27.5387 28.8875 27.4911 28.7503 27.4151C28.6922 27.4041 28.6339 27.4006 28.575 27.4041C28.6462 27.7893 28.7886 28.1471 29.0023 28.4777C29.0461 28.6163 29.0461 28.7552 29.0023 28.8939C28.8853 29.2596 28.7319 29.6101 28.5421 29.9455C28.225 30.4737 27.9218 31.0105 27.6327 31.5558C28.0982 31.7812 28.5658 32.0076 29.0352 32.235C29.2072 32.3539 29.3897 32.456 29.583 32.5417C29.8746 32.6414 30.1632 32.7546 30.4485 32.8813C30.4654 32.8782 30.4801 32.8707 30.4924 32.8594C31.1789 31.8954 31.8656 30.9314 32.5522 29.9674C32.7367 29.6003 32.8901 29.2206 33.0123 28.8282C33.0965 28.5239 33.1914 28.2244 33.2972 27.9299C33.3082 27.8206 33.3119 27.7111 33.3082 27.6013Z" fill="#FDFDFC"/>
<path fill-rule="evenodd" clip-rule="evenodd" d="M62.1012 17.2016C62.0723 17.1979 62.0466 17.2051 62.0245 17.2235C62.0087 17.4961 61.9138 17.7371 61.7396 17.9465C61.5862 18.129 61.4182 18.2971 61.2356 18.4504C61.2074 18.5398 61.2328 18.6093 61.3123 18.6585C61.3592 18.6723 61.4031 18.6651 61.4438 18.6366C61.5343 18.5242 61.6329 18.4182 61.7396 18.319C61.9474 18.0933 62.0863 17.8304 62.156 17.5303C62.1707 17.4426 62.1707 17.355 62.156 17.2674C62.1332 17.2483 62.1148 17.2264 62.1012 17.2016Z" fill="#F4F4F4"/>
<path fill-rule="evenodd" clip-rule="evenodd" d="M59.5376 13.2302C59.3448 13.2146 59.2825 13.2948 59.3513 13.4712C59.5284 13.5798 59.7074 13.6856 59.8882 13.7888C60.0935 13.9253 60.2322 14.1115 60.3046 14.3475C60.1799 14.4577 60.1908 14.5526 60.3374 14.6323C60.4816 14.5977 60.5511 14.5063 60.5456 14.3585C60.5401 14.2268 60.5 14.1063 60.4251 13.997C60.3359 13.8493 60.2301 13.7141 60.1073 13.5917C59.9136 13.4742 59.7236 13.3537 59.5376 13.2302Z" fill="#F5F5F5"/>
<path fill-rule="evenodd" clip-rule="evenodd" d="M57.0617 11.6635C56.9151 11.6856 56.7764 11.7329 56.6454 11.8059C56.52 11.8225 56.3958 11.8444 56.2728 11.8716C56.1876 11.9502 56.1876 12.0304 56.2728 12.1126C56.4979 12.1187 56.717 12.0821 56.9302 12.003C57.0122 11.9649 57.0816 11.9101 57.1384 11.8387C57.1531 11.8096 57.1531 11.7802 57.1384 11.7511C57.1082 11.7246 57.0827 11.6954 57.0617 11.6635Z" fill="#F3F3F3"/>
<path fill-rule="evenodd" clip-rule="evenodd" d="M46.2804 29.3565C46.281 29.4739 46.2736 29.5909 46.2584 29.707C47.2042 31.2036 48.15 32.7006 49.0962 34.1982C49.642 35.047 50.2008 35.8867 50.7725 36.7177C51.8022 35.6554 52.8284 34.5891 53.8512 33.5191C54.8253 32.5303 55.826 31.5738 56.8533 30.649C57.0067 29.5755 57.1601 28.502 57.3135 27.4285C57.4027 26.9371 57.5013 26.4479 57.6093 25.9606C57.3704 25.6048 57.2537 25.2105 57.2587 24.7776C57.276 24.1462 57.4329 23.5547 57.7298 23.003C58.085 22.721 58.4137 22.4069 58.7159 22.0609C58.8833 21.8688 58.9819 21.646 59.0117 21.3927C59.003 21.2306 58.93 21.1066 58.7926 21.0203C58.6024 20.9228 58.4052 20.8424 58.2009 20.7793C58.0986 20.7646 57.9965 20.7646 57.8942 20.7793C57.8477 20.8038 57.8074 20.8367 57.7736 20.8779C57.4945 21.44 57.1476 21.9549 56.7328 22.4224C56.6048 22.5429 56.4549 22.6196 56.2836 22.6525C56.1133 22.6295 55.9891 22.5418 55.9111 22.3896C55.8975 22.1339 55.9338 21.8854 56.0206 21.6447C56.8303 19.8144 57.5716 17.9597 58.2448 16.0799C57.4605 16.0701 57.0952 15.6757 57.1491 14.8969C56.2923 14.9889 55.7116 14.6309 55.4071 13.8233C55.3709 13.6715 55.3453 13.5182 55.3304 13.3633C55.113 13.4625 54.8864 13.5355 54.6511 13.5824C54.5772 13.6165 54.497 13.6347 54.41 13.6371C54.2308 13.6551 54.0555 13.6516 53.8841 13.6262C53.0786 13.5797 52.4466 13.2292 51.9887 12.5746C51.8464 12.32 51.7478 12.0499 51.6928 11.764C50.9932 12.2615 50.2481 12.3382 49.4577 11.994C48.9526 11.7114 48.6167 11.2914 48.4497 10.7343C48.1009 11.0795 47.7356 11.4044 47.3541 11.7092C47.0197 11.9622 46.6509 12.1484 46.2475 12.2678C46.1668 12.6131 46.0864 12.9564 46.0064 13.2975C46.0411 13.2638 46.0812 13.2382 46.127 13.2209C46.4259 13.1516 46.7254 13.1516 47.0254 13.2209C47.6804 13.3565 48.2792 13.6194 48.8222 14.0096C48.9375 14.1123 49.0289 14.2328 49.0962 14.3711C49.1367 14.5895 49.0635 14.7575 48.877 14.875C48.877 14.9709 48.8295 15.0075 48.7346 14.9845C48.7346 14.9554 48.7346 14.926 48.7346 14.8969C48.6053 14.898 48.4811 14.8725 48.3621 14.8202C48.0858 14.6712 47.8009 14.5398 47.5075 14.4258C47.1382 14.3492 46.7657 14.2907 46.3899 14.2506C46.1154 14.2212 45.9291 14.0788 45.8311 13.8233C45.5353 14.9221 45.2285 16.0175 44.9108 17.1096C44.6879 17.8149 44.4432 18.5122 44.1767 19.2019C44.1787 19.2262 44.1859 19.2481 44.1986 19.2676C44.6108 19.4512 45.0346 19.6046 45.4696 19.7277C46.9099 20.0565 48.3489 20.3852 49.7864 20.7136C50.1681 20.7613 50.5479 20.8196 50.9259 20.8888C51.1152 20.9302 51.2649 21.0288 51.3751 21.1846C51.184 22.2377 50.5814 22.9423 49.5673 23.2988C49.0085 23.4547 48.4388 23.5058 47.8581 23.4521C47.0633 23.3459 46.2819 23.1778 45.5134 22.9482C45.0158 22.7874 44.5192 22.6268 44.0233 22.4662C43.9534 22.436 43.8842 22.4323 43.8152 22.4553C43.664 22.7368 43.6055 23.0361 43.6399 23.3535C43.7367 23.706 43.9521 23.958 44.2863 24.1094C44.4289 24.1764 44.5749 24.2347 44.7245 24.2846C45.3022 24.4284 45.8793 24.5745 46.4557 24.7228C46.6141 24.7743 46.7418 24.8657 46.8391 24.9967C46.856 25.5032 46.8269 26.0071 46.7515 26.5083C46.6281 27.2399 46.4966 27.9701 46.357 28.6992C46.3242 28.9176 46.2988 29.1367 46.2804 29.3565Z" fill="#FEFDFD"/>
<path fill-rule="evenodd" clip-rule="evenodd" d="M48.6907 25.1538C48.6435 25.1509 48.5997 25.1619 48.5592 25.1866C48.4972 25.2486 48.4349 25.3108 48.3729 25.3728C48.3311 25.4953 48.3712 25.5429 48.4934 25.5153C48.5587 25.4438 48.6282 25.3744 48.7016 25.3071C48.7474 25.2515 48.7437 25.2002 48.6907 25.1538Z" fill="#232122"/>
<path fill-rule="evenodd" clip-rule="evenodd" d="M54.958 25.0286C54.9265 25.0954 54.912 25.1683 54.9142 25.2476C54.9142 25.2958 54.9216 25.3397 54.9361 25.3791C54.9354 25.2617 54.9429 25.1447 54.958 25.0286Z" fill="#A9A8A8"/>
<path fill-rule="evenodd" clip-rule="evenodd" d="M55.5495 24.2196C55.4967 24.2117 55.4638 24.2336 55.4509 24.2853C55.3823 24.596 55.3457 24.9099 55.3413 25.2274C55.3858 25.301 55.4371 25.3082 55.4947 25.2493C55.5188 24.9439 55.5591 24.6409 55.6152 24.3401C55.6073 24.2921 55.5854 24.2518 55.5495 24.2196Z" fill="#211F1F"/>
<path fill-rule="evenodd" clip-rule="evenodd" d="M54.9576 25.0136C54.9425 25.1297 54.9351 25.2467 54.9357 25.3642C54.96 25.4415 55.0001 25.4487 55.0562 25.3861C55.0983 25.1343 55.1384 24.8824 55.1768 24.6302C55.175 24.5592 55.164 24.49 55.1439 24.4221C55.0994 24.3485 55.0481 24.3413 54.9905 24.4002C54.985 24.6055 54.9741 24.8099 54.9576 25.0136Z" fill="#232122"/>
<path fill-rule="evenodd" clip-rule="evenodd" d="M48.9102 22.921C48.7881 22.9183 48.6713 22.9328 48.5596 22.9648C48.6812 22.9641 48.798 22.9497 48.9102 22.921Z" fill="#B0AFB0"/>
<path fill-rule="evenodd" clip-rule="evenodd" d="M53.1609 19.6022C53.1243 19.6022 53.0879 19.6022 53.0513 19.6022C53.0539 19.6721 53.0721 19.7378 53.1061 19.7993C53.2157 19.9236 53.3252 20.0476 53.4348 20.1718C53.5064 20.3089 53.5869 20.4404 53.6758 20.5661C53.7295 20.6544 53.7661 20.7493 53.7854 20.851C53.8145 20.8801 53.8439 20.8801 53.873 20.851C53.8538 20.6836 53.8027 20.523 53.7197 20.369C53.5696 20.0844 53.3833 19.8287 53.1609 19.6022Z" fill="#221F20"/>
<path fill-rule="evenodd" clip-rule="evenodd" d="M52.1094 19.3146C52.0728 19.3146 52.0365 19.3146 51.9999 19.3146C52.0023 19.3645 52.0205 19.4083 52.0546 19.446C52.3987 19.7644 52.68 20.1294 52.8983 20.5414C52.9752 20.58 53.0081 20.5581 52.9969 20.4757C52.7642 20.0391 52.4684 19.652 52.1094 19.3146Z" fill="#221F20"/>
<path fill-rule="evenodd" clip-rule="evenodd" d="M51.0577 18.9163C51.0139 18.9163 50.9701 18.9163 50.9263 18.9163C50.9346 19.0061 50.9675 19.0865 51.0249 19.1573C51.3152 19.4548 51.5637 19.7834 51.7699 20.1431C51.8234 20.2297 51.9001 20.2735 52 20.2746C51.9766 20.1324 51.9218 20.0009 51.8357 19.8802C51.5883 19.549 51.329 19.2276 51.0577 18.9163Z" fill="#221F20"/>
<path fill-rule="evenodd" clip-rule="evenodd" d="M49.5456 15.4167C49.4748 15.4919 49.42 15.5795 49.3812 15.6796C49.2309 16.1426 49.0775 16.6027 48.9211 17.0599C48.8654 17.1228 48.8034 17.1775 48.7348 17.2242C48.4127 17.2853 48.1131 17.4021 47.8364 17.5747C47.3628 17.9761 47.3153 18.4252 47.6939 18.9221C48.0586 19.2457 48.4859 19.41 48.9758 19.415C49.0924 19.3914 49.191 19.3366 49.2717 19.2507C49.3311 19.1361 49.3054 19.0448 49.195 18.9769C48.7655 18.9206 48.3564 18.7966 47.9679 18.6044C47.6939 18.4257 47.6793 18.2285 47.924 18.0129C48.0154 17.9562 48.1105 17.9051 48.2089 17.8595C48.4815 17.7699 48.7517 17.6751 49.0197 17.5747C49.2478 17.4001 49.3902 17.1701 49.447 16.8846C49.5018 16.5227 49.5749 16.1649 49.6661 15.8111C49.6955 15.7147 49.6736 15.6343 49.6004 15.5701C49.592 15.5147 49.5738 15.4636 49.5456 15.4167Z" fill="#221F20"/>
<path fill-rule="evenodd" clip-rule="evenodd" d="M51.2545 17.6875C51.24 17.7269 51.2325 17.7708 51.2325 17.819C51.229 17.8915 51.2437 17.9572 51.2764 18.0161C51.2599 17.9075 51.2525 17.7979 51.2545 17.6875Z" fill="#9B9A9B"/>
<path fill-rule="evenodd" clip-rule="evenodd" d="M45.6884 17.6441C45.5434 17.6174 45.5033 17.6684 45.5679 17.7975C45.7502 18.0159 45.9109 18.2496 46.05 18.4985C46.1011 18.5789 46.1668 18.6447 46.2472 18.6957C46.3419 18.6265 46.3493 18.5461 46.2691 18.4547C46.0794 18.2216 45.9115 17.9732 45.7651 17.7098C45.7399 17.6848 45.7145 17.6629 45.6884 17.6441Z" fill="#221F20"/>
<path fill-rule="evenodd" clip-rule="evenodd" d="M46.2804 17.5748C46.2439 17.5748 46.2075 17.5748 46.1709 17.5748C46.1873 17.6861 46.2274 17.7884 46.2914 17.8815C46.5498 18.1475 46.747 18.4542 46.8831 18.8017C46.9205 18.833 46.9499 18.8256 46.9707 18.7798C46.8318 18.3267 46.6017 17.9251 46.2804 17.5748Z" fill="#221F20"/>
<path fill-rule="evenodd" clip-rule="evenodd" d="M51.2548 17.6807C51.2529 17.7911 51.2603 17.9007 51.2768 18.0093C51.4106 18.1362 51.5713 18.2201 51.7588 18.2613C52.4892 18.4074 53.2198 18.5533 53.9501 18.6995C54.1213 18.7207 54.2893 18.706 54.4541 18.6556C54.6066 18.4709 54.6467 18.2628 54.5746 18.0312C54.2157 17.0973 53.5327 16.6845 52.5258 16.7934C51.9703 16.7914 51.5577 17.0287 51.2877 17.5054C51.264 17.5615 51.2531 17.62 51.2548 17.6807Z" fill="#221E1F"/>
<path fill-rule="evenodd" clip-rule="evenodd" d="M52.0218 17.3314C51.8323 17.4151 51.6971 17.5538 51.6165 17.7477C51.5994 17.7792 51.6031 17.8086 51.6274 17.8353C51.7236 17.8511 51.8185 17.873 51.9123 17.901C51.9925 17.8813 52.0727 17.8778 52.1533 17.8901C52.0271 17.7231 51.9833 17.5369 52.0218 17.3314Z" fill="#F1F1F1"/>
<path fill-rule="evenodd" clip-rule="evenodd" d="M53.1178 17.1848C53.0718 17.1783 53.0279 17.1855 52.9863 17.2067C53.1857 17.5967 53.0908 17.8853 52.7014 18.0721C53.2057 18.2356 53.7243 18.3267 54.2573 18.346C54.2794 18.0068 54.1554 17.733 53.8847 17.5244C53.6494 17.363 53.3937 17.2497 53.1178 17.1848Z" fill="#F9F9F9"/>
<path fill-rule="evenodd" clip-rule="evenodd" d="M53.0953 16.3244C52.6713 16.2881 52.2694 16.3648 51.8901 16.5545C51.7996 16.634 51.8068 16.7035 51.912 16.7626C52.1053 16.655 52.3097 16.5784 52.5256 16.5326C53.165 16.4403 53.7347 16.5937 54.2348 16.9927C54.4044 17.1475 54.5578 17.3154 54.6949 17.4966C54.7158 17.5101 54.734 17.5064 54.7497 17.4856C54.7644 17.4565 54.7644 17.4271 54.7497 17.398C54.361 16.7861 53.8095 16.4281 53.0953 16.3244Z" fill="#222021"/>
<path fill-rule="evenodd" clip-rule="evenodd" d="M46.894 14.9247C46.3867 14.8667 45.9447 15.0053 45.5682 15.341C45.3905 15.5791 45.3614 15.8348 45.4806 16.1078C45.5696 16.2018 45.6756 16.271 45.7983 16.3159C46.3481 16.4993 46.8959 16.6892 47.4418 16.8855C48.0076 17.072 48.2449 16.8713 48.154 16.283C48.1086 15.8455 47.9079 15.4987 47.5514 15.2424C47.3441 15.1059 47.1249 14.9999 46.894 14.9247Z" fill="#221F20"/>
<path fill-rule="evenodd" clip-rule="evenodd" d="M46.0394 15.505C45.8716 15.5854 45.7876 15.7169 45.7874 15.8994C45.9079 15.9414 46.0285 15.9852 46.149 16.0308C46.1562 16.0236 46.1637 16.0161 46.1709 16.0089C46.0622 15.8595 46.0184 15.6914 46.0394 15.505Z" fill="#F0F0F0"/>
<path fill-rule="evenodd" clip-rule="evenodd" d="M47.1572 15.4548C47.1454 15.4561 47.1379 15.4634 47.1353 15.4767C47.2935 15.8459 47.1912 16.1125 46.8285 16.2764C47.0987 16.4041 47.3691 16.5321 47.6393 16.6598C47.6971 16.6153 47.7592 16.5787 47.8255 16.5503C47.8643 16.1623 47.7291 15.8518 47.4202 15.6191C47.3345 15.5587 47.2468 15.5039 47.1572 15.4548Z" fill="#F7F7F7"/>
<path fill-rule="evenodd" clip-rule="evenodd" d="M51.9337 14.6651C51.5838 14.6279 51.266 14.708 50.9805 14.9061C50.8817 15.1355 50.929 15.3292 51.1229 15.4867C51.2783 15.5653 51.4391 15.6311 51.605 15.6839C52.2046 15.7691 52.789 15.9152 53.3581 16.122C54.3045 16.4982 55.2467 16.8779 56.1848 17.2613C56.2944 17.2637 56.4039 17.2564 56.5135 17.2394C56.6941 17.1743 56.7633 17.0466 56.7217 16.856C56.702 16.7433 56.6581 16.6413 56.5902 16.5492C56.4754 16.4198 56.3476 16.3065 56.2067 16.2097C55.5377 15.7546 54.8146 15.4115 54.0374 15.18C53.3313 15.0172 52.6301 14.8454 51.9337 14.6651Z" fill="#221F1F"/>
<path fill-rule="evenodd" clip-rule="evenodd" d="M54.6514 13.5903C54.3972 13.6265 54.1417 13.6412 53.8844 13.6341C54.0558 13.6596 54.2311 13.6631 54.4103 13.6451C54.4973 13.6427 54.5775 13.6245 54.6514 13.5903Z" fill="#9A9999"/>
<path fill-rule="evenodd" clip-rule="evenodd" d="M52.3288 10.273C52.2915 10.2695 52.2549 10.2732 52.2192 10.284C52.1502 10.3893 52.0735 10.4879 51.9891 10.5797C51.9701 10.6711 52.003 10.7405 52.0878 10.7879C52.3209 10.7572 52.427 10.622 52.4055 10.3825C52.3836 10.3427 52.3582 10.3061 52.3288 10.273Z" fill="#F2F2F2"/>
<path fill-rule="evenodd" clip-rule="evenodd" d="M54.3008 9.22625C54.2101 9.21858 54.1224 9.22953 54.0379 9.25911C53.9971 9.36799 54.0262 9.45563 54.1255 9.52201C54.5504 9.6401 54.8535 9.89927 55.0349 10.2998C55.1017 10.3767 55.1747 10.3839 55.254 10.3217C55.281 10.1543 55.2371 10.0084 55.1225 9.8835C54.8957 9.60154 54.6218 9.38245 54.3008 9.22625Z" fill="#F7F6F7"/>
<path fill-rule="evenodd" clip-rule="evenodd" d="M48.3621 9.14331C48.278 9.18165 48.1903 9.21451 48.0992 9.2419C48.0372 9.24562 47.9749 9.24913 47.9129 9.25285C47.7411 9.22919 47.5695 9.20005 47.398 9.16522C47.3182 9.15602 47.2744 9.18888 47.2665 9.26381C47.2961 9.3556 47.3618 9.39942 47.4637 9.39526C47.639 9.40994 47.8143 9.40994 47.9896 9.39526C48.1301 9.37072 48.2506 9.3085 48.3512 9.20904C48.3617 9.18822 48.3654 9.16631 48.3621 9.14331Z" fill="#EEEEEE"/>
<path fill-rule="evenodd" clip-rule="evenodd" d="M49.6118 7.99282C49.479 7.97836 49.3547 8.00378 49.2392 8.0695C49.1253 8.15911 49.1253 8.24674 49.2392 8.3324C49.2758 8.34708 49.3122 8.34708 49.3488 8.3324C49.4958 8.25112 49.6492 8.23644 49.809 8.28859C50.0294 8.37337 50.2413 8.47547 50.4445 8.5953C50.4727 8.60604 50.5021 8.60976 50.5321 8.60626C50.5415 8.4873 50.4905 8.40339 50.3787 8.35431C50.132 8.21015 49.8763 8.08966 49.6118 7.99282Z" fill="#F1F1F1"/>
<path fill-rule="evenodd" clip-rule="evenodd" d="M45.5798 7.29089C45.3944 7.30776 45.3578 7.39167 45.4702 7.54284C45.6893 7.64515 45.9085 7.74725 46.1276 7.84956C46.2096 7.86993 46.2863 7.85898 46.3577 7.8167C46.3805 7.7479 46.3623 7.69313 46.3029 7.65238C46.0476 7.55401 45.8066 7.43352 45.5798 7.29089Z" fill="#F1F1F1"/>
<path fill-rule="evenodd" clip-rule="evenodd" d="M46.302 6.23096C46.2873 6.33327 46.2729 6.43536 46.2582 6.53768C46.2595 6.54951 46.2667 6.55696 46.2801 6.55958C46.3018 6.45092 46.3092 6.34138 46.302 6.23096Z" fill="#8E8D8E"/>
<path fill-rule="evenodd" clip-rule="evenodd" d="M49.1291 25.3595C49.0745 25.3551 49.0235 25.366 48.9757 25.3923C48.9062 25.4839 48.8186 25.5496 48.7127 25.5895C48.6551 25.6596 48.6623 25.7253 48.7347 25.7867C48.9143 25.7678 49.0568 25.6839 49.162 25.5347C49.1777 25.471 49.1668 25.4127 49.1291 25.3595Z" fill="#221F1F"/>
<path fill-rule="evenodd" clip-rule="evenodd" d="M33.7902 27.3982C33.7902 27.5958 33.783 27.793 33.7683 27.9897C33.8007 27.8745 33.8152 27.754 33.8121 27.6282C33.8121 27.5476 33.8049 27.4709 33.7902 27.3982Z" fill="#C8C5C6"/>
<path fill-rule="evenodd" clip-rule="evenodd" d="M46.2802 29.369C46.2614 29.4602 46.2469 29.555 46.2364 29.6538C46.2368 29.6808 46.2441 29.7027 46.2583 29.7196C46.2734 29.6034 46.2809 29.4864 46.2802 29.369Z" fill="#ADABAC"/>
<path fill-rule="evenodd" clip-rule="evenodd" d="M36.135 49.7985C36.1389 49.9277 36.1242 50.052 36.0911 50.1709C36.0629 50.4625 36.041 50.7546 36.0254 51.0473C36.0324 51.2493 36.0179 51.4464 35.9816 51.6388C35.9296 54.0121 35.8567 56.3857 35.7624 58.7591C35.7703 58.9974 35.7556 59.2312 35.7186 59.4601C35.6172 61.13 35.4638 62.795 35.2584 64.4553C35.9877 64.2399 36.7327 64.156 37.4936 64.2033C37.9752 64.2416 38.4573 64.2782 38.9398 64.3128C39.2174 64.3275 39.4949 64.3275 39.7725 64.3128C39.8435 64.2929 39.8948 64.2491 39.9259 64.1814C40.3048 64.0618 40.692 63.9814 41.0873 63.9404C41.586 63.9266 42.0825 63.901 42.5773 63.8637C42.6814 63.8302 42.791 63.8155 42.906 63.8199C43.2937 63.7965 43.6807 63.7673 44.0674 63.7323C44.2892 63.6957 44.5155 63.681 44.7467 63.6885C45.7977 63.6328 46.8495 63.6109 47.9022 63.6227C47.9197 63.0167 47.9342 62.4105 47.946 61.8043C47.9512 61.4785 47.9732 61.1572 48.0117 60.8404C48.0308 60.4749 48.0527 60.1097 48.0775 59.7449C48.0751 59.6084 48.0895 59.477 48.1213 59.3506C48.1333 59.2049 48.1408 59.0588 48.1432 58.9124C48.1379 58.754 48.1526 58.6007 48.187 58.4523C48.2024 58.2628 48.2098 58.0729 48.2089 57.8827C48.2109 57.7394 48.2254 57.6007 48.2528 57.4665C48.308 56.6497 48.3374 55.8316 48.3404 55.0127C48.3393 54.8692 48.354 54.7305 48.3842 54.5964C48.4357 53.7834 48.5124 52.9728 48.6143 52.1646C48.748 51.1417 48.8832 50.1194 49.0197 49.0974C49.0123 48.9962 49.0267 48.9011 49.0635 48.8126C49.163 48.0607 49.2616 47.3086 49.3594 46.556C49.4637 45.3127 49.5842 44.0712 49.7209 42.8316C49.715 42.7236 49.7297 42.6213 49.7648 42.5249C49.8662 41.5865 49.994 40.6517 50.1482 39.7206C50.3086 38.9183 50.462 38.1151 50.6084 37.3107C50.3871 37.1185 50.1971 36.8994 50.0387 36.6534C49.685 35.9863 49.3052 35.3365 48.8992 34.7036C48.1816 33.6116 47.4584 32.5234 46.7298 31.4392C46.3551 30.8433 45.9863 30.2443 45.6232 29.6427C45.0099 29.9731 44.3597 30.1922 43.673 30.3C43.8452 30.886 44.0315 31.4701 44.2318 32.0526C44.61 33.1007 44.975 34.1523 45.3274 35.2075C45.3401 35.2403 45.3585 35.2695 45.3822 35.2951C45.9587 34.6858 46.6016 34.16 47.3105 33.7177C47.3261 33.6622 47.3408 33.6075 47.3543 33.5534C47.4639 33.5387 47.5735 33.5387 47.683 33.5534C47.7571 33.5759 47.7825 33.6235 47.7597 33.6958C47.7361 33.7505 47.7069 33.8016 47.6721 33.8491C46.9384 34.546 46.2263 35.2653 45.5356 36.0071C45.3425 36.1344 45.1856 36.1015 45.0644 35.9085C44.9647 35.7238 44.8771 35.5341 44.8015 35.3389C44.4754 34.3607 44.1321 33.3895 43.7716 32.4251C43.5509 31.7779 43.339 31.1279 43.1361 30.4752C42.36 30.6525 41.5821 30.8387 40.8024 31.0339C39.8991 31.2569 39.0445 31.6002 38.2386 32.0636C37.9704 32.2439 37.7149 32.4411 37.4716 32.6551C36.2897 33.7705 35.2635 35.0083 34.3929 36.3686C33.6509 37.5565 32.935 38.7614 32.2454 39.9835C31.2315 41.8512 30.2091 43.7134 29.1776 45.5702C28.3342 47.0963 27.4358 48.5861 26.4823 50.0395C26.2577 50.452 26.0167 50.8536 25.7592 51.2444C25.562 51.5003 25.3245 51.7085 25.0471 51.8688C24.8823 51.9192 24.7142 51.9339 24.5431 51.9127C24.4629 51.8907 24.3934 51.8504 24.3349 51.7922C24.2661 51.6912 24.215 51.5816 24.1815 51.4635C24.1386 51.2576 24.1129 51.0495 24.1048 50.8391C24.1177 50.4235 24.1581 50.011 24.2253 49.6013C24.3759 48.8707 24.5293 48.1405 24.6855 47.4105C24.9756 46.4036 25.2899 45.4032 25.6277 44.409C26.1528 42.9955 26.6787 41.5787 27.2055 40.1588C28.0798 37.8921 29.0549 35.6647 30.1308 33.4767C29.9455 33.3509 29.7555 33.2304 29.5611 33.1152C29.0199 32.8545 28.472 32.606 27.9176 32.3703C27.7152 32.2708 27.5215 32.1578 27.337 32.0307C26.5549 32.945 25.8098 33.887 25.1018 34.8569C24.2383 36.1156 23.486 37.4447 22.8448 38.8443C22.1852 40.324 21.5498 41.8137 20.9384 43.3136C20.6757 43.9481 20.4346 44.5906 20.2153 45.2415C19.3697 47.0691 18.7197 48.9679 18.265 50.9377C17.9366 52.4102 17.8123 53.9 17.8925 55.4071C17.9526 56.2516 18.1936 57.0403 18.6156 57.7732C18.8056 58.0799 18.9954 58.3866 19.1854 58.6933C19.7104 59.3379 20.3787 59.7651 21.1904 59.975C21.9578 60.1419 22.732 60.2661 23.5132 60.3474C24.4657 60.4357 25.4007 60.3481 26.318 60.0845C26.9945 59.7373 27.5898 59.2807 28.1039 58.7152C29.1434 57.5635 30.071 56.3292 30.8868 55.0127C31.3141 54.3189 31.7305 53.6178 32.1359 52.9095C32.8827 51.5549 33.6349 50.204 34.3929 48.8564C34.9111 48.0432 35.4042 47.2142 35.872 46.3698C36.188 46.2228 36.3889 46.3214 36.4746 46.6656C36.4893 46.7751 36.4893 46.8847 36.4746 46.9942C36.4238 47.1896 36.3799 47.3868 36.3431 47.5857C36.2737 48.3236 36.2044 49.0613 36.135 49.7985Z" fill="#FEFEFE"/>
<path fill-rule="evenodd" clip-rule="evenodd" d="M50.7073 38.4922C50.7156 38.6007 50.701 38.703 50.6635 38.7989C50.4625 40.3772 50.2544 41.9546 50.039 43.5312C49.9279 44.6207 49.8039 45.7089 49.6665 46.7955C49.4105 48.5026 49.1657 50.2115 48.9324 51.9221C48.9361 51.9955 48.9324 52.0685 48.9214 52.1412C48.9164 52.1684 48.9054 52.1903 48.8885 52.2069C48.7619 53.1227 48.6815 54.0428 48.6475 54.9674C48.6541 55.2421 48.6394 55.5122 48.6037 55.778C48.5688 56.4784 48.5397 57.1795 48.516 57.8812C48.5239 58.1196 48.5092 58.3533 48.4722 58.5823C48.3068 60.2576 48.2338 61.9373 48.2531 63.6212C50.0427 63.6274 51.8323 63.6201 53.6217 63.5993C53.946 63.5645 54.2747 63.5498 54.6078 63.5555C55.7834 63.5101 56.952 63.3969 58.1139 63.2159C58.7353 63.2142 59.3561 63.1995 59.9765 63.1721C60.3893 63.1285 60.7509 62.9716 61.0611 62.7011C61.2634 62.3525 61.4021 61.9801 61.4775 61.5837C61.6236 60.6778 61.7698 59.7723 61.9157 58.8671C61.9558 58.4145 61.9887 57.9618 62.0143 57.5088C62.0073 57.3718 62.022 57.2404 62.0582 57.1144C62.0733 56.7273 62.088 56.3404 62.102 55.9533C62.0959 55.6858 62.1103 55.4229 62.1458 55.1646C62.1638 54.5875 62.1857 54.0106 62.2116 53.4338C62.2127 53.1367 62.2346 52.8447 62.2773 52.5574C62.3053 52.2512 62.3273 51.9445 62.343 51.6373C62.3376 51.515 62.3522 51.3981 62.3869 51.2868C62.4048 51.1119 62.4195 50.9367 62.4307 50.761C62.4246 50.6313 62.439 50.5073 62.4745 50.3885C62.5996 49.3433 62.7311 48.2991 62.8689 47.2556C62.8751 47.1257 62.897 47.0017 62.9347 46.8832C63.0447 46.1389 63.1505 45.394 63.2524 44.6485C63.3515 44.5335 63.472 44.5081 63.614 44.5718C63.7325 44.6807 63.7764 44.8157 63.7455 44.9771C63.736 45.189 63.7251 45.4008 63.7126 45.6125C63.6431 46.1834 63.5627 46.753 63.4716 47.3213C63.2719 49.5315 63.1039 51.7442 62.9676 53.9596C62.9165 55.1722 62.858 56.3844 62.7923 57.5964C62.7449 58.0048 62.7046 58.4136 62.6717 58.8233C62.6801 58.9317 62.6654 59.034 62.6279 59.13C62.4828 60.3266 62.2381 61.5025 61.8938 62.6573C61.7895 62.951 61.6179 63.1955 61.3789 63.3912C61.0962 63.5949 60.7822 63.7264 60.4366 63.7855C60.0954 63.8412 59.7521 63.8776 59.4067 63.8951C58.3343 63.9067 57.268 63.9908 56.2074 64.147C56.104 64.1851 55.9944 64.1996 55.8787 64.1908C55.2229 64.245 54.5655 64.2778 53.9066 64.2894C52.6503 64.3089 51.3941 64.3199 50.1376 64.3223C49.0419 64.3267 47.9463 64.3341 46.8507 64.3442C45.8457 64.3753 44.8377 64.4156 43.8267 64.4647C42.7223 64.5322 41.6194 64.6163 40.5178 64.7166C40.7683 65.917 40.9511 67.1292 41.0657 68.3535C41.0992 68.4575 41.1139 68.5671 41.1095 68.6821C41.1185 68.8061 41.1257 68.9303 41.1314 69.0545C41.8813 69.1492 42.6335 69.2258 43.3884 69.2846C44.1698 69.3282 44.9515 69.3683 45.7331 69.4051C46.037 69.3974 46.3366 69.4118 46.6315 69.4489C48.5003 69.5164 50.3554 69.7026 52.1974 70.0075C53.1122 70.066 54.0254 70.1464 54.9365 70.2485C55.2915 70.3029 55.6421 70.3758 55.9883 70.4676C57.6813 70.5728 59.3758 70.6348 61.0721 70.6538C62.0086 70.6503 62.9435 70.6138 63.8769 70.5443C64.0985 70.5044 64.3248 70.4825 64.5562 70.4786C65.4884 70.3587 66.4234 70.2601 67.3611 70.1828C68.1662 70.0411 68.9331 69.7854 69.6619 69.416C70.0965 69.1568 70.4436 68.8098 70.7028 68.3754C71.0201 67.7854 71.2539 67.1647 71.404 66.5131C71.6008 65.5069 71.7323 64.4919 71.7984 63.4679C71.819 62.9999 71.8447 62.5326 71.8751 62.0657C71.8692 61.9001 71.8837 61.7393 71.919 61.5837C71.9513 61.1364 71.9988 60.691 72.0614 60.2473C72.0848 59.8159 72.1103 59.3852 72.1381 58.9547C72.142 58.6725 72.1639 58.395 72.2038 58.1222C72.2038 58.0637 72.2038 58.0054 72.2038 57.9469C72.2027 57.8179 72.2173 57.6937 72.2476 57.5745C72.4154 55.3926 72.5578 53.209 72.6749 51.0239C72.7421 49.5783 72.7604 48.1324 72.7297 46.686C72.6973 46.4713 72.6827 46.2522 72.6859 46.0287C72.5962 44.1599 72.2492 42.3415 71.645 40.5735C71.1305 39.1017 70.316 37.8275 69.2018 36.7505C68.7618 36.359 68.2871 36.0157 67.7774 35.7208C66.9476 35.2695 66.1004 34.8532 65.2355 34.472C63.7268 33.8531 62.2148 33.2397 60.6996 32.6317C60.0435 32.3475 59.3936 32.0518 58.7493 31.7444C58.3212 33.2865 57.8062 34.7982 57.2045 36.2795C57.1311 36.5505 57.0362 36.8134 56.9196 37.0682C56.7881 37.2603 56.6238 37.2932 56.4266 37.1668C56.273 36.991 56.145 36.7976 56.0431 36.5862C55.6072 35.9169 55.1545 35.2596 54.6845 34.6144C54.6562 34.2799 54.7912 34.1887 55.0899 34.3406C55.4433 34.6937 55.7464 35.0844 55.9993 35.5127C56.1575 35.7874 56.3328 36.0503 56.5252 36.3014C57.1453 34.736 57.8064 33.184 58.5083 31.6458C58.5026 31.6182 58.4879 31.5963 58.4645 31.5801C58.0597 31.3577 57.6725 31.1095 57.3031 30.8352C57.2203 30.865 57.1326 30.8906 57.0401 30.9119C56.4443 31.6574 55.8198 32.3804 55.1666 33.0808C54.0988 34.1776 53.0469 35.2877 52.0111 36.4109C51.7444 36.6482 51.4925 36.9001 51.2551 37.1668C51.121 37.2759 50.9711 37.3525 50.8059 37.3968C50.7671 37.7616 50.7343 38.1268 50.7073 38.4922Z" fill="#FEFEFE"/>
<path fill-rule="evenodd" clip-rule="evenodd" d="M71.9406 30.5319C71.7151 30.5126 71.6459 30.6077 71.7324 30.8167C71.8599 30.9315 71.9913 31.041 72.1268 31.1453C72.1724 31.2261 72.2016 31.3138 72.2145 31.4082C72.2636 31.5478 72.3549 31.5881 72.4884 31.5287C72.5626 31.4301 72.5736 31.3243 72.5213 31.211C72.4013 30.9196 72.2077 30.6933 71.9406 30.5319Z" fill="#221F20"/>
<path fill-rule="evenodd" clip-rule="evenodd" d="M70.3846 32.2251C70.2556 32.2417 70.208 32.3149 70.2422 32.4442C70.2672 32.4904 70.3 32.5305 70.3408 32.5647C70.7869 32.777 71.1851 33.0583 71.535 33.4082C71.5565 33.4651 71.5819 33.5199 71.6117 33.5725C71.7947 33.6305 71.8495 33.5683 71.7761 33.3862C71.463 32.9564 71.0795 32.6021 70.6257 32.3237C70.5479 32.2772 70.4675 32.2444 70.3846 32.2251Z" fill="#221F20"/>
<path fill-rule="evenodd" clip-rule="evenodd" d="M52.5034 37.8393C52.4499 37.8353 52.4026 37.8498 52.3609 37.8831C52.343 37.9589 52.3504 38.0321 52.3829 38.1022C52.5325 38.3723 52.6931 38.6352 52.8649 38.8909C52.9478 39.0015 53.0538 39.0525 53.1827 39.0442C53.2421 38.9474 53.2383 38.8525 53.1717 38.7594C53.0508 38.5907 52.9193 38.4301 52.7773 38.2774C52.7019 38.1188 52.6105 37.9729 52.5034 37.8393Z" fill="#221F20"/>
<path fill-rule="evenodd" clip-rule="evenodd" d="M76.6737 36.0364C76.6333 36.0517 76.6223 36.0811 76.6408 36.124C76.7026 36.2035 76.7537 36.2912 76.7942 36.3869C76.8949 36.6378 76.9826 36.8934 77.0572 37.1537C77.2016 37.7003 77.3403 38.248 77.4735 38.7968C77.5675 38.9257 77.6843 38.9548 77.8241 38.8845C77.8739 38.7874 77.8885 38.6851 77.868 38.5778C77.8201 38.3361 77.7471 38.1023 77.6488 37.8767C77.3798 37.2803 77.0876 36.696 76.7723 36.124C76.7417 36.0896 76.7088 36.0605 76.6737 36.0364Z" fill="#221F20"/>
<path fill-rule="evenodd" clip-rule="evenodd" d="M50.7077 38.4924C50.6853 38.5906 50.6707 38.6929 50.6639 38.7992C50.7013 38.7032 50.716 38.6009 50.7077 38.4924Z" fill="#ABABAB"/>
<path fill-rule="evenodd" clip-rule="evenodd" d="M74.3733 36.9852C74.3476 36.9804 74.3257 36.9876 74.3076 37.0071C74.6541 37.7652 74.8915 38.5539 75.0198 39.3732C75.0931 39.5067 75.2064 39.5614 75.3594 39.5375C75.3898 39.4837 75.4044 39.4252 75.4033 39.3623C75.358 39.0168 75.2666 38.6844 75.1293 38.3654C75.0029 38.0688 74.8641 37.7765 74.713 37.4891C74.6207 37.3057 74.5075 37.1379 74.3733 36.9852Z" fill="#221F20"/>
<path fill-rule="evenodd" clip-rule="evenodd" d="M49.7646 42.5228C49.7296 42.6192 49.7149 42.7215 49.7208 42.8295C49.7458 42.7318 49.7605 42.6295 49.7646 42.5228Z" fill="#9F9D9E"/>
<path fill-rule="evenodd" clip-rule="evenodd" d="M35.0396 43.884C34.9793 43.8789 34.9208 43.8864 34.8643 43.9059C34.8415 43.9929 34.8597 44.0733 34.9191 44.1469C35.0411 44.2836 35.1763 44.4041 35.3244 44.5084C35.443 44.6122 35.5453 44.729 35.6312 44.8589C35.7116 44.8626 35.7555 44.8223 35.7627 44.7384C35.7601 44.6882 35.7417 44.6444 35.7079 44.607C35.4848 44.3644 35.262 44.1234 35.0396 43.884Z" fill="#221F20"/>
<path fill-rule="evenodd" clip-rule="evenodd" d="M73.2992 45.9904C73.3047 46.1623 73.3193 46.3304 73.343 46.4943C73.3522 46.321 73.3377 46.1529 73.2992 45.9904Z" fill="#ABAAAB"/>
<path fill-rule="evenodd" clip-rule="evenodd" d="M72.6857 46.0327C72.6825 46.2562 72.6971 46.4753 72.7295 46.69C72.7274 46.4667 72.7128 46.2476 72.6857 46.0327Z" fill="#B9B7B8"/>
<path fill-rule="evenodd" clip-rule="evenodd" d="M33.8562 45.703C33.6634 45.7069 33.6161 45.7946 33.7138 45.9659C33.89 46.1125 34.0324 46.284 34.1411 46.4808C34.2338 46.5086 34.2923 46.4757 34.3164 46.3822C34.2441 46.0982 34.0907 45.8719 33.8562 45.703Z" fill="#221F20"/>
<path fill-rule="evenodd" clip-rule="evenodd" d="M62.9346 46.8875C62.8969 47.006 62.875 47.13 62.8688 47.2599C62.9065 47.1414 62.9284 47.0174 62.9346 46.8875Z" fill="#B2B0B1"/>
<path fill-rule="evenodd" clip-rule="evenodd" d="M49.0635 48.8083C49.0267 48.8969 49.0122 48.9919 49.0197 49.0932C49.0462 49.0029 49.0608 48.908 49.0635 48.8083Z" fill="#B2B0B1"/>
<path fill-rule="evenodd" clip-rule="evenodd" d="M36.1351 49.7938C36.1079 49.9134 36.0935 50.0377 36.0913 50.1663C36.1244 50.0473 36.1391 49.9231 36.1351 49.7938Z" fill="#9F9D9E"/>
<path fill-rule="evenodd" clip-rule="evenodd" d="M62.4746 50.3931C62.4391 50.5118 62.4246 50.6358 62.4308 50.7655C62.4553 50.6457 62.4698 50.5215 62.4746 50.3931Z" fill="#B0B0B0"/>
<path fill-rule="evenodd" clip-rule="evenodd" d="M36.0256 51.047C35.9996 51.24 35.9849 51.4372 35.9818 51.6385C36.0182 51.4462 36.0326 51.249 36.0256 51.047Z" fill="#BCBCBC"/>
<path fill-rule="evenodd" clip-rule="evenodd" d="M62.3867 51.2782C62.3521 51.3895 62.3374 51.5065 62.3429 51.6287C62.3683 51.5163 62.383 51.3994 62.3867 51.2782Z" fill="#A3A1A2"/>
<path fill-rule="evenodd" clip-rule="evenodd" d="M48.9322 51.9277C48.909 52.0184 48.8943 52.1133 48.8884 52.2125C48.9052 52.1959 48.9162 52.174 48.9212 52.1468C48.9322 52.0741 48.9359 52.0011 48.9322 51.9277Z" fill="#B2B1B1"/>
<path fill-rule="evenodd" clip-rule="evenodd" d="M35.3682 51.7649C35.3318 52.0013 35.3171 52.2423 35.3243 52.4879C35.3495 52.2508 35.3642 52.0098 35.3682 51.7649Z" fill="#B2B1B2"/>
<path fill-rule="evenodd" clip-rule="evenodd" d="M17.3555 52.3826C17.3187 52.4936 17.3042 52.6104 17.3116 52.7331C17.3347 52.6203 17.3493 52.5035 17.3555 52.3826Z" fill="#B1AFB0"/>
<path fill-rule="evenodd" clip-rule="evenodd" d="M73.1899 52.1953C73.1677 52.4032 73.1531 52.6151 73.146 52.8307C73.1841 52.6238 73.1987 52.412 73.1899 52.1953Z" fill="#C0BFBF"/>
<path fill-rule="evenodd" clip-rule="evenodd" d="M62.2764 52.5634C62.2336 52.8506 62.2117 53.1426 62.2106 53.4397C62.2437 53.1516 62.2656 52.8596 62.2764 52.5634Z" fill="#ABAAAB"/>
<path fill-rule="evenodd" clip-rule="evenodd" d="M73.1236 53.2432C73.103 53.4366 73.0884 53.6338 73.0798 53.8347C73.0975 53.7955 73.1085 53.7517 73.1127 53.7032C73.1236 53.5501 73.1273 53.3967 73.1236 53.2432Z" fill="#BFBFBF"/>
<path fill-rule="evenodd" clip-rule="evenodd" d="M73.0579 54.1906C73.0357 54.3546 73.0211 54.5227 73.014 54.6944C73.0525 54.5319 73.0671 54.3638 73.0579 54.1906Z" fill="#B3B1B2"/>
<path fill-rule="evenodd" clip-rule="evenodd" d="M25.2003 53.664C25.0373 53.6475 24.9825 53.7133 25.036 53.8611C25.075 53.885 25.1151 53.9069 25.1565 53.9269C25.412 54.2257 25.6055 54.5618 25.7372 54.9347C25.825 55.047 25.9052 55.047 25.9782 54.9347C26.0076 54.7837 25.9784 54.645 25.8906 54.5184C25.7142 54.2908 25.5461 54.0572 25.3866 53.8173C25.3208 53.7685 25.2588 53.7172 25.2003 53.664Z" fill="#221F20"/>
<path fill-rule="evenodd" clip-rule="evenodd" d="M23.8421 53.7192C23.6769 53.7065 23.6221 53.7794 23.6778 53.9383C23.7738 54.0415 23.8614 54.151 23.9407 54.2669C24.0681 54.539 24.1995 54.8091 24.3352 55.0775C24.4443 55.2462 24.5464 55.2462 24.642 55.0775C24.6599 54.9846 24.6455 54.897 24.5981 54.8146C24.4156 54.5079 24.2328 54.2012 24.0503 53.8945C23.9892 53.8219 23.9197 53.7634 23.8421 53.7192Z" fill="#221E1F"/>
<path fill-rule="evenodd" clip-rule="evenodd" d="M14.1781 53.8696C14.1225 53.8609 14.0749 53.8756 14.0357 53.9135C13.7504 54.6625 13.6555 55.4365 13.7508 56.2358C13.7646 56.392 13.8488 56.4796 14.0028 56.4987C14.1286 56.4818 14.1944 56.4086 14.2001 56.2796C14.0927 55.7652 14.067 55.2466 14.1234 54.7241C14.1641 54.503 14.2117 54.2839 14.2658 54.0668C14.2754 53.982 14.2461 53.9163 14.1781 53.8696Z" fill="#211E1F"/>
<path fill-rule="evenodd" clip-rule="evenodd" d="M48.3843 54.5967C48.354 54.7308 48.3393 54.8694 48.3404 55.0129C48.3733 54.8791 48.3878 54.7404 48.3843 54.5967Z" fill="#B4B3B3"/>
<path fill-rule="evenodd" clip-rule="evenodd" d="M62.1455 55.1641C62.11 55.4224 62.0955 55.6853 62.1017 55.9528C62.1253 55.6938 62.14 55.4309 62.1455 55.1641Z" fill="#B3B3B3"/>
<path fill-rule="evenodd" clip-rule="evenodd" d="M48.6469 54.9648C48.6213 55.231 48.6068 55.5014 48.6031 55.7755C48.6388 55.5097 48.6535 55.2396 48.6469 54.9648Z" fill="#B6B5B5"/>
<path fill-rule="evenodd" clip-rule="evenodd" d="M62.0576 57.1029C62.0215 57.2289 62.0068 57.3603 62.0138 57.4973C62.0396 57.3702 62.0543 57.2387 62.0576 57.1029Z" fill="#A4A2A3"/>
<path fill-rule="evenodd" clip-rule="evenodd" d="M59.1213 57.3662C58.9377 57.3811 58.7549 57.4065 58.5735 57.4429C58.5494 57.4977 58.5531 57.5524 58.5844 57.6072C58.7797 57.6368 58.9697 57.6149 59.1542 57.5415C59.205 57.4681 59.1941 57.4096 59.1213 57.3662Z" fill="#221F20"/>
<path fill-rule="evenodd" clip-rule="evenodd" d="M15.7555 56.1936C15.7222 56.1938 15.6968 56.2085 15.6789 56.2374C15.6405 56.281 15.6186 56.3321 15.6131 56.3908C15.6346 57.2722 15.8609 58.0974 16.2924 58.8664C16.3794 59.0323 16.5144 59.1015 16.6978 59.0746C16.7701 58.9915 16.7811 58.9002 16.7307 58.8007C16.414 58.46 16.1877 58.0657 16.0514 57.6177C15.9543 57.3372 15.8741 57.0524 15.8103 56.7632C15.7921 56.6611 15.7847 56.5588 15.7884 56.4565C15.8127 56.4902 15.8456 56.5047 15.887 56.5003C15.898 56.3722 15.8542 56.2701 15.7555 56.1936Z" fill="#221F20"/>
<path fill-rule="evenodd" clip-rule="evenodd" d="M48.2527 57.4709C48.2253 57.6052 48.2109 57.7439 48.2089 57.8872C48.2437 57.7538 48.2584 57.6149 48.2527 57.4709Z" fill="#B1B0B0"/>
<path fill-rule="evenodd" clip-rule="evenodd" d="M72.247 57.5836C72.2167 57.7028 72.2021 57.827 72.2032 57.9561C72.2335 57.8369 72.2481 57.7127 72.247 57.5836Z" fill="#A7A6A7"/>
<path fill-rule="evenodd" clip-rule="evenodd" d="M48.5155 57.8772C48.4923 58.107 48.4776 58.3408 48.4717 58.5783C48.5087 58.3493 48.5234 58.1156 48.5155 57.8772Z" fill="#C2C1C2"/>
<path fill-rule="evenodd" clip-rule="evenodd" d="M48.1865 58.4504C48.1521 58.5988 48.1374 58.7521 48.1427 58.9105C48.1703 58.7615 48.1848 58.6082 48.1865 58.4504Z" fill="#A8A6A7"/>
<path fill-rule="evenodd" clip-rule="evenodd" d="M72.2031 58.1205C72.1632 58.3932 72.1413 58.6708 72.1374 58.953C72.1727 58.6798 72.1946 58.4022 72.2031 58.1205Z" fill="#AAA9A9"/>
<path fill-rule="evenodd" clip-rule="evenodd" d="M62.6716 58.8246C62.6492 58.9227 62.6345 59.025 62.6277 59.1313C62.6652 59.0353 62.6799 58.933 62.6716 58.8246Z" fill="#ABAAAA"/>
<path fill-rule="evenodd" clip-rule="evenodd" d="M35.7626 58.7562C35.7383 58.986 35.7236 59.2196 35.7188 59.4573C35.7558 59.2284 35.7705 58.9946 35.7626 58.7562Z" fill="#BBB9BA"/>
<path fill-rule="evenodd" clip-rule="evenodd" d="M48.1208 59.3494C48.0891 59.4758 48.0746 59.6072 48.077 59.7437C48.1088 59.6173 48.1232 59.4859 48.1208 59.3494Z" fill="#AFAEAE"/>
<path fill-rule="evenodd" clip-rule="evenodd" d="M17.9912 59.9236C17.8186 59.9139 17.771 59.9871 17.8488 60.1427C18.071 60.3411 18.3048 60.5239 18.55 60.6904C18.6642 60.6573 18.7152 60.5843 18.7034 60.4713C18.6486 60.4165 18.5938 60.3617 18.5391 60.307C18.3473 60.1895 18.1648 60.0616 17.9912 59.9236Z" fill="#221F20"/>
<path fill-rule="evenodd" clip-rule="evenodd" d="M72.5542 61.0269C72.5268 61.1612 72.5122 61.2998 72.5103 61.4431C72.5431 61.3093 72.5577 61.1706 72.5542 61.0269Z" fill="#ABAAAB"/>
<path fill-rule="evenodd" clip-rule="evenodd" d="M48.0117 60.8337C47.9732 61.1505 47.9512 61.4719 47.946 61.7977C47.9824 61.4807 48.0043 61.1593 48.0117 60.8337Z" fill="#B8B7B7"/>
<path fill-rule="evenodd" clip-rule="evenodd" d="M65.3449 61.2836C65.3076 61.2801 65.271 61.2838 65.2353 61.2946C64.9531 61.4319 64.6682 61.5634 64.3807 61.6889C64.2179 61.7496 64.0498 61.7862 63.8767 61.7985C63.7645 61.8971 63.7645 61.9994 63.8767 62.1052C64.3908 62.0651 64.8803 61.9337 65.3449 61.7108C65.5491 61.5645 65.5491 61.4221 65.3449 61.2836Z" fill="#221E1F"/>
<path fill-rule="evenodd" clip-rule="evenodd" d="M71.9189 61.5759C71.8837 61.7315 71.8692 61.8923 71.8751 62.0579C71.9016 61.9015 71.9161 61.7409 71.9189 61.5759Z" fill="#999798"/>
<path fill-rule="evenodd" clip-rule="evenodd" d="M54.6074 63.5603C54.2743 63.5546 53.9457 63.5693 53.6213 63.6041C53.954 63.6021 54.2827 63.5874 54.6074 63.5603Z" fill="#B0AFAF"/>
<path fill-rule="evenodd" clip-rule="evenodd" d="M44.7471 63.6857C44.5159 63.6783 44.2895 63.6929 44.0678 63.7295C44.2983 63.7254 44.5247 63.7107 44.7471 63.6857Z" fill="#BDBCBC"/>
<path fill-rule="evenodd" clip-rule="evenodd" d="M63.6357 63.4803C63.4249 63.4294 63.3557 63.5024 63.4276 63.6993C63.5126 63.767 63.5529 63.7451 63.5481 63.6336C63.735 63.6978 63.9175 63.7745 64.0959 63.8636C64.1507 63.8746 64.2055 63.8856 64.2603 63.8965C64.3703 63.8737 64.4068 63.808 64.3698 63.6993C64.3433 63.6654 64.3104 63.6397 64.2712 63.6227C64.0499 63.6029 63.838 63.5556 63.6357 63.4803Z" fill="#211E1F"/>
<path fill-rule="evenodd" clip-rule="evenodd" d="M42.9062 63.8274C42.7912 63.823 42.6816 63.8377 42.5776 63.8712C42.6922 63.8725 42.8017 63.8579 42.9062 63.8274Z" fill="#B4B3B3"/>
<path fill-rule="evenodd" clip-rule="evenodd" d="M56.207 64.1445C56.0935 64.1522 55.984 64.1667 55.8783 64.1883C55.994 64.1971 56.1036 64.1827 56.207 64.1445Z" fill="#A2A1A2"/>
<path fill-rule="evenodd" clip-rule="evenodd" d="M72.2917 63.9514C72.2631 64.0636 72.2484 64.1804 72.2478 64.302C72.2798 64.1902 72.2944 64.0734 72.2917 63.9514Z" fill="#A7A7A7"/>
<path fill-rule="evenodd" clip-rule="evenodd" d="M50.1377 64.3218C49.0418 64.2968 47.9462 64.304 46.8508 64.3437C47.9464 64.3336 49.0421 64.3261 50.1377 64.3218Z" fill="#030202"/>
<path fill-rule="evenodd" clip-rule="evenodd" d="M40.0348 68.6123C40.1077 68.6123 40.1809 68.6123 40.2539 68.6123C40.2539 68.4518 40.2539 68.2909 40.2539 68.1304C40.2055 66.9512 40.0666 65.7826 39.8376 64.625C39.4394 64.7514 39.0303 64.8209 38.6104 64.8331C37.9897 64.8404 37.3686 64.8478 36.7479 64.855C36.4579 64.8684 36.1731 64.9122 35.8932 64.9865C35.1015 65.2286 34.3346 65.5353 33.5924 65.9066C33.0317 66.2037 32.5531 66.6018 32.1571 67.1007C32.0576 67.2448 31.9662 67.3947 31.8832 67.5498C31.9577 67.5496 32.0307 67.5349 32.1023 67.506C32.3107 67.3982 32.5079 67.2742 32.694 67.1335C33.3494 66.8275 34.0215 66.5646 34.71 66.3448C34.9414 66.2526 35.0947 66.3218 35.1701 66.5529C35.1576 66.6349 35.121 66.7041 35.0606 66.7611C34.488 67.029 33.9402 67.3357 33.4171 67.6812C33.0989 67.908 32.8287 68.1818 32.6063 68.5028C32.7336 68.5324 32.8577 68.5214 32.9788 68.4699C33.329 68.2809 33.6796 68.0909 34.0307 67.9003C34.5561 67.6685 35.1039 67.5224 35.6741 67.4621C35.822 67.5883 35.8439 67.7345 35.7399 67.9003C35.095 68.073 34.5033 68.3578 33.9649 68.7547C33.8735 68.8461 33.7824 68.9372 33.691 69.0286C33.6816 69.0527 33.6925 69.0674 33.7239 69.0724C34.3434 68.8842 34.9569 68.6761 35.5646 68.448C35.7445 68.3902 35.927 68.3429 36.1124 68.3056C36.3094 68.3593 36.3716 68.4833 36.2986 68.6781C35.9787 68.847 35.6757 69.0404 35.3893 69.2586C36.2187 69.0417 37.0588 68.8665 37.9092 68.7328C38.615 68.6417 39.3235 68.6016 40.0348 68.6123Z" fill="#FDFDFD"/>
<path fill-rule="evenodd" clip-rule="evenodd" d="M20.292 66.7451C20.3312 66.7629 20.3751 66.7738 20.4235 66.778C20.562 66.7889 20.7009 66.7927 20.8398 66.7889C20.6613 66.7648 20.4787 66.7502 20.292 66.7451Z" fill="#C5C3C4"/>
<path fill-rule="evenodd" clip-rule="evenodd" d="M21.2785 66.8075C21.5369 66.8447 21.7998 66.8594 22.0674 66.8513C21.8084 66.8277 21.5454 66.813 21.2785 66.8075Z" fill="#BDBBBC"/>
<path fill-rule="evenodd" clip-rule="evenodd" d="M26.2087 67.0266C26.4083 67.0645 26.6128 67.079 26.8223 67.0704C26.6218 67.0465 26.4171 67.0319 26.2087 67.0266Z" fill="#BDBCBC"/>
<path fill-rule="evenodd" clip-rule="evenodd" d="M27.4578 67.1071C27.512 67.125 27.5705 67.136 27.6331 67.1399C27.9105 67.1509 28.1882 67.1546 28.4658 67.1509C28.1334 67.1327 27.7975 67.1182 27.4578 67.1071Z" fill="#C1C1C1"/>
<path fill-rule="evenodd" clip-rule="evenodd" d="M40.2547 68.1428C40.2547 68.3034 40.2547 68.4642 40.2547 68.6248C40.1817 68.6248 40.1085 68.6248 40.0356 68.6248C40.1114 68.6463 40.1918 68.6535 40.2766 68.6467C40.2839 68.4747 40.2764 68.3067 40.2547 68.1428Z" fill="#999798"/>
<path fill-rule="evenodd" clip-rule="evenodd" d="M41.0648 68.3602C41.0672 68.4744 41.0819 68.5839 41.1086 68.6889C41.113 68.5738 41.0983 68.4643 41.0648 68.3602Z" fill="#ABAAAB"/>
<path fill-rule="evenodd" clip-rule="evenodd" d="M45.7324 69.398C46.028 69.4219 46.3276 69.4363 46.6309 69.4418C46.3359 69.4048 46.0364 69.3903 45.7324 69.398Z" fill="#B5B4B5"/>
<path fill-rule="evenodd" clip-rule="evenodd" d="M46.4776 70.0455C46.7213 70.0828 46.9698 70.1047 47.2227 70.1113C46.979 70.0729 46.7307 70.051 46.4776 70.0455Z" fill="#BCBBBC"/>
<path fill-rule="evenodd" clip-rule="evenodd" d="M64.5557 70.4758C64.3243 70.4798 64.0979 70.5017 63.8764 70.5416C64.1073 70.5328 64.3337 70.5109 64.5557 70.4758Z" fill="#B1AFB0"/>
<path fill-rule="evenodd" clip-rule="evenodd" d="M70.4723 70.6309C70.657 70.6692 70.847 70.6837 71.042 70.6747C70.8562 70.6497 70.6662 70.635 70.4723 70.6309Z" fill="#C0BFBF"/>
<path fill-rule="evenodd" clip-rule="evenodd" d="M52.4817 70.6309C52.8053 70.6791 53.134 70.701 53.4678 70.6966C53.1428 70.6668 52.8141 70.6449 52.4817 70.6309Z" fill="#BBBABB"/>
<path fill-rule="evenodd" clip-rule="evenodd" d="M72.6637 70.7316C73.0981 70.7588 73.5364 70.7735 73.9785 70.7754C73.5443 70.7437 73.106 70.729 72.6637 70.7316Z" fill="#9D9D9D"/>
<path fill-rule="evenodd" clip-rule="evenodd" d="M66.8125 70.7313C66.7058 70.7355 66.6035 70.7502 66.5057 70.7751C66.6142 70.7835 66.7165 70.7688 66.8125 70.7313Z" fill="#B3B2B2"/>
<path fill-rule="evenodd" clip-rule="evenodd" d="M74.3068 70.7617C74.4991 70.7981 74.6964 70.8125 74.8984 70.8055C74.7052 70.781 74.508 70.7665 74.3068 70.7617Z" fill="#BDBCBD"/>
<path fill-rule="evenodd" clip-rule="evenodd" d="M64.3369 71.0553C64.2157 71.059 64.0987 71.0737 63.9863 71.0991C64.1086 71.1046 64.2256 71.0899 64.3369 71.0553Z" fill="#B2B2B2"/>
<path fill-rule="evenodd" clip-rule="evenodd" d="M56.5134 71.0994C56.8958 71.1454 57.283 71.1673 57.6748 71.1651C57.2913 71.1368 56.9043 71.1149 56.5134 71.0994Z" fill="#BABABA"/>
<path fill-rule="evenodd" clip-rule="evenodd" d="M62.9561 71.1558C62.5798 71.1702 62.2073 71.1921 61.8385 71.2215C62.1602 71.2191 62.4814 71.2081 62.8027 71.1886C62.8583 71.1845 62.9094 71.1735 62.9561 71.1558Z" fill="#B3B2B3"/>
</svg>
