<svg width="22" height="22" viewBox="0 0 22 22" fill="none" xmlns="http://www.w3.org/2000/svg">
<path d="M8.68421 3.575V3.85H13.3158V3.575C13.3158 2.99152 13.0718 2.43195 12.6375 2.01937C12.2032 1.60678 11.6142 1.375 11 1.375C10.3858 1.375 9.79678 1.60678 9.36249 2.01937C8.92819 2.43195 8.68421 2.99152 8.68421 3.575ZM7.23684 3.85V3.575C7.23684 2.62685 7.63332 1.71754 8.33905 1.04709C9.04478 0.376651 10.0019 0 11 0C11.9981 0 12.9552 0.376651 13.661 1.04709C14.3667 1.71754 14.7632 2.62685 14.7632 3.575V3.85H21.2763C21.4682 3.85 21.6523 3.92243 21.788 4.05136C21.9238 4.1803 22 4.35516 22 4.5375C22 4.71984 21.9238 4.8947 21.788 5.02364C21.6523 5.15257 21.4682 5.225 21.2763 5.225H19.5875L18.4296 18.3458C18.3417 19.3422 17.8629 20.2708 17.0881 20.9476C16.3134 21.6244 15.2993 22.0001 14.2467 22H7.75326C6.70085 21.9999 5.68687 21.6242 4.91225 20.9474C4.13764 20.2706 3.65891 19.3421 3.57095 18.3458L2.41305 5.225H0.723684C0.531751 5.225 0.347679 5.15257 0.211962 5.02364C0.0762451 4.8947 0 4.71984 0 4.5375C0 4.35516 0.0762451 4.1803 0.211962 4.05136C0.347679 3.92243 0.531751 3.85 0.723684 3.85H7.23684ZM5.01311 18.2309C5.07073 18.8836 5.38438 19.492 5.89189 19.9354C6.3994 20.3788 7.06374 20.6249 7.75326 20.625H14.2467C14.9364 20.6251 15.6008 20.379 16.1085 19.9356C16.6161 19.4921 16.9298 18.8837 16.9875 18.2309L18.1349 5.225H3.86505L5.01311 18.2309ZM9.55263 8.9375C9.55263 8.84722 9.53391 8.75782 9.49754 8.67441C9.46118 8.59099 9.40787 8.5152 9.34067 8.45136C9.27347 8.38752 9.19369 8.33688 9.10589 8.30233C9.01809 8.26778 8.92398 8.25 8.82895 8.25C8.73391 8.25 8.63981 8.26778 8.55201 8.30233C8.4642 8.33688 8.38443 8.38752 8.31722 8.45136C8.25002 8.5152 8.19672 8.59099 8.16035 8.67441C8.12398 8.75782 8.10526 8.84722 8.10526 8.9375V16.9125C8.10526 17.0028 8.12398 17.0922 8.16035 17.1756C8.19672 17.259 8.25002 17.3348 8.31722 17.3986C8.38443 17.4625 8.4642 17.5131 8.55201 17.5477C8.63981 17.5822 8.73391 17.6 8.82895 17.6C8.92398 17.6 9.01809 17.5822 9.10589 17.5477C9.19369 17.5131 9.27347 17.4625 9.34067 17.3986C9.40787 17.3348 9.46118 17.259 9.49754 17.1756C9.53391 17.0922 9.55263 17.0028 9.55263 16.9125V8.9375ZM13.1711 8.25C13.5705 8.25 13.8947 8.558 13.8947 8.9375V16.9125C13.8947 17.0948 13.8185 17.2697 13.6828 17.3986C13.5471 17.5276 13.363 17.6 13.1711 17.6C12.9791 17.6 12.795 17.5276 12.6593 17.3986C12.5236 17.2697 12.4474 17.0948 12.4474 16.9125V8.9375C12.4474 8.558 12.7716 8.25 13.1711 8.25Z" fill="white"/>
</svg>
