<svg width="20" height="12" viewBox="0 0 20 12" fill="none" xmlns="http://www.w3.org/2000/svg">
<path d="M0.082014 11.38C0.183489 11.6244 0.377666 11.8185 0.622015 11.92C0.742237 11.9712 0.871336 11.9984 1.00201 12L6.00201 12C6.26723 12 6.52158 11.8946 6.70912 11.7071C6.89666 11.5196 7.00201 11.2652 7.00201 11C7.00201 10.7348 6.89666 10.4804 6.70912 10.2929C6.52158 10.1054 6.26723 10 6.00201 10L3.41201 10L9.00201 4.41L12.292 7.71C12.385 7.80373 12.4956 7.87812 12.6174 7.92889C12.7393 7.97966 12.87 8.0058 13.002 8.0058C13.134 8.0058 13.2647 7.97966 13.3866 7.92889C13.5084 7.87812 13.6191 7.80373 13.712 7.71L19.712 1.71C19.8057 1.61704 19.8801 1.50644 19.9309 1.38458C19.9817 1.26272 20.0078 1.13201 20.0078 1C20.0078 0.867989 19.9817 0.737283 19.9309 0.615423C19.8801 0.493564 19.8057 0.382964 19.712 0.290001C19.6191 0.196273 19.5084 0.121877 19.3866 0.0711079C19.2647 0.0203391 19.134 -0.00579826 19.002 -0.00579825C18.87 -0.00579824 18.7393 0.0203391 18.6174 0.071108C18.4956 0.121877 18.385 0.196273 18.292 0.290001L13.002 5.59L9.71201 2.29C9.61905 2.19627 9.50845 2.12188 9.38659 2.07111C9.26473 2.02034 9.13402 1.9942 9.00201 1.9942C8.87 1.9942 8.7393 2.02034 8.61744 2.07111C8.49558 2.12188 8.38498 2.19627 8.29201 2.29L2.00201 8.59L2.00201 6C2.00201 5.73479 1.89666 5.48043 1.70912 5.2929C1.52158 5.10536 1.26723 5 1.00201 5C0.736797 5 0.482442 5.10536 0.294906 5.2929C0.10737 5.48043 0.00201361 5.73479 0.00201364 6L0.00201407 11C0.00359337 11.1307 0.0307731 11.2598 0.082014 11.38Z" fill="#FF5454"/>
</svg>
