<svg width="14" height="16" viewBox="0 0 14 16" fill="none" xmlns="http://www.w3.org/2000/svg">
<path d="M-6.45606e-07 8.61512L-1.29117e-06 1.23073C-1.31971e-06 0.904322 0.13409 0.591281 0.372773 0.360474C0.611455 0.129667 0.935178 1.14216e-06 1.27273 1.11265e-06L12.7273 1.11265e-07C13.0648 8.17559e-08 13.3885 0.129665 13.6272 0.360473C13.8659 0.59128 14 0.904321 14 1.23073L14 8.61512C14 8.94153 13.8659 9.25458 13.6272 9.48538C13.3885 9.71619 13.0648 9.84586 12.7273 9.84586L10.8182 9.84586C10.6494 9.84586 10.4875 9.78102 10.3682 9.66562C10.2489 9.55022 10.1818 9.39369 10.1818 9.23049C10.1818 9.06728 10.2489 8.91076 10.3682 8.79536C10.4875 8.67996 10.6494 8.61512 10.8182 8.61512L12.7273 8.61512L12.7273 1.23073L1.27273 1.23073L1.27273 8.61512L3.18182 8.61512C3.35059 8.61512 3.51245 8.67996 3.6318 8.79536C3.75114 8.91076 3.81818 9.06728 3.81818 9.23049C3.81818 9.3937 3.75114 9.55022 3.6318 9.66562C3.51245 9.78102 3.35059 9.84586 3.18182 9.84586L1.27273 9.84586C0.935179 9.84586 0.611456 9.71619 0.372774 9.48538C0.134091 9.25458 -6.17071e-07 8.94153 -6.45606e-07 8.61512ZM9.73159 11.8719L7.63636 13.8988L7.63636 6.76903C7.63636 6.60582 7.56932 6.4493 7.44998 6.3339C7.33063 6.21849 7.16877 6.15366 7 6.15366C6.83123 6.15366 6.66936 6.21849 6.55002 6.3339C6.43068 6.4493 6.36364 6.60582 6.36364 6.76903L6.36364 13.8988L4.26841 11.8719C4.149 11.7565 3.98705 11.6916 3.81818 11.6916C3.64931 11.6916 3.48736 11.7565 3.36795 11.8719C3.24855 11.9874 3.18146 12.144 3.18146 12.3073C3.18146 12.4706 3.24855 12.6272 3.36795 12.7427L6.54977 15.8195C6.60887 15.8767 6.67906 15.9221 6.75631 15.9531C6.83356 15.9841 6.91637 16 7 16C7.08363 16 7.16644 15.9841 7.24369 15.9531C7.32094 15.9221 7.39113 15.8767 7.45023 15.8195L10.632 12.7427C10.7515 12.6272 10.8185 12.4706 10.8185 12.3073C10.8185 12.144 10.7515 11.9874 10.632 11.8719C10.5126 11.7565 10.3507 11.6916 10.1818 11.6916C10.0129 11.6916 9.851 11.7565 9.73159 11.8719Z" fill="white"/>
</svg>
