<svg width="8" height="10" viewBox="0 0 8 10" fill="none" xmlns="http://www.w3.org/2000/svg">
<path d="M0.501657 0.500287L0.501657 9.50029C0.501943 9.59141 0.527074 9.68073 0.574346 9.75863C0.621618 9.83653 0.68924 9.90006 0.769933 9.94239C0.850627 9.98471 0.941337 10.0042 1.0323 9.99884C1.12326 9.99345 1.21103 9.96335 1.28616 9.91179L7.78616 5.41179C8.05566 5.22529 8.05566 4.77629 7.78616 4.58929L1.28616 0.0892866C1.21119 0.037199 1.12337 0.00665364 1.03226 0.000969158C0.941147 -0.00471533 0.850218 0.0146785 0.769354 0.0570435C0.688489 0.0994086 0.62078 0.163124 0.573585 0.241269C0.526391 0.319413 0.501513 0.408997 0.501657 0.500287Z" fill="#4E598D"/>
</svg>
