<svg width="19" height="21" viewBox="0 0 19 21" fill="none" xmlns="http://www.w3.org/2000/svg">
<path fill-rule="evenodd" clip-rule="evenodd" d="M13.689 0.252573C13.5271 0.0908426 13.3076 0 13.0787 0C12.8498 0 12.6303 0.0908426 12.4684 0.252573L1.88253 10.8373C1.7743 10.9456 1.69681 11.0807 1.65799 11.2288L0.50647 15.6391C0.468458 15.7849 0.469225 15.938 0.508694 16.0834C0.548163 16.2287 0.624962 16.3613 0.731469 16.4678C0.837975 16.5743 0.970485 16.6511 1.11585 16.6905C1.2612 16.73 1.41436 16.7308 1.56011 16.6928L5.96811 15.5412C6.11674 15.5023 6.25229 15.4244 6.36077 15.3155L16.9455 4.73082C17.1072 4.56888 17.1981 4.34938 17.1981 4.12051C17.1981 3.89165 17.1072 3.67214 16.9455 3.51021L13.689 0.252573ZM3.26896 11.8932L13.0787 2.08463L15.1134 4.11936L5.30483 13.9291L2.54926 14.6488L3.26896 11.8932Z" fill="#FEFEFE"/>
<path d="M0.863636 18.4233C0.634586 18.4233 0.414916 18.5143 0.252953 18.6763C0.0909899 18.8383 0 19.0579 0 19.287C0 19.516 0.0909899 19.7357 0.252953 19.8977C0.414916 20.0596 0.634586 20.1506 0.863636 20.1506H18.1364C18.3654 20.1506 18.5851 20.0596 18.747 19.8977C18.909 19.7357 19 19.516 19 19.287C19 19.0579 18.909 18.8383 18.747 18.6763C18.5851 18.5143 18.3654 18.4233 18.1364 18.4233H0.863636Z" fill="#FEFEFE"/>
</svg>
