<svg width="21" height="22" viewBox="0 0 21 22" fill="none" xmlns="http://www.w3.org/2000/svg">
<path d="M14.6626 0.558771C14.6626 0.558756 14.6626 0.55874 14.6626 0.558725C14.5608 0.457087 14.4228 0.4 14.279 0.4C14.1352 0.4 13.9973 0.457045 13.8955 0.558611L14.6626 0.558771ZM14.6626 0.558771L18.2176 4.11501L14.6626 0.558771ZM2.33825 12.1146L13.8954 0.558771L18.2176 4.8823L6.6617 16.4382L6.66125 16.4387C6.59308 16.5071 6.50791 16.556 6.41451 16.5805C6.41448 16.5805 6.41445 16.5805 6.41442 16.5806L1.60237 17.8376C1.60231 17.8376 1.60226 17.8377 1.60221 17.8377C1.51064 17.8615 1.41442 17.861 1.3231 17.8362C1.23172 17.8114 1.14842 17.7631 1.08147 17.6962C1.01452 17.6292 0.966243 17.5459 0.941431 17.4546C0.91663 17.3632 0.916139 17.267 0.940007 17.1754C0.940016 17.1754 0.940025 17.1753 0.940034 17.1753L2.1971 12.3607C2.19712 12.3607 2.19714 12.3606 2.19716 12.3605C2.22158 12.2675 2.27027 12.1826 2.33825 12.1146ZM3.28616 12.7018L3.2094 12.7786L3.18197 12.8836L2.39622 15.8921L2.22368 16.5527L2.88432 16.3802L5.89278 15.5944L5.99781 15.567L6.07456 15.4902L16.7833 4.78023L17.0661 4.49739L16.7833 4.21456L14.5618 1.9931L14.279 1.71028L13.9962 1.99308L3.28616 12.7018ZM18.3764 4.49866C18.3764 4.64244 18.3194 4.78035 18.2178 4.88213L18.2178 4.11514C18.3193 4.21692 18.3764 4.35485 18.3764 4.49866Z" fill="black" stroke="black" stroke-width="0.8"/>
<path d="M20.1847 20.6732L20.4669 20.391L20.1847 20.6732C20.2865 20.775 20.3437 20.9131 20.3437 21.0571C20.3437 21.2011 20.2865 21.3392 20.1847 21.441L20.4675 21.7238L20.1847 21.441C20.0828 21.5428 19.9448 21.6 19.8008 21.6H0.942894C0.798908 21.6 0.660821 21.5428 0.55901 21.441C0.457198 21.3392 0.4 21.2011 0.4 21.0571C0.4 20.9131 0.457198 20.775 0.55901 20.6732C0.660821 20.5714 0.798908 20.5142 0.942894 20.5142H19.8008C19.9448 20.5142 20.0828 20.5714 20.1847 20.6732Z" fill="black" stroke="black" stroke-width="0.8"/>
</svg>
