<svg width="16" height="12" viewBox="0 0 16 12" fill="none" xmlns="http://www.w3.org/2000/svg">
<path d="M14.5 12H1.5C0.67 12 0 11.33 0 10.5V1.5C0 0.67 0.67 0 1.5 0H14.5C15.33 0 16 0.67 16 1.5V10.5C16 11.33 15.33 12 14.5 12ZM1.5 1C1.22 1 1 1.22 1 1.5V10.5C1 10.78 1.22 11 1.5 11H14.5C14.78 11 15 10.78 15 10.5V1.5C15 1.22 14.78 1 14.5 1H1.5Z" fill="black"/>
<path d="M7.99992 7.96012C7.29992 7.96012 6.65992 7.68012 6.17992 7.17012L0.929923 1.59012C0.739923 1.39012 0.749923 1.07012 0.949923 0.880119C1.14992 0.690119 1.46992 0.700119 1.65992 0.900119L6.90992 6.48012C7.47992 7.09012 8.51992 7.09012 9.08992 6.48012L14.3399 0.910119C14.5299 0.710119 14.8499 0.700119 15.0499 0.890119C15.2499 1.08012 15.2599 1.40012 15.0699 1.60012L9.81992 7.18012C9.33992 7.69012 8.69992 7.97012 7.99992 7.97012V7.96012Z" fill="black"/>
</svg>
