<svg width="29" height="22" viewBox="0 0 29 22" fill="none" xmlns="http://www.w3.org/2000/svg">
<path d="M26.9286 0H2.07143C1.52205 0 0.995175 0.231785 0.606707 0.644365C0.218239 1.05695 0 1.61652 0 2.2V19.8C0 20.3835 0.218239 20.9431 0.606707 21.3556C0.995175 21.7682 1.52205 22 2.07143 22H26.9286C27.4779 22 28.0048 21.7682 28.3933 21.3556C28.7818 20.9431 29 20.3835 29 19.8V2.2C29 1.61652 28.7818 1.05695 28.3933 0.644365C28.0048 0.231785 27.4779 0 26.9286 0ZM26.9286 6.6L14.5 13.2L2.07143 6.6V2.2L14.5 8.8L26.9286 2.2V6.6Z" fill="#42A5F5"/>
</svg>
