<svg width="18" height="18" viewBox="0 0 18 18" fill="none" xmlns="http://www.w3.org/2000/svg">
<path d="M17 6.63476V13.6587C17 14.2796 16.7338 14.8752 16.2601 15.3142C15.7863 15.7533 15.1437 16 14.4737 16H3.52632C2.8563 16 2.21372 15.7533 1.73994 15.3142C1.26616 14.8752 1 14.2796 1 13.6587V6.63476C1 5.76847 1.50526 5.01145 2.26316 4.60562L9 1L15.7368 4.60562C16.4947 5.01145 17 5.76847 17 6.63476ZM2.44842 5.44069L9 9.36629L15.5516 5.44069L12.2758 3.66909L9 1.8975L2.44842 5.44069ZM9 10.3106L1.95158 6.07284C1.88421 6.24454 1.84211 6.43965 1.84211 6.63476V13.6587C1.84211 14.0727 2.01955 14.4697 2.3354 14.7624C2.65125 15.0551 3.07964 15.2196 3.52632 15.2196H14.4737C14.9204 15.2196 15.3487 15.0551 15.6646 14.7624C15.9805 14.4697 16.1579 14.0727 16.1579 13.6587V6.63476C16.1579 6.43965 16.1158 6.24454 16.0484 6.07284L9 10.3106Z" fill="#03314B"/>
</svg>
