<svg width="16" height="15" viewBox="0 0 16 15" fill="none" xmlns="http://www.w3.org/2000/svg">
<path d="M16 5.63476V12.6587C16 13.2796 15.7338 13.8752 15.2601 14.3142C14.7863 14.7533 14.1437 15 13.4737 15H2.52632C1.8563 15 1.21372 14.7533 0.739941 14.3142C0.266165 13.8752 0 13.2796 0 12.6587V5.63476C0 4.76847 0.505263 4.01145 1.26316 3.60562L8 0L14.7368 3.60562C15.4947 4.01145 16 4.76847 16 5.63476ZM1.44842 4.44069L8 8.36629L14.5516 4.44069L11.2758 2.66909L8 0.897503L1.44842 4.44069ZM8 9.31061L0.951579 5.07284C0.884211 5.24454 0.842105 5.43965 0.842105 5.63476V12.6587C0.842105 13.0727 1.01955 13.4697 1.3354 13.7624C1.65125 14.0551 2.07964 14.2196 2.52632 14.2196H13.4737C13.9204 14.2196 14.3487 14.0551 14.6646 13.7624C14.9805 13.4697 15.1579 13.0727 15.1579 12.6587V5.63476C15.1579 5.43965 15.1158 5.24454 15.0484 5.07284L8 9.31061Z" fill="#03314B"/>
</svg>
