<svg width="16" height="16" viewBox="0 0 16 16" fill="none" xmlns="http://www.w3.org/2000/svg">
<g clip-path="url(#clip0_407_14695)">
<path opacity="0.945" fill-rule="evenodd" clip-rule="evenodd" d="M1.5779 -0.015625C5.84875 -0.015625 10.1196 -0.015625 14.3904 -0.015625C14.8367 0.123661 15.1024 0.425744 15.1873 0.890625C15.2178 2.47512 15.2074 4.05847 15.156 5.64062C15.0485 5.98572 14.8245 6.22009 14.4842 6.34375C13.9076 6.37941 13.3295 6.39503 12.7498 6.39062C12.2133 6.38541 11.6769 6.38022 11.1404 6.375C10.9477 6.21922 10.9373 6.05256 11.1092 5.875C11.1404 5.86459 11.1717 5.85416 11.2029 5.84375C12.2237 5.83334 13.2446 5.82291 14.2654 5.8125C14.4601 5.75116 14.5799 5.62094 14.6248 5.42188C14.6456 3.93228 14.6456 2.44271 14.6248 0.953125C14.593 0.790263 14.5044 0.670472 14.3592 0.59375C12.2359 0.557444 10.1109 0.541819 7.98416 0.546875C5.85737 0.541819 3.73237 0.557444 1.60915 0.59375C1.46387 0.670472 1.37532 0.790263 1.34353 0.953125C1.32269 2.44271 1.32269 3.93228 1.34353 5.42188C1.38839 5.62094 1.50818 5.75116 1.7029 5.8125C2.81749 5.82291 3.93206 5.83334 5.04665 5.84375C5.23765 5.94666 5.28453 6.09772 5.18728 6.29688C5.15906 6.33441 5.12262 6.36047 5.0779 6.375C3.92165 6.39584 2.7654 6.39584 1.60915 6.375C1.20338 6.28169 0.937751 6.03691 0.812279 5.64062C0.776526 4.82413 0.760901 4.00644 0.765404 3.1875C0.760901 2.36857 0.776526 1.55086 0.812279 0.734375C0.940748 0.350656 1.19596 0.100655 1.5779 -0.015625Z" fill="#03314B"/>
<path opacity="0.937" fill-rule="evenodd" clip-rule="evenodd" d="M2.5156 1.5784C2.67019 1.55114 2.80039 1.5928 2.90623 1.7034C3.17707 2.1409 3.44789 2.5784 3.71873 3.0159C3.98957 2.5784 4.26039 2.1409 4.53123 1.7034C4.7002 1.53885 4.86685 1.53885 5.03123 1.7034C5.08257 2.65982 5.09301 3.61815 5.06248 4.5784C4.99676 4.76493 4.86654 4.83265 4.67185 4.78152C4.60414 4.75549 4.55726 4.70862 4.53123 4.6409C4.52082 4.03674 4.51039 3.43256 4.49998 2.8284C4.32289 3.12007 4.14582 3.41174 3.96873 3.7034C3.80079 3.86965 3.6341 3.86965 3.46873 3.7034C3.29945 3.41687 3.12238 3.13562 2.93748 2.85965C2.92706 3.4534 2.91664 4.04715 2.90623 4.6409C2.82681 4.78368 2.70702 4.83056 2.54685 4.78152C2.49104 4.75699 2.44417 4.72056 2.40623 4.67215C2.35487 3.71574 2.34445 2.75739 2.37498 1.79715C2.40324 1.71173 2.45011 1.63882 2.5156 1.5784Z" fill="#03314B"/>
<path opacity="0.938" fill-rule="evenodd" clip-rule="evenodd" d="M6.51563 1.57922C7.15288 1.49414 7.61641 1.73372 7.90626 2.29797C7.93195 2.36949 7.95279 2.44241 7.96876 2.51672C7.9896 2.96464 7.9896 3.41257 7.96876 3.86047C7.71632 4.60413 7.2007 4.90101 6.42188 4.7511C5.98107 4.59154 5.70501 4.28426 5.59376 3.82922C5.57291 3.39172 5.57291 2.95422 5.59376 2.51672C5.73179 2.0344 6.0391 1.7219 6.51563 1.57922ZM6.60938 2.14172C6.40173 2.24006 6.25066 2.39631 6.15626 2.61047C6.13541 2.98547 6.13541 3.36047 6.15626 3.73547C6.19498 3.89926 6.28351 4.02947 6.42188 4.1261C6.86982 4.33444 7.19795 4.21463 7.40626 3.76672C7.4271 3.38132 7.4271 2.99589 7.40626 2.61047C7.26991 2.24257 7.00429 2.08632 6.60938 2.14172Z" fill="#03314B"/>
<path opacity="0.94" fill-rule="evenodd" clip-rule="evenodd" d="M8.89063 1.58073C9.81423 1.45112 10.4653 1.80529 10.8438 2.64323C11.0451 3.34342 10.8836 3.94239 10.3594 4.4401C9.84845 4.81114 9.29635 4.89448 8.70313 4.6901C8.61041 4.62448 8.55313 4.53592 8.53126 4.42448C8.51041 3.59114 8.51041 2.75781 8.53126 1.92448C8.60741 1.75967 8.72723 1.64509 8.89063 1.58073ZM9.07813 2.14323C9.07813 2.84114 9.07813 3.53907 9.07813 4.23698C9.83807 4.2852 10.2652 3.93623 10.3594 3.1901C10.2676 2.43724 9.84051 2.08828 9.07813 2.14323Z" fill="#03314B"/>
<path opacity="0.94" fill-rule="evenodd" clip-rule="evenodd" d="M11.5779 1.58008C12.203 1.57487 12.828 1.58008 13.4529 1.5957C13.6744 1.80302 13.6536 1.9801 13.3904 2.12695C12.9218 2.14257 12.4531 2.14778 11.9842 2.14258C11.9842 2.39258 11.9842 2.64258 11.9842 2.89258C12.4426 2.88737 12.901 2.89258 13.3592 2.9082C13.6476 3.03781 13.6788 3.21489 13.4529 3.43945C12.9635 3.45508 12.4739 3.4603 11.9842 3.45508C11.9842 3.71548 11.9842 3.97592 11.9842 4.23633C12.4635 4.23111 12.9426 4.23633 13.4217 4.25195C13.6717 4.42905 13.6717 4.60611 13.4217 4.7832C12.8175 4.80405 12.2133 4.80405 11.6092 4.7832C11.5534 4.75867 11.5065 4.72223 11.4686 4.67383C11.4175 3.72742 11.407 2.7795 11.4373 1.83008C11.4514 1.72765 11.4983 1.64432 11.5779 1.58008Z" fill="#03314B"/>
<path opacity="0.93" fill-rule="evenodd" clip-rule="evenodd" d="M7.73438 5.04847C9.16819 4.95494 10.1734 5.55909 10.75 6.86097C10.7397 7.16594 10.5887 7.2649 10.2969 7.15784C10.1376 6.81134 9.92925 6.49884 9.67188 6.22034C8.84644 5.53 7.95059 5.42581 6.98438 5.90784C6.75375 6.0445 6.55062 6.21637 6.375 6.42347C6.21962 6.66665 6.06859 6.91147 5.92188 7.15784C5.68019 7.25062 5.53434 7.1725 5.48438 6.92347C5.73484 6.16753 6.22444 5.62065 6.95312 5.28284C7.21009 5.17972 7.47053 5.10159 7.73438 5.04847Z" fill="#03314B"/>
<path opacity="0.927" fill-rule="evenodd" clip-rule="evenodd" d="M7.82818 6.11184C8.6924 6.036 9.32262 6.37975 9.71881 7.14309C9.80787 7.31116 9.81309 7.47781 9.73443 7.64309C9.57334 7.77509 9.42231 7.76466 9.28131 7.61184C9.03443 6.87641 8.52922 6.57953 7.76568 6.72122C7.53947 6.80156 7.34678 6.93175 7.18756 7.11184C7.08172 7.30809 6.97234 7.50081 6.85943 7.68997C6.56768 7.77094 6.42706 7.66156 6.43756 7.36184C6.66243 6.67472 7.12597 6.25806 7.82818 6.11184Z" fill="#03314B"/>
<path opacity="0.937" fill-rule="evenodd" clip-rule="evenodd" d="M11.0469 15.9844C9.92188 15.9844 8.79688 15.9844 7.67188 15.9844C6.53348 15.7679 5.84079 15.0908 5.59376 13.9531C5.57291 12.9531 5.57291 11.9531 5.59376 10.9531C5.7846 10.3288 6.20648 10.0528 6.85938 10.125C6.96573 10.1431 7.0647 10.1795 7.15626 10.2344C7.16666 9.54688 7.1771 8.85938 7.18751 8.17188C7.32026 7.71172 7.62754 7.46172 8.10938 7.42188C8.58498 7.44844 8.89229 7.688 9.03126 8.14062C9.06832 8.36831 9.08395 8.59747 9.07813 8.82812C9.67623 8.66112 10.0981 8.85903 10.3438 9.42188C10.8426 9.20078 11.2593 9.30494 11.5938 9.73438C11.6804 9.66372 11.7793 9.61684 11.8906 9.59375C12.4568 9.50944 12.837 9.73338 13.0313 10.2656C13.0593 10.4521 13.0749 10.6396 13.0781 10.8281C13.055 11.8714 13.0394 12.9235 13.0313 13.9844C12.7808 15.0629 12.1194 15.7296 11.0469 15.9844ZM7.98438 8.01562C8.2036 7.96644 8.36504 8.03938 8.46876 8.23438C8.47916 9.57812 8.4896 10.9219 8.50001 12.2656C8.55682 12.5019 8.69745 12.58 8.92188 12.5C9.00838 12.4449 9.05526 12.3668 9.06251 12.2656C9.07291 11.3698 9.08335 10.474 9.09376 9.57812C9.27685 9.28728 9.4956 9.25603 9.75001 9.48438C9.77085 9.52603 9.79166 9.56772 9.81251 9.60938C9.82291 10.5156 9.83335 11.4219 9.84376 12.3281C9.88401 12.4556 9.97257 12.5285 10.1094 12.5469C10.2369 12.5392 10.3254 12.4767 10.375 12.3594C10.3854 11.6302 10.3959 10.901 10.4063 10.1719C10.5004 9.90428 10.6827 9.81572 10.9531 9.90625C11.0313 9.94272 11.0885 10 11.125 10.0781C11.1658 10.8366 11.1866 11.597 11.1875 12.3594C11.3034 12.5407 11.4544 12.5772 11.6406 12.4688C11.6842 12.4322 11.7102 12.3853 11.7188 12.3281C11.7198 11.6595 11.7406 10.9928 11.7813 10.3281C11.9414 10.1251 12.1341 10.0887 12.3594 10.2188C12.4075 10.2681 12.444 10.3254 12.4688 10.3906C12.4896 11.5573 12.4896 12.724 12.4688 13.8906C12.2759 14.7085 11.7707 15.2137 10.9531 15.4062C9.88023 15.4271 8.80729 15.4271 7.73438 15.4062C6.88198 15.2414 6.35595 14.7362 6.15626 13.8906C6.13541 12.9427 6.13541 11.9948 6.15626 11.0469C6.35395 10.6452 6.64041 10.5671 7.01563 10.8125C7.08288 10.8897 7.12976 10.9782 7.15626 11.0781C7.16666 11.5052 7.1771 11.9323 7.18751 12.3594C7.33063 12.567 7.49732 12.5878 7.68751 12.4219C7.7287 11.0383 7.74954 9.65287 7.75001 8.26562C7.79335 8.14619 7.87148 8.06284 7.98438 8.01562Z" fill="#03314B"/>
<path opacity="0.919" fill-rule="evenodd" clip-rule="evenodd" d="M6.79709 13.2975C7.11356 13.2861 7.25419 13.4423 7.21897 13.7662C7.32534 14.0913 7.54409 14.2996 7.87522 14.3912C8.01194 14.6427 7.94422 14.8094 7.67209 14.8912C6.96222 14.6759 6.62369 14.1967 6.65647 13.4537C6.6885 13.3854 6.73537 13.3333 6.79709 13.2975Z" fill="#03314B"/>
</g>
<defs>
<clipPath id="clip0_407_14695">
<rect width="16" height="16" fill="white"/>
</clipPath>
</defs>
</svg>
