<svg width="18" height="20" viewBox="0 0 18 20" fill="none" xmlns="http://www.w3.org/2000/svg">
<path d="M14.0837 6.8304V5.07C14.0837 3.0333 14.0837 2.0154 13.3948 1.3827C12.705 0.75 11.5965 0.75 9.37689 0.75H5.45679C3.23718 0.75 2.1287 0.75 1.43891 1.3827C0.749111 2.0154 0.75 3.0333 0.75 5.07V10.83C0.75 12.8667 0.75 13.8846 1.43891 14.5173C2.1287 15.15 3.23718 15.15 5.45679 15.15H9.37689M3.41674 4.35H11.4169M3.41674 7.95H4.30565M6.97239 7.95H7.8613M10.528 7.95H11.4169M3.41674 11.55H4.30565M6.97239 11.55H7.8613M16.4891 12.4536C16.2455 11.8281 15.6179 11.0946 14.1904 11.0946C12.5316 11.0946 11.833 11.8641 11.6916 12.2754C11.4703 12.8253 11.4498 14.0124 13.4597 14.0799C15.8597 14.1609 16.8642 14.4912 16.7398 15.8232C16.6162 17.1552 15.233 17.3406 14.1904 17.4126C13.1192 17.3811 11.7947 17.1543 11.4169 16.0041M14.0784 9.75V11.0424M14.0864 17.4081V18.75" stroke="#1CBF8E" stroke-width="1.5" stroke-linecap="round" stroke-linejoin="round"/>
</svg>
