<svg width="18" height="20" viewBox="0 0 18 20" fill="none" xmlns="http://www.w3.org/2000/svg">
<path d="M14.3337 7.0804V5.32C14.3337 3.2833 14.3337 2.2654 13.6448 1.6327C12.955 1 11.8465 1 9.62689 1H5.70679C3.48718 1 2.3787 1 1.68891 1.6327C0.999111 2.2654 1 3.2833 1 5.32V11.08C1 13.1167 1 14.1346 1.68891 14.7673C2.3787 15.4 3.48718 15.4 5.70679 15.4H9.62689M3.66674 4.6H11.6669M3.66674 8.2H4.55565M7.22239 8.2H8.1113M10.778 8.2H11.6669M3.66674 11.8H4.55565M7.22239 11.8H8.1113M16.7391 12.7036C16.4955 12.0781 15.8679 11.3446 14.4404 11.3446C12.7816 11.3446 12.083 12.1141 11.9416 12.5254C11.7203 13.0753 11.6998 14.2624 13.7097 14.3299C16.1097 14.4109 17.1142 14.7412 16.9898 16.0732C16.8662 17.4052 15.483 17.5906 14.4404 17.6626C13.3692 17.6311 12.0447 17.4043 11.6669 16.2541M14.3284 10V11.2924M14.3364 17.6581V19" stroke="#101010" stroke-linecap="round" stroke-linejoin="round"/>
</svg>
