<svg width="18" height="21" viewBox="0 0 18 21" fill="none" xmlns="http://www.w3.org/2000/svg">
<path d="M0.75 10.4426V12.9084C0.75 16.0537 0.75 17.6268 1.636 18.692C1.81494 18.9071 2.01709 19.103 2.239 19.2765C3.34 20.1352 4.961 20.1352 8.206 20.1352C8.911 20.1352 9.264 20.1352 9.587 20.0247C9.65367 20.0015 9.71933 19.975 9.784 19.9453C10.094 19.8018 10.343 19.5605 10.842 19.0768L15.578 14.4864C16.157 13.9262 16.445 13.646 16.598 13.2893C16.75 12.9327 16.75 12.5372 16.75 11.7443V8.5041C16.75 4.84901 16.75 3.02098 15.578 1.88598C14.406 0.750969 12.521 0.75 8.75 0.75M9.75 19.6506V19.166C9.75 16.4249 9.75 15.0534 10.629 14.2024C11.507 13.3504 12.922 13.3504 15.75 13.3504H16.25" stroke="black" stroke-width="1.5" stroke-linecap="round" stroke-linejoin="round"/>
<path d="M6.75 3.65779C6.16 3.06944 4.59 0.75 3.75 0.75C2.91 0.75 1.34 3.06944 0.75 3.65779M3.75 1.71926V8.5041" stroke="black" stroke-width="1.5" stroke-linecap="round" stroke-linejoin="round"/>
</svg>
