<svg width="16" height="14" viewBox="0 0 16 14" fill="none" xmlns="http://www.w3.org/2000/svg">
<path d="M1.25078 0.701172C1.13143 0.701172 1.01697 0.748583 0.932583 0.832974C0.848192 0.917365 0.800781 1.03182 0.800781 1.15117V5.65117C0.800781 5.77052 0.848192 5.88498 0.932583 5.96937C1.01697 6.05376 1.13143 6.10117 1.25078 6.10117H3.05078C3.17013 6.10117 3.28459 6.05376 3.36898 5.96937C3.45337 5.88498 3.50078 5.77052 3.50078 5.65117C3.50078 5.53182 3.45337 5.41737 3.36898 5.33297C3.28459 5.24858 3.17013 5.20117 3.05078 5.20117H1.70078V1.60117H3.05078C3.17013 1.60117 3.28459 1.55376 3.36898 1.46937C3.45337 1.38498 3.50078 1.27052 3.50078 1.15117C3.50078 1.03182 3.45337 0.917365 3.36898 0.832974C3.28459 0.748583 3.17013 0.701172 3.05078 0.701172H1.25078ZM1.25078 7.90117C1.13143 7.90117 1.01697 7.94858 0.932583 8.03297C0.848192 8.11736 0.800781 8.23182 0.800781 8.35117V12.8512C0.800781 12.9705 0.848192 13.085 0.932583 13.1694C1.01697 13.2538 1.13143 13.3012 1.25078 13.3012H3.05078C3.17013 13.3012 3.28459 13.2538 3.36898 13.1694C3.45337 13.085 3.50078 12.9705 3.50078 12.8512C3.50078 12.7318 3.45337 12.6174 3.36898 12.533C3.28459 12.4486 3.17013 12.4012 3.05078 12.4012H1.70078V8.80117H3.05078C3.17013 8.80117 3.28459 8.75376 3.36898 8.66937C3.45337 8.58498 3.50078 8.47052 3.50078 8.35117C3.50078 8.23182 3.45337 8.11736 3.36898 8.03297C3.28459 7.94858 3.17013 7.90117 3.05078 7.90117H1.25078ZM4.40078 2.05117C4.40078 1.93182 4.44819 1.81737 4.53258 1.73297C4.61697 1.64858 4.73143 1.60117 4.85078 1.60117H14.7508C14.8701 1.60117 14.9846 1.64858 15.069 1.73297C15.1534 1.81737 15.2008 1.93182 15.2008 2.05117C15.2008 2.17052 15.1534 2.28498 15.069 2.36937C14.9846 2.45376 14.8701 2.50117 14.7508 2.50117H4.85078C4.73143 2.50117 4.61697 2.45376 4.53258 2.36937C4.44819 2.28498 4.40078 2.17052 4.40078 2.05117ZM4.85078 8.80117C4.73143 8.80117 4.61697 8.84858 4.53258 8.93297C4.44819 9.01736 4.40078 9.13182 4.40078 9.25117C4.40078 9.37052 4.44819 9.48498 4.53258 9.56937C4.61697 9.65376 4.73143 9.70117 4.85078 9.70117H14.7508C14.8701 9.70117 14.9846 9.65376 15.069 9.56937C15.1534 9.48498 15.2008 9.37052 15.2008 9.25117C15.2008 9.13182 15.1534 9.01736 15.069 8.93297C14.9846 8.84858 14.8701 8.80117 14.7508 8.80117H4.85078ZM4.40078 4.75117C4.40078 4.63182 4.44819 4.51737 4.53258 4.43297C4.61697 4.34858 4.73143 4.30117 4.85078 4.30117H14.7508C14.8701 4.30117 14.9846 4.34858 15.069 4.43297C15.1534 4.51737 15.2008 4.63182 15.2008 4.75117C15.2008 4.87052 15.1534 4.98498 15.069 5.06937C14.9846 5.15376 14.8701 5.20117 14.7508 5.20117H4.85078C4.73143 5.20117 4.61697 5.15376 4.53258 5.06937C4.44819 4.98498 4.40078 4.87052 4.40078 4.75117ZM4.85078 11.5012C4.73143 11.5012 4.61697 11.5486 4.53258 11.633C4.44819 11.7174 4.40078 11.8318 4.40078 11.9512C4.40078 12.0705 4.44819 12.185 4.53258 12.2694C4.61697 12.3538 4.73143 12.4012 4.85078 12.4012H14.7508C14.8701 12.4012 14.9846 12.3538 15.069 12.2694C15.1534 12.185 15.2008 12.0705 15.2008 11.9512C15.2008 11.8318 15.1534 11.7174 15.069 11.633C14.9846 11.5486 14.8701 11.5012 14.7508 11.5012H4.85078Z" fill="#03314B"/>
</svg>
