<svg width="20" height="20" viewBox="0 0 20 20" fill="none" xmlns="http://www.w3.org/2000/svg">
<path d="M8.65088 8.64844L3.65088 3.64844" stroke="#EBEBEB" stroke-width="1.3"/>
<path d="M2.65106 5.1506L5.15106 2.6506L2.15106 1.1506L1.15106 2.1506L2.65106 5.1506ZM17.6261 6.6256C18.1062 6.14591 18.4365 5.53699 18.5767 4.87297C18.717 4.20895 18.6612 3.51847 18.4161 2.8856L16.9941 4.3076H14.9941V2.3076L16.4161 0.885597C15.7831 0.639938 15.0924 0.583658 14.4281 0.723614C13.7638 0.863569 13.1545 1.19372 12.6745 1.67384C12.1945 2.15396 11.8644 2.76332 11.7246 3.42769C11.5848 4.09205 11.6413 4.78274 11.8871 5.4156L5.41706 11.8866C4.7842 11.6408 4.09352 11.5844 3.42915 11.7242C2.76479 11.864 2.15542 12.194 1.6753 12.674C1.19518 13.154 0.865034 13.7633 0.725079 14.4276C0.585123 15.092 0.641403 15.7827 0.887062 16.4156L2.30806 14.9936H4.30806V16.9936L2.88606 18.4156C3.51882 18.6613 4.20935 18.7176 4.87357 18.5778C5.53778 18.438 6.14702 18.1081 6.62709 17.6283C7.10716 17.1484 7.43734 16.5393 7.57742 15.8752C7.7175 15.211 7.66144 14.5205 7.41606 13.8876L13.8881 7.4156C14.5207 7.66028 15.2107 7.71587 15.8744 7.57562C16.538 7.43537 17.1466 7.10532 17.6261 6.6256Z" stroke="#EBEBEB" stroke-width="1.3" stroke-linejoin="round"/>
<path d="M9.44824 12.1483L15.0522 17.7523C15.1776 17.8779 15.3266 17.9776 15.4905 18.0456C15.6545 18.1136 15.8302 18.1486 16.0077 18.1486C16.1852 18.1486 16.361 18.1136 16.525 18.0456C16.6889 17.9776 16.8379 17.8779 16.9632 17.7523L17.7552 16.9603C17.8809 16.8349 17.9805 16.686 18.0485 16.522C18.1166 16.3581 18.1516 16.1823 18.1516 16.0048C18.1516 15.8273 18.1166 15.6516 18.0485 15.4876C17.9805 15.3236 17.8809 15.1747 17.7552 15.0493L12.1512 9.44531" stroke="#EBEBEB" stroke-width="1.3" stroke-linejoin="round"/>
</svg>
