<svg width="19" height="15" viewBox="0 0 19 15" fill="none" xmlns="http://www.w3.org/2000/svg">
<path d="M10.9287 6.63834C10.9287 6.41103 11.019 6.19302 11.1797 6.03229C11.3405 5.87155 11.5585 5.78125 11.7858 5.78125C12.0131 5.78125 12.2311 5.87155 12.3919 6.03229C12.5526 6.19302 12.6429 6.41103 12.6429 6.63834V8.35253C12.6429 8.57985 12.5526 8.79785 12.3919 8.95859C12.2311 9.11932 12.0131 9.20963 11.7858 9.20963C11.5585 9.20963 11.3405 9.11932 11.1797 8.95859C11.019 8.79785 10.9287 8.57985 10.9287 8.35253V6.63834Z" stroke="black"/>
<path d="M10.9409 11.785L11.5837 11.7868V11.785H10.9409ZM10.9409 3.2141H11.5837V3.21239L10.9409 3.2141ZM11.5786 13.5035L11.5837 11.7868L10.2981 11.7833L10.2929 13.5001L11.5786 13.5035ZM11.7997 11.5708C11.9206 11.5708 12.0166 11.6685 12.0166 11.785H13.3022C13.3022 10.9554 12.6277 10.2851 11.7997 10.2851V11.5708ZM11.7997 10.2851C10.9718 10.2851 10.2981 10.9554 10.2981 11.785H11.5837C11.5837 11.6685 11.6789 11.5708 11.7997 11.5708V10.2851ZM7.49624 1.28564H10.5046V1.0847e-06H7.49624V1.28564ZM10.0787 13.7135H7.49624V14.9991H10.0787V13.7135ZM7.49624 13.7135C5.85833 13.7135 4.69354 13.7118 3.81073 13.5935C2.94507 13.4778 2.4471 13.2601 2.08283 12.8967L1.17517 13.8078C1.81799 14.4489 2.63394 14.7334 3.64017 14.8689C4.62926 15.0017 5.89433 15 7.49709 15L7.49624 13.7135ZM7.49624 1.0847e-06C5.89347 1.0847e-06 4.6284 -0.001713 3.63931 0.131137C2.63309 0.266557 1.81799 0.551112 1.17517 1.19222L2.08369 2.10245C2.4471 1.73904 2.94593 1.52134 3.81073 1.40563C4.69354 1.28736 5.85833 1.28564 7.49624 1.28564V1.0847e-06ZM1.14689 6.56448C1.47772 6.74876 1.698 7.09931 1.698 7.49957H2.98364C2.98357 7.08004 2.87153 6.66814 2.65909 6.30638C2.44664 5.94462 2.14149 5.64611 1.77514 5.44169L1.14689 6.56448ZM1.29516 4.94543C1.36202 3.35467 1.57886 2.60471 2.08369 2.10245L1.17517 1.19222C0.292363 2.07331 0.0780895 3.28267 0.00952198 4.89229L1.29516 4.94543ZM1.698 7.49957C1.698 7.89983 1.47772 8.25039 1.14689 8.43552L1.77428 9.55831C2.14092 9.35393 2.44632 9.05534 2.65893 8.69341C2.87154 8.33147 2.98364 7.91933 2.98364 7.49957H1.698ZM0.0103791 10.1069C0.0789466 11.7148 0.29322 12.9267 1.17517 13.8069L2.08369 12.8967C1.57886 12.3944 1.36202 11.6436 1.29516 10.0529L0.0103791 10.1069ZM16.7314 7.49957C16.7314 7.09931 16.9517 6.74876 17.2825 6.56448L16.6551 5.44169C16.2886 5.646 15.9833 5.94446 15.7707 6.30623C15.5581 6.66799 15.4459 7.07996 15.4458 7.49957H16.7314ZM18.419 4.89229C18.3505 3.28438 18.1362 2.07245 17.2542 1.19222L16.3457 2.10245C16.8497 2.60471 17.0674 3.35552 17.1343 4.94629L18.419 4.89229ZM17.2825 8.43552C17.1156 8.34278 16.9765 8.20712 16.8796 8.04256C16.7827 7.878 16.7315 7.69054 16.7314 7.49957H15.4458C15.4458 8.38581 15.9352 9.15548 16.6551 9.55745L17.2825 8.43552ZM17.1343 10.0529C17.0674 11.6436 16.8506 12.3944 16.3457 12.8967L17.2542 13.8069C18.1371 12.9267 18.3513 11.7156 18.419 10.1069L17.1343 10.0529ZM16.6551 9.55745C16.8986 9.69373 17.058 9.78287 17.1651 9.85058C17.2183 9.88401 17.2423 9.90201 17.2491 9.90715C17.2611 9.91743 17.2174 9.88658 17.1763 9.81287L18.299 9.18462C18.2397 9.08176 18.1615 8.99103 18.0685 8.9172C17.9993 8.86112 17.9266 8.80959 17.8508 8.76293C17.7077 8.67208 17.5114 8.56322 17.2825 8.43466L16.6551 9.55745ZM18.419 10.1069C18.425 9.96029 18.4319 9.80858 18.4268 9.68173C18.4232 9.50828 18.3792 9.33805 18.2982 9.18462L17.1763 9.81201C17.1334 9.73487 17.1394 9.68173 17.142 9.7383C17.1431 9.76116 17.1431 9.79944 17.142 9.85315L17.1343 10.0529L18.419 10.1069ZM17.2825 6.56448C17.5114 6.43592 17.7077 6.32707 17.8508 6.23622C17.926 6.18859 17.9986 6.1371 18.0685 6.08194C18.1612 6.00804 18.2391 5.91731 18.2982 5.81453L17.1763 5.18713C17.2174 5.11257 17.2611 5.08171 17.2482 5.092C17.2217 5.11246 17.1939 5.13135 17.1651 5.14856C17.058 5.21713 16.8994 5.30541 16.6551 5.44169L17.2825 6.56448ZM17.1343 4.94629L17.142 5.14514C17.1431 5.19885 17.1431 5.23713 17.142 5.25999C17.1394 5.31655 17.1334 5.26341 17.1763 5.18628L18.299 5.81367C18.3797 5.66016 18.4235 5.48994 18.4268 5.31655C18.4298 5.17479 18.4269 5.03296 18.4182 4.89144L17.1343 4.94629ZM1.14689 8.43466C0.918041 8.56322 0.721767 8.67122 0.578632 8.76207C0.502803 8.80873 0.430082 8.86026 0.36093 8.91635C0.268231 8.99025 0.190302 9.08183 0.131229 9.18462L1.25317 9.81115C1.21202 9.88572 1.16831 9.91658 1.18031 9.90629C1.18803 9.90029 1.21117 9.88315 1.26431 9.84972C1.37144 9.78115 1.53001 9.69287 1.77428 9.5566L1.14689 8.43466ZM1.29516 10.052L1.28745 9.85229C1.28617 9.81402 1.28617 9.77572 1.28745 9.73744C1.29002 9.68088 1.29602 9.73401 1.25317 9.81115L0.130372 9.18376C0.049698 9.33727 0.00596895 9.50749 0.00266522 9.68088C-0.00247735 9.80772 0.0043794 9.95943 0.0112361 10.106L1.29516 10.052ZM1.77428 5.44083C1.53086 5.30455 1.37144 5.21542 1.26431 5.14771C1.23522 5.13052 1.20717 5.11163 1.18031 5.09114C1.16831 5.08085 1.21202 5.11171 1.25317 5.18542L0.130372 5.81367C0.202368 5.94052 0.297505 6.02794 0.36093 6.08108C0.429498 6.13765 0.505779 6.18908 0.578632 6.23536C0.721767 6.32621 0.918041 6.43506 1.14689 6.56363L1.77428 5.44083ZM0.00952198 4.89229C0.00352232 5.03886 -0.00333438 5.19056 0.00180818 5.31741C0.00780784 5.44598 0.027521 5.63197 0.130372 5.81453L1.25317 5.18713C1.29602 5.26427 1.28916 5.31741 1.28659 5.26084C1.28531 5.22257 1.28531 5.18427 1.28659 5.14599L1.29431 4.94629L0.00952198 4.89229ZM11.5829 3.21239L11.576 1.06794L10.2912 1.07223L10.2972 3.21582L11.5829 3.21239ZM11.7988 3.42838C11.7706 3.4286 11.7425 3.42323 11.7163 3.41256C11.6901 3.40189 11.6663 3.38615 11.6462 3.36623C11.6261 3.34631 11.6102 3.32261 11.5993 3.2965C11.5885 3.27039 11.5829 3.24239 11.5829 3.2141H10.2972C10.2972 4.04377 10.9709 4.71402 11.7988 4.71402V3.42838ZM12.0174 3.2141C12.0174 3.33067 11.9214 3.42838 11.8006 3.42838V4.71402C12.6285 4.71402 13.303 4.04377 13.303 3.2141H12.0174ZM12.0174 1.08508V3.2141H13.303V1.08508H12.0174ZM13.0802 1.30193C14.9555 1.34992 15.7963 1.5522 16.3474 2.10245L17.256 1.19222C16.302 0.240844 14.953 0.0642832 13.1128 0.0162859L13.0802 1.30193ZM13.303 1.08508C13.303 1.20507 13.2036 1.3045 13.0802 1.30193L13.1128 0.0162859C12.9702 0.0127404 12.8284 0.0377661 12.6956 0.0898885C12.5628 0.142011 12.4419 0.220176 12.3398 0.319778C12.2377 0.41938 12.1566 0.538405 12.1012 0.66984C12.0459 0.801275 12.0174 0.942461 12.0174 1.08508H13.303ZM10.5046 1.28564C10.448 1.28542 10.3945 1.26274 10.3545 1.22258C10.3145 1.18242 10.2921 1.12805 10.2921 1.07137L11.5777 1.06794C11.5768 0.78439 11.4635 0.512764 11.2627 0.312584C11.0619 0.112405 10.7899 -3.67084e-07 10.5064 1.0847e-06L10.5046 1.28564ZM13.5559 14.9683C15.1629 14.8997 16.3749 14.6854 17.2551 13.8069L16.3457 12.8967C15.8435 13.3989 15.0918 13.6167 13.5028 13.6835L13.5559 14.9683ZM12.0174 11.785V13.4795H13.303V11.785H12.0174ZM10.2938 13.4992C10.2938 13.6029 10.2938 13.6826 10.2912 13.7504C10.2895 13.8189 10.2861 13.8584 10.2826 13.8832C10.2792 13.9081 10.2784 13.8995 10.2878 13.8746C10.3044 13.8381 10.3273 13.8047 10.3555 13.7761L11.2632 14.6863C11.4283 14.5155 11.5316 14.2943 11.5563 14.0581C11.5794 13.8892 11.5777 13.6869 11.5786 13.5035L10.2938 13.4992ZM10.0787 14.9991C10.2621 14.9991 10.4652 15.0009 10.6341 14.9777C10.8218 14.952 11.0609 14.8877 11.2632 14.6863L10.3546 13.7761C10.3839 13.748 10.4178 13.7254 10.4549 13.7092C10.4789 13.6989 10.4875 13.7006 10.4635 13.7032C10.4191 13.7078 10.3745 13.7107 10.3298 13.7118C10.2612 13.7135 10.1815 13.7135 10.0787 13.7135V14.9991ZM13.5028 13.6835C13.3999 13.6878 13.3202 13.6912 13.2525 13.6921C13.1848 13.6929 13.1453 13.6921 13.1222 13.6895C13.0991 13.6869 13.1093 13.6852 13.1351 13.6955C13.1668 13.7075 13.2036 13.7298 13.2371 13.7606L12.3474 14.6889C12.5565 14.8894 12.8008 14.9494 12.9962 14.9683C13.1693 14.9854 13.3725 14.976 13.5559 14.9683L13.5028 13.6835ZM12.0174 13.4795C12.0174 13.6664 12.0157 13.8738 12.0397 14.0478C12.0663 14.2415 12.1357 14.4857 12.3474 14.6889L13.2371 13.7606C13.2713 13.7932 13.2936 13.8301 13.3073 13.8609C13.3176 13.8866 13.3159 13.8952 13.3133 13.8712C13.3087 13.8259 13.3058 13.7805 13.3048 13.7349C13.303 13.6664 13.303 13.5849 13.303 13.4795H12.0174Z" fill="black"/>
</svg>
