<svg width="12" height="11" viewBox="0 0 12 11" fill="none" xmlns="http://www.w3.org/2000/svg">
<path d="M8.23305 7.51615L8.51364 7.24679L7.86201 6.61413L7.58265 6.88349L8.23305 7.51615ZM9.45448 7.13382L10.6304 7.75162L11.0703 6.96792L9.89505 6.35072L9.45448 7.13382ZM10.8562 8.97889L9.98243 9.81908L10.6328 10.4511L11.5066 9.61156L10.8562 8.97889ZM9.44955 10.089C8.55733 10.1699 6.24985 10.0979 3.7504 7.69691L3.09938 8.32898C5.82651 10.9494 8.42257 11.0779 9.5357 10.9774L9.44955 10.089ZM3.7504 7.69691C1.36847 5.40766 0.973427 3.48291 0.924201 2.64748L0.00244097 2.69803C0.0639737 3.7493 0.553159 5.88276 3.09938 8.32898L3.7504 7.69691ZM4.59647 4.02222L4.77307 3.85216L4.12328 3.22009L3.94669 3.38956L4.59647 4.02222ZM4.91336 1.69076L4.13805 0.689434L3.39904 1.22458L4.17436 2.22531L4.91336 1.69076ZM1.52845 0.471212L0.562388 1.3988L1.2134 2.03147L2.17885 1.10388L1.52845 0.471212ZM4.27158 3.70589C3.94546 3.38956 3.94546 3.38956 3.94546 3.39075H3.94422L3.94238 3.39313C3.91314 3.42162 3.88695 3.45289 3.86423 3.48648C3.831 3.53405 3.7947 3.59648 3.76393 3.67557C3.68903 3.87971 3.67037 4.09917 3.70978 4.31239C3.79224 4.82673 4.15897 5.50637 5.09796 6.40899L5.74898 5.77632C4.86968 4.93198 4.66047 4.41823 4.6217 4.17563C4.60324 4.06028 4.62231 4.0032 4.62785 3.99011C4.63155 3.98219 4.63155 3.981 4.62785 3.98655C4.62237 3.99475 4.61619 4.00251 4.60939 4.00974L4.60324 4.01568L4.59709 4.02103L4.27158 3.70589ZM5.09796 6.40899C6.03757 7.31161 6.74458 7.66362 7.27745 7.7421C7.55004 7.78254 7.76971 7.75043 7.93646 7.69037C8.02987 7.65736 8.11714 7.60997 8.1949 7.55005L8.22567 7.52329L8.22998 7.51972L8.23182 7.51794L8.23244 7.51675C8.23244 7.51675 8.23305 7.51615 7.90755 7.19982C7.58142 6.88349 7.58327 6.88289 7.58327 6.88289L7.5845 6.8817L7.58573 6.88051L7.58942 6.87754L7.59557 6.87159L7.61896 6.85376C7.6247 6.85019 7.62326 6.85059 7.61465 6.85495C7.59927 6.8603 7.53896 6.87873 7.41774 6.86089C7.163 6.82284 6.62767 6.62067 5.74898 5.77632L5.09796 6.40899ZM4.13805 0.688839C3.51042 -0.119831 2.2773 -0.248267 1.52845 0.471212L2.17885 1.10388C2.50621 0.789328 3.08707 0.822032 3.39904 1.22458L4.13805 0.688839ZM0.924816 2.64808C0.912509 2.44234 1.01035 2.2271 1.2134 2.03206L0.561773 1.3994C0.231343 1.71692 -0.0289407 2.16645 0.00244097 2.69803L0.924816 2.64808ZM9.98243 9.81908C9.81383 9.982 9.63169 10.0736 9.45017 10.0896L9.5357 10.9774C9.98796 10.9363 10.3578 10.7163 10.6334 10.4517L9.98243 9.81908ZM4.77307 3.85216C5.37917 3.27004 5.42409 2.35018 4.91398 1.69135L4.17497 2.22591C4.42295 2.5464 4.38603 2.96679 4.12267 3.22069L4.77307 3.85216ZM10.631 7.75221C11.1337 8.01622 11.2118 8.63818 10.8568 8.97949L11.5078 9.61156C12.3324 8.81894 12.0782 7.49712 11.0709 6.96852L10.631 7.75221ZM8.51364 7.24739C8.74993 7.02025 9.1302 6.96435 9.45509 7.13441L9.89567 6.35131C9.22865 6.00049 8.40165 6.09741 7.86263 6.61472L8.51364 7.24739Z" fill="black"/>
</svg>
