<svg width="19" height="23" viewBox="0 0 19 23" fill="none" xmlns="http://www.w3.org/2000/svg">
<path fill-rule="evenodd" clip-rule="evenodd" d="M9.79331 21.3746C11.1591 20.1986 12.4231 18.9204 13.5731 17.5524C15.9956 14.6644 17.4693 11.8169 17.5691 9.28496C17.6085 8.25595 17.429 7.22994 17.0413 6.26823C16.6535 5.30652 16.0654 4.42883 15.3122 3.6876C14.559 2.94638 13.656 2.35681 12.6573 1.95413C11.6586 1.55144 10.5846 1.3439 9.49941 1.3439C8.41426 1.3439 7.34024 1.55144 6.34151 1.95413C5.34278 2.35681 4.43983 2.94638 3.6866 3.6876C2.93337 4.42883 2.34531 5.30652 1.95755 6.26823C1.56978 7.22994 1.39028 8.25595 1.42975 9.28496C1.53069 11.8169 3.00556 14.6644 5.42687 17.5524C6.57692 18.9204 7.84093 20.1986 9.20669 21.3746C9.33811 21.4872 9.43587 21.5691 9.5 21.6202L9.79331 21.3746ZM8.62363 22.6873C8.62363 22.6873 0 15.7957 0 9.01453C0 6.62372 1.00089 4.33084 2.78249 2.64029C4.56408 0.949742 6.98044 0 9.5 0C12.0196 0 14.4359 0.949742 16.2175 2.64029C17.9991 4.33084 19 6.62372 19 9.01453C19 15.7957 10.3764 22.6873 10.3764 22.6873C9.89662 23.1065 9.10694 23.102 8.62363 22.6873ZM9.5 12.1696C10.3818 12.1696 11.2276 11.8372 11.8511 11.2455C12.4747 10.6538 12.825 9.85131 12.825 9.01453C12.825 8.17774 12.4747 7.37524 11.8511 6.78354C11.2276 6.19185 10.3818 5.85944 9.5 5.85944C8.61816 5.85944 7.77243 6.19185 7.14887 6.78354C6.52531 7.37524 6.175 8.17774 6.175 9.01453C6.175 9.85131 6.52531 10.6538 7.14887 11.2455C7.77243 11.8372 8.61816 12.1696 9.5 12.1696ZM9.5 13.5218C8.24022 13.5218 7.03204 13.0469 6.14124 12.2016C5.25044 11.3564 4.75 10.2099 4.75 9.01453C4.75 7.81912 5.25044 6.67268 6.14124 5.82741C7.03204 4.98213 8.24022 4.50726 9.5 4.50726C10.7598 4.50726 11.968 4.98213 12.8588 5.82741C13.7496 6.67268 14.25 7.81912 14.25 9.01453C14.25 10.2099 13.7496 11.3564 12.8588 12.2016C11.968 13.0469 10.7598 13.5218 9.5 13.5218Z" fill="#27A8F1"/>
</svg>
