<svg width="56" height="71" viewBox="0 0 56 71" fill="none" xmlns="http://www.w3.org/2000/svg">
<path d="M22.1356 66.5158C24.0209 68.1138 25.9871 69.5745 28 71C30.0172 69.5934 31.9739 68.0972 33.8644 66.5158C37.016 63.8572 39.982 60.9746 42.7404 57.8893C49.0996 50.7458 56 40.3902 56 28.7656C56 24.9881 55.2758 21.2475 53.8686 17.7575C52.4615 14.2675 50.399 11.0964 47.799 8.42526C45.1989 5.75412 42.1123 3.63526 38.7151 2.18965C35.318 0.744045 31.677 0 28 0C24.323 0 20.682 0.744045 17.2849 2.18965C13.8877 3.63526 10.8011 5.75412 8.20101 8.42526C5.60097 11.0964 3.5385 14.2675 2.13137 17.7575C0.724241 21.2475 -5.47918e-08 24.9881 0 28.7656C0 40.3902 6.90044 50.7426 13.2596 57.8893C16.0179 60.9757 18.9839 63.8562 22.1356 66.5158ZM28 39.1532C25.3184 39.1532 22.7466 38.0588 20.8504 36.1108C18.9542 34.1627 17.8889 31.5206 17.8889 28.7656C17.8889 26.0107 18.9542 23.3686 20.8504 21.4205C22.7466 19.4725 25.3184 18.378 28 18.378C30.6816 18.378 33.2534 19.4725 35.1496 21.4205C37.0458 23.3686 38.1111 26.0107 38.1111 28.7656C38.1111 31.5206 37.0458 34.1627 35.1496 36.1108C33.2534 38.0588 30.6816 39.1532 28 39.1532Z" fill="black"/>
</svg>
