<svg width="18" height="19" viewBox="0 0 18 19" fill="none" xmlns="http://www.w3.org/2000/svg">
<path d="M12.3684 1V2.7M8.15789 1V2.7M3.94737 1V2.7M15.3158 7.8C15.3158 4.995 15.3158 3.5925 14.4526 2.72125C13.5895 1.85 12.2 1.85 9.42105 1.85H6.89474C4.11579 1.85 2.72632 1.85 1.86316 2.72125C1 3.5925 1 4.995 1 7.8V12.05C1 14.855 1 16.2575 1.86316 17.1287C2.72632 18 4.11579 18 6.89474 18H9.42105M13.6316 11.2V18M17 14.6H10.2632M4.78947 12.05H8.15789M4.78947 7.8H11.5263" stroke="#EBEBEB" stroke-width="1.5" stroke-linecap="round" stroke-linejoin="round"/>
</svg>
