<svg width="28" height="27" viewBox="0 0 28 27" fill="none" xmlns="http://www.w3.org/2000/svg">
<g clip-path="url(#clip0_8100_49929)">
<path opacity="0.866" fill-rule="evenodd" clip-rule="evenodd" d="M8.72021 4.942C9.02243 4.89053 9.33453 4.87319 9.65652 4.88999C9.66625 5.18713 9.64892 5.48189 9.6045 5.77428C9.3271 5.77428 9.04964 5.77428 8.77223 5.77428C8.78893 5.48683 8.77161 5.2094 8.72021 4.942Z" fill="white"/>
<path opacity="0.942" fill-rule="evenodd" clip-rule="evenodd" d="M27.2903 12.5376C27.2903 13.1618 27.2903 13.786 27.2903 14.4102C26.8642 17.3414 25.373 19.5521 22.8169 21.0423C19.6405 22.5744 16.5889 22.3664 13.6619 20.4181C10.9738 18.3034 9.83812 15.5379 10.2548 12.1214C10.6811 9.70399 11.8861 7.78805 13.8699 6.37355C13.9393 6.33886 14.0087 6.33886 14.078 6.37355C17.0917 8.64955 18.2621 11.6578 17.5892 15.3985C17.1397 17.2611 16.1947 18.813 14.7542 20.054C16.7899 21.262 18.94 21.5048 21.2043 20.7822C24.5028 19.4671 26.254 17.031 26.458 13.4739C26.254 9.91673 24.5028 7.48058 21.2043 6.16548C19.1421 5.52271 17.1394 5.67013 15.1964 6.60763C15.1562 6.60009 15.1215 6.58276 15.0923 6.55561C14.9859 6.33397 14.8732 6.11721 14.7542 5.9054C15.4304 5.50638 16.1586 5.22896 16.9389 5.07313C20.5806 4.4716 23.5196 5.62461 25.7558 8.53225C26.5807 9.75038 27.0922 11.0855 27.2903 12.5376ZM13.922 7.4399C13.9959 7.45077 14.0653 7.47678 14.13 7.51792C14.3052 7.71054 14.4959 7.88391 14.7022 8.03809C14.2167 8.07279 13.7312 8.07279 13.2457 8.03809C13.4812 7.84568 13.7067 7.6463 13.922 7.4399ZM12.4655 8.94839C13.4713 8.9397 14.477 8.94839 15.4825 8.9744C15.6515 9.20832 15.8075 9.45103 15.9506 9.70263C14.6329 9.73733 13.3151 9.73733 11.9973 9.70263C12.1475 9.44541 12.3035 9.19396 12.4655 8.94839ZM11.5812 10.6129C13.1765 10.6042 14.7717 10.6129 16.3668 10.6389C16.4583 10.8702 16.545 11.1042 16.6268 11.3412C14.8583 11.4105 13.0897 11.4105 11.3211 11.3412C11.4082 11.0969 11.495 10.8542 11.5812 10.6129ZM11.1131 12.2255C13.0204 12.2255 14.9276 12.2255 16.8349 12.2255C16.8545 12.4881 16.8891 12.7482 16.9389 13.0057C14.9623 13.075 12.9857 13.075 11.009 13.0057C11.0588 12.7482 11.0935 12.4881 11.1131 12.2255ZM11.009 13.89C12.986 13.8727 14.9626 13.89 16.9389 13.942C16.8891 14.1995 16.8545 14.4596 16.8349 14.7223C14.9276 14.7223 13.0204 14.7223 11.1131 14.7223C11.0897 14.4426 11.055 14.1652 11.009 13.89ZM11.3211 15.5545C13.0901 15.5372 14.8586 15.5545 16.6268 15.6066C16.545 15.8435 16.4583 16.0776 16.3668 16.3088C14.7716 16.3435 13.1764 16.3435 11.5812 16.3088C11.479 16.0628 11.3923 15.8114 11.3211 15.5545ZM11.9973 17.2711C13.3062 17.2106 14.624 17.2019 15.9506 17.2451C15.8075 17.4967 15.6515 17.7394 15.4825 17.9733C14.4768 18.008 13.4711 18.008 12.4655 17.9733C12.3018 17.7403 12.1457 17.5063 11.9973 17.2711ZM13.2457 18.9356C13.7221 18.8754 14.2076 18.8668 14.7022 18.9096C14.467 19.1188 14.2243 19.3183 13.974 19.5078C13.7303 19.3159 13.4875 19.1251 13.2457 18.9356Z" fill="white"/>
<path opacity="0.876" fill-rule="evenodd" clip-rule="evenodd" d="M7.73188 4.99512C7.80122 4.99512 7.87061 4.99512 7.93995 4.99512C7.99473 5.27109 8.02073 5.54852 8.01798 5.82739C7.75753 5.91628 7.48876 5.9683 7.21171 5.98344C7.14326 5.70947 7.09124 5.43206 7.05566 5.15117C7.29156 5.11804 7.51695 5.06603 7.73188 4.99512Z" fill="white"/>
<path opacity="0.878" fill-rule="evenodd" clip-rule="evenodd" d="M10.4888 4.99512C10.7848 5.04045 11.0796 5.09247 11.3731 5.15117C11.3208 5.4124 11.2601 5.67248 11.191 5.93142C10.9006 5.95686 10.6145 5.91353 10.3328 5.80138C10.3872 5.53292 10.4392 5.26419 10.4888 4.99512Z" fill="white"/>
<path opacity="0.863" fill-rule="evenodd" clip-rule="evenodd" d="M6.17137 5.4112C6.22323 5.40964 6.25792 5.43565 6.2754 5.48922C6.36211 5.71461 6.44877 5.94005 6.53549 6.16544C6.52794 6.2056 6.51062 6.2403 6.48347 6.26948C6.25808 6.36482 6.03264 6.46022 5.80725 6.55557C5.66193 6.30833 5.52323 6.05694 5.39111 5.80133C5.65436 5.66972 5.91446 5.53968 6.17137 5.4112Z" fill="white"/>
<path opacity="0.865" fill-rule="evenodd" clip-rule="evenodd" d="M12.1533 5.41113C12.453 5.50039 12.7304 5.63044 12.9855 5.80126C12.8758 6.0641 12.7457 6.3155 12.5954 6.5555C12.37 6.45147 12.1446 6.34744 11.9192 6.2434C11.959 5.95882 12.037 5.68136 12.1533 5.41113Z" fill="white"/>
<path opacity="0.86" fill-rule="evenodd" clip-rule="evenodd" d="M4.61079 6.19063C4.66259 6.18616 4.70594 6.20353 4.74083 6.24265C4.86468 6.46455 4.99472 6.68125 5.13096 6.89286C4.92985 7.07601 4.71312 7.24075 4.48075 7.38702C4.28883 7.16912 4.10677 6.94373 3.93457 6.7108C4.1622 6.53456 4.3876 6.36114 4.61079 6.19063Z" fill="white"/>
<path opacity="0.86" fill-rule="evenodd" clip-rule="evenodd" d="M3.25847 7.23193C3.48906 7.41935 3.69712 7.63605 3.88267 7.88214C3.72047 8.09651 3.53841 8.29589 3.33649 8.48034C3.11072 8.29781 2.89398 8.10707 2.68628 7.90815C2.89892 7.69598 3.08965 7.47059 3.25847 7.23193Z" fill="white"/>
<path opacity="0.862" fill-rule="evenodd" clip-rule="evenodd" d="M2.11413 8.58447C2.40409 8.69516 2.66418 8.8599 2.89439 9.07863C2.74714 9.31432 2.58242 9.53102 2.40023 9.72884C2.15226 9.60936 1.91819 9.47063 1.698 9.31271C1.8604 9.08155 1.99911 8.83884 2.11413 8.58447Z" fill="white"/>
<path opacity="0.869" fill-rule="evenodd" clip-rule="evenodd" d="M1.33383 10.0928C1.59384 10.1751 1.84525 10.2791 2.08807 10.4049C2.05569 10.6926 1.95166 10.9527 1.77597 11.1851C1.53077 11.0889 1.27935 11.0195 1.02173 10.9771C1.10514 10.6748 1.20918 10.38 1.33383 10.0928Z" fill="white"/>
<path opacity="0.881" fill-rule="evenodd" clip-rule="evenodd" d="M0.657471 12.6416C0.657471 12.6069 0.657471 12.5723 0.657471 12.5376C0.709014 12.3013 0.761031 12.0586 0.813521 11.8093C0.856869 11.792 0.900216 11.7746 0.943564 11.7573C1.1603 11.8007 1.37704 11.844 1.59377 11.8874C1.63104 12.1767 1.59637 12.4628 1.48974 12.7456C1.2147 12.6973 0.937279 12.6626 0.657471 12.6416Z" fill="white"/>
<path opacity="0.904" fill-rule="evenodd" clip-rule="evenodd" d="M0.657471 13.4741C0.934894 13.4741 1.21232 13.4741 1.48974 13.4741C1.52084 13.7505 1.53818 14.0279 1.54176 14.3064C1.24727 14.3276 0.952511 14.3449 0.657471 14.3584C0.657471 14.0636 0.657471 13.7689 0.657471 13.4741Z" fill="white"/>
<path opacity="0.869" fill-rule="evenodd" clip-rule="evenodd" d="M1.38591 15.0342C1.48823 15.0217 1.5836 15.0391 1.672 15.0862C1.72055 15.3064 1.78124 15.5231 1.85406 15.7364C1.84653 15.7766 1.82919 15.8112 1.80204 15.8404C1.559 15.9185 1.31626 15.9965 1.07381 16.0745C0.95955 15.8177 0.872855 15.5489 0.813721 15.2682C0.821253 15.2281 0.838592 15.1934 0.865738 15.1642C1.04979 15.1364 1.22318 15.0931 1.38591 15.0342Z" fill="white"/>
<path opacity="0.856" fill-rule="evenodd" clip-rule="evenodd" d="M2.06198 16.4907C2.22559 16.7133 2.36429 16.956 2.47811 17.219C2.25792 17.3769 2.02385 17.5156 1.77588 17.6351C1.58416 17.4174 1.43678 17.166 1.33374 16.8808C1.56997 16.7368 1.81272 16.6067 2.06198 16.4907Z" fill="white"/>
<path opacity="0.857" fill-rule="evenodd" clip-rule="evenodd" d="M2.79022 17.8955C2.90547 17.9321 3.00083 18.0014 3.07631 18.1036C3.18183 18.2351 3.2772 18.3739 3.3624 18.5197C3.15649 18.7099 2.94842 18.9007 2.7382 19.0919C2.52296 18.87 2.33223 18.6273 2.16602 18.3637C2.37763 18.2065 2.58569 18.0505 2.79022 17.8955Z" fill="white"/>
<path opacity="0.86" fill-rule="evenodd" clip-rule="evenodd" d="M3.83072 19.0916C3.88544 19.0839 3.93745 19.0925 3.98677 19.1176C4.15366 19.2933 4.32705 19.458 4.50694 19.6118C4.33355 19.8372 4.16015 20.0626 3.98677 20.288C3.72956 20.1158 3.50415 19.9077 3.31055 19.6638C3.48508 19.472 3.65847 19.2813 3.83072 19.0916Z" fill="white"/>
<path opacity="0.867" fill-rule="evenodd" clip-rule="evenodd" d="M5.07898 20.0278C5.35242 20.1299 5.6125 20.2599 5.85923 20.418C5.72374 20.6543 5.60237 20.897 5.49511 21.1462C5.4431 21.1809 5.39108 21.1809 5.33906 21.1462C5.10495 21.0205 4.87955 20.8818 4.66284 20.7301C4.8093 20.4974 4.94801 20.2633 5.07898 20.0278Z" fill="white"/>
<path opacity="0.865" fill-rule="evenodd" clip-rule="evenodd" d="M6.48347 20.7041C6.7589 20.7708 7.02767 20.8575 7.28974 20.9642C7.26113 21.2515 7.1831 21.5289 7.05566 21.7965C6.76499 21.7227 6.48753 21.6187 6.22339 21.4844C6.32576 21.2281 6.41242 20.968 6.48347 20.7041Z" fill="white"/>
<path opacity="0.872" fill-rule="evenodd" clip-rule="evenodd" d="M11.8413 20.7041C11.9063 20.7081 11.9496 20.7428 11.9713 20.8081C12.0596 21.0209 12.1376 21.2376 12.2054 21.4583C12.0374 21.5842 11.8467 21.6709 11.6332 21.7184C11.5438 21.7364 11.4571 21.7624 11.3731 21.7965C11.2628 21.5112 11.1934 21.2164 11.165 20.9122C11.4077 20.8821 11.6331 20.8128 11.8413 20.7041Z" fill="white"/>
<path opacity="0.881" fill-rule="evenodd" clip-rule="evenodd" d="M8.04399 21.1206C8.3214 21.1379 8.59885 21.1553 8.87626 21.1726C8.83184 21.465 8.81452 21.7598 8.82424 22.0569C8.50273 22.0457 8.19063 21.9937 7.88794 21.9009C7.93527 21.6384 7.98729 21.3783 8.04399 21.1206Z" fill="white"/>
<path opacity="0.878" fill-rule="evenodd" clip-rule="evenodd" d="M9.96849 21.1206C10.1245 21.1206 10.2806 21.1206 10.4366 21.1206C10.4664 21.3987 10.5011 21.6761 10.5407 21.9529C10.2462 21.9997 9.95143 22.0257 9.65639 22.0309C9.60577 21.7496 9.5884 21.4636 9.60437 21.1726C9.73748 21.1883 9.85889 21.171 9.96849 21.1206Z" fill="white"/>
</g>
<defs>
<clipPath id="clip0_8100_49929">
<rect width="26.6327" height="26.6327" fill="white" transform="translate(0.683594 0.183594)"/>
</clipPath>
</defs>
</svg>
