<svg width="22" height="15" viewBox="0 0 22 15" fill="none" xmlns="http://www.w3.org/2000/svg">
<path opacity="0.866" fill-rule="evenodd" clip-rule="evenodd" d="M6.66016 0.0480892C6.9098 0.00556733 7.16762 -0.00875416 7.43359 0.00512045C7.44163 0.250575 7.42732 0.494062 7.39063 0.735589C7.16147 0.735589 6.93228 0.735589 6.70313 0.735589C6.71692 0.498144 6.70261 0.26897 6.66016 0.0480892Z" fill="#101010"/>
<path opacity="0.942" fill-rule="evenodd" clip-rule="evenodd" d="M21.9999 6.32308C21.9999 6.83871 21.9999 7.35433 21.9999 7.86996C21.6479 10.2913 20.4162 12.1175 18.3046 13.3485C15.6808 14.6141 13.16 14.4422 10.7421 12.8328C8.52164 11.086 7.5835 8.80152 7.92768 5.97933C8.27985 3.9824 9.27527 2.39973 10.914 1.23128C10.9713 1.20262 11.0286 1.20262 11.0859 1.23128C13.5754 3.11138 14.5422 5.59639 13.9863 8.68636C13.615 10.225 12.8344 11.5069 11.6445 12.5321C13.3261 13.53 15.1021 13.7305 16.9726 13.1336C19.6973 12.0473 21.1439 10.0349 21.3124 7.09652C21.1439 4.15814 19.6973 2.14574 16.9726 1.05941C15.2691 0.528444 13.6148 0.650217 12.0097 1.42464C11.9765 1.41841 11.9479 1.4041 11.9238 1.38167C11.8358 1.19858 11.7427 1.01953 11.6445 0.844565C12.203 0.514952 12.8046 0.285787 13.4492 0.157065C16.4574 -0.339834 18.8851 0.61262 20.7324 3.01449C21.4138 4.02073 21.8363 5.12356 21.9999 6.32308ZM10.957 2.11214C11.0181 2.12112 11.0754 2.14261 11.1289 2.1766C11.2735 2.33571 11.4311 2.47892 11.6015 2.60628C11.2005 2.63494 10.7994 2.63494 10.3984 2.60628C10.5929 2.44734 10.7791 2.28264 10.957 2.11214ZM9.75385 3.35824C10.5847 3.35106 11.4155 3.35824 12.246 3.37972C12.3856 3.57295 12.5146 3.77344 12.6328 3.98128C11.5442 4.00994 10.4557 4.00994 9.36714 3.98128C9.49114 3.7688 9.62005 3.56109 9.75385 3.35824ZM9.02339 4.73324C10.3412 4.72606 11.6589 4.73324 12.9765 4.75472C13.0521 4.94572 13.1238 5.13908 13.1914 5.3348C11.7304 5.39208 10.2695 5.39208 8.80854 5.3348C8.88051 5.13306 8.95214 4.93253 9.02339 4.73324ZM8.63667 6.06527C10.2122 6.06527 11.7877 6.06527 13.3632 6.06527C13.3794 6.28226 13.408 6.4971 13.4492 6.7098C11.8164 6.76708 10.1835 6.76708 8.55073 6.7098C8.59189 6.4971 8.62051 6.28226 8.63667 6.06527ZM8.55073 7.44027C10.1838 7.42596 11.8166 7.44027 13.4492 7.48324C13.408 7.69593 13.3794 7.91078 13.3632 8.12777C11.7877 8.12777 10.2122 8.12777 8.63667 8.12777C8.61737 7.89677 8.58871 7.66762 8.55073 7.44027ZM8.80854 8.81527C10.2698 8.80096 11.7307 8.81527 13.1914 8.85824C13.1238 9.05396 13.0521 9.24732 12.9765 9.43831C11.6588 9.46698 10.3411 9.46698 9.02339 9.43831C8.93895 9.23516 8.86732 9.02749 8.80854 8.81527ZM9.36714 10.2332C10.4484 10.1833 11.5369 10.1761 12.6328 10.2118C12.5146 10.4196 12.3856 10.6201 12.246 10.8133C11.4153 10.842 10.5846 10.842 9.75385 10.8133C9.61863 10.6209 9.48973 10.4275 9.36714 10.2332ZM10.3984 11.6082C10.7919 11.5585 11.1929 11.5513 11.6015 11.5868C11.4072 11.7596 11.2067 11.9243 10.9999 12.0809C10.7986 11.9223 10.5981 11.7648 10.3984 11.6082Z" fill="#101010"/>
<path opacity="0.876" fill-rule="evenodd" clip-rule="evenodd" d="M5.84375 0.0917969C5.90103 0.0917969 5.95835 0.0917969 6.01562 0.0917969C6.06087 0.319768 6.08236 0.548941 6.08008 0.779297C5.86493 0.85273 5.64291 0.895699 5.41406 0.908203C5.35752 0.681887 5.31455 0.452734 5.28516 0.220703C5.48002 0.193341 5.6662 0.150372 5.84375 0.0917969Z" fill="#101010"/>
<path opacity="0.878" fill-rule="evenodd" clip-rule="evenodd" d="M8.12109 0.0917969C8.36563 0.129244 8.60913 0.172213 8.85156 0.220703C8.80838 0.436492 8.75823 0.651336 8.70117 0.865234C8.46128 0.886246 8.22495 0.850453 7.99219 0.757812C8.03718 0.536051 8.08014 0.314066 8.12109 0.0917969Z" fill="#101010"/>
<path opacity="0.863" fill-rule="evenodd" clip-rule="evenodd" d="M4.55469 0.435602C4.59753 0.434313 4.62619 0.455797 4.64062 0.500055C4.71225 0.686238 4.78384 0.872465 4.85547 1.05865C4.84924 1.09182 4.83493 1.12048 4.8125 1.14459C4.62632 1.22335 4.44009 1.30215 4.25391 1.38091C4.13387 1.17668 4.01929 0.969016 3.91016 0.757867C4.12761 0.649156 4.34246 0.541734 4.55469 0.435602Z" fill="#101010"/>
<path opacity="0.865" fill-rule="evenodd" clip-rule="evenodd" d="M9.49609 0.435547C9.74368 0.509281 9.97287 0.616703 10.1836 0.757812C10.0929 0.974934 9.98551 1.1826 9.86133 1.38086C9.67514 1.29492 9.48892 1.20898 9.30273 1.12305C9.33561 0.887965 9.40006 0.65877 9.49609 0.435547Z" fill="#101010"/>
<path opacity="0.86" fill-rule="evenodd" clip-rule="evenodd" d="M3.26562 1.07869C3.30842 1.075 3.34422 1.08935 3.37305 1.12166C3.47535 1.30497 3.58277 1.48397 3.69531 1.65877C3.52919 1.81006 3.35015 1.94615 3.1582 2.06697C2.99967 1.88698 2.84927 1.70079 2.70703 1.50838C2.89506 1.3628 3.08126 1.21954 3.26562 1.07869Z" fill="#101010"/>
<path opacity="0.86" fill-rule="evenodd" clip-rule="evenodd" d="M2.14844 1.93945C2.33892 2.09427 2.51079 2.27328 2.66406 2.47656C2.53008 2.65364 2.37969 2.81834 2.21289 2.9707C2.02639 2.81993 1.84735 2.66236 1.67578 2.49805C1.85144 2.32278 2.00899 2.13659 2.14844 1.93945Z" fill="#101010"/>
<path opacity="0.862" fill-rule="evenodd" clip-rule="evenodd" d="M1.20312 3.05664C1.44265 3.14808 1.65749 3.28416 1.84766 3.46484C1.72602 3.65954 1.58995 3.83854 1.43945 4.00195C1.23462 3.90325 1.04126 3.78866 0.859375 3.6582C0.993528 3.46725 1.10811 3.26676 1.20312 3.05664Z" fill="#101010"/>
<path opacity="0.869" fill-rule="evenodd" clip-rule="evenodd" d="M0.558594 4.30273C0.773377 4.37071 0.981058 4.45665 1.18164 4.56055C1.15489 4.79821 1.06896 5.01305 0.923828 5.20508C0.721278 5.12559 0.513593 5.06827 0.300781 5.0332C0.369684 4.78351 0.455623 4.54001 0.558594 4.30273Z" fill="#101010"/>
<path opacity="0.881" fill-rule="evenodd" clip-rule="evenodd" d="M0 6.4082C0 6.37954 0 6.35093 0 6.32227C0.0425774 6.12706 0.0855461 5.92657 0.128906 5.7207C0.164713 5.70639 0.200521 5.69204 0.236328 5.67773C0.415365 5.71353 0.5944 5.74936 0.773438 5.78516C0.80422 6.02419 0.775577 6.26052 0.6875 6.49414C0.460303 6.45422 0.231137 6.42556 0 6.4082Z" fill="#101010"/>
<path opacity="0.904" fill-rule="evenodd" clip-rule="evenodd" d="M0 7.0957C0.229167 7.0957 0.458335 7.0957 0.6875 7.0957C0.713187 7.324 0.727512 7.55315 0.730469 7.7832C0.48721 7.80069 0.243719 7.815 0 7.82617C0 7.58267 0 7.33921 0 7.0957Z" fill="#101010"/>
<path opacity="0.869" fill-rule="evenodd" clip-rule="evenodd" d="M0.601562 8.38408C0.686091 8.37381 0.764865 8.38812 0.837891 8.42705C0.877993 8.60893 0.928125 8.78798 0.988281 8.96416C0.982059 8.99733 0.967738 9.02599 0.945312 9.05009C0.744545 9.11459 0.544027 9.17904 0.34375 9.24345C0.249369 9.03132 0.177754 8.8093 0.128906 8.57744C0.135128 8.54426 0.149451 8.5156 0.171875 8.4915C0.323908 8.46851 0.467139 8.43272 0.601562 8.38408Z" fill="#101010"/>
<path opacity="0.856" fill-rule="evenodd" clip-rule="evenodd" d="M1.16016 9.58789C1.29531 9.77171 1.40989 9.97225 1.50391 10.1895C1.32202 10.3199 1.12866 10.4345 0.923828 10.5332C0.765454 10.3533 0.643706 10.1457 0.558594 9.91016C0.753732 9.79113 0.954254 9.68371 1.16016 9.58789Z" fill="#101010"/>
<path opacity="0.857" fill-rule="evenodd" clip-rule="evenodd" d="M1.76172 10.748C1.85692 10.7783 1.9357 10.8355 1.99805 10.9199C2.08521 11.0286 2.16399 11.1432 2.23438 11.2637C2.06427 11.4208 1.8924 11.5784 1.71875 11.7363C1.54095 11.5531 1.3834 11.3526 1.24609 11.1348C1.42089 11.005 1.59277 10.8761 1.76172 10.748Z" fill="#101010"/>
<path opacity="0.86" fill-rule="evenodd" clip-rule="evenodd" d="M2.62109 11.7366C2.6663 11.7302 2.70927 11.7374 2.75 11.7581C2.88786 11.9032 3.03109 12.0393 3.17969 12.1663C3.03646 12.3525 2.89323 12.5387 2.75 12.7249C2.53753 12.5827 2.35134 12.4108 2.19141 12.2093C2.33558 12.0509 2.47881 11.8934 2.62109 11.7366Z" fill="#101010"/>
<path opacity="0.867" fill-rule="evenodd" clip-rule="evenodd" d="M3.65234 12.5098C3.87822 12.5941 4.09307 12.7015 4.29688 12.832C4.18495 13.0272 4.08469 13.2277 3.99609 13.4336C3.95312 13.4623 3.91016 13.4623 3.86719 13.4336C3.6738 13.3298 3.48761 13.2152 3.30859 13.0898C3.42957 12.8976 3.54416 12.7043 3.65234 12.5098Z" fill="#101010"/>
<path opacity="0.865" fill-rule="evenodd" clip-rule="evenodd" d="M4.8125 13.0684C5.04002 13.1234 5.26204 13.1951 5.47852 13.2832C5.45488 13.5206 5.39043 13.7497 5.28516 13.9707C5.04505 13.9098 4.81585 13.8239 4.59766 13.7129C4.68222 13.5012 4.7538 13.2863 4.8125 13.0684Z" fill="#101010"/>
<path opacity="0.872" fill-rule="evenodd" clip-rule="evenodd" d="M9.23828 13.0684C9.29199 13.0717 9.32779 13.1003 9.3457 13.1543C9.41862 13.33 9.48307 13.5091 9.53906 13.6914C9.40027 13.7953 9.24275 13.867 9.06641 13.9062C8.99259 13.9211 8.92096 13.9426 8.85156 13.9707C8.76043 13.7351 8.70315 13.4916 8.67969 13.2402C8.88014 13.2154 9.06636 13.1581 9.23828 13.0684Z" fill="#101010"/>
<path opacity="0.881" fill-rule="evenodd" clip-rule="evenodd" d="M6.10156 13.4121C6.33071 13.4264 6.55991 13.4408 6.78906 13.4551C6.75237 13.6966 6.73806 13.9401 6.74609 14.1855C6.4805 14.1763 6.22269 14.1333 5.97266 14.0566C6.01176 13.8398 6.05473 13.625 6.10156 13.4121Z" fill="#101010"/>
<path opacity="0.878" fill-rule="evenodd" clip-rule="evenodd" d="M7.69126 13.4121C7.82017 13.4121 7.94908 13.4121 8.07798 13.4121C8.1026 13.6419 8.13126 13.871 8.16392 14.0996C7.92067 14.1383 7.67717 14.1598 7.43345 14.1641C7.39164 13.9317 7.37729 13.6954 7.39048 13.4551C7.50044 13.4681 7.60073 13.4537 7.69126 13.4121Z" fill="#101010"/>
</svg>
