<svg width="16" height="16" viewBox="0 0 16 16" fill="none" xmlns="http://www.w3.org/2000/svg">
<path d="M10.9768 10.9991L11.3509 10.6317L10.482 9.76902L10.1096 10.1363L10.9768 10.9991ZM12.6053 10.4777L14.1732 11.3201L14.7598 10.2515L13.1927 9.40982L12.6053 10.4777ZM14.4743 12.9937L13.3093 14.1394L14.1765 15.0013L15.3415 13.8564L14.4743 12.9937ZM12.5988 14.5075C11.4091 14.6178 8.33249 14.5197 4.99988 11.2455L4.13186 12.1075C7.76803 15.6808 11.2294 15.8559 12.7136 15.7189L12.5988 14.5075ZM4.99988 11.2455C1.82397 8.12384 1.29725 5.49918 1.23162 4.35996L0.00260359 4.42888C0.0846472 5.86243 0.736894 8.7717 4.13186 12.1075L4.99988 11.2455ZM6.12798 6.23461L6.36344 6.00271L5.49706 5.14079L5.2616 5.37188L6.12798 6.23461ZM6.5505 3.05533L5.51675 1.68989L4.53141 2.41964L5.56516 3.78427L6.5505 3.05533ZM2.03728 1.39232L0.7492 2.65721L1.61722 3.51994L2.90448 2.25504L2.03728 1.39232ZM5.69479 5.80324C5.25996 5.37188 5.25996 5.37188 5.25996 5.3735H5.25832L5.25585 5.37675C5.21687 5.4156 5.18196 5.45825 5.15166 5.50405C5.10736 5.56891 5.05895 5.65405 5.01793 5.76189C4.91806 6.04027 4.89318 6.33954 4.94573 6.63029C5.05567 7.33166 5.54465 8.25844 6.79663 9.48929L7.66465 8.62656C6.49225 7.47518 6.2133 6.77462 6.16162 6.4438C6.137 6.2865 6.16244 6.20866 6.16982 6.19082C6.17474 6.18001 6.17474 6.17839 6.16982 6.18596C6.16251 6.19714 6.15427 6.20772 6.14521 6.21758L6.137 6.22569L6.1288 6.23298L5.69479 5.80324ZM6.79663 9.48929C8.04944 10.7201 8.99212 11.2001 9.70262 11.3072C10.0661 11.3623 10.359 11.3185 10.5813 11.2366C10.7058 11.1916 10.8222 11.127 10.9259 11.0453L10.9669 11.0088L10.9727 11.0039L10.9751 11.0015L10.9759 10.9999C10.9759 10.9999 10.9768 10.9991 10.5427 10.5677C10.1079 10.1363 10.1104 10.1355 10.1104 10.1355L10.112 10.1339L10.1137 10.1323L10.1186 10.1282L10.1268 10.1201L10.158 10.0958C10.1656 10.0909 10.1637 10.0915 10.1522 10.0974C10.1317 10.1047 10.0513 10.1298 9.88968 10.1055C9.55001 10.0536 8.83624 9.77794 7.66465 8.62656L6.79663 9.48929ZM5.51675 1.68908C4.67991 0.58635 3.03575 0.411211 2.03728 1.39232L2.90448 2.25504C3.34096 1.82611 4.11545 1.87071 4.53141 2.41964L5.51675 1.68908ZM1.23244 4.36077C1.21603 4.08023 1.34648 3.7867 1.61722 3.52075L0.74838 2.65803C0.307806 3.09101 -0.0392386 3.704 0.00260359 4.42888L1.23244 4.36077ZM13.3093 14.1394C13.0845 14.3616 12.8416 14.4864 12.5996 14.5083L12.7136 15.7189C13.3166 15.663 13.8097 15.363 14.1773 15.0021L13.3093 14.1394ZM6.36344 6.00271C7.17157 5.2089 7.23146 3.95455 6.55132 3.05614L5.56598 3.78508C5.89661 4.22212 5.84739 4.79538 5.49624 5.1416L6.36344 6.00271ZM14.174 11.321C14.8443 11.681 14.9485 12.5291 14.4751 12.9945L15.3431 13.8564C16.4425 12.7756 16.1037 10.9731 14.7606 10.2523L14.174 11.321ZM11.3509 10.6326C11.6659 10.3228 12.1729 10.2466 12.6061 10.4785L13.1936 9.41063C12.3042 8.93224 11.2016 9.06441 10.4829 9.76983L11.3509 10.6326Z" fill="black"/>
</svg>
