<svg width="21" height="20" viewBox="0 0 21 20" fill="none" xmlns="http://www.w3.org/2000/svg">
<path d="M9.91667 12.2972H11.0833V8.78374H14.5833V7.61258H11.0833V4.09908H9.91667V7.61258H6.41667V8.78374H9.91667V12.2972ZM0 20V1.8926C0 1.35309 0.180056 0.902969 0.540167 0.54225C0.900278 0.181531 1.34828 0.000780777 1.88417 0H19.1158C19.6525 0 20.1005 0.18075 20.4598 0.54225C20.8192 0.90375 20.9992 1.35387 21 1.8926V14.5049C21 15.0436 20.8199 15.4937 20.4598 15.8552C20.0997 16.2167 19.6517 16.3971 19.1158 16.3963H3.58983L0 20ZM3.09167 15.2252H19.1158C19.2947 15.2252 19.4592 15.1502 19.6093 15.0003C19.7594 14.8504 19.8341 14.6853 19.8333 14.5049V1.89143C19.8333 1.71185 19.7587 1.54672 19.6093 1.39603C19.46 1.24534 19.2955 1.17039 19.1158 1.17117H1.88417C1.70528 1.17117 1.54078 1.24612 1.39067 1.39603C1.24056 1.54594 1.16589 1.71107 1.16667 1.89143V17.1517L3.09167 15.2252Z" fill="black"/>
</svg>
