<svg width="15" height="15" viewBox="0 0 15 15" fill="none" xmlns="http://www.w3.org/2000/svg">
<g clip-path="url(#clip0_1730_39840)">
<path d="M1.45856 5.65001L7.50022 2.17917L13.5419 5.65001C13.6371 5.69982 13.7479 5.71092 13.8511 5.68097C13.9543 5.65103 14.042 5.58237 14.0958 5.48932C14.1495 5.39628 14.1653 5.28606 14.1397 5.18168C14.1142 5.07729 14.0493 4.98683 13.9586 4.92917L7.50022 1.21667L1.04189 4.92917C0.992097 4.95522 0.948087 4.99107 0.912508 5.03457C0.876929 5.07807 0.850516 5.12831 0.834859 5.18228C0.819202 5.23625 0.814624 5.29283 0.8214 5.34862C0.828176 5.4044 0.846167 5.45824 0.874289 5.5069C0.902412 5.55555 0.940085 5.59801 0.985043 5.63172C1.03 5.66544 1.08131 5.68971 1.1359 5.70308C1.19048 5.71645 1.2472 5.71864 1.30265 5.70952C1.3581 5.7004 1.41113 5.68016 1.45856 5.65001Z" fill="white"/>
<path d="M1.6665 10.8333C1.6665 10.9438 1.7104 11.0498 1.78854 11.128C1.86668 11.2061 1.97266 11.25 2.08317 11.25H12.9165C13.027 11.25 13.133 11.2061 13.2111 11.128C13.2893 11.0498 13.3332 10.9438 13.3332 10.8333C13.3332 10.7228 13.2893 10.6168 13.2111 10.5387C13.133 10.4606 13.027 10.4167 12.9165 10.4167H11.6665V7.34583H10.8332V10.4167H7.9165V7.34583H7.08317V10.4167H4.1665V7.34583H3.33317V10.4167H2.08317C1.97266 10.4167 1.86668 10.4606 1.78854 10.5387C1.7104 10.6168 1.6665 10.7228 1.6665 10.8333Z" fill="white"/>
<path d="M2.0918 5.83301H12.9251V6.66634H2.0918V5.83301Z" fill="white"/>
<path d="M13.7497 12.083H1.24967C1.13917 12.083 1.03319 12.1269 0.955047 12.205C0.876906 12.2832 0.833008 12.3892 0.833008 12.4997C0.833008 12.6102 0.876906 12.7162 0.955047 12.7943C1.03319 12.8724 1.13917 12.9163 1.24967 12.9163H13.7497C13.8602 12.9163 13.9662 12.8724 14.0443 12.7943C14.1224 12.7162 14.1663 12.6102 14.1663 12.4997C14.1663 12.3892 14.1224 12.2832 14.0443 12.205C13.9662 12.1269 13.8602 12.083 13.7497 12.083Z" fill="white"/>
<path d="M9.22936 4.82499H10.5669L7.77103 3.21666C7.72036 3.1874 7.66287 3.172 7.60436 3.172C7.54585 3.172 7.48837 3.1874 7.4377 3.21666L4.6377 4.82499H5.9752L7.6002 3.89166L9.22936 4.82499Z" fill="white"/>
</g>
<defs>
<clipPath id="clip0_1730_39840">
<rect width="15" height="15" fill="white"/>
</clipPath>
</defs>
</svg>
