<svg width="13" height="9" viewBox="0 0 13 9" fill="none" xmlns="http://www.w3.org/2000/svg">
<path d="M12.5938 0.84375C12.7015 0.84375 12.8048 0.886551 12.881 0.962738C12.9572 1.03892 13 1.14226 13 1.25V7.75C13 7.85774 12.9572 7.96108 12.881 8.03726C12.8048 8.11345 12.7015 8.15625 12.5938 8.15625C12.486 8.15625 12.3827 8.11345 12.3065 8.03726C12.2303 7.96108 12.1875 7.85774 12.1875 7.75V5.111L7.09556 8.06525C6.67306 8.31062 6.09375 8.03031 6.09375 7.49975V5.111L1.00181 8.06525C0.579313 8.31062 0 8.03031 0 7.49975V1.50025C0 0.969688 0.579313 0.689375 1.00181 0.93475L6.09375 3.889V1.50025C6.09375 0.969688 6.67306 0.689375 7.09556 0.93475L12.1875 3.889V1.25C12.1875 1.14226 12.2303 1.03892 12.3065 0.962738C12.3827 0.886551 12.486 0.84375 12.5938 0.84375ZM0.8125 1.76431V7.23569L5.52825 4.5L0.8125 1.76431ZM6.90625 1.76431V7.23569L11.622 4.5L6.90625 1.76431Z" fill="white"/>
</svg>
