<svg width="14" height="14" viewBox="0 0 14 14" fill="none" xmlns="http://www.w3.org/2000/svg">
<path d="M6.17822 6.18048L2.56689 2.56915" stroke="#145173" stroke-width="0.8"/>
<path d="M1.84527 3.65178L3.65093 1.84611L1.48414 0.762717L0.761873 1.48498L1.84527 3.65178ZM12.6612 4.71712C13.008 4.37066 13.2465 3.93086 13.3478 3.45126C13.4491 2.97166 13.4088 2.47295 13.2318 2.01585L12.2047 3.04291H10.7602V1.59838L11.7873 0.571317C11.3301 0.393886 10.8313 0.353237 10.3514 0.454322C9.8716 0.555407 9.43153 0.793862 9.08484 1.14064C8.73814 1.48741 8.49978 1.92753 8.3988 2.40738C8.29782 2.88723 8.33858 3.38609 8.51611 3.84318L3.84306 8.51696C3.38596 8.33943 2.88711 8.29867 2.40726 8.39965C1.92741 8.50062 1.48729 8.73898 1.14051 9.08568C0.79374 9.43238 0.555285 9.87245 0.4542 10.3523C0.353114 10.8321 0.393764 11.331 0.571195 11.7881L1.59753 10.761H3.04206V12.2056L2.015 13.2326C2.47202 13.4101 2.97077 13.4508 3.45051 13.3498C3.93025 13.2488 4.37028 13.0106 4.71702 12.664C5.06375 12.3174 5.30223 11.8775 5.40341 11.3978C5.50458 10.9181 5.46409 10.4193 5.28687 9.96221L9.96137 5.28771C10.4183 5.46443 10.9167 5.50459 11.396 5.40329C11.8753 5.30199 12.3149 5.0636 12.6612 4.71712Z" stroke="#145173" stroke-width="0.8" stroke-linejoin="round"/>
<path d="M6.75439 8.70735L10.802 12.7549C10.8925 12.8457 11.0001 12.9177 11.1185 12.9668C11.2369 13.0159 11.3639 13.0412 11.4921 13.0412C11.6203 13.0412 11.7472 13.0159 11.8657 12.9668C11.9841 12.9177 12.0917 12.8457 12.1822 12.7549L12.7543 12.1829C12.845 12.0923 12.917 11.9848 12.9661 11.8663C13.0152 11.7479 13.0405 11.621 13.0405 11.4928C13.0405 11.3646 13.0152 11.2376 12.9661 11.1192C12.917 11.0008 12.845 10.8932 12.7543 10.8026L8.70668 6.75507" stroke="#145173" stroke-width="0.8" stroke-linejoin="round"/>
</svg>
