<svg width="14" height="15" viewBox="0 0 14 15" fill="none" xmlns="http://www.w3.org/2000/svg">
<path opacity="0.927" fill-rule="evenodd" clip-rule="evenodd" d="M8.92674 0.002475C9.02513 -0.00654226 9.11887 0.00908016 9.20794 0.0493422C9.86987 0.764336 10.5208 1.48818 11.1607 2.22086C11.2365 2.36648 11.2 2.47584 11.0514 2.54893C10.7808 2.56454 10.51 2.56975 10.239 2.56455C10.239 2.93949 10.239 3.31443 10.239 3.68936C10.5725 3.68415 10.9058 3.68936 11.2389 3.70499C11.5669 3.7831 11.77 3.98619 11.8481 4.31426C11.8638 4.73072 11.869 5.14734 11.8638 5.56405C12.6027 5.63136 13.087 6.0167 13.3166 6.72011C13.327 6.81385 13.3375 6.90758 13.3479 7.00132C13.3687 9.19886 13.3687 11.3964 13.3479 13.594C13.2541 14.3544 12.8323 14.8179 12.0825 14.9844C8.47891 15.0052 4.87532 15.0052 1.27176 14.9844C0.602044 14.8458 0.190656 14.4448 0.0375875 13.7814C-0.0125292 10.7298 -0.0125292 7.6782 0.0375875 4.62671C0.199867 4.01169 0.600841 3.68883 1.24051 3.65812C1.29591 2.41096 1.88956 1.5309 3.02147 1.01793C4.07683 0.651161 5.04541 0.807386 5.92724 1.4866C6.58575 2.07129 6.90861 2.80554 6.89583 3.68936C7.21868 3.68936 7.54156 3.68936 7.86442 3.68936C7.86442 3.31443 7.86442 2.93949 7.86442 2.56455C7.58303 2.56975 7.30182 2.56454 7.02081 2.54893C6.88349 2.47022 6.84702 2.36087 6.91145 2.22086C7.58968 1.48545 8.26144 0.745983 8.92674 0.002475ZM9.02048 0.533637C9.51414 1.05344 10.0037 1.5794 10.489 2.1115C10.3015 2.12191 10.114 2.13233 9.92658 2.14275C9.8693 2.15837 9.83284 2.19482 9.81722 2.2521C9.8016 3.09565 9.79638 3.93926 9.8016 4.78293C9.29128 4.78293 8.78092 4.78293 8.2706 4.78293C8.27582 3.92886 8.2706 3.07481 8.25498 2.22086C8.22676 2.18332 8.19033 2.15728 8.14562 2.14275C7.96856 2.13233 7.79152 2.12191 7.61446 2.1115C8.07804 1.58028 8.54671 1.05432 9.02048 0.533637ZM3.80259 1.25227C4.98239 1.20917 5.82082 1.7195 6.3178 2.78326C6.6708 3.88689 6.40522 4.80862 5.52105 5.54843C4.55246 5.56927 3.58388 5.56927 2.61529 5.54843C1.74928 4.79765 1.49411 3.87593 1.84979 2.78326C2.23172 1.92719 2.88268 1.41686 3.80259 1.25227ZM1.17802 4.09555C1.21968 4.09555 1.26134 4.09555 1.303 4.09555C1.38524 4.65052 1.61437 5.13481 1.99039 5.54843C1.68835 5.56927 1.38632 5.56927 1.08429 5.54843C0.614504 5.43745 0.411413 5.14062 0.475015 4.65795C0.59497 4.32423 0.829306 4.13676 1.17802 4.09555ZM6.86458 4.09555C7.19787 4.09555 7.53113 4.09555 7.86442 4.09555C7.8592 4.4394 7.86442 4.78309 7.88004 5.12663C7.89566 5.14225 7.91128 5.15787 7.92691 5.17349C8.29375 5.20933 8.66347 5.22495 9.0361 5.22036C9.40872 5.22495 9.77844 5.20933 10.1453 5.17349C10.1888 5.13691 10.2149 5.09004 10.2234 5.03289C10.239 4.72063 10.2442 4.40818 10.239 4.09555C10.5204 4.09036 10.8016 4.09555 11.0826 4.11117C11.2445 4.13713 11.3539 4.22565 11.4107 4.37675C11.4263 4.77237 11.4315 5.16815 11.4263 5.56405C9.67659 5.56927 7.92688 5.56405 6.1772 5.54843C6.55298 5.13525 6.78213 4.65096 6.86458 4.09555ZM0.459393 5.75152C0.635582 5.88116 0.833465 5.95927 1.05304 5.98586C4.74103 5.98617 8.42792 6.00698 12.1137 6.04835C12.4823 6.17742 12.7375 6.42216 12.8792 6.7826C12.9244 7.46858 12.94 8.15597 12.9261 8.84476C11.8741 8.83954 10.8222 8.84476 9.77035 8.86038C9.38463 8.92312 9.11905 9.13662 8.97361 9.5009C8.93893 9.78551 8.9233 10.0719 8.92674 10.3601C8.93196 10.6049 8.93715 10.8496 8.94236 11.0944C9.0655 11.5508 9.36232 11.8059 9.83284 11.8599C10.8639 11.8755 11.8949 11.8807 12.9261 11.8755C12.9399 12.5227 12.9242 13.1684 12.8792 13.8127C12.731 14.2004 12.455 14.4451 12.0512 14.5469C8.52165 14.5987 4.99099 14.6091 1.45923 14.5782C0.975695 14.5009 0.647624 14.2354 0.475015 13.7814C0.459393 11.1048 0.454184 8.42817 0.459393 5.75152ZM9.77035 9.28219C10.8223 9.28219 11.8742 9.28219 12.9261 9.28219C12.9261 10.0008 12.9261 10.7195 12.9261 11.4381C11.8845 11.4433 10.843 11.4381 9.8016 11.4225C9.52517 11.3439 9.37414 11.1617 9.34855 10.8757C9.32771 10.5216 9.32771 10.1674 9.34855 9.81335C9.39129 9.55724 9.53189 9.3802 9.77035 9.28219ZM10.489 10.0633C10.7595 10.0987 10.8585 10.2445 10.7858 10.5007C10.6057 10.6758 10.4391 10.6654 10.2859 10.4695C10.2383 10.2731 10.306 10.1377 10.489 10.0633Z" fill="#3A7494"/>
</svg>
