<svg width="18" height="18" viewBox="0 0 18 18" fill="none" xmlns="http://www.w3.org/2000/svg">
<path d="M9 1C6.58369 1 4.625 2.7908 4.625 5C4.625 7.2092 6.58369 9 9 9C11.4163 9 13.375 7.2092 13.375 5C13.375 2.7908 11.4163 1 9 1ZM5.71875 5C5.71875 4.20435 6.06445 3.44129 6.67981 2.87868C7.29516 2.31607 8.12976 2 9 2C9.87024 2 10.7048 2.31607 11.3202 2.87868C11.9355 3.44129 12.2812 4.20435 12.2812 5C12.2812 5.79565 11.9355 6.55871 11.3202 7.12132C10.7048 7.68393 9.87024 8 9 8C8.12976 8 7.29516 7.68393 6.67981 7.12132C6.06445 6.55871 5.71875 5.79565 5.71875 5ZM3.85938 10.6C3.36631 10.6 2.89344 10.7791 2.54475 11.0978C2.19607 11.4165 2.00012 11.8488 2 12.2996V12.6C2 14.102 2.84963 15.2268 4.1525 15.952C5.43438 16.6652 7.15637 17 9 17C10.8436 17 12.5656 16.6652 13.8475 15.952C15.1504 15.2268 16 14.102 16 12.6V12.2996C16 12.0764 15.9519 11.8553 15.8585 11.6491C15.765 11.4429 15.628 11.2555 15.4554 11.0977C15.2827 10.9398 15.0777 10.8146 14.8521 10.7293C14.6266 10.6439 14.3848 10.5999 14.1406 10.6H3.85938ZM3.09375 12.2996C3.09387 12.114 3.17458 11.9361 3.31815 11.8049C3.46172 11.6737 3.65639 11.6 3.85938 11.6H14.1406C14.5637 11.6 14.9062 11.9132 14.9062 12.2996V12.6C14.9062 13.6976 14.3112 14.5232 13.2787 15.098C12.2244 15.6848 10.7203 16 9 16C7.27975 16 5.77563 15.6848 4.72125 15.098C3.68875 14.5232 3.09375 13.698 3.09375 12.6V12.2996Z" fill="#03314B"/>
</svg>
