<svg width="13" height="13" viewBox="0 0 13 13" fill="none" xmlns="http://www.w3.org/2000/svg">
<path d="M9.06878 8.33993L8.74017 8.68635C8.74017 8.68635 7.95801 9.50918 5.82386 7.26245C3.6897 5.01573 4.47187 4.1929 4.47187 4.1929L4.67842 3.97419C5.18903 3.43736 5.23742 2.57477 4.79181 1.94465L3.88181 0.657637C3.33004 -0.12237 2.26477 -0.225606 1.63283 0.439694L0.498948 1.63264C0.186228 1.963 -0.023215 2.38971 0.00206265 2.86383C0.0670622 4.07743 0.585614 6.68739 3.47737 9.73248C6.54463 12.9611 9.42267 13.0896 10.5992 12.9733C10.9718 12.9366 11.2954 12.7363 11.5561 12.461L12.5816 11.3812C13.275 10.6524 13.08 9.40212 12.1931 8.89206L10.8137 8.09752C10.2316 7.76334 9.52378 7.86122 9.06878 8.33993Z" fill="black"/>
</svg>
