<svg width="25" height="25" viewBox="0 0 25 25" fill="none" xmlns="http://www.w3.org/2000/svg">
<path d="M6.12423 5.40209L6.98314 4.88311C7.45356 4.59841 8.01149 4.49459 8.55283 4.59102C9.09417 4.68746 9.58193 4.97756 9.9251 5.40719L11.0554 6.82244C11.3505 7.192 11.5225 7.64467 11.5473 8.11694C11.572 8.58922 11.4483 9.05739 11.1935 9.45578L10.2863 10.8731C10.2599 10.9145 10.249 10.964 10.2559 11.0127C10.3021 11.3383 10.675 11.8998 11.3905 12.63C11.9094 13.1608 12.348 13.5149 12.6877 13.6887C12.9255 13.8104 13.041 13.8198 13.0832 13.7954L14.5605 12.8932C14.9639 12.6468 15.4343 12.5329 15.9057 12.5674C16.3772 12.6018 16.826 12.7829 17.1893 13.0853L18.574 14.2397C18.9954 14.5906 19.2752 15.0824 19.3614 15.624C19.4476 16.1655 19.3344 16.7199 19.0428 17.1843L18.5074 18.036C18.2235 18.4875 17.8276 18.8577 17.3581 19.1108C16.8886 19.3638 16.3616 19.4909 15.8284 19.4797C13.4743 19.4304 11.029 18.0825 8.48005 15.4799C5.92846 12.8738 4.6312 10.3978 4.63591 8.03902C4.63672 7.50857 4.77417 6.98727 5.03499 6.52537C5.29581 6.06347 5.67042 5.67675 6.12423 5.40209ZM6.76392 6.45957C6.49151 6.62415 6.2661 6.85613 6.10939 7.13315C5.95269 7.41016 5.86998 7.72287 5.86925 8.04114C5.86673 10.0245 7.0162 12.2195 9.36253 14.6157C11.7062 17.0082 13.8741 18.203 15.8549 18.2452C16.1748 18.2518 16.491 18.1755 16.7726 18.0236C17.0543 17.8717 17.2918 17.6495 17.462 17.3785L17.9966 16.5271C18.1293 16.316 18.1808 16.0639 18.1417 15.8177C18.1025 15.5714 17.9754 15.3478 17.7837 15.1883L16.3993 14.0347C16.234 13.897 16.0299 13.8146 15.8154 13.7989C15.601 13.7832 15.387 13.8351 15.2035 13.9472L13.7227 14.8521C12.8608 15.3693 11.8218 14.8361 10.508 13.4943C9.62223 12.591 9.12572 11.8428 9.03345 11.1854C8.98493 10.8442 9.06102 10.4982 9.24571 10.2076L10.1528 8.79034C10.2686 8.60919 10.3247 8.39635 10.3133 8.18168C10.302 7.96701 10.2237 7.76128 10.0894 7.59337L8.95994 6.17791C8.80394 5.98262 8.58221 5.85077 8.33614 5.80695C8.09006 5.76314 7.83645 5.81035 7.62263 5.93978L6.76392 6.45957Z" fill="#03314B"/>
</svg>
