<svg width="16" height="16" viewBox="0 0 16 16" fill="none" xmlns="http://www.w3.org/2000/svg">
<path d="M2.12325 1.40014L2.98217 0.881154C3.45259 0.596455 4.01052 0.492636 4.55186 0.58907C5.09319 0.685504 5.58095 0.975603 5.92412 1.40523L7.05443 2.82049C7.34953 3.19005 7.52152 3.64272 7.54627 4.11499C7.57103 4.58726 7.44731 5.05544 7.19248 5.45383L6.28537 6.8711C6.25887 6.9125 6.24807 6.96202 6.25491 7.0107C6.30112 7.33637 6.67401 7.89782 7.3895 8.62805C7.90839 9.15881 8.34706 9.51293 8.68671 9.68672C8.92456 9.80844 9.04007 9.81789 9.08225 9.79345L10.5595 8.89123C10.9629 8.64489 11.4333 8.53096 11.9047 8.56541C12.3762 8.59987 12.825 8.78098 13.1883 9.08336L14.573 10.2377C14.9944 10.5886 15.2742 11.0805 15.3604 11.622C15.4466 12.1635 15.3334 12.718 15.0418 13.1823L14.5064 14.034C14.2225 14.4855 13.8266 14.8558 13.3571 15.1088C12.8876 15.3618 12.3607 15.4889 11.8275 15.4778C9.47335 15.4285 7.02805 14.0806 4.47908 11.478C1.92748 8.87184 0.630219 6.3959 0.634933 4.03707C0.635748 3.50662 0.77319 2.98532 1.03401 2.52342C1.29483 2.06152 1.66944 1.6748 2.12325 1.40014ZM2.76294 2.45761C2.49054 2.6222 2.26512 2.85418 2.10842 3.13119C1.95171 3.40821 1.86901 3.72092 1.86827 4.03918C1.86575 6.02251 3.01522 8.21757 5.36155 10.6137C7.70526 13.0063 9.87316 14.201 11.8539 14.2433C12.1738 14.2499 12.49 14.1735 12.7716 14.0216C13.0533 13.8698 13.2908 13.6475 13.461 13.3766L13.9956 12.5251C14.1283 12.314 14.1799 12.062 14.1407 11.8157C14.1016 11.5695 13.9744 11.3458 13.7828 11.1863L12.3983 10.0327C12.2331 9.89508 12.0289 9.81263 11.8145 9.79695C11.6 9.78127 11.386 9.83314 11.2025 9.94529L9.72174 10.8501C8.85982 11.3673 7.82082 10.8341 6.50703 9.49232C5.62126 8.58901 5.12475 7.8408 5.03247 7.18348C4.98396 6.84226 5.06004 6.49624 5.24473 6.20565L6.15184 4.78838C6.26759 4.60723 6.32372 4.39439 6.31235 4.17972C6.30099 3.96505 6.2227 3.75933 6.08847 3.59141L4.95896 2.17596C4.80296 1.98067 4.58123 1.84882 4.33516 1.805C4.08909 1.76118 3.83547 1.8084 3.62165 1.93783L2.76294 2.45761Z" fill="#03314B"/>
</svg>
