<svg width="22" height="22" viewBox="0 0 22 22" fill="none" xmlns="http://www.w3.org/2000/svg">
<path opacity="0.965" fill-rule="evenodd" clip-rule="evenodd" d="M3.69531 0C7.34766 0 11 0 14.6523 0C15.0263 0.123026 15.32 0.352192 15.5332 0.6875C16.4499 2.34896 17.3666 4.01042 18.2832 5.67188C18.3536 6.74339 18.3679 7.81761 18.3262 8.89453C18.0254 9.29556 17.7246 9.29556 17.4238 8.89453C17.4023 8.07825 17.3952 7.26185 17.4023 6.44531C11.9167 6.44531 6.431 6.44531 0.945313 6.44531C0.93815 10.0404 0.945313 13.6354 0.966797 17.2305C1.01896 17.297 1.08341 17.3471 1.16016 17.3809C3.73828 17.3952 6.31641 17.4095 8.89453 17.4238C9.29556 17.7246 9.29556 18.0254 8.89453 18.3262C6.24478 18.3548 3.59505 18.3548 0.945313 18.3262C0.483519 18.1865 0.168413 17.8929 0 17.4453C0 13.5495 0 9.65366 0 5.75781C0.962178 4.04865 1.91465 2.3299 2.85742 0.601563C3.07279 0.306759 3.35208 0.106238 3.69531 0ZM3.86719 0.945313C5.47134 0.945313 7.07554 0.945313 8.67969 0.945313C8.67969 2.46354 8.67969 3.98177 8.67969 5.5C6.21599 5.51431 3.75244 5.5 1.28906 5.45703C2.08398 4.01042 2.87891 2.5638 3.67383 1.11719C3.73385 1.04971 3.7983 0.992424 3.86719 0.945313ZM9.625 0.945313C11.2615 0.924361 12.8943 0.945845 14.5234 1.00977C14.6184 1.09026 14.6971 1.18336 14.7598 1.28906C15.526 2.68555 16.2923 4.08203 17.0586 5.47852C14.5808 5.5 12.1029 5.50718 9.625 5.5C9.625 3.98177 9.625 2.46354 9.625 0.945313Z" fill="#101010"/>
<path opacity="0.947" fill-rule="evenodd" clip-rule="evenodd" d="M22 15.3403C22 15.8129 22 16.2856 22 16.7582C21.6157 19.0802 20.341 20.7058 18.1758 21.6352C17.7093 21.804 17.2367 21.9258 16.7578 22.0004C16.2852 22.0004 15.8125 22.0004 15.3398 22.0004C13.0221 21.6383 11.3964 20.3779 10.4629 18.2192C9.58366 15.53 10.1924 13.2454 12.2891 11.3656C14.184 9.97148 16.2322 9.69932 18.4336 10.5492C20.4636 11.5236 21.6524 13.1206 22 15.3403ZM15.9844 11.0004C18.1465 11.0963 19.7006 12.1132 20.6465 14.0512C21.3891 15.9745 21.1169 17.7362 19.8301 19.3363C18.2714 20.9631 16.4166 21.4287 14.2656 20.7328C12.2114 19.8474 11.1372 18.2862 11.043 16.0492C11.1233 13.9253 12.1116 12.3927 14.0078 11.4516C14.6458 11.1823 15.3047 11.032 15.9844 11.0004Z" fill="#101010"/>
<path opacity="0.948" fill-rule="evenodd" clip-rule="evenodd" d="M15.8984 12.8053C16.1427 12.7793 16.3361 12.8652 16.4785 13.0631C16.4928 14.1231 16.5072 15.1829 16.5215 16.2428C17.2788 16.8425 18.0236 17.4584 18.7559 18.0905C18.8918 18.5717 18.7128 18.808 18.2188 18.7995C18.1232 18.7754 18.0372 18.7324 17.9609 18.6706C17.2448 18.0977 16.5287 17.5247 15.8125 16.9518C15.7005 16.8685 15.6218 16.7611 15.5762 16.6296C15.5475 15.4694 15.5475 14.3092 15.5762 13.1491C15.6343 12.9837 15.7417 12.8691 15.8984 12.8053Z" fill="#101010"/>
</svg>
