<svg width="15" height="15" viewBox="0 0 15 15" fill="none" xmlns="http://www.w3.org/2000/svg">
<path opacity="0.965" fill-rule="evenodd" clip-rule="evenodd" d="M2.51953 0C5.00977 0 7.5 0 9.99024 0C10.2452 0.0838811 10.4454 0.240131 10.5908 0.46875C11.2158 1.60156 11.8408 2.73437 12.4658 3.86719C12.5138 4.59776 12.5236 5.33019 12.4951 6.06445C12.29 6.33788 12.085 6.33788 11.8799 6.06445C11.8652 5.5079 11.8603 4.95126 11.8652 4.39453C8.12499 4.39453 4.38478 4.39453 0.644531 4.39453C0.639647 6.84571 0.644531 9.2969 0.65918 11.748C0.694746 11.7934 0.738691 11.8276 0.791016 11.8506C2.54883 11.8603 4.30664 11.8701 6.06445 11.8799C6.33788 12.085 6.33788 12.29 6.06445 12.4951C4.2578 12.5147 2.45117 12.5147 0.644531 12.4951C0.329672 12.3999 0.114827 12.1997 0 11.8945C0 9.23827 0 6.58204 0 3.92578C0.65603 2.76045 1.30545 1.58857 1.94824 0.410156C2.09508 0.209154 2.28551 0.0724348 2.51953 0ZM2.63672 0.644531C3.73046 0.644531 4.82423 0.644531 5.91797 0.644531C5.91797 1.67969 5.91797 2.71484 5.91797 3.75C4.23817 3.75976 2.55848 3.75 0.878906 3.7207C1.4209 2.73437 1.96289 1.74805 2.50488 0.761719C2.5458 0.715714 2.58975 0.676652 2.63672 0.644531ZM6.5625 0.644531C7.6783 0.630246 8.79158 0.644895 9.90234 0.688477C9.96706 0.743361 10.0208 0.806836 10.0635 0.878906C10.5859 1.83105 11.1084 2.7832 11.6309 3.73535C9.94143 3.75 8.25199 3.75489 6.5625 3.75C6.5625 2.71484 6.5625 1.67969 6.5625 0.644531Z" fill="white"/>
<path opacity="0.947" fill-rule="evenodd" clip-rule="evenodd" d="M15 10.4592C15 10.7815 15 11.1037 15 11.426C14.738 13.0092 13.8689 14.1176 12.3926 14.7512C12.0746 14.8663 11.7523 14.9494 11.4258 15.0002C11.1036 15.0002 10.7813 15.0002 10.459 15.0002C8.87875 14.7533 7.77034 13.8939 7.13383 12.4221C6.53436 10.5886 6.94941 9.03093 8.37895 7.74925C9.67097 6.79868 11.0675 6.61312 12.5684 7.19261C13.9525 7.85694 14.763 8.94579 15 10.4592ZM10.8985 7.50023C12.3727 7.56559 13.4323 8.25896 14.0772 9.5803C14.5835 10.8916 14.398 12.0928 13.5206 13.1838C12.4578 14.293 11.1932 14.6104 9.72661 14.136C8.32601 13.5323 7.59359 12.4678 7.52934 10.9426C7.58413 9.49446 8.25795 8.44953 9.55082 7.80784C9.98582 7.62427 10.4351 7.52173 10.8985 7.50023Z" fill="white"/>
<path opacity="0.948" fill-rule="evenodd" clip-rule="evenodd" d="M10.8399 8.73089C11.0064 8.71311 11.1382 8.7717 11.2354 8.90667C11.2451 9.62934 11.2549 10.352 11.2647 11.0746C11.781 11.4835 12.2888 11.9034 12.7881 12.3344C12.8808 12.6625 12.7587 12.8236 12.4219 12.8178C12.3567 12.8014 12.2981 12.7721 12.2461 12.7299C11.7578 12.3393 11.2695 11.9487 10.7813 11.558C10.7049 11.5013 10.6512 11.428 10.6201 11.3383C10.6006 10.5473 10.6006 9.75628 10.6201 8.96526C10.6598 8.85247 10.733 8.77434 10.8399 8.73089Z" fill="white"/>
</svg>
