<svg width="11" height="11" viewBox="0 0 11 11" fill="none" xmlns="http://www.w3.org/2000/svg">
<path d="M0 4.88889H4.88617V0H0V4.88889ZM1.22154 1.22222H3.66463V3.66667H1.22154V1.22222ZM0 11H4.88617V6.11111H0V11ZM1.22154 7.33333H3.66463V9.77778H1.22154V7.33333ZM6.10772 0V4.88889H10.9939V0H6.10772ZM9.77235 3.66667H7.32926V1.22222H9.77235V3.66667ZM6.11383 6.11111H7.33537V7.33333H6.11383V6.11111ZM7.33537 7.33333H8.55691V8.55556H7.33537V7.33333ZM6.11383 8.55556H7.33537V9.77778H6.11383V8.55556ZM8.55691 8.55556H9.77846V9.77778H8.55691V8.55556ZM9.77846 9.77778H11V11H9.77846V9.77778ZM7.33537 9.77778H8.55691V11H7.33537V9.77778ZM8.55691 6.11111H9.77846V7.33333H8.55691V6.11111ZM9.77846 7.33333H11V8.55556H9.77846V7.33333Z" fill="white"/>
</svg>
