<svg width="19" height="19" viewBox="0 0 19 19" fill="none" xmlns="http://www.w3.org/2000/svg">
<path d="M6.66667 18H12.3333M6.66667 18V13.2778M6.66667 18H1.56667C1.41638 18 1.27224 17.9403 1.16597 17.834C1.0597 17.7278 1 17.5836 1 17.4333V13.8444C1 13.6942 1.0597 13.55 1.16597 13.4437C1.27224 13.3375 1.41638 13.2778 1.56667 13.2778H6.66667M12.3333 18V6.66667M12.3333 18H17.4333C17.5836 18 17.7278 17.9403 17.834 17.834C17.9403 17.7278 18 17.5836 18 17.4333V1.56667C18 1.41638 17.9403 1.27224 17.834 1.16597C17.7278 1.0597 17.5836 1 17.4333 1H12.9C12.7497 1 12.6056 1.0597 12.4993 1.16597C12.393 1.27224 12.3333 1.41638 12.3333 1.56667V6.66667M6.66667 13.2778V7.23333C6.66667 7.08304 6.72637 6.93891 6.83264 6.83264C6.93891 6.72637 7.08304 6.66667 7.23333 6.66667H12.3333" stroke="#EBEBEB" stroke-width="1.5"/>
</svg>
