<svg width="14" height="14" viewBox="0 0 14 14" fill="none" xmlns="http://www.w3.org/2000/svg">
<path d="M5.62839 3.40356e-08C6.69824 -0.00011759 7.74597 0.304641 8.64884 0.878573C9.55171 1.4525 10.2723 2.27184 10.7263 3.2406C11.1802 4.20936 11.3487 5.28742 11.212 6.34849C11.0753 7.40956 10.639 8.4097 9.9543 9.23174L13.8367 13.1141C13.9041 13.1767 13.9533 13.2562 13.9792 13.3444C14.0052 13.4326 14.0068 13.5262 13.9841 13.6152C13.9613 13.7043 13.9149 13.7855 13.8498 13.8505C13.7848 13.9154 13.7034 13.9615 13.6143 13.9841C13.5253 14.0068 13.4319 14.0052 13.3437 13.9794C13.2556 13.9536 13.1761 13.9045 13.1134 13.8374L9.23104 9.955C8.53632 10.5334 7.71251 10.9361 6.82929 11.1288C5.94607 11.3215 5.02942 11.2987 4.15687 11.0623C3.28433 10.8258 2.48157 10.3827 1.81649 9.77046C1.15141 9.15817 0.64358 8.39471 0.335952 7.54466C0.0283244 6.69461 -0.0700495 5.78297 0.049152 4.88686C0.168353 3.99075 0.501624 3.13653 1.02077 2.39646C1.53992 1.65638 2.22967 1.05223 3.03169 0.635093C3.8337 0.217959 4.72438 0.000119386 5.62839 3.40356e-08ZM1.02274 5.62911C1.02274 6.23393 1.14187 6.83283 1.37332 7.39161C1.60478 7.95039 1.94403 8.45811 2.3717 8.88579C2.79938 9.31346 3.3071 9.65271 3.86588 9.88416C4.42467 10.1156 5.02357 10.2347 5.62839 10.2347C6.23321 10.2347 6.83212 10.1156 7.3909 9.88416C7.94968 9.65271 8.45741 9.31346 8.88508 8.88579C9.31276 8.45811 9.65201 7.95039 9.88346 7.39161C10.1149 6.83283 10.234 6.23393 10.234 5.62911C10.234 4.40762 9.74881 3.23616 8.88508 2.37243C8.02135 1.50871 6.84989 1.02347 5.62839 1.02347C4.4069 1.02347 3.23543 1.50871 2.3717 2.37243C1.50797 3.23616 1.02274 4.40762 1.02274 5.62911Z" fill="#666666"/>
</svg>
