<svg width="16" height="16" viewBox="0 0 16 16" fill="none" xmlns="http://www.w3.org/2000/svg">
<path d="M6.43245 3.88978e-08C7.65513 -0.000134388 8.85253 0.348161 9.88438 1.00408C10.9162 1.66001 11.7398 2.59639 12.2586 3.70354C12.7774 4.8107 12.97 6.04277 12.8137 7.25542C12.6574 8.46807 12.1589 9.61109 11.3763 10.5506L15.8134 14.9876C15.8903 15.0591 15.9466 15.15 15.9763 15.2508C16.0059 15.3516 16.0078 15.4585 15.9818 15.5603C15.9558 15.662 15.9028 15.7549 15.8284 15.8291C15.754 15.9033 15.661 15.956 15.5591 15.9818C15.4575 16.0078 15.3507 16.0059 15.25 15.9764C15.1493 15.9469 15.0584 15.8909 14.9868 15.8141L10.5498 11.3771C9.75579 12.0382 8.8143 12.4984 7.8049 12.7186C6.7955 12.9389 5.7479 12.9128 4.75071 12.6426C3.75353 12.3724 2.83608 11.866 2.07599 11.1662C1.3159 10.4665 0.73552 9.59396 0.383946 8.62247C0.0323708 7.65098 -0.0800566 6.60911 0.0561737 5.58498C0.192404 4.56086 0.573284 3.58461 1.1666 2.73881C1.75991 1.89301 2.5482 1.20254 3.46479 0.72582C4.38137 0.249096 5.3993 0.000136441 6.43245 3.88978e-08ZM1.16884 6.43327C1.16884 7.12449 1.30499 7.80895 1.56951 8.44756C1.83403 9.08616 2.22175 9.66642 2.71052 10.1552C3.19929 10.644 3.77954 11.0317 4.41815 11.2962C5.05676 11.5607 5.74122 11.6969 6.43245 11.6969C7.12367 11.6969 7.80813 11.5607 8.44674 11.2962C9.08535 11.0317 9.66561 10.644 10.1544 10.1552C10.6431 9.66642 11.0309 9.08616 11.2954 8.44756C11.5599 7.80895 11.6961 7.12449 11.6961 6.43327C11.6961 5.03728 11.1415 3.69847 10.1544 2.71135C9.16726 1.72424 7.82844 1.16969 6.43245 1.16969C5.03645 1.16969 3.69763 1.72424 2.71052 2.71135C1.7234 3.69847 1.16884 5.03728 1.16884 6.43327Z" fill="white"/>
</svg>
