<svg width="21" height="17" viewBox="0 0 21 17" fill="none" xmlns="http://www.w3.org/2000/svg">
<path d="M20.1405 7.60998L12.6405 0.109983C12.588 0.0574786 12.5212 0.0217158 12.4484 0.00722185C12.3756 -0.00727205 12.3002 0.000154686 12.2316 0.0285619C12.163 0.056969 12.1045 0.105079 12.0633 0.166802C12.0221 0.228525 12.0001 0.301084 12.0002 0.375295V4.50873C6.93765 4.73748 0.709837 9.52905 0.00577481 15.665C-0.0139421 15.8217 0.0171282 15.9805 0.0944175 16.1182C0.171707 16.2559 0.291137 16.3652 0.43515 16.43C0.535088 16.4773 0.644256 16.502 0.754837 16.5022C0.856905 16.5019 0.95781 16.4805 1.05122 16.4394C1.14463 16.3982 1.22853 16.3382 1.29765 16.2631C2.37859 15.1128 6.29359 11.4134 12.0002 11.2569V15.3753C12.0001 15.4495 12.0221 15.5221 12.0633 15.5838C12.1045 15.6455 12.163 15.6936 12.2316 15.722C12.3002 15.7504 12.3756 15.7579 12.4484 15.7434C12.5212 15.7289 12.588 15.6931 12.6405 15.6406L20.1405 8.14061C20.1753 8.10578 20.203 8.06442 20.2219 8.0189C20.2407 7.97337 20.2504 7.92458 20.2504 7.8753C20.2504 7.82601 20.2407 7.77722 20.2219 7.73169C20.203 7.68617 20.1753 7.64481 20.1405 7.60998ZM12.7502 14.4687V10.8753C12.7502 10.7758 12.7106 10.6805 12.6403 10.6101C12.57 10.5398 12.4746 10.5003 12.3752 10.5003C9.80734 10.5003 7.30515 11.1725 4.93703 12.4972C3.38685 13.3665 1.97558 14.463 0.75015 15.7503C1.06515 13.0119 2.58296 10.3615 5.02515 8.29061C7.26859 6.38561 10.0155 5.2503 12.3752 5.2503C12.4746 5.2503 12.57 5.21079 12.6403 5.14046C12.7106 5.07013 12.7502 4.97475 12.7502 4.8753V1.28092L19.3445 7.8753L12.7502 14.4687Z" fill="#101010"/>
</svg>
