<svg width="14" height="9" viewBox="0 0 14 9" fill="none" xmlns="http://www.w3.org/2000/svg">
<path d="M14 7H13C13 6.369 12.9025 5.748 12.7105 5.1535L13.6625 4.846C13.8865 5.54 14 6.265 14 7ZM13.925 1.489L12.707 2.707C12.5195 2.89455 12.2652 2.99994 12 3C11.8025 2.99948 11.6095 2.94053 11.4454 2.83057C11.2813 2.7206 11.1534 2.56454 11.0778 2.38204C11.0022 2.19954 10.9823 1.99875 11.0206 1.80496C11.0589 1.61117 11.1537 1.43304 11.293 1.293L12.5115 0.0745001C12.3449 0.0276458 12.173 0.0026033 12 0C10.897 0 10 0.8975 10 2C10 2.37 10.1075 2.7125 10.2835 3.01L8.0095 5.284C7.70454 5.10018 7.35557 5.00223 6.9995 5.0005C5.897 5.0005 4.9995 5.8975 4.9995 7.0005C4.9995 8.1035 5.897 9.0005 6.9995 9.0005C8.102 9.0005 8.9995 8.103 8.9995 7.0005C8.9995 6.6305 8.8925 6.2885 8.7165 5.9905L10.9905 3.717C11.2953 3.90073 11.6441 3.99868 12 4.0005C13.103 4.0005 14 3.103 14 2.0005C13.9972 1.82747 13.972 1.65554 13.925 1.489ZM7 8C6.4485 8 6 7.5515 6 7C6 6.4485 6.4485 6 7 6C7.5515 6 8 6.449 8 7C8 7.551 7.5515 8 7 8ZM1 7H0C0 3.14 3.14 0 7 0C7.735 0 8.46 0.1135 9.1535 0.3375L8.8465 1.2895C8.2499 1.09714 7.62684 0.999452 7 1C3.6915 1 1 3.6915 1 7Z" fill="black"/>
</svg>
