<svg width="18" height="19" viewBox="0 0 18 19" fill="none" xmlns="http://www.w3.org/2000/svg">
<path d="M9.01484 12.0492C10.4232 12.0492 11.5648 10.9075 11.5648 9.49922C11.5648 8.09089 10.4232 6.94922 9.01484 6.94922C7.60652 6.94922 6.46484 8.09089 6.46484 9.49922C6.46484 10.9075 7.60652 12.0492 9.01484 12.0492Z" stroke="#EBEBEB" stroke-width="1.5"/>
<path d="M10.5142 1.1292C10.2023 1 9.80616 1 9.01396 1C8.22176 1 7.82566 1 7.51371 1.1292C7.30731 1.21464 7.11978 1.33991 6.96182 1.49786C6.80387 1.65582 6.67859 1.84335 6.59316 2.04975C6.51496 2.2393 6.48351 2.46115 6.47161 2.7833C6.46607 3.01614 6.40157 3.24377 6.28413 3.4449C6.1667 3.64603 6.00016 3.81409 5.80011 3.93335C5.59679 4.04706 5.36796 4.10732 5.13501 4.10851C4.90206 4.1097 4.67262 4.05177 4.46816 3.94015C4.18256 3.78885 3.97601 3.70555 3.77116 3.67835C3.32433 3.61959 2.87245 3.74066 2.51486 4.01495C2.24796 4.2215 2.04906 4.56405 1.65296 5.25C1.25686 5.93595 1.05796 6.2785 1.01461 6.61425C0.985397 6.83563 1.00009 7.06061 1.05784 7.27631C1.1156 7.49202 1.21528 7.69423 1.35121 7.8714C1.47701 8.0346 1.65296 8.17145 1.92581 8.34315C2.32786 8.5956 2.58626 9.0257 2.58626 9.5C2.58626 9.9743 2.32786 10.4044 1.92581 10.656C1.65296 10.8285 1.47616 10.9654 1.35121 11.1286C1.21528 11.3058 1.1156 11.508 1.05784 11.7237C1.00009 11.9394 0.985397 12.1644 1.01461 12.3858C1.05881 12.7207 1.25686 13.0641 1.65211 13.75C2.04906 14.436 2.24711 14.7785 2.51486 14.985C2.69203 15.121 2.89424 15.2207 3.10995 15.2784C3.32565 15.3362 3.55062 15.3509 3.77201 15.3217C3.97601 15.2945 4.18256 15.2112 4.46816 15.0599C4.67262 14.9482 4.90206 14.8903 5.13501 14.8915C5.36796 14.8927 5.59679 14.9529 5.80011 15.0667C6.21066 15.3047 6.45461 15.7424 6.47161 16.2167C6.48351 16.5397 6.51411 16.7607 6.59316 16.9502C6.67859 17.1566 6.80387 17.3442 6.96182 17.5021C7.11978 17.6601 7.30731 17.7854 7.51371 17.8708C7.82566 18 8.22176 18 9.01396 18C9.80616 18 10.2023 18 10.5142 17.8708C10.7206 17.7854 10.9081 17.6601 11.0661 17.5021C11.224 17.3442 11.3493 17.1566 11.4348 16.9502C11.513 16.7607 11.5444 16.5397 11.5563 16.2167C11.5733 15.7424 11.8173 15.3038 12.2278 15.0667C12.4311 14.9529 12.66 14.8927 12.8929 14.8915C13.1259 14.8903 13.3553 14.9482 13.5598 15.0599C13.8454 15.2112 14.0519 15.2945 14.2559 15.3217C14.4773 15.3509 14.7023 15.3362 14.918 15.2784C15.1337 15.2207 15.3359 15.121 15.5131 14.985C15.7808 14.7793 15.9789 14.436 16.375 13.75C16.7711 13.0641 16.97 12.7215 17.0133 12.3858C17.0425 12.1644 17.0278 11.9394 16.9701 11.7237C16.9123 11.508 16.8126 11.3058 16.6767 11.1286C16.5509 10.9654 16.375 10.8286 16.1021 10.6569C15.9031 10.5356 15.7382 10.3659 15.6227 10.1636C15.5072 9.96128 15.4449 9.73295 15.4417 9.5C15.4417 9.0257 15.7001 8.5956 16.1021 8.344C16.375 8.17145 16.5518 8.0346 16.6767 7.8714C16.8126 7.69423 16.9123 7.49202 16.9701 7.27631C17.0278 7.06061 17.0425 6.83563 17.0133 6.61425C16.9691 6.27935 16.7711 5.93595 16.3758 5.25C15.9789 4.56405 15.7808 4.2215 15.5131 4.01495C15.3359 3.87903 15.1337 3.77934 14.918 3.72159C14.7023 3.66383 14.4773 3.64914 14.2559 3.67835C14.0519 3.70555 13.8454 3.78885 13.5589 3.94015C13.3545 4.05162 13.1253 4.10947 12.8925 4.10828C12.6597 4.10709 12.431 4.0469 12.2278 3.93335C12.0278 3.81409 11.8612 3.64603 11.7438 3.4449C11.6263 3.24377 11.5618 3.01614 11.5563 2.7833C11.5444 2.4603 11.5138 2.2393 11.4348 2.04975C11.3493 1.84335 11.224 1.65582 11.0661 1.49786C10.9081 1.33991 10.7206 1.21464 10.5142 1.1292Z" stroke="#EBEBEB" stroke-width="1.5"/>
</svg>
