<svg width="17" height="17" viewBox="0 0 17 17" fill="none" xmlns="http://www.w3.org/2000/svg">
<path d="M5.75 7.41667L11.25 4.58333M5.75 9.58333L11.25 12.4167M1 8.5C1 9.16304 1.26339 9.79893 1.73223 10.2678C2.20107 10.7366 2.83696 11 3.5 11C4.16304 11 4.79893 10.7366 5.26777 10.2678C5.73661 9.79893 6 9.16304 6 8.5C6 7.83696 5.73661 7.20107 5.26777 6.73223C4.79893 6.26339 4.16304 6 3.5 6C2.83696 6 2.20107 6.26339 1.73223 6.73223C1.26339 7.20107 1 7.83696 1 8.5ZM11 3.5C11 4.16304 11.2634 4.79893 11.7322 5.26777C12.2011 5.73661 12.837 6 13.5 6C14.163 6 14.7989 5.73661 15.2678 5.26777C15.7366 4.79893 16 4.16304 16 3.5C16 2.83696 15.7366 2.20107 15.2678 1.73223C14.7989 1.26339 14.163 1 13.5 1C12.837 1 12.2011 1.26339 11.7322 1.73223C11.2634 2.20107 11 2.83696 11 3.5ZM11 13.5C11 14.163 11.2634 14.7989 11.7322 15.2678C12.2011 15.7366 12.837 16 13.5 16C14.163 16 14.7989 15.7366 15.2678 15.2678C15.7366 14.7989 16 14.163 16 13.5C16 12.837 15.7366 12.2011 15.2678 11.7322C14.7989 11.2634 14.163 11 13.5 11C12.837 11 12.2011 11.2634 11.7322 11.7322C11.2634 12.2011 11 12.837 11 13.5Z" stroke="black" stroke-width="1.6" stroke-linecap="round" stroke-linejoin="round"/>
</svg>
