<svg width="40" height="39" viewBox="0 0 40 39" fill="none" xmlns="http://www.w3.org/2000/svg">
<path opacity="0.998" fill-rule="evenodd" clip-rule="evenodd" d="M37.1897 10.607C37.1026 10.636 37.0445 10.6941 37.0155 10.7812C34.5716 12.6289 32.1619 14.5305 29.7866 16.486C28.7479 17.2731 27.9495 17.0843 27.3914 15.9199C27.3479 14.7299 27.3333 13.5396 27.3479 12.349C20.1862 13.1194 15.062 16.7484 11.9755 23.2359C11.748 23.7781 11.5448 24.3297 11.3658 24.8907C9.77025 18.6871 11.2363 13.3307 15.7642 8.82159C19.0495 5.87292 22.9107 4.46487 27.3479 4.59745C27.3479 3.66843 27.3479 2.73942 27.3479 1.81039C27.2303 0.461816 27.84 -0.133334 29.1769 0.0249357C32.3083 2.43039 35.4147 4.86907 38.4961 7.34096C38.9852 7.77365 39.1448 8.31077 38.9751 8.95223C38.8532 9.24853 38.6645 9.49536 38.409 9.69254C37.9886 9.98275 37.5822 10.2876 37.1897 10.607Z" fill="#099DD1"/>
<path fill-rule="evenodd" clip-rule="evenodd" d="M27.348 1.81013C27.348 2.73915 27.348 3.66817 27.348 4.59719C22.9108 4.4646 19.0496 5.87265 15.7643 8.82133C11.2365 13.3304 9.77038 18.6868 11.366 24.8905C11.545 24.3294 11.7481 23.7778 11.9756 23.2356C15.0621 16.7482 20.1863 13.1191 27.348 12.3487C27.3335 13.5394 27.348 14.7296 27.3916 15.9196C27.9497 17.0841 28.7481 17.2728 29.7867 16.4857C32.162 14.5303 34.5717 12.6286 37.0156 10.781C37.0737 19.4615 37.1317 28.142 37.1898 36.8225C37.1226 37.8727 36.6 38.584 35.6221 38.9564C24.2416 39.0145 12.8611 39.0145 1.48063 38.9564C0.769343 38.7096 0.290318 38.2306 0.04355 37.5193C-0.0145167 26.1388 -0.0145167 14.7584 0.04355 3.37785C0.366204 2.44561 1.01942 1.93754 2.0032 1.85368C10.4514 1.81013 18.8997 1.79561 27.348 1.81013Z" fill="#61DAFA"/>
<path opacity="0.105" fill-rule="evenodd" clip-rule="evenodd" d="M37.1898 10.605C37.1898 19.3435 37.1898 28.0822 37.1898 36.8207C37.1317 28.1402 37.0737 19.4597 37.0156 10.7792C37.0446 10.6921 37.1027 10.634 37.1898 10.605Z" fill="#61D7FE"/>
</svg>
