<svg width="53" height="43" viewBox="0 0 53 43" fill="none" xmlns="http://www.w3.org/2000/svg">
<path fill-rule="evenodd" clip-rule="evenodd" d="M26.4996 3.68825C23.0216 3.68822 19.6191 4.69962 16.7094 6.59847C13.7996 8.49732 11.509 11.2011 10.1184 14.3783C8.72773 17.5555 8.29751 21.0681 8.88046 24.4854C9.46341 27.9027 11.0342 31.0762 13.4002 33.6169C18.1874 32.5163 24.0888 30.2781 30.143 27.0646C35.7979 24.06 40.5703 20.7458 43.9598 17.6748C43.0849 13.7092 40.8767 10.1605 37.7013 7.61683C34.5258 5.07312 30.5737 3.68704 26.4996 3.68825ZM44.3591 22.1904C40.9524 24.9567 36.6878 27.7648 31.8809 30.315C26.6549 33.0912 21.4684 35.204 16.8858 36.5184C19.5378 38.2046 22.5894 39.1634 25.7322 39.2977C28.875 39.4321 31.9978 38.7374 34.7849 37.2837C37.572 35.83 39.9248 33.6689 41.6055 31.0187C43.2861 28.3685 44.2352 25.3232 44.3567 22.1904M12.2268 37.619C15.5003 40.499 19.5738 42.321 23.9087 42.8441C28.2436 43.3672 32.6356 42.5667 36.5042 40.5486C40.3728 38.5304 43.5357 35.3895 45.5747 31.5413C47.6137 27.6931 48.4328 23.3187 47.9237 18.9965L48.1455 18.7754C50.0042 16.8837 51.4536 14.992 52.2671 13.2034C53.0658 11.4443 53.3961 9.41012 52.2967 7.65597C51.2614 6.00992 49.3756 5.29745 47.475 5.04194C45.5744 4.78643 43.2794 4.93384 40.77 5.38098C37.4965 2.50096 33.423 0.678961 29.0881 0.155875C24.7533 -0.367211 20.3612 0.433255 16.4926 2.45144C12.624 4.46962 9.46112 7.61046 7.42212 11.4587C5.38312 15.3069 4.56403 19.6813 5.07316 24.0035C3.20463 25.8731 1.73544 27.7378 0.875129 29.4969C-0.02709 31.3395 -0.456014 33.4941 0.702574 35.344C1.76995 37.0417 3.73955 37.7492 5.71162 37.9826C7.57029 38.2037 9.79626 38.0539 12.2268 37.619ZM9.18245 34.3196C7.8342 32.5155 6.78014 30.5107 6.05919 28.379C5.21121 29.3863 4.59247 30.3076 4.19559 31.1159C3.51276 32.5089 3.68286 33.1427 3.83816 33.3884C4.01564 33.6734 4.59 34.1377 6.14794 34.322C6.99592 34.4252 8.00743 34.4244 9.18245 34.3196ZM43.8168 8.68045C44.8701 8.57152 45.9321 8.57564 46.9845 8.69274C48.4487 8.88928 48.9886 9.33642 49.1611 9.61158C49.309 9.84497 49.4717 10.4223 48.8974 11.6851C48.5128 12.5302 47.862 13.5228 46.9401 14.621C46.2191 12.4893 45.1651 10.4845 43.8168 8.68045Z" fill="white"/>
</svg>
