<svg width="32" height="32" viewBox="0 0 32 32" fill="none" xmlns="http://www.w3.org/2000/svg">
<g filter="url(#filter0_d_5795_48708)">
<path d="M27.7843 10.2091L25.4886 1.07843C25.4155 0.781881 25.2531 0.517473 25.025 0.323958C24.797 0.130443 24.5153 0.0179977 24.2213 0.00310544C23.9273 -0.0117869 23.6365 0.0716564 23.3914 0.241204C23.1463 0.410752 22.9599 0.657488 22.8595 0.945245L20.82 6.7176H11.1804L9.14083 0.942845C9.0402 0.655133 8.8536 0.408518 8.60837 0.239157C8.36315 0.0697953 8.07221 -0.0134032 7.7782 0.00175844C7.4842 0.0169201 7.2026 0.129644 6.97468 0.323405C6.74677 0.517166 6.58454 0.781771 6.51176 1.07843L4.21609 10.2091C3.87703 11.5528 3.93812 12.972 4.39129 14.2788C4.84446 15.5857 5.66836 16.7187 6.75402 17.528L15.2065 23.7383C15.4383 23.9086 15.7152 24 15.999 24C16.2829 24 16.5597 23.9086 16.7916 23.7383L25.244 17.528C26.3301 16.719 27.1545 15.5861 27.6081 14.2793C28.0616 12.9724 28.1231 11.5531 27.7843 10.2091ZM7.92493 3.05814L9.67034 8.00861C9.73552 8.19303 9.85354 8.35221 10.0085 8.46464C10.1634 8.57707 10.3478 8.63735 10.5367 8.63732H21.4637C21.6526 8.63735 21.837 8.57707 21.9919 8.46464C22.1468 8.35221 22.2648 8.19303 22.33 8.00861L24.0754 3.05814L25.5832 9.05726L15.999 15.9562L6.41371 9.05726L7.92493 3.05814ZM5.92689 11.0502L14.4001 17.2761L12.0099 19.0338L7.81995 15.9562C7.08879 15.4101 6.5224 14.6586 6.18713 13.7897C5.85186 12.9208 5.76158 11.9705 5.92689 11.0502ZM16.0002 21.9686L13.6088 20.2108L16.0002 18.4519L18.3916 20.2084L16.0002 21.9686ZM24.1804 15.9562L19.9905 19.035L17.6002 17.2761L26.0735 11.049C26.239 11.9695 26.1489 12.92 25.8136 13.7891C25.4783 14.6583 24.9118 15.41 24.1804 15.9562Z" fill="#2888BF"/>
</g>
<defs>
<filter id="filter0_d_5795_48708" x="0" y="0" width="32" height="32" filterUnits="userSpaceOnUse" color-interpolation-filters="sRGB">
<feFlood flood-opacity="0" result="BackgroundImageFix"/>
<feColorMatrix in="SourceAlpha" type="matrix" values="0 0 0 0 0 0 0 0 0 0 0 0 0 0 0 0 0 0 127 0" result="hardAlpha"/>
<feOffset dy="4"/>
<feGaussianBlur stdDeviation="2"/>
<feComposite in2="hardAlpha" operator="out"/>
<feColorMatrix type="matrix" values="0 0 0 0 0 0 0 0 0 0 0 0 0 0 0 0 0 0 0.35 0"/>
<feBlend mode="normal" in2="BackgroundImageFix" result="effect1_dropShadow_5795_48708"/>
<feBlend mode="normal" in="SourceGraphic" in2="effect1_dropShadow_5795_48708" result="shape"/>
</filter>
</defs>
</svg>
