<svg width="14" height="15" viewBox="0 0 14 15" fill="none" xmlns="http://www.w3.org/2000/svg">
<path d="M1.25689 13.248C0.911037 13.248 0.615222 13.1169 0.369444 12.8547C0.123667 12.5925 0.000518518 12.2781 0 11.9116V1.33722C0 0.969585 0.123148 0.654946 0.369444 0.393299C0.615741 0.131651 0.911296 0.000551998 1.25611 0H11.1883C11.5337 0 11.8292 0.1311 12.075 0.393299C12.3208 0.655498 12.4439 0.970137 12.4444 1.33722V5.57325C12.4444 5.69027 12.4071 5.78853 12.3324 5.86802C12.2578 5.9475 12.1652 5.98725 12.0548 5.98725C11.9443 5.98725 11.852 5.9475 11.7779 5.86802C11.7037 5.78853 11.6667 5.69027 11.6667 5.57325V1.33804C11.6667 1.21053 11.6169 1.09351 11.5173 0.986973C11.4178 0.880437 11.3078 0.827445 11.1876 0.827997H1.25689C1.13711 0.827997 1.02718 0.880989 0.927111 0.986973C0.827037 1.09296 0.777259 1.20998 0.777778 1.33804V11.9107C0.777778 12.0377 0.827555 12.1545 0.927111 12.261C1.02667 12.3675 1.13633 12.4205 1.25611 12.42H5.23522C5.34515 12.42 5.43744 12.4597 5.51211 12.5392C5.58678 12.6187 5.62411 12.7172 5.62411 12.8348C5.62411 12.9524 5.58678 13.0506 5.51211 13.1296C5.43744 13.2085 5.34515 13.248 5.23522 13.248H1.25689ZM0.777778 11.5978V12.42V0.827997V6.04935V5.98725V11.5978ZM2.72222 9.74553C2.72222 9.8631 2.75956 9.96136 2.83422 10.0403C2.90889 10.1192 3.00118 10.1587 3.11111 10.1587H5.41333C5.52326 10.1587 5.61555 10.119 5.69022 10.0395C5.76489 9.95998 5.80196 9.86172 5.80144 9.7447C5.80092 9.62768 5.76385 9.52942 5.69022 9.44993C5.61659 9.37045 5.52404 9.3307 5.41255 9.3307H3.11111C3.00067 9.3307 2.90837 9.37045 2.83422 9.44993C2.75956 9.52942 2.72222 9.62795 2.72222 9.74553ZM2.72222 6.62398C2.72222 6.74211 2.75956 6.84064 2.83422 6.91957C2.90889 6.99851 3.00118 7.03798 3.11111 7.03798H8.15111C8.26155 7.03798 8.35411 6.99823 8.42878 6.91875C8.50344 6.83926 8.54078 6.74073 8.54078 6.62315C8.54078 6.50558 8.50344 6.40732 8.42878 6.32838C8.35411 6.24945 8.26181 6.20998 8.15189 6.20998H3.11111C3.00067 6.20998 2.90837 6.24972 2.83422 6.32921C2.76007 6.4087 2.72274 6.50723 2.72222 6.62481M2.72222 3.50326C2.72222 3.62083 2.75956 3.71936 2.83422 3.79885C2.90889 3.87834 3.00118 3.91753 3.11111 3.91643H9.33333C9.44378 3.91643 9.53607 3.87668 9.61022 3.7972C9.68489 3.71771 9.72222 3.61918 9.72222 3.5016C9.72222 3.38403 9.68489 3.28577 9.61022 3.20683C9.53555 3.1279 9.44326 3.08871 9.33333 3.08926H3.11111C3.00067 3.08926 2.90837 3.129 2.83422 3.20849C2.76007 3.28798 2.72274 3.38651 2.72222 3.50409M10.8889 15C10.0224 15 9.28744 14.6785 8.68389 14.0354C8.07981 13.3929 7.77778 12.6104 7.77778 11.688C7.77778 10.7656 8.07981 9.98289 8.68389 9.33981C9.28796 8.69673 10.023 8.37547 10.8889 8.37602C11.7548 8.37657 12.4901 8.69784 13.0947 9.33981C13.6993 9.98178 14.001 10.7645 14 11.688C14 12.6098 13.6982 13.3923 13.0947 14.0354C12.4901 14.6785 11.7548 15 10.8889 15ZM10.8889 11.688C11.213 11.688 11.4886 11.5671 11.7157 11.3253C11.9428 11.0836 12.0561 10.7905 12.0556 10.446C12.055 10.1016 11.9417 9.80818 11.7157 9.56585C11.4896 9.32353 11.214 9.20292 10.8889 9.20402C10.5638 9.20512 10.2884 9.32574 10.0629 9.56585C9.83733 9.80597 9.72378 10.0994 9.72222 10.446C9.72066 10.7927 9.83422 11.0858 10.0629 11.3253C10.2916 11.5649 10.5669 11.6858 10.8889 11.688ZM10.8889 14.172C11.229 14.172 11.5477 14.1011 11.8448 13.9592C12.1419 13.8173 12.4006 13.6115 12.621 13.3415C12.6791 13.2698 12.699 13.1919 12.6809 13.108C12.6627 13.0241 12.6168 12.9582 12.5432 12.9101C12.2902 12.7694 12.0257 12.6653 11.7499 12.598C11.474 12.5301 11.187 12.4961 10.8889 12.4961C10.5907 12.4961 10.3037 12.5306 10.0279 12.5996C9.75204 12.6686 9.48759 12.7721 9.23455 12.9101C9.16092 12.9548 9.11504 13.02 9.09689 13.1055C9.07874 13.1911 9.0987 13.27 9.15678 13.3424C9.37715 13.6117 9.63589 13.8173 9.933 13.9592C10.2301 14.1005 10.5487 14.172 10.8889 14.172Z" fill="white"/>
</svg>
