<svg width="20" height="23" viewBox="0 0 20 23" fill="none" xmlns="http://www.w3.org/2000/svg">
<path fill-rule="evenodd" clip-rule="evenodd" d="M0 2.3C0 1.69 0.243131 1.10499 0.675907 0.673654C1.10868 0.242321 1.69565 0 2.30769 0L14.9338 0L20 5.04927V20.7C20 21.31 19.7569 21.895 19.3241 22.3263C18.8913 22.7577 18.3043 23 17.6923 23H2.30769C1.69565 23 1.10868 22.7577 0.675907 22.3263C0.243131 21.895 0 21.31 0 20.7V2.3ZM4.61538 6.13333H9.23077V7.66667H4.61538V6.13333ZM15.3846 10.7333H4.61538V12.2667H15.3846V10.7333ZM15.3846 15.3333H10.7692V16.8667H15.3846V15.3333Z" fill="#42A5F5"/>
</svg>
