<svg width="19" height="19" viewBox="0 0 19 19" fill="none" xmlns="http://www.w3.org/2000/svg">
<path d="M7.125 16.625V11.875C7.125 11.4551 7.29182 11.0524 7.58875 10.7554C7.88568 10.4585 8.28841 10.2917 8.70833 10.2917H9.975" stroke="black" stroke-linecap="round" stroke-linejoin="round"/>
<path d="M15.8333 8.70833L9.5 2.375L2.375 9.5H3.95833V15.0417C3.95833 15.4616 4.12515 15.8643 4.42208 16.1613C4.71901 16.4582 5.12174 16.625 5.54167 16.625H8.83421M14.25 15.8333C13.8301 15.8333 13.4273 15.6665 13.1304 15.3696C12.8335 15.0727 12.6667 14.6699 12.6667 14.25C12.6667 13.8301 12.8335 13.4273 13.1304 13.1304C13.4273 12.8335 13.8301 12.6667 14.25 12.6667M14.25 15.8333C14.6699 15.8333 15.0727 15.6665 15.3696 15.3696C15.6665 15.0727 15.8333 14.6699 15.8333 14.25C15.8333 13.8301 15.6665 13.4273 15.3696 13.1304C15.0727 12.8335 14.6699 12.6667 14.25 12.6667M14.25 15.8333V17.0208M14.25 12.6667V11.4792M16.6503 12.8646L15.622 13.4583M12.8804 15.0417L11.8513 15.6354M11.8513 12.8646L12.8804 13.4583M15.622 15.0417L16.6511 15.6354" stroke="black" stroke-linecap="round" stroke-linejoin="round"/>
</svg>
