<svg width="16" height="17" viewBox="0 0 16 17" fill="none" xmlns="http://www.w3.org/2000/svg">
<path d="M14.4583 7.33333L8.125 1L1 8.125H2.58333V13.6667C2.58333 14.0866 2.75015 14.4893 3.04708 14.7863C3.34401 15.0832 3.74674 15.25 4.16667 15.25H7.45921M12.875 14.4583C12.4551 14.4583 12.0523 14.2915 11.7554 13.9946C11.4585 13.6977 11.2917 13.2949 11.2917 12.875C11.2917 12.4551 11.4585 12.0523 11.7554 11.7554C12.0523 11.4585 12.4551 11.2917 12.875 11.2917M12.875 14.4583C13.2949 14.4583 13.6977 14.2915 13.9946 13.9946C14.2915 13.6977 14.4583 13.2949 14.4583 12.875C14.4583 12.4551 14.2915 12.0523 13.9946 11.7554C13.6977 11.4585 13.2949 11.2917 12.875 11.2917M12.875 14.4583V15.6458M12.875 11.2917V10.1042M15.2753 11.4896L14.247 12.0833M11.5054 13.6667L10.4763 14.2604M10.4763 11.4896L11.5054 12.0833M14.247 13.6667L15.2761 14.2604" stroke="#2DAFE8" stroke-linecap="round" stroke-linejoin="round"/>
</svg>
