<svg width="14" height="12" viewBox="0 0 14 12" fill="none" xmlns="http://www.w3.org/2000/svg">
<path d="M0.825625 4.20844C0.627976 4.16322 0.450282 4.04257 0.322611 3.86691C0.19494 3.69125 0.125133 3.47136 0.125 3.24445V1.5C0.125 1.23893 0.217188 0.988548 0.381282 0.803942C0.545376 0.619336 0.767936 0.515625 1 0.515625H13C13.2321 0.515625 13.4546 0.619336 13.6187 0.803942C13.7828 0.988548 13.875 1.23893 13.875 1.5V3.24445C13.8749 3.47136 13.8051 3.69125 13.6774 3.86691C13.5497 4.04257 13.372 4.16322 13.1744 4.20844C12.8057 4.29098 12.4738 4.51478 12.2353 4.84171C11.9969 5.16865 11.8665 5.57849 11.8665 6.00141C11.8665 6.42433 11.9969 6.83417 12.2353 7.1611C12.4738 7.48803 12.8057 7.71183 13.1744 7.79438C13.3716 7.8395 13.549 7.95973 13.6766 8.13481C13.8042 8.3099 13.8743 8.52912 13.875 8.75555V10.5C13.875 10.7611 13.7828 11.0115 13.6187 11.1961C13.4546 11.3807 13.2321 11.4844 13 11.4844H1C0.767936 11.4844 0.545376 11.3807 0.381282 11.1961C0.217188 11.0115 0.125 10.7611 0.125 10.5V8.75555C0.125133 8.52864 0.19494 8.30875 0.322611 8.13309C0.450282 7.95743 0.627976 7.83678 0.825625 7.79156C1.19433 7.70902 1.52618 7.48522 1.76466 7.15829C2.00313 6.83135 2.13347 6.42151 2.13347 5.99859C2.13347 5.57567 2.00313 5.16583 1.76466 4.8389C1.52618 4.51197 1.19433 4.28817 0.825625 4.20563V4.20844ZM13.125 10.5V8.75555C13.1249 8.72335 13.115 8.69217 13.0969 8.66721C13.0788 8.64225 13.0536 8.62504 13.0256 8.61844C12.4887 8.49579 12.006 8.1681 11.6593 7.6909C11.3126 7.2137 11.1232 6.61632 11.1232 6C11.1232 5.38368 11.3126 4.7863 11.6593 4.3091C12.006 3.8319 12.4887 3.50421 13.0256 3.38156C13.0542 3.37484 13.0797 3.35711 13.0979 3.33143C13.116 3.30575 13.1256 3.27374 13.125 3.24094V1.5C13.125 1.4627 13.1118 1.42694 13.0884 1.40056C13.0649 1.37419 13.0332 1.35938 13 1.35938H9.375V10.6406H13C13.0332 10.6406 13.0649 10.6258 13.0884 10.5994C13.1118 10.5731 13.125 10.5373 13.125 10.5ZM0.974375 8.61844C0.946361 8.62504 0.921209 8.64225 0.903122 8.66721C0.885035 8.69217 0.875108 8.72335 0.875 8.75555V10.5C0.875 10.5373 0.888169 10.5731 0.911612 10.5994C0.935054 10.6258 0.966848 10.6406 1 10.6406H8.625V1.35938H1C0.966848 1.35938 0.935054 1.37419 0.911612 1.40056C0.888169 1.42694 0.875 1.4627 0.875 1.5V3.24445C0.874382 3.27725 0.883978 3.30926 0.902125 3.33494C0.920273 3.36063 0.94583 3.37836 0.974375 3.38508C1.51126 3.50773 1.99395 3.83541 2.34065 4.31261C2.68736 4.78982 2.87676 5.38719 2.87676 6.00352C2.87676 6.61984 2.68736 7.21721 2.34065 7.69442C1.99395 8.17162 1.51126 8.49931 0.974375 8.62195V8.61844Z" fill="#03314B"/>
</svg>
