<svg width="22" height="18" viewBox="0 0 22 18" fill="none" xmlns="http://www.w3.org/2000/svg">
<path d="M15 1L8.99616 1C5.21816 1 3.33016 1 2.15616 2.172C1.27616 3.049 1.05616 4.326 1.00016 6.494C0.993157 6.772 1.22116 6.994 1.49016 7.065C1.91848 7.17654 2.2977 7.427 2.56842 7.77716C2.83914 8.12732 2.98606 8.55739 2.98616 9C2.98616 9.929 2.35216 10.71 1.49216 10.935C1.22216 11.005 0.994157 11.227 1.00216 11.505C1.05716 13.675 1.27816 14.951 2.15616 15.828M17.0002 1.1C18.3092 1.228 19.1892 1.517 19.8452 2.172C20.7232 3.049 20.9452 4.326 21.0002 6.494C21.0072 6.772 20.7792 6.994 20.5102 7.065C20.0818 7.17654 19.7026 7.427 19.4319 7.77716C19.1612 8.12732 19.0143 8.55739 19.0142 9C19.0142 9.929 19.6482 10.71 20.5082 10.935C20.7782 11.005 21.0062 11.227 20.9982 11.505C20.9432 13.675 20.7222 14.951 19.8442 15.828C18.6702 17 16.7822 17 13.0042 17H8.99616C7.83016 17 5.341 17 4.5 16.965" stroke="#EBEBEB" stroke-width="1.5" stroke-linecap="round"/>
</svg>
