<svg width="19" height="15" viewBox="0 0 19 15" fill="none" xmlns="http://www.w3.org/2000/svg">
<path opacity="0.941" fill-rule="evenodd" clip-rule="evenodd" d="M18.9814 9.44823C18.9814 9.5472 18.9814 9.64613 18.9814 9.7451C17.2799 11.2151 15.5606 12.6686 13.8232 14.1055C13.6136 14.1707 13.4713 14.1026 13.3965 13.9014C13.3779 13.2706 13.3717 12.6397 13.3779 12.0088C10.6194 12.015 7.86099 12.0088 5.10254 11.9902C4.94341 11.8503 4.9125 11.6833 5.00977 11.4892C5.06242 11.4536 5.11809 11.4227 5.17676 11.3965C8.04654 11.3717 10.9164 11.3717 13.7861 11.3965C13.881 11.4219 13.9491 11.4776 13.9902 11.5635C14.0026 12.083 14.015 12.6025 14.0273 13.1221C15.4184 11.9598 16.7976 10.7846 18.165 9.59666C16.8031 8.40174 15.4239 7.22663 14.0273 6.07127C14.015 6.5908 14.0026 7.11033 13.9902 7.62987C13.9469 7.67317 13.9037 7.71644 13.8604 7.75975C11.1019 7.7783 8.34345 7.7845 5.58496 7.7783C5.59116 8.40927 5.58496 9.04013 5.56641 9.67088C5.47905 9.87851 5.32442 9.94653 5.10254 9.87498C3.37656 8.43937 1.66953 6.98594 -0.0185547 5.51463C-0.0185547 5.41566 -0.0185547 5.31673 -0.0185547 5.21776C1.67744 3.75654 3.38448 2.30311 5.10254 0.857405C5.32442 0.78585 5.47905 0.853883 5.56641 1.06151C5.58496 1.69224 5.59116 2.32311 5.58496 2.95408C8.34345 2.94789 11.1019 2.95408 13.8604 2.97264C14.0195 3.11258 14.0504 3.27957 13.9531 3.47362C13.9005 3.50924 13.8448 3.54015 13.7861 3.56639C10.9164 3.59114 8.04654 3.59114 5.17676 3.56639C5.08187 3.54097 5.01381 3.48531 4.97266 3.3994C4.9603 2.87987 4.9479 2.36033 4.93555 1.8408C3.55827 3.0207 2.17904 4.19584 0.797852 5.36619C2.15979 6.56112 3.53902 7.73622 4.93555 8.89158C4.9479 8.37205 4.9603 7.85252 4.97266 7.33299C5.01596 7.28968 5.05923 7.24641 5.10254 7.20311C7.86099 7.18455 10.6194 7.17836 13.3779 7.18455C13.3717 6.55358 13.3779 5.92272 13.3965 5.29198C13.4113 5.19059 13.4669 5.12257 13.5635 5.08787C13.6624 5.06312 13.7614 5.06312 13.8604 5.08787C15.5863 6.52349 17.2933 7.97691 18.9814 9.44823Z" fill="black"/>
</svg>
