<svg width="25" height="32" viewBox="0 0 25 32" fill="none" xmlns="http://www.w3.org/2000/svg">
<path d="M10.3992 7.41333C10.1482 6.18119 9.84628 4.52448 9.84628 3.65377C9.84403 3.30465 9.91114 2.95856 10.0437 2.63558C10.1763 2.3126 10.3717 2.01916 10.6185 1.77229C10.8654 1.52542 11.1588 1.33004 11.4818 1.19747C11.8048 1.06491 12.1509 0.997804 12.5 1.00005C13.9657 1.00005 15.1537 2.21628 15.1537 3.65377C15.1537 4.50086 14.8534 6.16682 14.6008 7.41333M10.3992 17.5867C10.1471 18.8219 9.84628 27.6673 9.84628 28.5437C9.84403 28.8928 9.91114 29.2389 10.0437 29.5619C10.1763 29.8849 10.3717 30.1783 10.6185 30.4252C10.8654 30.672 11.1588 30.8674 11.4818 31C11.8048 31.1326 12.1509 31.1997 12.5 31.1974C13.9657 31.1974 15.1537 29.9812 15.1537 28.5437C15.1537 27.6946 14.8534 18.8342 14.6008 17.5867M17.5867 10.3992C18.8219 10.1471 20.4699 9.84628 21.3462 9.84628C21.6953 9.84403 22.0414 9.91114 22.3644 10.0437C22.6874 10.1763 22.9808 10.3717 23.2277 10.6185C23.4746 10.8654 23.67 11.1588 23.8025 11.4818C23.9351 11.8048 24.0022 12.1509 23.9999 12.5C23.9999 13.9657 22.7837 15.1537 21.3462 15.1537C20.4991 15.1537 18.8332 14.8534 17.5867 14.6008M7.41333 10.3987C6.18119 10.1476 4.52551 9.84628 3.65377 9.84628C3.30465 9.84403 2.95856 9.91114 2.63558 10.0437C2.3126 10.1763 2.01916 10.3717 1.77229 10.6185C1.52542 10.8654 1.33004 11.1588 1.19747 11.4818C1.06491 11.8048 0.997804 12.1509 1.00005 12.5C1.00005 13.9657 2.21628 15.1537 3.65377 15.1537C4.50086 15.1537 6.16682 14.8534 7.41333 14.6008" stroke="black" stroke-miterlimit="10" stroke-linecap="round"/>
<path d="M14.6004 7.41315C15.2961 6.36172 16.2587 4.98738 16.8783 4.36823C17.1236 4.11972 17.4157 3.92239 17.7379 3.78771C18.06 3.65303 18.4056 3.58368 18.7548 3.58368C19.1039 3.58368 19.4496 3.65303 19.7717 3.78771C20.0938 3.92239 20.386 4.11972 20.6312 4.36823C21.6678 5.40476 21.6477 7.1046 20.6312 8.12111C20.0326 8.72024 18.6459 9.69568 17.5863 10.399M7.41296 14.6006C6.36154 15.2963 4.98719 16.2589 4.36805 16.8785C4.11953 17.1238 3.92221 17.4159 3.78753 17.738C3.65285 18.0602 3.5835 18.4058 3.5835 18.755C3.5835 19.1041 3.65285 19.4498 3.78753 19.7719C3.92221 20.094 4.11953 20.3862 4.36805 20.6314C5.40458 21.6679 7.10442 21.6479 8.12093 20.6314C8.72006 20.0328 9.6955 18.6461 10.3988 17.5865M17.5863 14.6006C18.6377 15.2963 20.0121 16.2589 20.6312 16.8785C20.8797 17.1238 21.0771 17.4159 21.2117 17.738C21.3464 18.0602 21.4158 18.4058 21.4158 18.755C21.4158 19.1041 21.3464 19.4498 21.2117 19.7719C21.0771 20.094 20.8797 20.3862 20.6312 20.6314C19.5947 21.6679 17.8949 21.6479 16.8783 20.6314C16.2782 20.0313 15.3043 18.6472 14.6004 17.5865M10.3988 7.41315C9.70423 6.36429 8.73648 4.98378 8.12093 4.36823C7.87569 4.11972 7.58353 3.92239 7.26141 3.78771C6.93929 3.65303 6.59363 3.58368 6.24449 3.58368C5.89535 3.58368 5.54968 3.65303 5.22756 3.78771C4.90544 3.92239 4.61328 4.11972 4.36805 4.36823C3.33151 5.40476 3.35153 7.1046 4.36805 8.12111C4.96409 8.71716 6.35487 9.69619 7.41296 10.399" stroke="black" stroke-miterlimit="10" stroke-linecap="round"/>
<path d="M12.4996 15.7855C14.3142 15.7855 15.7853 14.3145 15.7853 12.4998C15.7853 10.6852 14.3142 9.21411 12.4996 9.21411C10.6849 9.21411 9.21387 10.6852 9.21387 12.4998C9.21387 14.3145 10.6849 15.7855 12.4996 15.7855Z" stroke="black" stroke-miterlimit="10" stroke-linecap="round"/>
</svg>
