<svg width="17" height="15" viewBox="0 0 17 15" fill="none" xmlns="http://www.w3.org/2000/svg">
<path opacity="0.892" fill-rule="evenodd" clip-rule="evenodd" d="M2.69566 0.00294345C3.09737 -0.0249927 3.21523 0.145927 3.04928 0.515696C2.67671 0.657038 2.51758 0.533271 2.57189 0.144392C2.59628 0.0789651 2.63754 0.0318132 2.69566 0.00294345Z" fill="#3A7494"/>
<path opacity="0.892" fill-rule="evenodd" clip-rule="evenodd" d="M12.8797 0.00294345C13.2815 -0.0249927 13.3993 0.145927 13.2334 0.515696C12.8608 0.657038 12.7017 0.533271 12.756 0.144392C12.7804 0.0789651 12.8216 0.0318132 12.8797 0.00294345Z" fill="#3A7494"/>
<path opacity="0.931" fill-rule="evenodd" clip-rule="evenodd" d="M7.85878 1.13556C9.88104 0.977422 11.549 1.66108 12.8625 3.18657C13.9205 2.11492 15.1994 1.63753 16.6993 1.7544C16.7852 1.87541 16.8206 2.01099 16.8054 2.16107C16.7822 3.15591 16.4934 4.06352 15.939 4.88396C15.629 5.28843 15.2931 5.67151 14.9312 6.03323C15.0786 6.56957 15.2259 7.10587 15.3733 7.64221C15.3968 7.73652 15.3968 7.8308 15.3733 7.92511C15.0844 8.26105 14.7721 8.57341 14.4362 8.86221C14.1995 8.91783 14.0168 8.8412 13.888 8.63235C12.922 11.0591 11.1303 12.3321 8.51298 12.4515C7.69042 12.4683 6.90658 12.3033 6.16139 11.9564C5.59111 12.2979 4.98995 12.5749 4.35792 12.7874C3.9387 12.9155 3.51436 12.939 3.08488 12.8581C2.58941 12.6455 2.35366 12.2683 2.37764 11.7265C2.41165 11.1485 2.559 10.6004 2.81966 10.0822C2.97259 9.7527 3.14351 9.43444 3.33242 9.12743C2.41715 6.86541 2.74131 4.80263 4.30488 2.93904C5.28158 1.92909 6.46622 1.32793 7.85878 1.13556ZM12.3144 3.50483C11.7757 3.37442 11.2394 3.23297 10.7054 3.08048C10.6261 3.10301 10.5494 3.13247 10.4756 3.16889C10.2104 3.43411 9.94515 3.69932 9.67993 3.96454C9.56207 4.11776 9.56207 4.27102 9.67993 4.42425C10.0041 4.74841 10.3282 5.07254 10.6524 5.39671C10.3237 5.66051 10.3237 5.92573 10.6524 6.19236C10.1263 6.78542 9.83758 7.48089 9.78602 8.27873C8.66207 9.40346 7.4362 10.3936 6.10835 11.2492C4.74075 10.4936 3.88025 9.35024 3.52691 7.81902C3.18206 5.5447 3.95416 3.75891 5.84313 2.46165C7.77727 1.40474 9.66324 1.48724 11.5011 2.70918C11.8135 2.9332 12.0846 3.19842 12.3144 3.50483ZM15.886 2.30252C15.9921 2.30252 16.0982 2.30252 16.2043 2.30252C16.1354 3.17511 15.8467 3.96489 15.3379 4.67178C14.4666 5.57844 13.5826 6.47427 12.6857 7.35931C12.1789 6.85247 11.672 6.34559 11.1651 5.83874C11.1416 5.81515 11.1416 5.7916 11.1651 5.76801C12.0689 4.8406 12.9942 3.93887 13.9411 3.0628C14.5357 2.66629 15.184 2.41285 15.886 2.30252ZM14.4362 3.717C14.6898 3.72949 14.79 3.85916 14.7367 4.10599C14.5968 4.28054 14.4435 4.29231 14.277 4.14135C14.2002 3.95287 14.2533 3.81142 14.4362 3.717ZM10.7585 3.75237C11.1665 3.82939 11.5673 3.93547 11.9608 4.07063C11.6784 4.37071 11.3896 4.66538 11.0944 4.95468C10.841 4.70124 10.5876 4.44784 10.3341 4.19439C10.4828 4.05167 10.6242 3.90435 10.7585 3.75237ZM14.4008 6.51062C14.5342 6.89034 14.6521 7.27932 14.7544 7.67757C14.613 7.84261 14.4597 7.99583 14.2947 8.13728C14.0354 7.90152 13.7879 7.65399 13.5521 7.39468C13.8357 7.09926 14.1186 6.80459 14.4008 6.51062ZM11.0767 6.61671C11.3471 6.8635 11.6064 7.12281 11.8547 7.39468C11.4489 7.78621 10.9656 8.00429 10.4049 8.04888C10.5108 7.513 10.7348 7.03561 11.0767 6.61671ZM12.2791 7.81902C12.3662 7.88837 12.4487 7.965 12.5266 8.04888C12.6433 8.11532 12.7612 8.11532 12.8802 8.04888C12.9456 7.97752 13.0164 7.9127 13.0924 7.85439C13.2056 7.93805 13.2999 8.03827 13.3753 8.15496C12.7002 10.2564 11.2739 11.4823 9.09646 11.8326C8.30869 11.927 7.5425 11.8327 6.79791 11.5497C8.01215 10.7133 9.14374 9.77031 10.1927 8.72076C10.8514 8.67016 11.4525 8.45798 11.9962 8.08424C12.0998 8.00344 12.1941 7.91503 12.2791 7.81902ZM3.65068 9.76395C4.13896 10.5174 4.76367 11.1362 5.52487 11.6205C2.93382 12.9841 2.30909 12.3653 3.65068 9.76395Z" fill="#2D6A8C"/>
<path opacity="0.931" fill-rule="evenodd" clip-rule="evenodd" d="M14.224 3.14965C15.007 3.07811 15.3783 3.43174 15.3379 4.21052C15.1532 4.71273 14.7936 4.919 14.2594 4.82936C13.7066 4.59017 13.5239 4.1835 13.7113 3.60936C13.829 3.39471 13.9999 3.24145 14.224 3.14965ZM14.4362 3.71545C14.2533 3.80987 14.2003 3.95131 14.2771 4.13979C14.4436 4.29076 14.5968 4.27898 14.7368 4.10443C14.79 3.8576 14.6899 3.72793 14.4362 3.71545Z" fill="#3A7494"/>
<path opacity="0.932" fill-rule="evenodd" clip-rule="evenodd" d="M0.609328 3.6842C1.13506 3.59622 1.49458 3.79658 1.68788 4.28535C1.79331 4.8114 1.59882 5.17093 1.1044 5.3639C0.578348 5.46935 0.21883 5.27486 0.0258516 4.78043C-0.0750545 4.25116 0.119438 3.88573 0.609328 3.6842ZM0.750777 4.28535C1.08143 4.28058 1.17573 4.42793 1.03368 4.72738C0.731547 4.84486 0.595993 4.74467 0.627009 4.4268C0.651399 4.36138 0.692656 4.31421 0.750777 4.28535Z" fill="#3A7494"/>
<path opacity="0.892" fill-rule="evenodd" clip-rule="evenodd" d="M15.4256 11.1768C15.8274 11.1488 15.9452 11.3197 15.7793 11.6895C15.4067 11.8309 15.2476 11.7071 15.3019 11.3182C15.3263 11.2528 15.3675 11.2056 15.4256 11.1768Z" fill="#3A7494"/>
<path opacity="0.892" fill-rule="evenodd" clip-rule="evenodd" d="M10.3338 14.4287C10.7356 14.4008 10.8534 14.5717 10.6875 14.9415C10.3149 15.0828 10.1558 14.9591 10.2101 14.5702C10.2345 14.5048 10.2757 14.4576 10.3338 14.4287Z" fill="#3A7494"/>
</svg>
