<svg width="19" height="15" viewBox="0 0 19 15" fill="none" xmlns="http://www.w3.org/2000/svg">
<path opacity="0.941" fill-rule="evenodd" clip-rule="evenodd" d="M18.9814 9.44829C18.9814 9.54726 18.9814 9.64619 18.9814 9.74516C17.2799 11.2152 15.5606 12.6686 13.8232 14.1055C13.6136 14.1708 13.4713 14.1027 13.3965 13.9014C13.3779 13.2707 13.3717 12.6398 13.3779 12.0088C10.6194 12.015 7.86099 12.0088 5.10254 11.9903C4.94341 11.8503 4.9125 11.6833 5.00977 11.4893C5.06242 11.4537 5.11809 11.4228 5.17676 11.3965C8.04654 11.3718 10.9164 11.3718 13.7861 11.3965C13.881 11.4219 13.9491 11.4776 13.9902 11.5635C14.0026 12.0831 14.015 12.6026 14.0273 13.1221C15.4184 11.9598 16.7976 10.7847 18.165 9.59672C16.8031 8.4018 15.4239 7.2267 14.0273 6.07133C14.015 6.59086 14.0026 7.1104 13.9902 7.62993C13.9469 7.67323 13.9037 7.7165 13.8604 7.75981C11.1019 7.77836 8.34345 7.78456 5.58496 7.77836C5.59116 8.40934 5.58496 9.04019 5.56641 9.67094C5.47905 9.87857 5.32442 9.94659 5.10254 9.87504C3.37656 8.43943 1.66953 6.986 -0.0185547 5.51469C-0.0185547 5.41572 -0.0185547 5.31679 -0.0185547 5.21782C1.67744 3.7566 3.38448 2.30317 5.10254 0.857466C5.32442 0.785912 5.47905 0.853944 5.56641 1.06157C5.58496 1.6923 5.59116 2.32317 5.58496 2.95415C8.34345 2.94795 11.1019 2.95415 13.8604 2.9727C14.0195 3.11264 14.0504 3.27963 13.9531 3.47368C13.9005 3.5093 13.8448 3.54021 13.7861 3.56645C10.9164 3.5912 8.04654 3.5912 5.17676 3.56645C5.08187 3.54103 5.01381 3.48537 4.97266 3.39946C4.9603 2.87993 4.9479 2.3604 4.93555 1.84086C3.55827 3.02076 2.17904 4.1959 0.797852 5.36625C2.15979 6.56118 3.53902 7.73628 4.93555 8.89165C4.9479 8.37211 4.9603 7.85258 4.97266 7.33305C5.01596 7.28974 5.05923 7.24648 5.10254 7.20317C7.86099 7.18461 10.6194 7.17842 13.3779 7.18461C13.3717 6.55364 13.3779 5.92278 13.3965 5.29204C13.4113 5.19065 13.4669 5.12263 13.5635 5.08793C13.6624 5.06318 13.7614 5.06318 13.8604 5.08793C15.5863 6.52355 17.2933 7.97697 18.9814 9.44829Z" fill="black"/>
</svg>
