<svg width="19" height="19" viewBox="0 0 19 19" fill="none" xmlns="http://www.w3.org/2000/svg">
<g clip-path="url(#clip0_1096_28317)">
<path opacity="0.941" fill-rule="evenodd" clip-rule="evenodd" d="M18.9814 11.4483C18.9814 11.5473 18.9814 11.6462 18.9814 11.7452C17.2799 13.2152 15.5606 14.6686 13.8232 16.1055C13.6136 16.1708 13.4713 16.1027 13.3965 15.9014C13.3779 15.2707 13.3717 14.6398 13.3779 14.0088C10.6194 14.015 7.86099 14.0088 5.10254 13.9903C4.94341 13.8503 4.9125 13.6833 5.00977 13.4893C5.06242 13.4537 5.11809 13.4228 5.17676 13.3965C8.04654 13.3718 10.9164 13.3718 13.7861 13.3965C13.881 13.4219 13.9491 13.4776 13.9902 13.5635C14.0026 14.0831 14.015 14.6026 14.0273 15.1221C15.4184 13.9598 16.7976 12.7847 18.165 11.5967C16.8031 10.4018 15.4239 9.2267 14.0273 8.07133C14.015 8.59086 14.0026 9.1104 13.9902 9.62993C13.9469 9.67323 13.9037 9.7165 13.8604 9.75981C11.1019 9.77836 8.34345 9.78456 5.58496 9.77836C5.59116 10.4093 5.58496 11.0402 5.56641 11.6709C5.47905 11.8786 5.32442 11.9466 5.10254 11.875C3.37656 10.4394 1.66953 8.986 -0.0185547 7.51469C-0.0185547 7.41572 -0.0185547 7.31679 -0.0185547 7.21782C1.67744 5.7566 3.38448 4.30317 5.10254 2.85747C5.32442 2.78591 5.47905 2.85394 5.56641 3.06157C5.58496 3.6923 5.59116 4.32317 5.58496 4.95415C8.34345 4.94795 11.1019 4.95415 13.8604 4.9727C14.0195 5.11264 14.0504 5.27963 13.9531 5.47368C13.9005 5.5093 13.8448 5.54021 13.7861 5.56645C10.9164 5.5912 8.04654 5.5912 5.17676 5.56645C5.08187 5.54103 5.01381 5.48537 4.97266 5.39946C4.9603 4.87993 4.9479 4.3604 4.93555 3.84086C3.55827 5.02076 2.17904 6.1959 0.797852 7.36625C2.15979 8.56118 3.53902 9.73628 4.93555 10.8916C4.9479 10.3721 4.9603 9.85258 4.97266 9.33305C5.01596 9.28974 5.05923 9.24648 5.10254 9.20317C7.86099 9.18461 10.6194 9.17842 13.3779 9.18461C13.3717 8.55364 13.3779 7.92278 13.3965 7.29204C13.4113 7.19065 13.4669 7.12263 13.5635 7.08793C13.6624 7.06318 13.7614 7.06318 13.8604 7.08793C15.5863 8.52355 17.2933 9.97697 18.9814 11.4483Z" fill="black"/>
</g>
<defs>
<clipPath id="clip0_1096_28317">
<rect width="19" height="19" fill="white"/>
</clipPath>
</defs>
</svg>
