<svg width="14" height="11" viewBox="0 0 14 11" fill="none" xmlns="http://www.w3.org/2000/svg">
<path d="M6.61111 7.61514H7.29944V5.984H9.184C9.41422 5.984 9.61126 5.90098 9.77511 5.73493C9.93896 5.5694 10.0209 5.37036 10.0209 5.13778V4.23107C10.0209 3.9985 9.93896 3.79919 9.77511 3.63314C9.61126 3.46762 9.41422 3.38486 9.184 3.38486H6.61111V7.61514ZM11.0989 7.61514H11.7864V3.38486H11.0981L11.0989 7.61514ZM7.29944 5.28864V4.07943H9.09378C9.15393 4.07943 9.20889 4.10483 9.25867 4.15564C9.30844 4.20593 9.33333 4.26119 9.33333 4.32143V5.04664C9.33333 5.1074 9.30844 5.16293 9.25867 5.21321C9.20889 5.2635 9.15393 5.28864 9.09378 5.28864H7.29944ZM2.96178 7.61514H4.69622C4.92696 7.61514 5.12426 7.53238 5.28811 7.36686C5.45248 7.20133 5.53467 7.00228 5.53467 6.76971V3.38486H4.84556V6.67857C4.84556 6.73933 4.82067 6.79486 4.77089 6.84514C4.72111 6.89543 4.66615 6.92057 4.606 6.92057H3.05044C2.99081 6.92057 2.93611 6.89543 2.88633 6.84514C2.83656 6.79486 2.81167 6.73933 2.81167 6.67857V3.38486H2.12333V6.76971C2.12333 7.00228 2.20526 7.20133 2.36911 7.36686C2.53348 7.53238 2.73052 7.61514 2.96022 7.61514M1.25689 11C0.899111 11 0.600185 10.879 0.360111 10.637C0.120037 10.395 0 10.0928 0 9.73028V1.26971C0 0.907762 0.120037 0.605785 0.360111 0.363786C0.600185 0.121786 0.898852 0.000523809 1.25611 0H12.7439C13.1017 0 13.4003 0.121262 13.6399 0.363786C13.8794 0.606309 13.9995 0.908286 14 1.26971V9.73107C14 10.0925 13.88 10.3945 13.6399 10.637C13.3998 10.8795 13.1011 11.0005 12.7439 11H1.25689ZM1.25689 10.2143H12.7447C12.8639 10.2143 12.9736 10.164 13.0737 10.0634C13.1737 9.96286 13.2235 9.85181 13.223 9.73028V1.26971C13.223 1.14871 13.1732 1.03767 13.0737 0.936571C12.9741 0.835476 12.8642 0.78519 12.7439 0.785714H1.25611C1.13685 0.785714 1.02719 0.836 0.927111 0.936571C0.827037 1.03714 0.777259 1.14819 0.777778 1.26971V9.73107C0.777778 9.85155 0.827555 9.96233 0.927111 10.0634C1.02667 10.1645 1.13633 10.2148 1.25611 10.2143" fill="white"/>
</svg>
