<svg width="17" height="17" viewBox="0 0 17 17" fill="none" xmlns="http://www.w3.org/2000/svg">
<g clip-path="url(#clip0_512_16811)">
<path fill-rule="evenodd" clip-rule="evenodd" d="M8.50033 0.890625C8.57703 0.890576 8.65284 0.907139 8.72254 0.939175C8.79223 0.971211 8.85417 1.01796 8.90408 1.07621L11.0291 3.55538C11.1208 3.66246 11.1661 3.80157 11.1552 3.94211C11.1444 4.08266 11.0781 4.21312 10.971 4.30479C10.8639 4.39647 10.7248 4.44185 10.5843 4.43096C10.4437 4.42007 10.3133 4.35379 10.2216 4.24671L9.03158 2.85838V10.6302C9.03158 10.7711 8.97561 10.9062 8.87598 11.0059C8.77635 11.1055 8.64122 11.1615 8.50033 11.1615C8.35943 11.1615 8.2243 11.1055 8.12468 11.0059C8.02505 10.9062 7.96908 10.7711 7.96908 10.6302V2.85767L6.77908 4.24671C6.73368 4.29973 6.67829 4.34329 6.61606 4.3749C6.55383 4.40652 6.48599 4.42557 6.4164 4.43096C6.34681 4.43635 6.27684 4.42799 6.21048 4.40634C6.14412 4.38469 6.08268 4.35019 6.02966 4.30479C5.97664 4.2594 5.93308 4.20401 5.90146 4.14178C5.86985 4.07955 5.8508 4.0117 5.84541 3.94211C5.84001 3.87252 5.84838 3.80255 5.87003 3.7362C5.89168 3.66984 5.92618 3.6084 5.97158 3.55538L8.09658 1.07621C8.14649 1.01796 8.20842 0.971211 8.27812 0.939175C8.34781 0.907139 8.42362 0.890576 8.50033 0.890625ZM4.95583 5.85038C5.09672 5.84962 5.23215 5.90487 5.33231 6.00397C5.43247 6.10307 5.48916 6.2379 5.48991 6.37879C5.49066 6.51969 5.43541 6.65511 5.33631 6.75527C5.23722 6.85543 5.10239 6.91212 4.96149 6.91288C4.18728 6.91713 3.63833 6.93696 3.22112 7.01346C2.8202 7.08783 2.58716 7.20613 2.41503 7.37825C2.21883 7.57446 2.09133 7.85 2.0212 8.36992C1.94966 8.90471 1.94824 9.61375 1.94824 10.6302V11.3385C1.94824 12.3557 1.94966 13.0648 2.0212 13.5995C2.09133 14.1195 2.21953 14.3943 2.41503 14.5912C2.61124 14.7867 2.88608 14.9142 3.4067 14.9843C3.94078 15.0566 4.65053 15.0573 5.66699 15.0573H11.3337C12.3501 15.0573 13.0592 15.0566 13.5947 14.9843C14.1146 14.9142 14.3894 14.7867 14.5856 14.5905C14.7818 14.3943 14.9093 14.1195 14.9795 13.5995C15.051 13.0648 15.0524 12.3557 15.0524 11.3385V10.6302C15.0524 9.61375 15.051 8.90471 14.9795 8.36921C14.9093 7.85 14.7811 7.57446 14.5856 7.37825C14.4128 7.20613 14.1805 7.08783 13.7795 7.01346C13.3623 6.93696 12.8134 6.91713 12.0392 6.91288C11.9694 6.9125 11.9004 6.89839 11.8361 6.87135C11.7718 6.84431 11.7134 6.80487 11.6643 6.75527C11.6153 6.70568 11.5765 6.6469 11.5501 6.58231C11.5237 6.51771 11.5104 6.44856 11.5107 6.37879C11.5111 6.30903 11.5252 6.24002 11.5523 6.17571C11.5793 6.1114 11.6188 6.05304 11.6683 6.00397C11.7179 5.9549 11.7767 5.91608 11.8413 5.88973C11.9059 5.86338 11.9751 5.85 12.0448 5.85038C12.8112 5.85463 13.4495 5.87304 13.9715 5.96867C14.5084 6.06783 14.9653 6.25554 15.3372 6.62742C15.7636 7.05313 15.9463 7.59075 16.0327 8.22825C16.1149 8.84167 16.1149 9.62296 16.1149 10.5913V11.3775C16.1149 12.3465 16.1149 13.1271 16.0327 13.7412C15.9463 14.3787 15.7636 14.9156 15.3372 15.342C14.9107 15.7685 14.3738 15.9512 13.7363 16.0376C13.1222 16.1198 12.3409 16.1198 11.3726 16.1198H5.62803C4.65974 16.1198 3.87845 16.1198 3.26433 16.0376C2.62683 15.9519 2.08991 15.7685 1.66349 15.342C1.23708 14.9156 1.05433 14.3787 0.968617 13.7412C0.885742 13.1271 0.885742 12.3458 0.885742 11.3775V10.5913C0.885742 9.62296 0.885742 8.84167 0.968617 8.22754C1.05362 7.59004 1.23778 7.05312 1.66349 6.62671C2.03537 6.25554 2.49224 6.06712 3.02916 5.96867C3.5512 5.87304 4.18941 5.85463 4.95583 5.85038Z" fill="#0981B5"/>
</g>
<defs>
<clipPath id="clip0_512_16811">
<rect width="17" height="17" fill="white"/>
</clipPath>
</defs>
</svg>
