<svg width="16" height="17" viewBox="0 0 16 17" fill="none" xmlns="http://www.w3.org/2000/svg">
<path fill-rule="evenodd" clip-rule="evenodd" d="M7.61458 0.890625C7.69129 0.890576 7.7671 0.907139 7.83679 0.939175C7.90649 0.971211 7.96842 1.01796 8.01833 1.07621L10.1433 3.55538C10.235 3.66246 10.2804 3.80157 10.2695 3.94211C10.2586 4.08266 10.1923 4.21312 10.0853 4.30479C9.97817 4.39647 9.83906 4.44185 9.69851 4.43096C9.55797 4.42007 9.42751 4.35379 9.33583 4.24671L8.14583 2.85838V10.6302C8.14583 10.7711 8.08986 10.9062 7.99023 11.0059C7.89061 11.1055 7.75548 11.1615 7.61458 11.1615C7.47369 11.1615 7.33856 11.1055 7.23893 11.0059C7.1393 10.9062 7.08333 10.7711 7.08333 10.6302V2.85767L5.89333 4.24671C5.84794 4.29973 5.79255 4.34329 5.73032 4.3749C5.66809 4.40652 5.60024 4.42557 5.53065 4.43096C5.46106 4.43635 5.39109 4.42799 5.32474 4.40634C5.25838 4.38469 5.19694 4.35019 5.14392 4.30479C5.0909 4.2594 5.04733 4.20401 5.01572 4.14178C4.98411 4.07955 4.96506 4.0117 4.95967 3.94211C4.95427 3.87252 4.96264 3.80255 4.98429 3.7362C5.00593 3.66984 5.04044 3.6084 5.08583 3.55538L7.21083 1.07621C7.26074 1.01796 7.32268 0.971211 7.39237 0.939175C7.46207 0.907139 7.53788 0.890576 7.61458 0.890625ZM4.07008 5.85038C4.21098 5.84962 4.3464 5.90487 4.44656 6.00397C4.54672 6.10307 4.60342 6.2379 4.60417 6.37879C4.60492 6.51969 4.54967 6.65511 4.45057 6.75527C4.35147 6.85543 4.21665 6.91212 4.07575 6.91288C3.30154 6.91713 2.75258 6.93696 2.33538 7.01346C1.93446 7.08783 1.70142 7.20613 1.52929 7.37825C1.33308 7.57446 1.20558 7.85 1.13546 8.36992C1.06392 8.90471 1.0625 9.61375 1.0625 10.6302V11.3385C1.0625 12.3557 1.06392 13.0648 1.13546 13.5995C1.20558 14.1195 1.33379 14.3943 1.52929 14.5912C1.7255 14.7867 2.00033 14.9142 2.52096 14.9843C3.05504 15.0566 3.76479 15.0573 4.78125 15.0573H10.4479C11.4644 15.0573 12.1734 15.0566 12.7089 14.9843C13.2288 14.9142 13.5037 14.7867 13.6999 14.5905C13.8961 14.3943 14.0236 14.1195 14.0937 13.5995C14.1653 13.0648 14.1667 12.3557 14.1667 11.3385V10.6302C14.1667 9.61375 14.1653 8.90471 14.0937 8.36921C14.0236 7.85 13.8954 7.57446 13.6999 7.37825C13.527 7.20613 13.2947 7.08783 12.8938 7.01346C12.4766 6.93696 11.9276 6.91713 11.1534 6.91288C11.0837 6.9125 11.0146 6.89839 10.9503 6.87135C10.886 6.84431 10.8277 6.80487 10.7786 6.75527C10.7295 6.70568 10.6907 6.6469 10.6644 6.58231C10.638 6.51771 10.6246 6.44856 10.625 6.37879C10.6254 6.30903 10.6395 6.24002 10.6665 6.17571C10.6936 6.1114 10.733 6.05304 10.7826 6.00397C10.8322 5.9549 10.891 5.91608 10.9556 5.88973C11.0202 5.86338 11.0893 5.85 11.1591 5.85038C11.9255 5.85463 12.5637 5.87304 13.0858 5.96867C13.6227 6.06783 14.0795 6.25554 14.4514 6.62742C14.8778 7.05313 15.0606 7.59075 15.147 8.22825C15.2292 8.84167 15.2292 9.62296 15.2292 10.5913V11.3775C15.2292 12.3465 15.2292 13.1271 15.147 13.7412C15.0606 14.3787 14.8778 14.9156 14.4514 15.342C14.025 15.7685 13.4881 15.9512 12.8506 16.0376C12.2365 16.1198 11.4552 16.1198 10.4869 16.1198H4.74229C3.774 16.1198 2.99271 16.1198 2.37858 16.0376C1.74108 15.9519 1.20417 15.7685 0.77775 15.342C0.351333 14.9156 0.168583 14.3787 0.082875 13.7412C-1.0555e-08 13.1271 0 12.3458 0 11.3775V10.5913C0 9.62296 -1.0555e-08 8.84167 0.082875 8.22754C0.167875 7.59004 0.352042 7.05312 0.77775 6.62671C1.14963 6.25554 1.6065 6.06712 2.14342 5.96867C2.66546 5.87304 3.30367 5.85463 4.07008 5.85038Z" fill="#0981B5"/>
</svg>
