<svg width="18" height="15" viewBox="0 0 18 15" fill="none" xmlns="http://www.w3.org/2000/svg">
<path d="M6.6875 6.6875C7.58496 6.6875 8.3125 5.95996 8.3125 5.0625C8.3125 4.16504 7.58496 3.4375 6.6875 3.4375C5.79004 3.4375 5.0625 4.16504 5.0625 5.0625C5.0625 5.95996 5.79004 6.6875 6.6875 6.6875Z" stroke="black" stroke-width="1.2"/>
<path d="M9.9375 9.93726C9.9375 10.8351 9.9375 11.5623 6.6875 11.5623C3.4375 11.5623 3.4375 10.8351 3.4375 9.93726C3.4375 9.03944 4.89187 8.31226 6.6875 8.31226C8.48313 8.31226 9.9375 9.03944 9.9375 9.93726Z" stroke="black" stroke-width="1.2"/>
<path d="M17.25 7.5C17.25 10.5639 17.25 12.0963 16.2977 13.0477C15.3455 13.9992 13.8139 14 10.75 14H7.5C4.43606 14 2.90369 14 1.95225 13.0477C1.00081 12.0955 1 10.5639 1 7.5C1 4.43606 1 2.90369 1.95225 1.95225C2.9045 1.00081 4.43606 1 7.5 1H10.75C13.8139 1 15.3463 1 16.2977 1.95225C16.6796 2.33412 16.9079 2.80863 17.0452 3.4375M14.8125 7.5H11.5625M14.8125 5.0625H10.75M14.8125 9.9375H12.375" stroke="black" stroke-width="1.2" stroke-linecap="round"/>
</svg>
