<svg width="16" height="14" viewBox="0 0 16 14" fill="none" xmlns="http://www.w3.org/2000/svg">
<path d="M8.75 6.99963H15.5M15.5 6.99963L13.0002 4.05392M15.5 6.99963L13.0002 9.94534M9.5 3.3175V1.97278C9.49999 1.76907 9.45694 1.56757 9.37357 1.38102C9.29021 1.19448 9.16834 1.02694 9.01566 0.889005C8.86299 0.751068 8.68283 0.645729 8.48658 0.579646C8.29033 0.513563 8.08225 0.488174 7.8755 0.505082L1.8755 0.995542C1.50054 1.02621 1.15101 1.19412 0.896225 1.46598C0.641443 1.73784 0.500019 2.09379 0.5 2.46324V11.536C0.500019 11.9055 0.641443 12.2614 0.896225 12.5333C1.15101 12.8051 1.50054 12.9731 1.8755 13.0037L7.8755 13.4949C8.08232 13.5118 8.29046 13.4864 8.48676 13.4203C8.68306 13.3542 8.86325 13.2488 9.01594 13.1107C9.16862 12.9727 9.29048 12.8051 9.3738 12.6185C9.45712 12.4318 9.50009 12.2303 9.5 12.0265V10.6818" stroke="black" stroke-linecap="round" stroke-linejoin="round"/>
</svg>
