<svg width="17" height="12" viewBox="0 0 17 12" fill="none" xmlns="http://www.w3.org/2000/svg">
<path d="M15.2278 5.05534C15.4569 5.37636 15.5714 5.53763 15.5714 5.775C15.5714 6.01313 15.4569 6.17364 15.2278 6.49466C14.1984 7.9385 11.5692 11.05 8.03571 11.05C4.50146 11.05 1.87301 7.93775 0.843629 6.49466C0.614543 6.17364 0.5 6.01238 0.5 5.775C0.5 5.53687 0.614543 5.37636 0.843629 5.05534C1.87301 3.6115 4.50222 0.5 8.03571 0.5C11.57 0.5 14.1984 3.61225 15.2278 5.05534Z" stroke="#20A5DE"/>
<path d="M10.2963 5.76944C10.2963 5.16986 10.0581 4.59484 9.63418 4.17088C9.21022 3.74691 8.6352 3.50873 8.03562 3.50873C7.43604 3.50873 6.86102 3.74691 6.43705 4.17088C6.01308 4.59484 5.7749 5.16986 5.7749 5.76944C5.7749 6.36902 6.01308 6.94404 6.43705 7.36801C6.86102 7.79198 7.43604 8.03016 8.03562 8.03016C8.6352 8.03016 9.21022 7.79198 9.63418 7.36801C10.0581 6.94404 10.2963 6.36902 10.2963 5.76944Z" stroke="#20A5DE"/>
</svg>
