<svg width="20" height="20" viewBox="0 0 20 20" fill="none" xmlns="http://www.w3.org/2000/svg">
<path d="M13.5716 9.28237C13.5716 10.2296 13.1953 11.138 12.5255 11.8077C11.8557 12.4775 10.9473 12.8538 10.0001 12.8538C9.05294 12.8538 8.14453 12.4775 7.47476 11.8077C6.80499 11.138 6.42871 10.2296 6.42871 9.28237V4.28237C6.42871 3.33516 6.80499 2.42676 7.47476 1.75698C8.14453 1.08721 9.05294 0.710938 10.0001 0.710938C10.9473 0.710938 11.8557 1.08721 12.5255 1.75698C13.1953 2.42676 13.5716 3.33516 13.5716 4.28237V9.28237Z" stroke="#4F7B95" stroke-linecap="round" stroke-linejoin="round"/>
<path d="M17.1432 10C17.145 10.8447 16.98 11.6815 16.6576 12.4623C16.3352 13.2431 15.8618 13.9526 15.2645 14.5499C14.6671 15.1472 13.9577 15.6207 13.1769 15.9431C12.3961 16.2655 11.5593 16.4305 10.7146 16.4286H9.28601C8.44127 16.4305 7.60448 16.2655 6.82368 15.9431C6.04287 15.6207 5.33345 15.1472 4.73612 14.5499C4.1388 13.9526 3.66535 13.2431 3.34295 12.4623C3.02055 11.6815 2.85555 10.8447 2.85744 10M10.0003 16.4286V19.2857" stroke="#4F7B95" stroke-linecap="round" stroke-linejoin="round"/>
</svg>
