<svg width="14" height="17" viewBox="0 0 14 17" fill="none" xmlns="http://www.w3.org/2000/svg">
<path d="M10.1076 7.89509C10.1076 8.70021 9.78773 9.47236 9.21842 10.0417C8.64911 10.611 7.87697 10.9308 7.07185 10.9308C6.26673 10.9308 5.49458 10.611 4.92527 10.0417C4.35597 9.47236 4.03613 8.70021 4.03613 7.89509V3.64509C4.03613 2.83997 4.35597 2.06782 4.92527 1.49852C5.49458 0.929208 6.26673 0.609375 7.07185 0.609375C7.87697 0.609375 8.64911 0.929208 9.21842 1.49852C9.78773 2.06782 10.1076 2.83997 10.1076 3.64509V7.89509Z" stroke="#0981B5" stroke-linecap="round" stroke-linejoin="round"/>
<path d="M13.1429 8.5C13.1445 9.21803 13.0042 9.9293 12.7302 10.593C12.4561 11.2567 12.0537 11.8597 11.546 12.3674C11.0383 12.8751 10.4352 13.2776 9.77157 13.5516C9.10789 13.8256 8.39661 13.9659 7.67858 13.9643H6.4643C5.74627 13.9659 5.035 13.8256 4.37131 13.5516C3.70763 13.2776 3.10462 12.8751 2.5969 12.3674C2.08917 11.8597 1.68674 11.2567 1.4127 10.593C1.13866 9.9293 0.998413 9.21803 1.00001 8.5M7.07144 13.9643V16.3929" stroke="#0981B5" stroke-linecap="round" stroke-linejoin="round"/>
</svg>
