<svg width="13" height="13" viewBox="0 0 13 13" fill="none" xmlns="http://www.w3.org/2000/svg">
<path d="M11.3715 5.86874L6.50273 1L1.02539 6.47734H2.24258V10.7375C2.24258 11.0603 2.37082 11.3699 2.59908 11.5982C2.82735 11.8264 3.13694 11.9547 3.45976 11.9547H5.9909M10.1543 11.3461C9.83147 11.3461 9.52187 11.2178 9.2936 10.9896C9.06534 10.7613 8.9371 10.4517 8.9371 10.1289C8.9371 9.80608 9.06534 9.49648 9.2936 9.26821C9.52187 9.03995 9.83147 8.91171 10.1543 8.91171M10.1543 11.3461C10.4771 11.3461 10.7867 11.2178 11.015 10.9896C11.2432 10.7613 11.3715 10.4517 11.3715 10.1289C11.3715 9.80608 11.2432 9.49648 11.015 9.26821C10.7867 9.03995 10.4771 8.91171 10.1543 8.91171M10.1543 11.3461V12.259M10.1543 8.91171V7.99882M11.9995 9.06386L11.209 9.5203M9.10142 10.7375L8.31025 11.1939M8.31025 9.06386L9.10142 9.5203M11.209 10.7375L12.0001 11.1939" stroke="#8A8A8A" stroke-linecap="round" stroke-linejoin="round"/>
</svg>
