<svg width="14" height="11" viewBox="0 0 14 11" fill="none" xmlns="http://www.w3.org/2000/svg">
<path d="M0.538462 4.08065H0C0 4.37445 0.241231 4.6129 0.538462 4.6129V4.08065ZM0.538462 6.91935V6.3871C0.395653 6.3871 0.258693 6.44317 0.157712 6.54299C0.0567305 6.64281 0 6.77819 0 6.91935H0.538462ZM13.4615 4.08065V4.6129C13.6043 4.6129 13.7413 4.55683 13.8423 4.45701C13.9433 4.35719 14 4.22181 14 4.08065H13.4615ZM13.4615 6.91935H14C14 6.77819 13.9433 6.64281 13.8423 6.54299C13.7413 6.44317 13.6043 6.3871 13.4615 6.3871V6.91935ZM1.97436 1.06452H5.5641V0H1.97436V1.06452ZM5.5641 1.06452H12.0256V0H5.5641V1.06452ZM12.0256 9.93548H5.5641V11H12.0256V9.93548ZM5.5641 9.93548H1.97436V11H5.5641V9.93548ZM5.02564 0.532258V10.4677H6.10256V0.532258H5.02564ZM1.17313 4.87265C1.25649 4.95502 1.32261 5.05283 1.36773 5.16047C1.41284 5.26811 1.43606 5.38348 1.43606 5.5C1.43606 5.61651 1.41284 5.73189 1.36773 5.83953C1.32261 5.94717 1.25649 6.04498 1.17313 6.12735L1.93415 6.87961C2.3044 6.51362 2.5124 6.01723 2.5124 5.49965C2.5124 4.98206 2.3044 4.48567 1.93415 4.11968L1.17313 4.87265ZM12.8269 6.12735C12.7435 6.04498 12.6774 5.94717 12.6323 5.83953C12.5872 5.73189 12.5639 5.61651 12.5639 5.5C12.5639 5.38348 12.5872 5.26811 12.6323 5.16047C12.6774 5.05283 12.7435 4.95502 12.8269 4.87265L12.0658 4.12039C11.6956 4.48638 11.4876 4.98277 11.4876 5.50035C11.4876 6.01794 11.6956 6.51433 12.0658 6.88032L12.8269 6.12735ZM0.538462 4.6129C0.768923 4.6129 0.997949 4.69948 1.17313 4.87265L1.93415 4.11968C1.75113 3.93812 1.5336 3.79482 1.29408 3.69665C1.05455 3.59849 0.797758 3.5481 0.538462 3.54839V4.6129ZM1.07692 4.08065V1.95161H0V4.08065H1.07692ZM1.07692 9.04839V6.91935H0V9.04839H1.07692ZM1.17313 6.12735C1.09001 6.21004 0.99111 6.27558 0.882159 6.32017C0.773208 6.36476 0.656381 6.38751 0.538462 6.3871V7.45161C1.04318 7.45161 1.54933 7.26071 1.93487 6.87961L1.17313 6.12735ZM12.8269 4.87265C13.0021 4.69948 13.2311 4.6129 13.4615 4.6129V3.54839C12.9568 3.54839 12.4514 3.73929 12.0658 4.12039L12.8269 4.87265ZM12.9231 1.95161V4.08065H14V1.95161H12.9231ZM12.9231 6.91935V9.04839H14V6.91935H12.9231ZM13.4615 6.3871C13.2311 6.3871 13.0021 6.30052 12.8269 6.12735L12.0658 6.88032C12.2489 7.06188 12.4664 7.20518 12.7059 7.30335C12.9454 7.40151 13.2022 7.4519 13.4615 7.45161V6.3871ZM1.97436 9.93548C1.47897 9.93548 1.07692 9.53806 1.07692 9.04839H0C0 9.56599 0.208012 10.0624 0.578276 10.4284C0.948541 10.7944 1.45073 11 1.97436 11V9.93548ZM12.0256 11C12.5493 11 13.0515 10.7944 13.4217 10.4284C13.792 10.0624 14 9.56599 14 9.04839H12.9231C12.9231 9.53806 12.521 9.93548 12.0256 9.93548V11ZM12.0256 1.06452C12.521 1.06452 12.9231 1.46194 12.9231 1.95161H14C14 1.43401 13.792 0.937612 13.4217 0.571614C13.0515 0.205616 12.5493 0 12.0256 0V1.06452ZM1.97436 0C1.45073 0 0.948541 0.205616 0.578276 0.571614C0.208012 0.937612 0 1.43401 0 1.95161H1.07692C1.07692 1.46194 1.47897 1.06452 1.97436 1.06452V0Z" fill="#8A8A8A"/>
</svg>
