<svg width="15" height="17" viewBox="0 0 15 17" fill="none" xmlns="http://www.w3.org/2000/svg">
<path fill-rule="evenodd" clip-rule="evenodd" d="M7.04277 0C3.20046 0 0 3.19899 0 7.03983C0 8.29423 0.430831 9.53103 1.03311 10.6506C1.63833 11.776 2.43844 12.8253 3.2327 13.7192C3.92636 14.4957 4.67097 15.2251 5.46159 15.9026C5.77519 16.1679 6.04922 16.3833 6.2617 16.5372C6.36428 16.6104 6.46393 16.6778 6.54746 16.7277C6.62834 16.7763 6.71373 16.8171 6.80244 16.8493C6.99845 16.9124 7.21136 16.8967 7.39593 16.8053C7.44524 16.7817 7.49319 16.7552 7.53954 16.7262C7.62551 16.6744 7.72125 16.6099 7.82676 16.5328C8.03778 16.3789 8.31181 16.162 8.62541 15.8953C9.25261 15.359 10.0571 14.5999 10.8528 13.7031C11.6471 12.8062 12.4472 11.7541 13.051 10.633C13.6532 9.51638 14.0855 8.28397 14.0855 7.03983C14.0855 3.20046 10.8836 0 7.04277 0Z" fill="white"/>
<circle cx="7" cy="6" r="3" fill="#5389FF"/>
</svg>
