<svg width="18" height="18" viewBox="0 0 18 18" fill="none" xmlns="http://www.w3.org/2000/svg">
<path d="M9 0.5C4.30545 0.5 0.5 4.30545 0.5 9C0.5 13.6946 4.30545 17.5 9 17.5C13.6946 17.5 17.5 13.6946 17.5 9C17.5 4.30545 13.6946 0.5 9 0.5Z" stroke="white" stroke-linecap="round" stroke-linejoin="round"/>
<path d="M2.42969 14.3925C2.42969 14.3925 4.32434 11.9734 8.99934 11.9734C13.6743 11.9734 15.5698 14.3925 15.5698 14.3925M8.99934 8.99844C9.67564 8.99844 10.3242 8.72978 10.8025 8.25156C11.2807 7.77334 11.5493 7.12474 11.5493 6.44844C11.5493 5.77214 11.2807 5.12353 10.8025 4.64532C10.3242 4.1671 9.67564 3.89844 8.99934 3.89844C8.32304 3.89844 7.67443 4.1671 7.19622 4.64532C6.718 5.12353 6.44934 5.77214 6.44934 6.44844C6.44934 7.12474 6.718 7.77334 7.19622 8.25156C7.67443 8.72978 8.32304 8.99844 8.99934 8.99844Z" stroke="white" stroke-linecap="round" stroke-linejoin="round"/>
</svg>
