<svg width="21" height="21" viewBox="0 0 21 21" fill="none" xmlns="http://www.w3.org/2000/svg">
<path fill-rule="evenodd" clip-rule="evenodd" d="M2.92645 13.9312C2.78296 13.931 2.64258 13.973 2.52275 14.052C2.40292 14.1309 2.3089 14.2433 2.25236 14.3752L0.0586421 19.4968C0.011162 19.6082 -0.00795367 19.7297 0.00300557 19.8503C0.0139648 19.9709 0.0546571 20.087 0.121441 20.188C0.188226 20.289 0.279018 20.372 0.385696 20.4293C0.492374 20.4867 0.611608 20.5167 0.732731 20.5167H19.7538C19.8751 20.5168 19.9945 20.4868 20.1014 20.4294C20.2082 20.3719 20.2991 20.2888 20.3659 20.1876C20.4328 20.0863 20.4734 19.9701 20.4842 19.8493C20.495 19.7284 20.4757 19.6068 20.4279 19.4953L18.2327 14.3737C18.1761 14.2418 18.0821 14.1294 17.9623 14.0505C17.8424 13.9716 17.7021 13.9296 17.5586 13.9297L2.92645 13.9312Z" fill="#E9F0FF"/>
<path fill-rule="evenodd" clip-rule="evenodd" d="M10.242 0C6.39968 0 3.19922 3.19899 3.19922 7.03983C3.19922 8.29423 3.63005 9.53103 4.23233 10.6506C4.83755 11.776 5.63766 12.8253 6.43192 13.7192C7.12557 14.4957 7.87019 15.2251 8.66081 15.9026C8.9744 16.1679 9.24844 16.3833 9.46092 16.5372C9.5635 16.6104 9.66315 16.6778 9.74668 16.7277C9.82755 16.7763 9.91295 16.8171 10.0017 16.8493C10.1977 16.9124 10.4106 16.8967 10.5951 16.8053C10.6445 16.7817 10.6924 16.7552 10.7388 16.7262C10.8247 16.6744 10.9205 16.6099 11.026 16.5328C11.237 16.3789 11.511 16.162 11.8246 15.8953C12.4518 15.359 13.2563 14.5999 14.0521 13.7031C14.8463 12.8062 15.6464 11.7541 16.2502 10.633C16.8525 9.51638 17.2847 8.28397 17.2847 7.03983C17.2847 3.20046 14.0828 0 10.242 0Z" fill="#8FBFFA"/>
<path d="M10.2435 9.14323C10.8012 9.14323 11.3361 8.92168 11.7304 8.52732C12.1248 8.13295 12.3464 7.59808 12.3464 7.04036C12.3464 6.48265 12.1248 5.94778 11.7304 5.55342C11.3361 5.15905 10.8012 4.9375 10.2435 4.9375C9.68578 4.9375 9.1509 5.15905 8.75654 5.55342C8.36218 5.94778 8.14062 6.48265 8.14062 7.04036C8.14062 7.59808 8.36218 8.13295 8.75654 8.52732C9.1509 8.92168 9.68578 9.14323 10.2435 9.14323Z" fill="#2859C5"/>
</svg>
