<svg width="13" height="16" viewBox="0 0 13 16" fill="none" xmlns="http://www.w3.org/2000/svg">
<path d="M6.5 3.31037C5.88516 3.31037 5.28412 3.48834 4.7729 3.82178C4.26168 4.15521 3.86323 4.62914 3.62794 5.18362C3.39265 5.73811 3.33109 6.34824 3.45104 6.93688C3.57099 7.52552 3.86706 8.06622 4.30182 8.4906C4.73658 8.91498 5.2905 9.20399 5.89352 9.32108C6.49655 9.43817 7.12161 9.37807 7.68965 9.1484C8.25769 8.91872 8.7432 8.52978 9.08479 8.03076C9.42637 7.53174 9.6087 6.94505 9.6087 6.34488C9.60776 5.54036 9.27994 4.76905 8.69715 4.20017C8.11436 3.63128 7.32419 3.31128 6.5 3.31037ZM6.5 7.7242C6.22053 7.7242 5.94733 7.6433 5.71495 7.49174C5.48258 7.34018 5.30147 7.12476 5.19452 6.87272C5.08757 6.62068 5.05959 6.34335 5.11411 6.07579C5.16863 5.80822 5.30321 5.56245 5.50083 5.36955C5.69844 5.17665 5.95022 5.04528 6.22433 4.99206C6.49843 4.93884 6.78255 4.96615 7.04075 5.07055C7.29895 5.17495 7.51964 5.35174 7.6749 5.57857C7.83017 5.8054 7.91304 6.07207 7.91304 6.34488C7.91304 6.7107 7.76417 7.06153 7.49917 7.32021C7.23418 7.57888 6.87476 7.7242 6.5 7.7242ZM6.5 0C4.77667 0.00182551 3.12445 0.670888 1.90587 1.86039C0.68729 3.04989 0.00187014 4.66267 0 6.34488C0 11.6801 5.76804 15.6829 6.01391 15.8505C6.1564 15.9478 6.3261 16 6.5 16C6.6739 16 6.8436 15.9478 6.98609 15.8505C8.07856 15.0646 9.07807 14.1624 9.9662 13.1608C11.9508 10.9359 13 8.57731 13 6.34488C12.9981 4.66267 12.3127 3.04989 11.0941 1.86039C9.87555 0.670888 8.22333 0.00182551 6.5 0ZM8.71141 12.0491C8.03777 12.8044 7.29782 13.5008 6.5 14.1305C5.70218 13.5008 4.96223 12.8044 4.28859 12.0491C3.1087 10.7153 1.69565 8.64214 1.69565 6.34488C1.69565 5.10109 2.20182 3.90825 3.10281 3.02876C4.0038 2.14928 5.22581 1.65519 6.5 1.65519C7.77419 1.65519 8.9962 2.14928 9.89719 3.02876C10.7982 3.90825 11.3043 5.10109 11.3043 6.34488C11.3043 8.64214 9.8913 10.7153 8.71141 12.0491Z" fill="#09486C"/>
</svg>
