<svg width="33" height="33" viewBox="0 0 33 33" fill="none" xmlns="http://www.w3.org/2000/svg">
<rect x="0.5" y="0.5" width="32" height="32" rx="4.5" fill="white" stroke="black"/>
<path d="M26 15.9995H13.3111M8.83222 15.9995H7M8.83222 15.9995C8.83222 15.4073 9.0681 14.8394 9.48798 14.4207C9.90786 14.002 10.4773 13.7668 11.0711 13.7668C11.6649 13.7668 12.2344 14.002 12.6543 14.4207C13.0742 14.8394 13.3101 15.4073 13.3101 15.9995C13.3101 16.5916 13.0742 17.1595 12.6543 17.5783C12.2344 17.997 11.6649 18.2322 11.0711 18.2322C10.4773 18.2322 9.90786 17.997 9.48798 17.5783C9.0681 17.1595 8.83222 16.5916 8.83222 15.9995ZM26 22.7663H20.0966M20.0966 22.7663C20.0966 23.3585 19.8602 23.9271 19.4402 24.3459C19.0202 24.7647 18.4506 25 17.8567 25C17.2629 25 16.6934 24.7637 16.2735 24.345C15.8537 23.9263 15.6178 23.3584 15.6178 22.7663M20.0966 22.7663C20.0966 22.174 19.8602 21.6065 19.4402 21.1876C19.0202 20.7688 18.4506 20.5335 17.8567 20.5335C17.2629 20.5335 16.6934 20.7688 16.2735 21.1875C15.8537 21.6062 15.6178 22.1741 15.6178 22.7663M15.6178 22.7663H7M26 9.23272H22.8111M18.3322 9.23272H7M18.3322 9.23272C18.3322 8.64056 18.5681 8.07266 18.988 7.65395C19.4079 7.23523 19.9773 7 20.5711 7C20.8652 7 21.1563 7.05775 21.4279 7.16996C21.6996 7.28216 21.9464 7.44662 22.1543 7.65395C22.3622 7.86127 22.5271 8.10741 22.6396 8.37829C22.7521 8.64918 22.8101 8.93951 22.8101 9.23272C22.8101 9.52592 22.7521 9.81626 22.6396 10.0871C22.5271 10.358 22.3622 10.6042 22.1543 10.8115C21.9464 11.0188 21.6996 11.1833 21.4279 11.2955C21.1563 11.4077 20.8652 11.4654 20.5711 11.4654C19.9773 11.4654 19.4079 11.2302 18.988 10.8115C18.5681 10.3928 18.3322 9.82487 18.3322 9.23272Z" stroke="black" stroke-miterlimit="10" stroke-linecap="round"/>
</svg>
