<svg width="16" height="16" viewBox="0 0 16 16" fill="none" xmlns="http://www.w3.org/2000/svg">
<path fill-rule="evenodd" clip-rule="evenodd" d="M10.8683 0.200548C10.7397 0.0721306 10.5654 0 10.3837 0C10.202 0 10.0277 0.0721306 9.89909 0.200548L1.49372 8.605C1.40778 8.69099 1.34625 8.79827 1.31543 8.91587L0.401103 12.4177C0.37092 12.5335 0.371529 12.6551 0.402868 12.7705C0.434207 12.8859 0.495187 12.9911 0.579755 13.0757C0.664323 13.1602 0.769538 13.2212 0.884957 13.2526C1.00037 13.2839 1.12198 13.2845 1.23771 13.2543L4.73773 12.34C4.85575 12.3091 4.96338 12.2472 5.04952 12.1608L13.454 3.75635C13.5824 3.62777 13.6545 3.45348 13.6545 3.27176C13.6545 3.09003 13.5824 2.91574 13.454 2.78717L10.8683 0.200548ZM2.59456 9.44343L10.3837 1.65523L11.9993 3.27084L4.21108 11.06L2.02311 11.6314L2.59456 9.44343Z" fill="black"/>
<path d="M0.685742 14.6289C0.503872 14.6289 0.329451 14.7012 0.200849 14.8298C0.0722475 14.9584 0 15.1328 0 15.3146C0 15.4965 0.0722475 15.6709 0.200849 15.7995C0.329451 15.9281 0.503872 16.0004 0.685742 16.0004H14.4006C14.5824 16.0004 14.7569 15.9281 14.8855 15.7995C15.0141 15.6709 15.0863 15.4965 15.0863 15.3146C15.0863 15.1328 15.0141 14.9584 14.8855 14.8298C14.7569 14.7012 14.5824 14.6289 14.4006 14.6289H0.685742Z" fill="black"/>
</svg>
