<svg width="19" height="19" viewBox="0 0 19 19" fill="none" xmlns="http://www.w3.org/2000/svg">
<path d="M9.5 1C4.80545 1 1 4.80545 1 9.5C1 14.1946 4.80545 18 9.5 18C14.1946 18 18 14.1946 18 9.5C18 4.80545 14.1946 1 9.5 1Z" stroke="black" stroke-linecap="round" stroke-linejoin="round"/>
<path d="M2.93018 14.8945C2.93018 14.8945 4.82483 12.4754 9.49983 12.4754C14.1748 12.4754 16.0703 14.8945 16.0703 14.8945M9.49983 9.50039C10.1761 9.50039 10.8247 9.23173 11.3029 8.75351C11.7812 8.2753 12.0498 7.62669 12.0498 6.95039C12.0498 6.27409 11.7812 5.62549 11.3029 5.14727C10.8247 4.66905 10.1761 4.40039 9.49983 4.40039C8.82352 4.40039 8.17492 4.66905 7.6967 5.14727C7.21849 5.62549 6.94983 6.27409 6.94983 6.95039C6.94983 7.62669 7.21849 8.2753 7.6967 8.75351C8.17492 9.23173 8.82352 9.50039 9.49983 9.50039Z" stroke="black" stroke-linecap="round" stroke-linejoin="round"/>
</svg>
