<svg width="17" height="17" viewBox="0 0 17 17" fill="none" xmlns="http://www.w3.org/2000/svg">
<g clip-path="url(#clip0_967_23789)">
<path fill-rule="evenodd" clip-rule="evenodd" d="M8.50033 0.886719C8.57703 0.88667 8.65284 0.903233 8.72254 0.935269C8.79223 0.967305 8.85416 1.01405 8.90407 1.0723L11.0291 3.55147C11.1208 3.65855 11.1661 3.79766 11.1552 3.93821C11.1444 4.07875 11.0781 4.20921 10.971 4.30089C10.8639 4.39256 10.7248 4.43795 10.5843 4.42705C10.4437 4.41616 10.3133 4.34988 10.2216 4.2428L9.03158 2.85447V10.6263C9.03158 10.7672 8.9756 10.9023 8.87598 11.002C8.77635 11.1016 8.64122 11.1576 8.50033 11.1576C8.35943 11.1576 8.2243 11.1016 8.12468 11.002C8.02505 10.9023 7.96908 10.7672 7.96908 10.6263V2.85376L6.77908 4.2428C6.73368 4.29582 6.67829 4.33938 6.61606 4.371C6.55383 4.40261 6.48599 4.42166 6.4164 4.42705C6.34681 4.43245 6.27684 4.42408 6.21048 4.40243C6.14412 4.38078 6.08268 4.34628 6.02966 4.30089C5.97664 4.25549 5.93308 4.2001 5.90146 4.13787C5.86985 4.07564 5.8508 4.0078 5.84541 3.93821C5.84001 3.86862 5.84838 3.79865 5.87003 3.73229C5.89168 3.66593 5.92618 3.60449 5.97158 3.55147L8.09658 1.0723C8.14649 1.01405 8.20842 0.967305 8.27811 0.935269C8.34781 0.903233 8.42362 0.88667 8.50033 0.886719ZM4.95583 5.84647C5.09672 5.84572 5.23215 5.90097 5.33231 6.00006C5.43247 6.09916 5.48916 6.23399 5.48991 6.37489C5.49066 6.51578 5.43541 6.65121 5.33631 6.75137C5.23722 6.85153 5.10239 6.90822 4.96149 6.90897C4.18728 6.91322 3.63833 6.93305 3.22112 7.00955C2.8202 7.08393 2.58716 7.20222 2.41503 7.37434C2.21883 7.57055 2.09133 7.84609 2.0212 8.36601C1.94966 8.9008 1.94824 9.60984 1.94824 10.6263V11.3346C1.94824 12.3518 1.94966 13.0608 2.0212 13.5956C2.09133 14.1156 2.21953 14.3904 2.41503 14.5873C2.61124 14.7828 2.88608 14.9103 3.4067 14.9804C3.94078 15.0527 4.65053 15.0534 5.66699 15.0534H11.3337C12.3501 15.0534 13.0592 15.0527 13.5947 14.9804C14.1146 14.9103 14.3894 14.7828 14.5856 14.5866C14.7818 14.3904 14.9093 14.1156 14.9795 13.5956C15.051 13.0608 15.0524 12.3518 15.0524 11.3346V10.6263C15.0524 9.60984 15.051 8.9008 14.9795 8.3653C14.9093 7.84609 14.7811 7.57055 14.5856 7.37434C14.4128 7.20222 14.1805 7.08393 13.7795 7.00955C13.3623 6.93305 12.8134 6.91322 12.0392 6.90897C11.9694 6.9086 11.9004 6.89449 11.8361 6.86744C11.7718 6.8404 11.7134 6.80096 11.6643 6.75137C11.6153 6.70177 11.5765 6.643 11.5501 6.5784C11.5237 6.5138 11.5104 6.44465 11.5107 6.37489C11.5111 6.30512 11.5252 6.23611 11.5523 6.1718C11.5793 6.10749 11.6188 6.04913 11.6683 6.00006C11.7179 5.951 11.7767 5.91218 11.8413 5.88582C11.9059 5.85947 11.9751 5.8461 12.0448 5.84647C12.8112 5.85072 13.4495 5.86913 13.9715 5.96476C14.5084 6.06393 14.9653 6.25164 15.3372 6.62351C15.7636 7.04922 15.9463 7.58684 16.0327 8.22434C16.1149 8.83776 16.1149 9.61905 16.1149 10.5873V11.3736C16.1149 12.3426 16.1149 13.1232 16.0327 13.7373C15.9463 14.3748 15.7636 14.9117 15.3372 15.3381C14.9107 15.7646 14.3738 15.9473 13.7363 16.0337C13.1222 16.1159 12.3409 16.1159 11.3726 16.1159H5.62803C4.65974 16.1159 3.87845 16.1159 3.26433 16.0337C2.62683 15.948 2.08991 15.7646 1.66349 15.3381C1.23708 14.9117 1.05433 14.3748 0.968617 13.7373C0.885742 13.1232 0.885742 12.3419 0.885742 11.3736V10.5873C0.885742 9.61905 0.885742 8.83776 0.968617 8.22364C1.05362 7.58614 1.23778 7.04922 1.66349 6.6228C2.03537 6.25164 2.49224 6.06322 3.02916 5.96476C3.5512 5.86913 4.18941 5.85072 4.95583 5.84647Z" fill="#0981B5"/>
</g>
<defs>
<clipPath id="clip0_967_23789">
<rect width="17" height="17" fill="white"/>
</clipPath>
</defs>
</svg>
